<?xml version="1.0" encoding="utf-8"?>
<!-- Generator: Adobe Illustrator 15.1.0, SVG Export Plug-In  -->
<!DOCTYPE svg PUBLIC "-//W3C//DTD SVG 1.1//EN" "http://www.w3.org/Graphics/SVG/1.1/DTD/svg11.dtd" [
	<!ENTITY ns_flows "http://ns.adobe.com/Flows/1.0/">
]>
<svg version="1.1"
	 xmlns="http://www.w3.org/2000/svg" xmlns:xlink="http://www.w3.org/1999/xlink" xmlns:a="http://ns.adobe.com/AdobeSVGViewerExtensions/3.0/"
	 x="0px" y="0px" width="100px" height="100px" viewBox="0 -4 100 100" enable-background="new 0 -4 100 100" xml:space="preserve">
<defs>
</defs>
<path d="M50.002,12.678c-15.267,0-27.697,14.215-27.697,31.699v15.396c0,17.471,12.43,31.699,27.697,31.699
	c10.6,0,19.811-6.838,24.479-16.854c-3.431,1.526-7.123,2.353-10.895,2.353h-8.057c-2.293,0-4.146-2.127-4.146-4.756
	c0-2.621,1.854-4.755,4.146-4.755h8.057c5.209,0,10.189-2.155,14.064-5.957c0.035-0.567,0.051-1.149,0.051-1.728V44.376
	C77.706,26.893,65.284,12.678,50.002,12.678z"/>
<path d="M89.021,39.374h-0.494C86.355,17.251,69.906,0,49.998,0C30.1,0,13.65,17.248,11.473,39.374h-0.484
	C4.93,39.374,0,45.014,0,51.95c0,6.929,4.93,12.575,10.988,12.575h4.395c2.294,0,4.154-2.125,4.154-4.748V44.384
	c0-19.224,13.668-34.873,30.468-34.873c16.808,0,30.468,15.642,30.468,34.873v13.808c-0.857,1.209-1.791,2.322-2.804,3.324
	c-0.231,4.729-1.354,9.16-3.188,13.125c4.696-2.104,8.924-5.563,12.196-10.093h2.345c6.06,0,10.988-5.646,10.988-12.575
	C100.012,45.014,95.081,39.374,89.021,39.374z"/>
</svg>
