<?xml version="1.0" encoding="utf-8"?>
<!-- Generator: Adobe Illustrator 15.1.0, SVG Export Plug-In  -->
<!DOCTYPE svg PUBLIC "-//W3C//DTD SVG 1.1//EN" "http://www.w3.org/Graphics/SVG/1.1/DTD/svg11.dtd" [
	<!ENTITY ns_flows "http://ns.adobe.com/Flows/1.0/">
]>
<svg version="1.1"
	 xmlns="http://www.w3.org/2000/svg" xmlns:xlink="http://www.w3.org/1999/xlink" xmlns:a="http://ns.adobe.com/AdobeSVGViewerExtensions/3.0/"
	 x="0px" y="0px" width="512px" height="512px" viewBox="0 0 512 512" enable-background="new 0 0 512 512" xml:space="preserve">
<defs>
</defs>
<path fill="#00AFEB" d="M512,70.92c0-1.698-0.443-3.26-1.118-4.702c-0.23-1.784-0.955-3.516-2.167-4.941L456.192,0H55.808
	L3.277,61.287c-1.212,1.417-1.937,3.14-2.159,4.932C0.444,67.661,0,69.223,0,70.92v91.213h25.6V512h460.8V162.133H512V70.92z
	 M63.659,17.067h384.683l36.573,42.667H27.085L63.659,17.067z M469.333,494.934H42.667v-332.8h426.667V494.934z M494.934,145.067
	H486.4H25.6h-8.533V76.8h477.867V145.067z"/>
<path fill="#00AFEB" d="M358.4,196.267H153.6V281.6h204.8V196.267z M341.334,264.533H170.667v-51.2h170.667V264.533z"/>
<path fill="#00AFEB" d="M384,324.267H128v119.467h256V324.267z M366.934,426.667H145.067v-85.334h221.867V426.667z"/>
<path fill="#00AFEB" d="M187.733,409.6H230.4c4.71,0,8.534-3.814,8.534-8.533s-3.823-8.533-8.534-8.533h-42.667
	c-4.71,0-8.533,3.814-8.533,8.533S183.023,409.6,187.733,409.6z"/>
<path fill="#00AFEB" d="M230.4,375.467h93.867c4.71,0,8.533-3.814,8.533-8.533s-3.823-8.533-8.533-8.533H230.4
	c-4.71,0-8.533,3.814-8.533,8.533S225.689,375.467,230.4,375.467z"/>
<path fill="#00AFEB" d="M187.733,375.467c2.219,0,4.438-0.938,6.059-2.475c1.536-1.621,2.475-3.84,2.475-6.059
	c0-2.228-0.938-4.446-2.475-6.059c-3.243-3.157-8.875-3.157-12.117,0c-1.536,1.612-2.475,3.831-2.475,6.059
	c0,2.304,0.938,4.438,2.475,6.059C183.296,374.528,185.429,375.467,187.733,375.467z"/>
<path fill="#00AFEB" d="M267.008,395.008c-1.535,1.613-2.475,3.832-2.475,6.059c0,2.219,0.939,4.438,2.475,6.059
	c1.621,1.536,3.84,2.475,6.059,2.475s4.438-0.938,6.059-2.475c1.536-1.621,2.475-3.84,2.475-6.059c0-2.227-0.938-4.445-2.475-6.059
	C275.968,391.851,270.166,391.851,267.008,395.008z"/>
<path fill="#00AFEB" d="M324.267,392.533h-8.533c-4.71,0-8.533,3.814-8.533,8.533s3.823,8.533,8.533,8.533h8.533
	c4.71,0,8.533-3.814,8.533-8.533S328.977,392.533,324.267,392.533z"/>
</svg>
