<?xml version="1.0" encoding="utf-8"?>
<!-- Generator: Adobe Illustrator 15.1.0, SVG Export Plug-In  -->
<!DOCTYPE svg PUBLIC "-//W3C//DTD SVG 1.1//EN" "http://www.w3.org/Graphics/SVG/1.1/DTD/svg11.dtd" [
	<!ENTITY ns_flows "http://ns.adobe.com/Flows/1.0/">
]>
<svg version="1.1"
	 xmlns="http://www.w3.org/2000/svg" xmlns:xlink="http://www.w3.org/1999/xlink" xmlns:a="http://ns.adobe.com/AdobeSVGViewerExtensions/3.0/"
	 x="0px" y="0px" width="200px" height="200px" viewBox="-1.579 -1.399 200 200" enable-background="new -1.579 -1.399 200 200"
	 xml:space="preserve">
<defs>
</defs>
<path fill="#FFFFFF" d="M104.728,102.674H90.354v20.535h14.374c5.66,0,10.268-4.608,10.268-10.269
	C114.995,107.282,110.388,102.674,104.728,102.674z"/>
<path fill="#FFFFFF" d="M110.889,84.193c0-5.661-4.608-10.268-10.269-10.268H90.354V94.46h10.267
	C106.28,94.46,110.889,89.854,110.889,84.193z"/>
<path fill="#FFFFFF" d="M98.567,0C44.214,0,0,44.214,0,98.567s44.214,98.567,98.567,98.567c54.354,0,98.567-44.214,98.567-98.567
	S152.921,0,98.567,0z M98.567,172.492c-40.762,0-73.926-33.163-73.926-73.924c0-40.762,33.164-73.925,73.926-73.925
	s73.925,33.164,73.925,73.925C172.492,139.329,139.329,172.492,98.567,172.492z"/>
<path fill="#FFFFFF" d="M98.567,32.855c-36.231,0-65.712,29.481-65.712,65.712c0,36.23,29.48,65.71,65.712,65.71
	c36.23,0,65.711-29.48,65.711-65.71C164.278,62.336,134.798,32.855,98.567,32.855z M110.889,130.289v5.241
	c0,2.272-1.835,4.108-4.107,4.108c-2.271,0-4.106-1.836-4.106-4.108v-4.105H94.46v4.105c0,2.272-1.835,4.108-4.107,4.108
	c-2.272,0-4.107-1.836-4.107-4.108v-4.105h-8.214c-2.271,0-4.107-1.836-4.107-4.107c0-2.272,1.835-4.107,4.107-4.107h4.107V73.926
	h-4.107c-2.271,0-4.107-1.835-4.107-4.107c0-2.272,1.835-4.107,4.107-4.107h8.214v-4.107c0-2.272,1.835-4.107,4.107-4.107
	c2.272,0,4.107,1.835,4.107,4.107v4.107h6.16c0.707,0,1.374,0.128,2.055,0.205v-4.312c0-2.272,1.835-4.107,4.106-4.107
	c2.272,0,4.107,1.835,4.107,4.107v7.238c4.947,3.318,8.214,8.958,8.214,15.35c0,4.941-1.951,9.433-5.121,12.757
	c5.513,3.203,9.229,9.169,9.229,15.991C123.21,120.963,118.037,127.741,110.889,130.289z"/>
</svg>
