<?xml version="1.0" encoding="utf-8"?>
<!-- Generator: Adobe Illustrator 15.1.0, SVG Export Plug-In  -->
<!DOCTYPE svg PUBLIC "-//W3C//DTD SVG 1.1//EN" "http://www.w3.org/Graphics/SVG/1.1/DTD/svg11.dtd" [
	<!ENTITY ns_flows "http://ns.adobe.com/Flows/1.0/">
]>
<svg version="1.1"
	 xmlns="http://www.w3.org/2000/svg" xmlns:xlink="http://www.w3.org/1999/xlink" xmlns:a="http://ns.adobe.com/AdobeSVGViewerExtensions/3.0/"
	 x="0px" y="0px" width="512px" height="512px" viewBox="0 -59.217 512 512" enable-background="new 0 -59.217 512 512"
	 xml:space="preserve">
<defs>
</defs>
<path fill="#00AFEB" d="M469.256,116.286h-52.1V42.744C417.156,19.175,397.981,0,374.412,0H42.744C19.175,0.001,0,19.176,0,42.745
	v191.786c0,23.569,19.175,42.744,42.744,42.744h52.102v73.546c0,23.569,19.175,42.744,42.744,42.744h331.666
	c23.569,0,42.744-19.175,42.744-42.744V159.03C512,135.461,492.825,116.286,469.256,116.286z M24.425,42.745
	c0-10.101,8.218-18.319,18.319-18.319h331.668c10.102,0,18.318,8.218,18.318,18.319v17.051H24.425V42.745z M94.846,159.03v93.819
	H42.744c-10.101,0-18.319-8.219-18.319-18.319v-93.743h74.52C96.32,146.323,94.846,152.508,94.846,159.03z M24.425,116.362v-32.14
	H392.73v32.064H137.59c-0.826,0-1.644,0.029-2.458,0.076H24.425z M469.256,369.141H137.59c-10.101,0-18.319-8.219-18.319-18.319
	V159.03c0-9.597,7.422-17.479,16.824-18.243H404.94c0.45,0,0.894-0.028,1.331-0.076h62.983c10.102,0,18.319,8.218,18.319,18.319
	v191.791h0.001C487.575,360.922,479.357,369.141,469.256,369.141z"/>
<path fill="#00AFEB" d="M340.211,196.055c-13.893,0-26.666,4.847-36.745,12.923c-10.333-8.323-23.209-12.93-36.829-12.93
	c-32.465,0-58.877,26.412-58.877,58.876c0,32.466,26.412,58.878,58.877,58.878c13.621,0,26.496-4.607,36.829-12.93
	c10.079,8.077,22.853,12.925,36.745,12.925c32.462,0,58.871-26.409,58.871-58.872C399.082,222.465,372.673,196.055,340.211,196.055z
	 M287.953,281.984c-6.01,4.758-13.451,7.392-21.316,7.392c-18.998,0.001-34.453-15.454-34.453-34.45s15.455-34.451,34.453-34.451
	c7.865,0,15.307,2.635,21.316,7.392c-4.217,8.108-6.613,17.306-6.613,27.058C281.34,264.677,283.738,273.875,287.953,281.984z
	 M340.211,289.372c-18.993,0-34.445-15.453-34.445-34.447c0-18.993,15.453-34.444,34.445-34.444
	c18.993,0,34.445,15.453,34.445,34.444C374.656,273.92,359.204,289.372,340.211,289.372z"/>
</svg>
