<?xml version="1.0" encoding="utf-8"?>
<!-- Generator: Adobe Illustrator 15.1.0, SVG Export Plug-In  -->
<!DOCTYPE svg PUBLIC "-//W3C//DTD SVG 1.1//EN" "http://www.w3.org/Graphics/SVG/1.1/DTD/svg11.dtd" [
	<!ENTITY ns_flows "http://ns.adobe.com/Flows/1.0/">
]>
<svg version="1.1"
	 xmlns="http://www.w3.org/2000/svg" xmlns:xlink="http://www.w3.org/1999/xlink" xmlns:a="http://ns.adobe.com/AdobeSVGViewerExtensions/3.0/"
	 x="0px" y="0px" width="512px" height="512px" viewBox="-59.752 -0.001 512 512" enable-background="new -59.752 -0.001 512 512"
	 xml:space="preserve">
<defs>
</defs>
<path fill="#00AFEB" d="M376.147,131.639c-20.775-50.156-58.989-89.725-108.087-112.2l3.459-8.353
	c1.694-4.091-0.248-8.78-4.34-10.474c-4.089-1.694-8.779,0.249-10.474,4.34L240.15,44.927
	c-42.146-15.328-87.833-14.365-129.529,2.906c-44.183,18.302-78.594,52.712-96.895,96.895c-18.3,44.183-18.302,92.848,0,137.031
	c17.274,41.704,48.907,74.695,89.558,93.656l-10.086,24.355c-0.001,0.003-0.003,0.006-0.005,0.011s-0.002,0.007-0.004,0.011
	l-6.468,15.618c-1.694,4.091,0.248,8.78,4.34,10.474c1.003,0.416,2.042,0.612,3.065,0.612c3.146,0,6.131-1.864,7.41-4.951
	l3.467-8.372c15.998,5.948,32.432,9.927,49.016,11.918v36.669h-46.557c-6.316,0-11.994,3.509-14.818,9.158l-14.739,29.479
	c-1.243,2.484-1.111,5.436,0.351,7.8c1.461,2.362,4.042,3.802,6.82,3.802h188.125c2.777,0,5.357-1.439,6.82-3.802
	c1.461-2.363,1.594-5.314,0.351-7.8l-14.739-29.479c-2.824-5.648-8.503-9.157-14.818-9.157h-46.557v-36.669
	c19.176-2.303,38.155-7.243,56.486-14.836c52.624-21.797,93.609-62.782,115.407-115.406
	C397.945,242.225,397.945,184.263,376.147,131.639z M64.757,96.995c14.602-14.365,31.956-25.952,51.409-34.096l1.894,3.976
	c3.3,6.925,11.62,9.878,18.546,6.578l4.842-2.307c3.494-1.665,7.397-1.971,11.082-0.885l-0.655,1.848v0.001l-1.971,5.557
	c-1.48,4.173,0.702,8.755,4.875,10.236c0.886,0.314,1.79,0.463,2.68,0.463c3.299,0,6.39-2.052,7.555-5.339l0.05-0.143l24.068,0.333
	l13.674,4.85c-2.254,1.146-4.174,2.945-5.461,5.242c-2.522,4.501-2.146,10.074,0.957,14.197l9.152,12.162l-0.297,0.27l-7.188-2.549
	c-3.501-1.242-7.279-1.046-10.637,0.552c-0.098,0.047-0.197,0.096-0.293,0.148l-59.57,31.433l-8.047-2.854
	c-6.472-2.296-13.451-1.934-19.651,1.021c-5.588,2.662-9.923,7.153-12.408,12.75l-5.815-3.472c-2.582-1.541-4.276-4.138-4.643-7.123
	l-0.977-7.914c-0.372-3.013-2.415-5.558-5.276-6.574l-3.914-1.388c-2.786-0.988-4.62-3.637-4.563-6.592L64.757,96.995z
	 M28.538,275.624c-16.662-40.227-16.662-84.533,0-124.759c5.225-12.613,11.891-24.35,19.823-35.036l-0.215,11.24
	c-0.183,9.595,5.603,18.226,14.476,21.725l0.372,3.013c0.979,7.931,5.476,14.83,12.337,18.925l22.061,13.17
	c0.642,0.384,1.152,0.944,1.474,1.62l0.886,1.859c1.069,2.245,2.52,4.232,4.274,5.89l-8.714,11.168
	c-0.53,0.68-0.947,1.44-1.236,2.252l-4.971,14.017c-2.395,6.754-1.457,14.35,2.509,20.319l12.347,18.582
	c1.188,1.787,1.469,4.063,0.751,6.086l-6.628,18.686c-3.015,8.504-4.272,17.383-3.734,26.388l1.283,21.483
	c0.357,5.972,4.203,11.199,9.84,13.334c1.755,0.665,3.579,0.996,5.397,0.996c2.177,0,4.347-0.475,6.387-1.419
	c3.742-1.734,6.563-4.83,7.942-8.718l5.965-16.822l10.064-2.54c5.992-1.512,11.243-5.135,14.783-10.2l8.115-11.611l3.068,1.088
	c6.694,2.375,14.114-0.102,18.042-6.021l8.203-12.364c4.964-7.481,5.649-17.164,1.787-25.271l-1.585-3.33
	c-2.954-6.201-8.145-10.878-14.617-13.174l-2.505-0.888c-0.951-0.338-1.713-1.024-2.147-1.937l-10.737-22.539
	c-4.308-9.044-11.881-15.869-21.323-19.218l-25.935-9.198c-0.951-0.338-1.715-1.025-2.148-1.937l-0.886-1.859
	c-1.688-3.542-4.361-6.479-7.73-8.49l-2.293-1.369l0.392-1.104c0.864-2.436,2.625-4.39,4.958-5.502
	c2.333-1.112,4.959-1.248,7.397-0.384l3.387,1.201c-0.781,3.741,1.203,7.614,4.875,9.077c0.974,0.388,1.977,0.572,2.964,0.572
	c3.185,0,6.198-1.912,7.45-5.052l1.366-3.429l59.385-31.335l7.503,2.661c4.849,1.72,10.222,0.635,14.021-2.827l2.664-2.425
	c5.338-4.863,6.09-12.883,1.748-18.653l-6.203-8.243l12.451,1.197c3.668,0.353,7.094-1.834,8.322-5.3l2.486-7.009
	c0.711-2.004,0.596-4.208-0.317-6.128c-0.914-1.92-2.554-3.397-4.558-4.108l-40.363-14.312c-0.825-0.293-1.692-0.448-2.569-0.461
	l-20.041-0.278c0.77-3.844-1.381-7.77-5.184-9.119l-6.74-2.391c-4.28-1.518-8.739-2.082-13.133-1.722
	c11.083-2.356,22.318-3.546,33.555-3.546c21.133,0,42.266,4.165,62.379,12.496c30.137,12.484,55.282,33.203,73.006,59.726
	l-5.131,2.444c-3.726,1.775-6.537,4.896-7.916,8.785l-4.189,11.809c-0.729,2.053-2.213,3.699-4.178,4.637
	c-1.073,0.511-2.262,0.784-3.45,0.793l-12.009-1.004c-8.963-0.75-17.318,4.648-20.323,13.121l-2.875,8.106
	c-1.257,3.546-1.418,7.21-0.698,10.647c-3.609,1.472-6.914,3.774-9.619,6.851l-8.732,9.929c-3.551,4.038-6.262,8.655-8.06,13.724
	c-4.403,12.417-2.68,26.38,4.611,37.352l0.61,0.919c5.006,7.534,12.457,13.348,20.979,16.37l0.419,0.149
	c5.029,1.783,7.669,7.326,5.885,12.354l-6.621,18.664c-2.513,7.086-3.541,14.482-3.061,21.985l1.501,23.4
	c0.313,4.892,2.017,9.498,4.771,13.361c-4.822,2.586-9.797,4.948-14.922,7.071c-40.224,16.662-84.532,16.662-124.759,0
	C76.53,347.18,45.201,315.85,28.538,275.624z M117.315,250.735l-12.347-18.581c-1.188-1.788-1.469-4.064-0.751-6.086l4.536-12.791
	l10.112-12.959l18.085,6.414c5.405,1.918,9.741,5.824,12.207,11.002l10.737,22.538c2.276,4.778,6.275,8.383,11.264,10.153
	l2.505,0.888c2.436,0.864,4.39,2.625,5.5,4.958l1.585,3.33c1.454,3.051,1.196,6.695-0.672,9.512l-7.953,11.984l-3.067-1.088
	c-6.279-2.227-13.25-0.193-17.348,5.059c-0.087,0.11-0.17,0.223-0.25,0.338l-8.591,12.293c-1.333,1.906-3.308,3.27-5.564,3.839
	l-14.224,3.589c-2.6,0.656-4.699,2.568-5.595,5.093l-6.083,17.155l-1.049-17.563c-0.409-6.851,0.546-13.604,2.84-20.073
	l6.628-18.686C122.22,264.3,121.282,256.705,117.315,250.735z M273.937,265.067c-2.953-6.2-8.145-10.878-14.613-13.173l-0.419-0.149
	c-5.277-1.872-9.888-5.47-12.987-10.133l-0.611-0.919c-4.513-6.792-5.58-15.435-2.854-23.12c1.113-3.137,2.791-5.994,4.988-8.494
	l8.732-9.929c2.629-2.989,6.75-4.06,10.501-2.73l12.823,4.548c4.674,1.658,8.813,4.557,11.967,8.383l8.758,10.621
	c6.144,7.45,16.161,10.736,25.524,8.375l4.931-1.244c1.86-0.468,3.797-0.378,5.603,0.263l5.154,1.829
	c-1.569,15.763-5.469,31.382-11.702,46.429c-12.44,30.035-33.06,55.106-59.45,72.818c-1.517-1.637-2.47-3.764-2.616-6.059
	l-1.501-23.399c-0.341-5.323,0.39-10.571,2.172-15.6l6.621-18.665C277.253,278.246,276.892,271.267,273.937,265.067z
	 M326.754,211.557l-4.931,1.244c-3.385,0.854-7.012-0.333-9.233-3.029l-8.757-10.62c-1.703-2.064-3.598-3.943-5.633-5.648
	l5.841-6.022l37.908,16.497c0.165,2.826,0.255,5.653,0.269,8.482l-0.58-0.205C336.837,210.552,331.693,210.312,326.754,211.557z
	 M305.353,170.566c-3.062-1.332-6.629-0.627-8.953,1.769l-11.025,11.367c-1.025,1.058-2.587,1.423-3.977,0.93l-9.537-3.383
	c-1.965-0.697-2.995-2.861-2.299-4.825l2.875-8.106c0.572-1.616,2.183-2.644,3.875-2.502l12.311,1.029
	c0.172,0.014,0.343,0.024,0.516,0.027c3.756,0.077,7.49-0.741,10.863-2.347c5.834-2.779,10.236-7.663,12.395-13.752l4.109-11.582
	l6.295-2.998c2.532,4.745,4.848,9.639,6.934,14.675c4.684,11.307,8.05,22.936,10.101,34.707L305.353,170.566z M250.81,477.794
	c0.205,0.001,0.389,0.114,0.479,0.295l8.938,17.876H98.044l8.937-17.876c0.09-0.178,0.277-0.295,0.478-0.295H250.81z
	 M170.048,461.762v-35.364c3.027,0.131,6.056,0.208,9.086,0.208c3.03,0,6.058-0.077,9.086-0.208v35.364H170.048z M361.333,288.714
	c-20.158,48.667-58.063,86.571-106.73,106.73c-46.189,19.133-96.822,20.093-143.465,2.907l6.956-16.799
	c19.826,7.214,40.429,10.83,61.04,10.829c23.209-0.001,46.427-4.576,68.515-13.726c44.184-18.302,78.595-52.712,96.896-96.896
	c18.3-44.183,18.302-92.848,0-137.031c-17.278-41.712-48.92-74.708-89.583-93.668l6.957-16.799
	c45.145,20.828,80.278,57.315,99.413,103.514C381.493,186.442,381.492,240.046,361.333,288.714z"/>
<path fill="#00AFEB" d="M295.968,122.065c-3.132-3.131-8.207-3.131-11.338,0l-8.551,8.551c-3.131,3.131-3.131,8.206,0,11.337
	c1.566,1.565,3.617,2.348,5.668,2.348s4.104-0.782,5.668-2.348l8.551-8.551C299.099,130.271,299.099,125.196,295.968,122.065z"/>
</svg>
