<?xml version="1.0" encoding="utf-8"?>
<!-- Generator: Adobe Illustrator 15.1.0, SVG Export Plug-In  -->
<!DOCTYPE svg PUBLIC "-//W3C//DTD SVG 1.1//EN" "http://www.w3.org/Graphics/SVG/1.1/DTD/svg11.dtd" [
	<!ENTITY ns_flows "http://ns.adobe.com/Flows/1.0/">
]>
<svg version="1.1"
	 xmlns="http://www.w3.org/2000/svg" xmlns:xlink="http://www.w3.org/1999/xlink" xmlns:a="http://ns.adobe.com/AdobeSVGViewerExtensions/3.0/"
	 x="0px" y="0px" width="512px" height="512px" viewBox="-64.424 0 512 512" enable-background="new -64.424 0 512 512"
	 xml:space="preserve">
<defs>
</defs>
<path fill="#00AFEB" d="M355.473,223.125h-7.529v-66.704C347.944,70.204,277.845,0,191.522,0
	C105.306,0,35.102,70.098,35.102,156.421c0,7.954,6.363,14.316,14.317,14.316s14.316-6.363,14.316-14.316
	c0-70.416,57.266-127.788,127.788-127.788c70.417,0,127.788,57.266,127.788,127.788v66.704H27.678
	C12.408,223.125,0,235.533,0,250.804V429.07C0,474.777,37.223,512,82.93,512h217.292c45.706,0,82.93-37.223,82.93-82.93V250.804
	C383.152,235.533,370.744,223.125,355.473,223.125z M354.518,429.07c0,29.905-24.284,54.297-54.296,54.297H83.036
	c-29.906,0-54.297-24.285-54.297-54.297V251.758h325.779V429.07L354.518,429.07z"/>
<path fill="#00AFEB" d="M191.629,423.238c29.587,0,53.554-24.073,53.554-53.555c0-29.588-24.073-53.555-53.554-53.555
	c-29.587,0-53.554,24.073-53.554,53.555S162.042,423.238,191.629,423.238z M191.629,344.656c13.787,0,24.921,11.241,24.921,24.921
	c0,13.681-11.135,25.027-24.921,25.027s-24.921-11.241-24.921-24.921C166.708,356.003,177.842,344.656,191.629,344.656z"/>
</svg>
