<?xml version="1.0" encoding="utf-8"?>
<!-- Generator: Adobe Illustrator 15.1.0, SVG Export Plug-In  -->
<!DOCTYPE svg PUBLIC "-//W3C//DTD SVG 1.1//EN" "http://www.w3.org/Graphics/SVG/1.1/DTD/svg11.dtd" [
	<!ENTITY ns_flows "http://ns.adobe.com/Flows/1.0/">
]>
<svg version="1.1"
	 xmlns="http://www.w3.org/2000/svg" xmlns:xlink="http://www.w3.org/1999/xlink" xmlns:a="http://ns.adobe.com/AdobeSVGViewerExtensions/3.0/"
	 x="0px" y="0px" width="512px" height="512px" viewBox="0 0 512 512" enable-background="new 0 0 512 512" xml:space="preserve">
<defs>
</defs>
<path fill="#00AFEB" d="M3.948,489L489,3.948L508.052,23L23,508.052L3.948,489z"/>
<path fill="#00AFEB" d="M80.842,161.684c44.584,0,80.842-36.257,80.842-80.842S125.427,0,80.842,0S0,36.258,0,80.842
	S36.258,161.684,80.842,161.684z M80.842,26.947c29.723,0,53.895,24.172,53.895,53.895c0,29.723-24.172,53.895-53.895,53.895
	c-29.723,0-53.895-24.172-53.895-53.895C26.947,51.119,51.119,26.947,80.842,26.947z"/>
<path fill="#00AFEB" d="M431.158,350.315c-44.585,0-80.842,36.258-80.842,80.843c0,44.584,36.257,80.842,80.842,80.842
	C475.742,512,512,475.742,512,431.158C512,386.573,475.742,350.315,431.158,350.315z M431.158,485.053
	c-29.724,0-53.895-24.172-53.895-53.895c0-29.724,24.171-53.896,53.895-53.896c29.723,0,53.895,24.172,53.895,53.896
	C485.053,460.881,460.881,485.053,431.158,485.053z"/>
</svg>
