<?xml version="1.0" encoding="utf-8"?>
<!-- Generator: Adobe Illustrator 15.1.0, SVG Export Plug-In  -->
<!DOCTYPE svg PUBLIC "-//W3C//DTD SVG 1.1//EN" "http://www.w3.org/Graphics/SVG/1.1/DTD/svg11.dtd" [
	<!ENTITY ns_flows "http://ns.adobe.com/Flows/1.0/">
]>
<svg version="1.1"
	 xmlns="http://www.w3.org/2000/svg" xmlns:xlink="http://www.w3.org/1999/xlink" xmlns:a="http://ns.adobe.com/AdobeSVGViewerExtensions/3.0/"
	 x="0px" y="0px" width="512px" height="512px" viewBox="-0.054 0 512 512" enable-background="new -0.054 0 512 512"
	 xml:space="preserve">
<defs>
</defs>
<path fill="#00AFEB" d="M442.559,268.953H243.047V69.442c0-8.062-6.45-14.512-14.512-14.512C102.55,54.93,0,157.48,0,283.465
	S102.55,512,228.535,512C354.52,512,457.07,409.449,457.07,283.465C457.07,275.51,450.513,268.953,442.559,268.953z
	 M228.535,482.977c-109.968,0-199.511-89.544-199.511-199.512c0-105.13,81.696-191.557,184.999-198.974v198.974
	c0,8.063,6.45,14.512,14.512,14.512h198.974C420.092,401.28,333.665,482.977,228.535,482.977z"/>
<path fill="#00AFEB" d="M511.893,227.783c-0.215-55.468-20.531-108.893-57.188-150.494C411.277,28.164,348.93,0,283.357,0
	c-8.062,0-14.512,6.45-14.512,14.512v214.023c0,8.062,6.45,14.512,14.512,14.512h214.023l0,0c8.062,0,14.512-6.45,14.512-14.512
	C511.893,228.32,511.893,228.105,511.893,227.783z M297.87,214.131V29.669c51.813,3.762,100.4,27.733,135.014,66.969
	c29.023,32.786,46.223,74.064,49.447,117.493H297.87z"/>
</svg>
