<?xml version="1.0" encoding="utf-8"?>
<!-- Generator: Adobe Illustrator 15.1.0, SVG Export Plug-In  -->
<!DOCTYPE svg PUBLIC "-//W3C//DTD SVG 1.1//EN" "http://www.w3.org/Graphics/SVG/1.1/DTD/svg11.dtd" [
	<!ENTITY ns_flows "http://ns.adobe.com/Flows/1.0/">
]>
<svg version="1.1"
	 xmlns="http://www.w3.org/2000/svg" xmlns:xlink="http://www.w3.org/1999/xlink" xmlns:a="http://ns.adobe.com/AdobeSVGViewerExtensions/3.0/"
	 x="0px" y="0px" width="512px" height="512px" viewBox="0 0 512 512" enable-background="new 0 0 512 512" xml:space="preserve">
<defs>
</defs>
<path fill="#00AFEB" d="M256,221.867c32.938,0,59.733-26.803,59.733-59.733S288.938,102.4,256,102.4s-59.733,26.803-59.733,59.733
	S223.062,221.867,256,221.867z M256,119.467c23.526,0,42.666,19.14,42.666,42.667S279.526,204.8,256,204.8
	s-42.667-19.14-42.667-42.667S232.474,119.467,256,119.467z"/>
<path fill="#00AFEB" d="M254.49,467.26l130.91-189.073C434.5,212.728,427.4,105.131,370.201,47.94
	C339.294,17.024,298.197,0,254.49,0c-43.708,0-84.804,17.024-115.712,47.932c-57.199,57.19-64.299,164.787-15.395,229.99
	L254.49,467.26z M150.844,59.998c27.69-27.682,64.495-42.931,103.646-42.931s75.956,15.249,103.646,42.931
	c51.626,51.618,57.983,148.795,13.423,208.205L254.49,437.273L137.233,267.947C92.86,208.793,99.226,111.616,150.844,59.998z"/>
<path fill="#00AFEB" d="M359.398,366.993c-4.693-0.572-8.926,2.79-9.473,7.476c-0.545,4.685,2.8,8.926,7.476,9.472
	c89.736,10.564,137.532,39.031,137.532,55.526c0,23.159-90.897,55.467-238.934,55.467S17.067,462.626,17.067,439.467
	c0-16.495,47.795-44.962,137.532-55.526c4.676-0.546,8.021-4.796,7.475-9.472c-0.555-4.686-4.787-8.064-9.472-7.476
	C62.754,377.574,0,407.373,0,439.467C0,475.512,87.936,512,256,512c168.064,0,256-36.488,256-72.533
	C512,407.373,449.246,377.574,359.398,366.993z"/>
</svg>
