<?xml version="1.0" encoding="utf-8"?>
<!-- Generator: Adobe Illustrator 15.1.0, SVG Export Plug-In  -->
<!DOCTYPE svg PUBLIC "-//W3C//DTD SVG 1.1//EN" "http://www.w3.org/Graphics/SVG/1.1/DTD/svg11.dtd" [
	<!ENTITY ns_flows "http://ns.adobe.com/Flows/1.0/">
]>
<svg version="1.1"
	 xmlns="http://www.w3.org/2000/svg" xmlns:xlink="http://www.w3.org/1999/xlink" xmlns:a="http://ns.adobe.com/AdobeSVGViewerExtensions/3.0/"
	 x="0px" y="0px" width="512px" height="512px" viewBox="-4.01 0 512 512" enable-background="new -4.01 0 512 512"
	 xml:space="preserve">
<defs>
</defs>
<path fill="#00AFEB" d="M141.849,436.926l-30.373-15.185c-0.176-0.088-0.286-0.266-0.286-0.462l0.002-15.266
	c12.468-8.585,21.293-22.156,23.501-38.085c5.608-9.69,8.563-20.637,8.563-31.767c0-20.755-9.994-39.217-25.419-50.835
	c0.904-3.011,1.371-6.118,1.371-9.286c0-19.606-17.749-35.556-39.564-35.556s-39.564,15.95-39.564,35.556
	c0,3.173,0.462,6.281,1.366,9.29c-15.422,11.619-25.414,30.079-25.414,50.831c0,11.13,2.957,22.078,8.563,31.767
	c2.208,15.929,11.033,29.5,23.501,38.085v15.265c0,0.196-0.109,0.374-0.285,0.462l-30.372,15.186C6.682,442.304,0,453.117,0,465.144
	V504.5c0,4.142,3.358,7.5,7.5,7.5c4.142,0,7.5-3.358,7.5-7.5v-39.356c0-6.309,3.505-11.979,9.147-14.801l25.052-12.525
	l22.946,21.806V504.5c0,4.142,3.358,7.5,7.5,7.5c4.142,0,7.5-3.358,7.5-7.5v-44.878l22.945-21.805l25.052,12.524
	c5.643,2.821,9.148,8.493,9.148,14.802V504.5c0,4.142,3.358,7.5,7.5,7.5c4.142,0,7.5-3.358,7.5-7.5v-39.356
	C159.289,453.117,152.607,442.304,141.849,436.926z M79.644,255.484c13.544,0,24.564,9.222,24.564,20.556
	c0,0.476-0.038,0.946-0.076,1.417c-7.542-3.158-15.814-4.908-24.488-4.908c-8.673,0-16.944,1.75-24.484,4.907
	c-0.038-0.472-0.08-0.94-0.08-1.416C55.08,264.705,66.1,255.484,79.644,255.484z M79.644,446.056l-18.371-17.458
	c1.176-2.204,1.822-4.703,1.822-7.32v-7.981c5.239,1.626,10.795,2.51,16.549,2.51c5.753,0,11.31-0.884,16.547-2.509l-0.001,7.979
	c0,2.618,0.646,5.118,1.823,7.323L79.644,446.056z M79.644,400.805c-20.765,0.001-38.109-15.549-40.343-36.17
	c-0.12-1.104-0.483-2.169-1.065-3.116c-4.713-7.676-7.205-16.444-7.205-25.357c0-26.805,21.808-48.613,48.613-48.613
	c26.805,0,48.613,21.809,48.613,48.613c0,5.168-0.843,10.285-2.466,15.172c-21.296-21.636-58.759-30.114-60.565-30.512
	c-2.275-0.502-4.661-0.085-6.447,1.416c-1.764,1.484-2.75,3.531-2.67,5.83c-0.057,0.728-0.624,5.613-5.816,10.807
	c-2.929,2.929-2.929,7.677,0,10.606c2.929,2.929,7.678,2.929,10.606,0c4.218-4.219,6.695-8.499,8.15-12.114
	c12.62,3.749,38.813,13.217,50.568,29.835C116.281,386.53,99.537,400.805,79.644,400.805z"/>
<path fill="#00AFEB" d="M39.564,474.846c-4.142,0-7.5,3.358-7.5,7.5V504.5c0,4.142,3.358,7.5,7.5,7.5c4.142,0,7.5-3.358,7.5-7.5
	v-22.154C47.064,478.204,43.706,474.846,39.564,474.846z"/>
<path fill="#00AFEB" d="M119.725,474.846c-4.142,0-7.5,3.358-7.5,7.5V504.5c0,4.142,3.358,7.5,7.5,7.5s7.5-3.358,7.5-7.5v-22.154
	C127.225,478.204,123.867,474.846,119.725,474.846z"/>
<path fill="#00AFEB" d="M340.188,401.979l-84.704-53.901v-84.062c0-4.142-3.358-7.5-7.5-7.5c-4.142,0-7.5,3.358-7.5,7.5v84.062
	l-84.704,53.901c-3.495,2.225-4.525,6.859-2.301,10.354c1.43,2.246,3.856,3.474,6.335,3.474c1.377,0,2.771-0.379,4.019-1.174
	l84.151-53.55l84.151,53.55c3.494,2.226,8.129,1.194,10.354-2.3C344.713,408.838,343.682,404.203,340.188,401.979z"/>
<path fill="#00AFEB" d="M310.188,164.378l-19.368-9.683c11.356-2.609,19.872-5.859,25.549-8.474c7.442-3.427,10.882-11.864,8-19.623
	c-6.591-17.747-11.748-48.822-12.792-63.516C309.021,27.119,281.682,0,247.983,0s-61.038,27.119-63.594,63.081
	c-1.044,14.695-6.201,45.769-12.792,63.516c-2.882,7.759,0.557,16.196,8,19.623c5.682,2.617,14.195,5.866,25.547,8.474
	l-19.367,9.684c-10.757,5.379-17.439,16.191-17.439,28.218v39.356c0,4.142,3.358,7.5,7.5,7.5s7.5-3.358,7.5-7.5v-39.356
	c0-6.308,3.505-11.98,9.147-14.801l25.052-12.526l8.713,8.28c6.093,5.79,13.913,8.686,21.732,8.686c7.82,0,15.64-2.895,21.732-8.686
	l8.713-8.28l25.051,12.525c5.644,2.821,9.148,8.493,9.148,14.802v39.356c0,4.142,3.358,7.5,7.5,7.5c4.143,0,7.5-3.358,7.5-7.5
	v-39.356C327.627,180.569,320.944,169.756,310.188,164.378z M216.434,141.677c-14.221-2.478-24.338-6.216-30.563-9.083
	c-0.407-0.186-0.249-0.677-0.213-0.774c3.197-8.608,6.039-19.823,8.309-31.025c3.267,13.431,11.419,24.966,22.467,32.609V141.677z
	 M259.383,162.675c-6.392,6.075-16.407,6.075-22.8,0l-6.971-6.625c1.176-2.204,1.822-4.703,1.822-7.321v-7.987
	c5.229,1.634,10.788,2.515,16.548,2.515c5.754,0,11.311-0.885,16.548-2.51l-0.001,7.981c0,2.619,0.646,5.119,1.822,7.324
	L259.383,162.675z M247.982,128.257c-22.385,0-40.597-18.212-40.597-40.597c0-4.142-3.358-7.5-7.5-7.5
	c-0.842,0-1.649,0.145-2.404,0.401c0.914-6.313,1.555-11.996,1.869-16.418c0.958-13.468,6.341-25.882,15.157-34.951
	C223.403,20.04,235.291,15,247.983,15s24.58,5.04,33.476,14.192c8.816,9.07,14.199,21.483,15.156,34.953
	c0.337,4.741,1.051,10.935,2.073,17.798c-8.078-13.723-21.189-23.786-38.429-29.325c-15.039-4.832-27.976-4.535-28.518-4.518
	c-1.964,0.054-3.828,0.877-5.191,2.291l-13.527,14.028c-2.875,2.982-2.789,7.73,0.193,10.605s7.73,2.788,10.605-0.193l11.25-11.667
	c4.151,0.207,12.224,0.987,21.013,3.868c15.435,5.06,26.188,14.115,31.994,26.93C285.029,113.642,268.113,128.257,247.982,128.257z
	 M279.531,133.474c11.032-7.595,19.199-19.101,22.466-32.683c2.271,11.203,5.112,22.421,8.31,31.031
	c0.037,0.095,0.195,0.586-0.213,0.774c-6.218,2.864-16.336,6.602-30.563,9.082L279.531,133.474z"/>
<path fill="#00AFEB" d="M207.902,202.297c-4.142,0-7.5,3.358-7.5,7.5v22.155c0,4.142,3.358,7.5,7.5,7.5s7.5-3.358,7.5-7.5v-22.155
	C215.402,205.655,212.044,202.297,207.902,202.297z"/>
<path fill="#00AFEB" d="M288.064,202.297c-4.143,0-7.5,3.358-7.5,7.5v22.155c0,4.142,3.357,7.5,7.5,7.5c4.142,0,7.5-3.358,7.5-7.5
	v-22.155C295.564,205.655,292.206,202.297,288.064,202.297z"/>
<path fill="#00AFEB" d="M443.725,321.438c-17.416-8.709-50.069-8.809-51.451-8.809c-4.141,0-7.498,3.356-7.499,7.498
	c-0.001,4.141,3.354,7.5,7.497,7.502c8.437,0.005,32.923,1.313,44.745,7.225c1.077,0.538,2.221,0.794,3.348,0.794
	c2.751,0,5.4-1.521,6.714-4.148C448.932,327.794,447.43,323.289,443.725,321.438z"/>
<path fill="#00AFEB" d="M481.102,428.177l-27.045-7.727c-3.645-1.041-6.188-4.415-6.188-8.205l0.001-6.256
	c2.52-1.745,4.921-3.698,7.167-5.878c10.886-10.564,16.881-24.735,16.881-39.901v-14.262l2.993-5.986
	c3.287-6.572,5.023-13.93,5.023-21.279v-38.635c0-4.142-3.358-7.5-7.5-7.5h-72.146c-26.235,0-47.581,21.345-47.581,47.581v0.447
	c0,6.109,1.444,12.228,4.178,17.693l3.838,7.679v12.245c0,19.405,9.563,36.818,24.049,47.298v6.755c0,3.789-2.545,7.163-6.188,8.204
	l-27.044,7.727c-13.472,3.85-22.881,16.324-22.881,30.335V504.5c0,4.142,3.358,7.5,7.5,7.5s7.5-3.358,7.5-7.5v-45.989
	c0-7.35,4.937-13.893,12.002-15.912l27.042-7.727c2.348-0.671,4.52-1.704,6.486-3.009l4.822,4.822
	c6.149,6.15,14.229,9.226,22.308,9.226s16.158-3.075,22.308-9.226l4.821-4.82c1.965,1.305,4.138,2.338,6.485,3.009l27.045,7.727
	c7.065,2.02,12.002,8.563,12.002,15.912V504.5c0,4.142,3.357,7.5,7.5,7.5c4.142,0,7.5-3.358,7.5-7.5v-45.989
	C503.983,444.499,494.574,432.025,481.102,428.177z M428.024,426.079c-6.453,6.452-16.951,6.452-23.404,0l-6.154-6.154
	c0.75-2.151,1.18-4.433,1.271-6.778c4.729,1.556,9.719,2.479,14.882,2.634c0.577,0.017,1.151,0.025,1.726,0.025
	c5.704,0,11.272-0.863,16.569-2.512c0.104,2.294,0.529,4.525,1.265,6.632L428.024,426.079z M415.068,400.787
	c-21.694-0.651-39.344-19.758-39.344-42.594v-14.017c0-1.164-0.271-2.313-0.791-3.354l-4.631-9.263
	c-1.696-3.394-2.594-7.191-2.594-10.985v-0.447c0-17.965,14.616-32.581,32.581-32.581h64.646v31.135
	c0,5.031-1.189,10.07-3.439,14.571l-3.785,7.57c-0.521,1.042-0.792,2.189-0.792,3.354v16.032c0,11.075-4.378,21.422-12.328,29.137
	C436.646,397.057,426.149,401.119,415.068,400.787z"/>
<path fill="#00AFEB" d="M368.225,464.936c-4.142,0-7.5,3.358-7.5,7.5V504.5c0,4.142,3.358,7.5,7.5,7.5c4.143,0,7.5-3.358,7.5-7.5
	v-32.064C375.725,468.293,372.367,464.936,368.225,464.936z"/>
<path fill="#00AFEB" d="M464.418,464.936c-4.142,0-7.5,3.358-7.5,7.5V504.5c0,4.142,3.358,7.5,7.5,7.5c4.143,0,7.5-3.358,7.5-7.5
	v-32.064C471.918,468.293,468.561,464.936,464.418,464.936z"/>
</svg>
