<?xml version="1.0" encoding="utf-8"?>
<!-- Generator: Adobe Illustrator 15.1.0, SVG Export Plug-In  -->
<!DOCTYPE svg PUBLIC "-//W3C//DTD SVG 1.1//EN" "http://www.w3.org/Graphics/SVG/1.1/DTD/svg11.dtd" [
	<!ENTITY ns_flows "http://ns.adobe.com/Flows/1.0/">
]>
<svg version="1.1"
	 xmlns="http://www.w3.org/2000/svg" xmlns:xlink="http://www.w3.org/1999/xlink" xmlns:a="http://ns.adobe.com/AdobeSVGViewerExtensions/3.0/"
	 x="0px" y="0px" width="512px" height="512px" viewBox="0 -8.533 512 512" enable-background="new 0 -8.533 512 512"
	 xml:space="preserve">
<defs>
</defs>
<path fill="#00AFEB" d="M445.261,337.066l-47.753,68.608l-33.697-27.656c-3.636-3.004-9.02-2.449-12.007,1.178
	c-2.995,3.644-2.466,9.028,1.187,12.006l40.84,33.527c1.527,1.264,3.448,1.938,5.41,1.938c0.385,0,0.777-0.025,1.169-0.086
	c2.355-0.324,4.472-1.621,5.837-3.575l53.026-76.194c2.688-3.865,1.741-9.182-2.133-11.878
	C453.265,332.229,447.957,333.192,445.261,337.066z"/>
<path fill="#00AFEB" d="M462.199,291.524c4.651-18.646,7.134-37.726,7.134-56.857C469.333,105.276,364.066,0,234.667,0
	C105.267,0,0,105.276,0,234.667c0,68.352,29.389,129.954,76.177,172.877l-0.222,0.196l7.604,6.408
	c0.478,0.401,0.998,0.733,1.476,1.135c4.07,3.379,8.294,6.588,12.595,9.694c1.357,0.981,2.713,1.962,4.087,2.909
	c4.565,3.149,9.259,6.136,14.046,8.969c1.041,0.606,2.082,1.203,3.123,1.801c5.231,2.978,10.573,5.785,16.051,8.371
	c0.401,0.188,0.802,0.358,1.203,0.546c17.826,8.286,36.855,14.37,56.747,17.963c0.529,0.094,1.049,0.188,1.579,0.281
	c6.169,1.067,12.416,1.92,18.748,2.492c0.768,0.068,1.544,0.11,2.313,0.179c6.323,0.513,12.689,0.845,19.14,0.845
	c27.835,0,55.074-4.923,81.092-14.523c20.36,24.491,51.038,40.124,85.308,40.124C462.233,494.934,512,445.167,512,384
	C512,345.412,492.177,311.398,462.199,291.524z M17.067,234.667c0-119.987,97.613-217.6,217.6-217.6
	c119.988,0,217.6,97.613,217.6,217.6c0,16.239-1.826,32.46-5.453,48.35c-0.145-0.068-0.307-0.11-0.452-0.179
	c-3.208-1.442-6.502-2.73-9.864-3.866c-0.29-0.094-0.571-0.222-0.862-0.315c-3.507-1.152-7.082-2.143-10.734-2.944
	c-0.171-0.042-0.342-0.094-0.512-0.136c-3.559-0.769-7.177-1.349-10.847-1.768c-0.256-0.033-0.512-0.084-0.768-0.119
	c-3.849-0.393-7.748-0.623-11.708-0.623c-50.543,0-93.209,34.015-106.539,80.324c-3.736-3.523-5.947-8.431-5.947-13.764v-25.233
	c1.689-2.073,3.456-4.42,5.266-6.972c9.352-13.201,16.854-27.896,22.322-43.717c10.804-5.137,17.793-15.905,17.793-28.065v-30.251
	c0-7.39-2.714-14.575-7.561-20.215v-39.825c0.443-4.438,2.014-29.423-16.068-50.04c-15.727-17.954-41.182-27.042-75.666-27.042
	c-34.483,0-59.938,9.088-75.665,27.034c-18.082,20.617-16.512,45.619-16.068,50.04v39.825c-4.847,5.641-7.56,12.826-7.56,20.215
	v30.25c0,9.396,4.215,18.159,11.426,24.072c6.912,27.076,21.128,47.574,26.385,54.52v24.696c0,6.963-3.797,13.362-9.916,16.708
	l-67.473,36.804c-2.159,1.178-4.284,2.543-6.417,4.071C45.022,356.625,17.067,298.854,17.067,234.667z M218.496,451.602
	c-0.93-0.068-1.86-0.128-2.782-0.214c-5.41-0.478-10.803-1.118-16.154-1.997c-0.222-0.034-0.444-0.085-0.657-0.119
	c-11.324-1.895-22.459-4.676-33.306-8.312c-0.29-0.094-0.58-0.196-0.87-0.299c-10.556-3.584-20.821-8.013-30.729-13.175
	c-0.572-0.299-1.152-0.581-1.715-0.879c-4.395-2.347-8.695-4.89-12.928-7.535c-1.221-0.769-2.424-1.545-3.627-2.33
	c-3.891-2.543-7.723-5.188-11.46-7.987c-0.384-0.29-0.751-0.597-1.135-0.887c0.273-0.154,0.546-0.308,0.828-0.461l67.473-36.805
	c11.597-6.331,18.808-18.475,18.808-31.692v-30.746l-1.988-2.372c-0.179-0.213-18.568-22.477-25.591-53.034l-0.777-3.379
	l-2.91-1.887c-4.104-2.654-6.562-7.091-6.562-11.878v-30.25c0-3.968,1.689-7.663,4.753-10.436l2.816-2.543v-47.531l-0.077-1.118
	c-0.026-0.205-2.543-20.727,11.913-37.205c12.356-14.054,33.493-21.197,62.848-21.197c29.227,0,50.322,7.083,62.686,21.043
	c14.438,16.308,12.075,37.214,12.058,37.385l-0.076,48.648l2.815,2.543c3.063,2.765,4.753,6.468,4.753,10.437v30.25
	c0,6.178-4.053,11.571-10.078,13.432l-4.249,1.313l-1.366,4.232c-5.025,15.643-12.193,30.08-21.299,42.94
	c-2.21,3.132-4.386,5.931-6.28,8.09l-2.116,2.415v31.564c0,13.542,7.406,25.728,19.354,31.966
	c-0.452,4.079-0.734,8.209-0.734,12.407c0,2.492,0.086,4.975,0.248,7.45c0.06,0.879,0.18,1.749,0.265,2.619
	c0.077,0.819,0.153,1.63,0.247,2.449c0.086,0.768,0.129,1.545,0.23,2.304c0.196,1.451,0.479,2.885,0.734,4.327
	c0.17,0.98,0.299,1.971,0.494,2.943c0,0,0.018,0.068,0.025,0.103c0.052,0.256,0.129,0.495,0.18,0.751
	c0.265,1.246,0.58,2.483,0.888,3.721c0.214,0.861,0.384,1.724,0.614,2.577c0.205,0.751,0.469,1.476,0.691,2.219
	c0.29,0.989,0.598,1.971,0.922,2.943c0.204,0.614,0.357,1.237,0.571,1.844c0.597,1.715,1.28,3.404,1.963,5.086
	c0.009,0.025,0.017,0.042,0.025,0.068c0.521,1.279,1.066,2.534,1.63,3.788c0.418,0.931,0.854,1.86,1.297,2.782
	c0.291,0.605,0.547,1.221,0.845,1.817c0.196,0.393,0.427,0.769,0.632,1.161c0.717,1.391,1.477,2.747,2.253,4.096
	c0.229,0.401,0.435,0.819,0.665,1.22c-22.938,7.962-46.736,11.998-70.886,11.998C229.256,452.267,223.863,452.002,218.496,451.602z
	 M401.066,477.867c-31.24,0-58.889-15.403-75.963-38.946c-0.709-0.973-1.349-1.972-2.015-2.961c-0.46-0.683-0.946-1.349-1.382-2.04
	c-0.367-0.589-0.726-1.178-1.084-1.774c-0.385-0.632-0.726-1.28-1.092-1.92c-0.59-1.041-1.221-2.057-1.768-3.115
	c-0.4-0.776-0.759-1.578-1.143-2.372c-0.103-0.213-0.196-0.436-0.299-0.648c-0.641-1.34-1.306-2.662-1.886-4.027
	c-0.308-0.726-0.538-1.477-0.828-2.202c-0.657-1.698-1.322-3.396-1.886-5.137c-0.265-0.811-0.469-1.647-0.708-2.467
	c-0.077-0.256-0.146-0.503-0.214-0.751c-0.478-1.697-0.938-3.404-1.322-5.146c-0.119-0.537-0.213-1.083-0.324-1.63
	c-0.103-0.512-0.213-1.032-0.307-1.544c-0.351-1.895-0.641-3.806-0.879-5.734c-0.026-0.223-0.052-0.444-0.078-0.675
	c-0.076-0.699-0.188-1.399-0.247-2.099c-0.265-2.867-0.443-5.752-0.443-8.679c0-2.688,0.179-5.342,0.401-7.97
	c0.238-2.518,0.571-5.111,1.041-7.843l0.631-3.694c9.003-42.428,46.729-74.36,91.793-74.36c3.807,0,7.595,0.291,11.367,0.76
	c0.861,0.103,1.697,0.265,2.551,0.393c3.115,0.47,6.213,1.084,9.268,1.869c0.64,0.162,1.28,0.316,1.92,0.495
	c7.526,2.107,14.806,5.128,21.648,9.07c28.109,16.23,47.113,46.55,47.113,81.28C494.934,435.755,452.821,477.867,401.066,477.867z"
	/>
</svg>
