<?xml version="1.0" encoding="utf-8"?>
<!-- Generator: Adobe Illustrator 15.1.0, SVG Export Plug-In  -->
<!DOCTYPE svg PUBLIC "-//W3C//DTD SVG 1.1//EN" "http://www.w3.org/Graphics/SVG/1.1/DTD/svg11.dtd" [
	<!ENTITY ns_flows "http://ns.adobe.com/Flows/1.0/">
]>
<svg version="1.1"
	 xmlns="http://www.w3.org/2000/svg" xmlns:xlink="http://www.w3.org/1999/xlink" xmlns:a="http://ns.adobe.com/AdobeSVGViewerExtensions/3.0/"
	 x="0px" y="0px" width="512px" height="512px" viewBox="-2.411 0 512 512" enable-background="new -2.411 0 512 512"
	 xml:space="preserve">
<defs>
</defs>
<path fill="#FFFFFF" d="M26.061,108.762l47.583,21.745l220.848-104.58c1.603-0.771,2.61-2.407,2.582-4.184
	c-0.027-1.78-1.088-3.379-2.715-4.101L255.437,0.391c-1.177-0.521-2.52-0.521-3.698,0L26.107,100.44
	c-1.642,0.729-2.703,2.351-2.713,4.146C23.384,106.381,24.427,108.016,26.061,108.762z"/>
<path fill="#FFFFFF" d="M239.691,231.114l-84.731-39.127v119.451c0,1.115-0.574,2.157-1.521,2.756
	c-0.529,0.335-1.133,0.504-1.738,0.504c-0.479,0-0.959-0.107-1.407-0.318l-89.798-42.537c-1.133-0.543-1.853-1.686-1.853-2.941
	V148.652L6.46,124.513c-1.412-0.646-3.056-0.529-4.364,0.311C0.79,125.665,0,127.11,0,128.662v272.161
	c0,1.788,1.042,3.409,2.667,4.152l233.232,106.609c0.605,0.275,1.251,0.411,1.897,0.411c0.862,0,1.718-0.245,2.467-0.724
	c1.306-0.841,2.096-2.287,2.096-3.84V235.265C242.359,233.48,241.317,231.857,239.691,231.114z"/>
<path fill="#FFFFFF" d="M505.083,124.826c-1.307-0.84-2.952-0.954-4.364-0.31L267.5,231.115c-1.625,0.743-2.667,2.365-2.667,4.153
	v272.171c0,1.553,0.79,3.001,2.097,3.839c0.746,0.479,1.604,0.724,2.467,0.724c0.646,0,1.292-0.135,1.896-0.41l233.22-106.609
	c1.625-0.741,2.666-2.364,2.666-4.153V128.666C507.18,127.113,506.388,125.666,505.083,124.826z"/>
<path fill="#FFFFFF" d="M483.797,104.586c-0.012-1.795-1.073-3.417-2.714-4.146l-78.466-34.787
	c-1.224-0.545-2.625-0.521-3.831,0.059L172.244,173.917l79.445,37.963c0.603,0.275,1.249,0.412,1.897,0.412s1.294-0.137,1.898-0.412
	l225.644-103.121C482.763,108.016,483.808,106.381,483.797,104.586z"/>
</svg>
