<?xml version="1.0" encoding="utf-8"?>
<!-- Generator: Adobe Illustrator 15.1.0, SVG Export Plug-In  -->
<!DOCTYPE svg PUBLIC "-//W3C//DTD SVG 1.1//EN" "http://www.w3.org/Graphics/SVG/1.1/DTD/svg11.dtd" [
	<!ENTITY ns_flows "http://ns.adobe.com/Flows/1.0/">
]>
<svg version="1.1"
	 xmlns="http://www.w3.org/2000/svg" xmlns:xlink="http://www.w3.org/1999/xlink" xmlns:a="http://ns.adobe.com/AdobeSVGViewerExtensions/3.0/"
	 x="0px" y="0px" width="21px" height="14px" viewBox="0 0 21 14" enable-background="new 0 0 21 14" xml:space="preserve">
<defs>
</defs>
<path fill="#FFFFFF" d="M21.334,1.158V0.936c0-0.517-0.42-0.936-0.936-0.936H0.936C0.419,0,0,0.419,0,0.936v0.229l10.664,7.841
	L21.334,1.158z"/>
<path fill="#FFFFFF" d="M7.179,7.049l-7.012,6.927C0.062,13.826,0,13.644,0,13.443V1.771L7.179,7.049z"/>
<path fill="#FFFFFF" d="M13.725,7.361l7.031,6.949c-0.111,0.045-0.232,0.068-0.357,0.068H0.936c-0.137,0-0.268-0.027-0.385-0.082
	l7.033-6.949l3.079,2.264L13.725,7.361z"/>
<path fill="#FFFFFF" d="M21.334,1.766v11.677c0,0.211-0.068,0.402-0.184,0.557l-7.023-6.936L21.334,1.766z"/>
</svg>
