<?xml version="1.0" encoding="utf-8"?>
<!-- Generator: Adobe Illustrator 15.1.0, SVG Export Plug-In  -->
<!DOCTYPE svg PUBLIC "-//W3C//DTD SVG 1.1//EN" "http://www.w3.org/Graphics/SVG/1.1/DTD/svg11.dtd" [
	<!ENTITY ns_flows "http://ns.adobe.com/Flows/1.0/">
]>
<svg version="1.1"
	 xmlns="http://www.w3.org/2000/svg" xmlns:xlink="http://www.w3.org/1999/xlink" xmlns:a="http://ns.adobe.com/AdobeSVGViewerExtensions/3.0/"
	 x="0px" y="0px" width="20px" height="20px" viewBox="-0.24 -0.684 20 20" enable-background="new -0.24 -0.684 20 20"
	 xml:space="preserve">
<defs>
</defs>
<path fill="#FFFFFF" d="M14.014,0c-1.662,0-3.219,0.752-4.254,2.013C8.725,0.752,7.169,0,5.508,0C2.471,0,0,2.471,0,5.507
	c0,2.377,1.418,5.127,4.214,8.174c2.152,2.345,4.493,4.16,5.159,4.661l0.387,0.29l0.386-0.289c0.667-0.502,3.008-2.317,5.159-4.662
	c2.797-3.047,4.215-5.796,4.215-8.174C19.52,2.471,17.051,0,14.014,0z M14.358,12.812c-1.771,1.928-3.674,3.488-4.598,4.206
	c-0.923-0.718-2.828-2.278-4.598-4.206C2.627,10.05,1.287,7.524,1.287,5.507c0-2.327,1.893-4.22,4.221-4.22
	c1.531,0,2.945,0.834,3.689,2.178L9.76,4.481l0.563-1.016c0.744-1.343,2.16-2.178,3.691-2.178c2.326,0,4.219,1.894,4.219,4.22
	C18.233,7.524,16.893,10.05,14.358,12.812z"/>
</svg>
