<?xml version="1.0" encoding="utf-8"?>
<!-- Generator: Adobe Illustrator 15.1.0, SVG Export Plug-In  -->
<!DOCTYPE svg PUBLIC "-//W3C//DTD SVG 1.1//EN" "http://www.w3.org/Graphics/SVG/1.1/DTD/svg11.dtd" [
	<!ENTITY ns_flows "http://ns.adobe.com/Flows/1.0/">
]>
<svg version="1.1"
	 xmlns="http://www.w3.org/2000/svg" xmlns:xlink="http://www.w3.org/1999/xlink" xmlns:a="http://ns.adobe.com/AdobeSVGViewerExtensions/3.0/"
	 x="0px" y="0px" width="20px" height="20px" viewBox="-1.354 -0.353 20 20" enable-background="new -1.354 -0.353 20 20"
	 xml:space="preserve">
<defs>
</defs>
<path fill="#FFFFFF" d="M16.974,15.771c-2.051-0.926-2.129-4.899-2.13-5.001V8.104c0-2.566-1.568-4.773-3.797-5.712
	C11.041,1.071,9.967,0,8.646,0c-1.32,0-2.395,1.072-2.399,2.392C4.019,3.331,2.45,5.538,2.45,8.104v2.667
	c-0.001,0.101-0.08,4.075-2.13,5.001c-0.233,0.105-0.362,0.36-0.308,0.611c0.054,0.25,0.275,0.429,0.532,0.429h5.199
	c0.106,0.587,0.383,1.132,0.807,1.574c0.563,0.586,1.308,0.909,2.097,0.909c0.79,0,1.533-0.323,2.097-0.909
	c0.425-0.442,0.701-0.987,0.808-1.574h5.199c0.256,0,0.478-0.179,0.531-0.429C17.335,16.132,17.207,15.877,16.974,15.771z
	 M14.272,13.868c0.216,0.653,0.521,1.31,0.953,1.855H2.067c0.433-0.546,0.738-1.202,0.954-1.855H14.272z M8.646,1.088
	c0.597,0,1.103,0.401,1.261,0.948C9.5,1.952,9.079,1.908,8.646,1.908c-0.432,0-0.853,0.044-1.26,0.129
	C7.544,1.49,8.05,1.088,8.646,1.088z M3.538,10.774v-2.67c0-2.816,2.292-5.108,5.108-5.108c2.817,0,5.108,2.292,5.108,5.108v2.674
	c0.001,0.082,0.014,0.943,0.231,2.002H3.308C3.525,11.72,3.538,10.858,3.538,10.774z M8.646,18.207c-0.83,0-1.555-0.599-1.788-1.396
	h3.576C10.202,17.608,9.477,18.207,8.646,18.207z"/>
<path fill="#FFFFFF" d="M8.646,3.759c-2.34,0-4.245,1.905-4.245,4.246c0,0.3,0.244,0.544,0.544,0.544S5.49,8.305,5.49,8.004
	c0-1.741,1.416-3.157,3.157-3.157c0.3,0,0.544-0.244,0.544-0.544S8.947,3.759,8.646,3.759z"/>
</svg>
