<?xml version="1.0" encoding="utf-8"?>
<!-- Generator: Adobe Illustrator 15.1.0, SVG Export Plug-In  -->
<!DOCTYPE svg PUBLIC "-//W3C//DTD SVG 1.1//EN" "http://www.w3.org/Graphics/SVG/1.1/DTD/svg11.dtd" [
	<!ENTITY ns_flows "http://ns.adobe.com/Flows/1.0/">
]>
<svg version="1.1"
	 xmlns="http://www.w3.org/2000/svg" xmlns:xlink="http://www.w3.org/1999/xlink" xmlns:a="http://ns.adobe.com/AdobeSVGViewerExtensions/3.0/"
	 x="0px" y="0px" width="20px" height="20px" viewBox="-0.157 -0.18 20 20" enable-background="new -0.157 -0.18 20 20"
	 xml:space="preserve">
<defs>
</defs>
<path fill="#FFFFFF" d="M19.244,15.534l-3.04-3.04c-0.605-0.604-1.608-0.585-2.235,0.042l-1.531,1.531
	c-0.096-0.053-0.198-0.109-0.303-0.169c-0.966-0.535-2.291-1.271-3.684-2.664c-1.397-1.397-2.132-2.722-2.669-3.69
	C5.725,7.441,5.67,7.343,5.616,7.249l1.028-1.026L7.15,5.717c0.627-0.628,0.644-1.629,0.041-2.235l-3.04-3.041
	C3.546-0.163,2.543-0.145,1.916,0.483L1.059,1.344l0.023,0.024C0.795,1.735,0.555,2.157,0.376,2.614
	C0.211,3.047,0.109,3.461,0.062,3.877c-0.401,3.328,1.12,6.369,5.246,10.496c5.705,5.704,10.303,5.273,10.501,5.252
	c0.432-0.052,0.845-0.155,1.266-0.318c0.454-0.176,0.875-0.416,1.241-0.703l0.02,0.017l0.868-0.849
	C19.83,17.143,19.849,16.14,19.244,15.534z"/>
</svg>
