<?xml version="1.0" encoding="iso-8859-1"?>
<!-- Generator: Adobe Illustrator 18.0.0, SVG Export Plug-In . SVG Version: 6.00 Build 0)  -->
<!DOCTYPE svg PUBLIC "-//W3C//DTD SVG 1.1//EN" "http://www.w3.org/Graphics/SVG/1.1/DTD/svg11.dtd">
<svg xmlns="http://www.w3.org/2000/svg" xmlns:xlink="http://www.w3.org/1999/xlink" version="1.1" id="Capa_1" x="0px" y="0px" viewBox="0 0 289.76 289.76" style="enable-background:new 0 0 289.76 289.76;" xml:space="preserve" width="512px" height="512px">
<g>
	<path d="M288.832,137.06c-1.528-3.119-4.699-5.096-8.172-5.096h-17.178C262.719,64.424,207.55,9.713,139.834,9.713   c-8.284,0-15,6.716-15,15s6.716,15,15,15c51.174,0,92.888,41.254,93.648,92.251h-17.141c-3.473,0-6.643,1.977-8.172,5.096   c-1.528,3.119-1.148,6.836,0.98,9.58l32.159,41.481c1.724,2.223,4.379,3.524,7.192,3.524s5.468-1.301,7.192-3.524l32.159-41.481   C289.98,143.895,290.36,140.179,288.832,137.06z" fill="#FFFFFF"/>
	<path d="M139.834,231.38c-8.284,0-15,6.716-15,15v18.667c0,8.284,6.716,15,15,15s15-6.716,15-15V246.38   C154.834,238.096,148.118,231.38,139.834,231.38z" fill="#FFFFFF"/>
	<path d="M73.76,55.771c4.142,7.175,13.316,9.633,20.49,5.49c7.174-4.142,9.633-13.315,5.49-20.49l-9.333-16.166   c-4.143-7.175-13.315-9.634-20.49-5.49c-7.174,4.142-9.633,13.315-5.49,20.49L73.76,55.771z" fill="#FFFFFF"/>
	<path d="M205.907,224.656c-4.143-7.175-13.316-9.634-20.49-5.49c-7.174,4.142-9.633,13.315-5.49,20.49l9.333,16.166   c4.142,7.175,13.316,9.633,20.49,5.49c7.174-4.142,9.633-13.315,5.49-20.49L205.907,224.656z" fill="#FFFFFF"/>
	<path d="M24.225,90.787l16.166,9.333c7.176,4.144,16.35,1.683,20.49-5.49c4.143-7.175,1.684-16.349-5.49-20.49l-16.166-9.333   c-7.175-4.145-16.351-1.685-20.49,5.49C14.592,77.472,17.051,86.646,24.225,90.787z" fill="#FFFFFF"/>
	<path d="M48.667,140.213c0-8.284-6.716-15-15-15H15c-8.284,0-15,6.716-15,15s6.716,15,15,15h18.667   C41.951,155.213,48.667,148.497,48.667,140.213z" fill="#FFFFFF"/>
	<path d="M60.881,185.797c-4.143-7.175-13.317-9.633-20.49-5.49l-16.166,9.333c-7.174,4.142-9.633,13.315-5.49,20.49   c4.142,7.175,13.316,9.633,20.49,5.49l16.166-9.333C62.564,202.146,65.023,192.972,60.881,185.797z" fill="#FFFFFF"/>
	<path d="M94.25,219.166c-7.176-4.144-16.35-1.684-20.49,5.49l-9.333,16.166c-4.143,7.175-1.684,16.349,5.49,20.49   c7.176,4.144,16.35,1.683,20.49-5.49l9.333-16.166C103.883,232.482,101.424,223.308,94.25,219.166z" fill="#FFFFFF"/>
	<path d="M131.175,169.864c0-4.626-3.764-8.39-8.39-8.39h-17.051c0.139-0.164,0.281-0.328,0.428-0.493   c1.114-1.254,3.842-3.874,8.107-7.785c4.473-4.106,7.493-7.179,9.232-9.398c2.621-3.336,4.571-6.593,5.794-9.679   c1.247-3.145,1.88-6.498,1.88-9.967c0-6.224-2.254-11.507-6.699-15.705c-4.416-4.164-10.495-6.274-18.071-6.274   c-6.884,0-12.731,1.802-17.377,5.356c-2.803,2.146-4.961,5.119-6.415,8.839c-0.982,2.513-0.728,5.388,0.68,7.689   c1.408,2.302,3.852,3.836,6.537,4.105c0.299,0.03,0.597,0.045,0.891,0.045c3.779,0,7.149-2.403,8.387-5.98   c0.388-1.121,0.901-2.012,1.527-2.65c1.318-1.344,3.093-1.997,5.427-1.997c2.373,0,4.146,0.618,5.418,1.889   c1.269,1.269,1.886,3.121,1.886,5.661c0,2.359-0.843,4.819-2.505,7.314c-0.891,1.305-3.554,4.36-11.108,11.398   c-7.912,7.341-13.089,13.113-15.823,17.643c-1.93,3.195-3.338,6.573-4.187,10.04c-0.399,1.632-0.032,3.326,1.007,4.649   c1.038,1.321,2.596,2.079,4.276,2.079h37.758C127.412,178.254,131.175,174.491,131.175,169.864z" fill="#FFFFFF"/>
	<path d="M180.78,169.595v-5.787h0.865c4.437,0,8.047-3.61,8.047-8.047c0-4.437-3.61-8.047-8.047-8.047h-0.865v-40.105   c0-2.997-2.439-5.436-5.436-5.436h-6.307c-1.797,0-3.475,0.886-4.489,2.37L135.38,147.24c-0.851,1.246-1.301,2.703-1.301,4.212   v6.919c0,2.997,2.438,5.436,5.436,5.436h23.945v5.787c0,4.775,3.885,8.66,8.66,8.66C176.895,178.254,180.78,174.37,180.78,169.595z    M163.46,147.713h-10.748l10.748-15.978V147.713z" fill="#FFFFFF"/>
</g>
<g>
</g>
<g>
</g>
<g>
</g>
<g>
</g>
<g>
</g>
<g>
</g>
<g>
</g>
<g>
</g>
<g>
</g>
<g>
</g>
<g>
</g>
<g>
</g>
<g>
</g>
<g>
</g>
<g>
</g>
</svg>
