<?xml version="1.0" encoding="utf-8"?>
<!-- Generator: Adobe Illustrator 15.1.0, SVG Export Plug-In  -->
<!DOCTYPE svg PUBLIC "-//W3C//DTD SVG 1.1//EN" "http://www.w3.org/Graphics/SVG/1.1/DTD/svg11.dtd" [
	<!ENTITY ns_flows "http://ns.adobe.com/Flows/1.0/">
]>
<svg version="1.1"
	 xmlns="http://www.w3.org/2000/svg" xmlns:xlink="http://www.w3.org/1999/xlink" xmlns:a="http://ns.adobe.com/AdobeSVGViewerExtensions/3.0/"
	 x="0px" y="0px" width="20px" height="20px" viewBox="-1.187 -0.353 20 20" enable-background="new -1.187 -0.353 20 20"
	 xml:space="preserve">
<defs>
</defs>
<path display="none" fill="#FFFFFF" d="M17.141,15.771c-2.051-0.926-2.129-4.899-2.13-5.001V8.104c0-2.566-1.568-4.773-3.797-5.712
	C11.208,1.071,10.134,0,8.813,0c-1.32,0-2.395,1.072-2.399,2.392C4.186,3.331,2.617,5.538,2.617,8.104v2.667
	c-0.001,0.101-0.08,4.075-2.13,5.001c-0.233,0.105-0.362,0.36-0.308,0.611c0.054,0.25,0.275,0.429,0.532,0.429H5.91
	c0.106,0.587,0.383,1.132,0.807,1.574c0.563,0.586,1.308,0.909,2.097,0.909c0.79,0,1.533-0.323,2.097-0.909
	c0.425-0.442,0.701-0.987,0.808-1.574h5.199c0.256,0,0.478-0.179,0.531-0.429C17.502,16.132,17.374,15.877,17.141,15.771z
	 M14.439,13.868c0.216,0.653,0.521,1.31,0.953,1.855H2.234c0.433-0.546,0.738-1.202,0.954-1.855H14.439z M8.813,1.088
	c0.597,0,1.103,0.401,1.261,0.948C9.667,1.952,9.246,1.908,8.813,1.908c-0.432,0-0.853,0.044-1.26,0.129
	C7.711,1.49,8.217,1.088,8.813,1.088z M3.705,10.774v-2.67c0-2.816,2.292-5.108,5.108-5.108c2.817,0,5.108,2.292,5.108,5.108v2.674
	c0.001,0.082,0.014,0.943,0.231,2.002H3.475C3.692,11.72,3.705,10.858,3.705,10.774z M8.813,18.207c-0.83,0-1.555-0.599-1.788-1.396
	h3.576C10.369,17.608,9.644,18.207,8.813,18.207z"/>
<path display="none" fill="#FFFFFF" d="M8.813,3.759c-2.34,0-4.245,1.905-4.245,4.246c0,0.3,0.244,0.544,0.544,0.544
	s0.544-0.244,0.544-0.544c0-1.741,1.416-3.157,3.157-3.157c0.3,0,0.544-0.244,0.544-0.544S9.114,3.759,8.813,3.759z"/>
<path display="none" fill="#FFFFFF" d="M5.024,12.652h10.452c1.186,0,2.151-0.967,2.151-2.152V6.103c0-0.004,0-0.012,0-0.016
	c0-0.012,0-0.02,0-0.031c0-0.008,0-0.016-0.004-0.023c0-0.008-0.004-0.02-0.004-0.028c0-0.007-0.003-0.015-0.003-0.023
	c-0.004-0.008-0.004-0.015-0.008-0.027c-0.004-0.008-0.004-0.016-0.008-0.023c-0.006-0.008-0.006-0.016-0.007-0.023
	C17.59,5.9,17.584,5.892,17.58,5.881c-0.004-0.008-0.008-0.016-0.011-0.02c-0.004-0.008-0.008-0.016-0.012-0.023
	s-0.008-0.012-0.012-0.02c-0.003-0.008-0.013-0.016-0.017-0.023c-0.004-0.008-0.008-0.012-0.015-0.02
	c-0.004-0.008-0.012-0.012-0.016-0.02c-0.004-0.007-0.013-0.012-0.017-0.019c-0.004-0.008-0.012-0.012-0.015-0.016
	c-0.008-0.008-0.012-0.012-0.02-0.02c-0.007-0.004-0.013-0.012-0.021-0.016c-0.007-0.004-0.015-0.012-0.022-0.016
	s-0.011-0.008-0.019-0.012c-0.01-0.004-0.017-0.008-0.024-0.016c-0.008-0.004-0.015-0.008-0.022-0.012s-0.018-0.008-0.024-0.012
	c-0.008-0.004-0.016-0.007-0.022-0.012c-0.008-0.004-0.018-0.004-0.024-0.007c-0.008-0.004-0.02-0.008-0.026-0.008
	c-0.008,0-0.018-0.003-0.019-0.003c-0.014-0.004-0.021-0.004-0.032-0.004c-0.004,0-0.008-0.004-0.016-0.004L3.929,3.752V1.905
	c0-0.02,0-0.039-0.004-0.055c0-0.003,0-0.007-0.004-0.015c0-0.011-0.003-0.023-0.003-0.035C3.913,1.788,3.913,1.78,3.909,1.769
	c0-0.008-0.003-0.012-0.003-0.02C3.901,1.737,3.897,1.725,3.894,1.713c0-0.003-0.004-0.012-0.004-0.015
	c-0.004-0.012-0.008-0.02-0.016-0.032C3.87,1.663,3.87,1.655,3.867,1.651C3.862,1.643,3.858,1.636,3.851,1.628
	C3.847,1.62,3.843,1.616,3.839,1.608c-0.004-0.008-0.008-0.012-0.012-0.02C3.823,1.581,3.816,1.574,3.812,1.565
	C3.808,1.562,3.804,1.558,3.8,1.554C3.792,1.546,3.784,1.539,3.777,1.53C3.772,1.527,3.769,1.522,3.765,1.519
	C3.757,1.511,3.749,1.503,3.737,1.495C3.734,1.491,3.726,1.487,3.722,1.483C3.714,1.476,3.707,1.472,3.699,1.464
	c-0.012-0.008-0.023-0.016-0.031-0.02C3.664,1.441,3.66,1.441,3.656,1.437C3.64,1.429,3.621,1.421,3.605,1.414L0.732,0.205
	c-0.269-0.113-0.577,0.012-0.69,0.28c-0.113,0.269,0.011,0.577,0.281,0.69l2.549,1.076v2.386v0.378v2.9v2.592v3.276
	c0,1.09,0.818,1.995,1.875,2.131c-0.191,0.319-0.304,0.694-0.304,1.091c0,1.175,0.955,2.126,2.125,2.126
	c1.169,0,2.125-0.955,2.125-2.126c0-0.389-0.105-0.759-0.293-1.071h4.733c-0.188,0.316-0.291,0.683-0.291,1.071
	c0,1.175,0.954,2.126,2.123,2.126c1.171,0,2.125-0.955,2.125-2.126c0-1.169-0.954-2.123-2.125-2.123H5.024
	c-0.608,0-1.099-0.496-1.099-1.099v-1.429C4.244,12.544,4.623,12.652,5.024,12.652z M7.644,17.003c0,0.593-0.484,1.072-1.072,1.072
	c-0.589,0-1.072-0.484-1.072-1.072c0-0.589,0.483-1.071,1.072-1.071C7.16,15.932,7.644,16.41,7.644,17.003z M16.041,17.003
	c0,0.593-0.484,1.072-1.072,1.072s-1.071-0.484-1.071-1.072c0-0.589,0.483-1.071,1.071-1.071S16.041,16.41,16.041,17.003z
	 M15.476,11.6H5.024c-0.608,0-1.099-0.494-1.099-1.099V7.908v-2.9V4.813l12.65,1.742v3.941C16.575,11.108,16.079,11.6,15.476,11.6z"
	/>
<path fill="#FFFFFF" d="M14.296,13.57l-2.905-1.454c-0.274-0.137-0.445-0.412-0.445-0.72v-1.029
	c0.069-0.085,0.143-0.182,0.219-0.289c0.375-0.533,0.679-1.126,0.898-1.765c0.429-0.196,0.709-0.622,0.709-1.101V5.995
	c0-0.292-0.11-0.577-0.307-0.799V3.577c0.019-0.167,0.086-1.164-0.635-1.985c-0.625-0.714-1.642-1.075-3.016-1.075
	c-1.376,0-2.391,0.361-3.016,1.075C5.077,2.413,5.145,3.41,5.161,3.577v1.619C4.967,5.418,4.858,5.702,4.858,5.995v1.218
	c0,0.371,0.168,0.716,0.455,0.946c0.279,1.104,0.862,1.936,1.066,2.203v1.006c0,0.295-0.161,0.565-0.419,0.707l-2.716,1.481
	c-0.882,0.48-1.431,1.405-1.431,2.41v0.986c0,1.442,4.58,1.825,7,1.825c2.421,0,7-0.383,7-1.825v-0.928
	C15.814,14.98,15.232,14.038,14.296,13.57z M15.205,16.953c0,0.412-2.256,1.217-6.391,1.217c-4.136,0-6.392-0.805-6.392-1.217
	v-0.986c0-0.783,0.426-1.502,1.113-1.876l2.715-1.481c0.455-0.248,0.737-0.723,0.737-1.241v-1.223l-0.071-0.085
	c-0.008-0.009-0.753-0.911-1.039-2.15L5.852,7.79L5.748,7.723c-0.176-0.114-0.282-0.305-0.282-0.51V5.995
	c0-0.17,0.073-0.329,0.204-0.449l0.1-0.09V3.56L5.767,3.52C5.766,3.513,5.663,2.668,6.256,1.992C6.76,1.417,7.621,1.125,8.814,1.125
	c1.188,0,2.048,0.289,2.551,0.861c0.595,0.67,0.495,1.527,0.495,1.534l-0.004,1.936l0.102,0.09c0.132,0.12,0.204,0.279,0.204,0.449
	v1.218c0,0.265-0.175,0.498-0.435,0.578l-0.15,0.046l-0.048,0.151c-0.205,0.634-0.494,1.218-0.863,1.738
	c-0.089,0.128-0.178,0.242-0.254,0.329l-0.077,0.086v1.255c0,0.54,0.301,1.023,0.781,1.265l2.908,1.453
	c0.729,0.365,1.181,1.097,1.181,1.911V16.953z"/>
</svg>
