<?xml version="1.0" encoding="utf-8"?>
<!-- Generator: Adobe Illustrator 15.1.0, SVG Export Plug-In  -->
<!DOCTYPE svg PUBLIC "-//W3C//DTD SVG 1.1//EN" "http://www.w3.org/Graphics/SVG/1.1/DTD/svg11.dtd" [
	<!ENTITY ns_flows "http://ns.adobe.com/Flows/1.0/">
]>
<svg version="1.1"
	 xmlns="http://www.w3.org/2000/svg" xmlns:xlink="http://www.w3.org/1999/xlink" xmlns:a="http://ns.adobe.com/AdobeSVGViewerExtensions/3.0/"
	 x="0px" y="0px" width="512px" height="512px" viewBox="-71.015 0 512 512" enable-background="new -71.015 0 512 512"
	 xml:space="preserve">
<defs>
</defs>
<path fill="#FFFFFF" d="M355.394,268.608c-11.896-15.381-29.845-25.946-53.848-31.688c30.566-15.591,43.999-42.054,40.312-79.392
	c-1.233-13.54-4.975-25.274-11.234-35.22c-6.264-9.949-14.717-17.946-25.391-23.997c-10.665-6.058-22.265-10.67-34.771-13.849
	c-12.511-3.179-26.873-5.488-43.079-6.922V0h-47.381v75.386c-8.205,0-20.717,0.205-37.536,0.616V0H95.077v77.54
	c-6.771,0.206-16.719,0.311-29.847,0.311L0,77.54v50.464h34.152c15.591,0,24.719,6.976,27.385,20.923v88.311
	c2.054,0,3.693,0.105,4.925,0.311h-4.925v123.69c-1.639,10.459-7.587,15.693-17.845,15.693H9.542l-9.54,56.311h61.541
	c3.898,0,9.536,0.052,16.924,0.145c7.383,0.104,12.919,0.155,16.613,0.155v78.461h47.396v-77.539
	c8.613,0.21,21.125,0.311,37.536,0.311v77.229h47.383v-78.461c16.823-0.819,31.746-2.35,44.766-4.614
	c13.026-2.265,25.492-5.797,37.387-10.621c11.894-4.817,21.841-10.821,29.84-18.001c8.003-7.173,14.613-16.306,19.853-27.386
	c5.223-11.078,8.561-23.898,9.992-38.467C371.908,305.947,367.29,283.996,355.394,268.608z M143.386,131.379
	c1.437,0,5.488-0.052,12.155-0.155c6.67-0.106,12.206-0.207,16.616-0.311c4.411-0.101,10.36,0.155,17.85,0.771
	c7.488,0.616,13.795,1.438,18.922,2.461c5.126,1.024,10.772,2.717,16.921,5.076c6.159,2.357,11.079,5.23,14.767,8.614
	c3.696,3.384,6.823,7.694,9.383,12.925c2.567,5.23,3.85,11.23,3.85,17.998c0,5.744-0.921,10.977-2.766,15.697
	c-1.841,4.717-4.616,8.667-8.305,11.846c-3.689,3.181-7.491,5.952-11.389,8.31c-3.895,2.357-8.873,4.256-14.923,5.69
	c-6.048,1.437-11.33,2.565-15.841,3.384c-4.514,0.821-10.152,1.387-16.923,1.693c-6.771,0.306-11.901,0.515-15.387,0.617
	c-3.488,0.101-8.256,0.101-14.31,0c-6.055-0.101-9.588-0.155-10.617-0.155v-94.463h-0.003V131.379z M272.778,340.918
	c-1.954,4.721-4.463,8.826-7.538,12.315c-3.08,3.481-7.133,6.562-12.156,9.225c-5.022,2.671-9.899,4.82-14.613,6.462
	c-4.72,1.648-10.415,3.076-17.075,4.311c-6.676,1.232-12.518,2.099-17.549,2.615c-5.023,0.514-11.021,0.922-17.998,1.232
	c-6.972,0.302-12.411,0.458-16.307,0.458c-3.898,0-8.822-0.056-14.771-0.156c-5.952-0.096-9.744-0.147-11.386-0.147V273.227
	c1.639,0,6.511-0.101,14.616-0.31c8.106-0.207,14.718-0.303,19.847-0.303c5.127,0,12.207,0.303,21.236,0.923
	c9.021,0.611,16.611,1.53,22.771,2.761c6.151,1.233,12.864,3.128,20.152,5.694c7.28,2.563,13.181,5.691,17.695,9.383
	c4.514,3.699,8.306,8.41,11.382,14.155c3.083,5.742,4.621,12.308,4.621,19.694C275.703,330.975,274.729,336.197,272.778,340.918z"/>
</svg>
