<?xml version="1.0" encoding="utf-8"?>
<!-- Generator: Adobe Illustrator 15.1.0, SVG Export Plug-In  -->
<!DOCTYPE svg PUBLIC "-//W3C//DTD SVG 1.1//EN" "http://www.w3.org/Graphics/SVG/1.1/DTD/svg11.dtd" [
	<!ENTITY ns_flows "http://ns.adobe.com/Flows/1.0/">
]>
<svg version="1.1"
	 xmlns="http://www.w3.org/2000/svg" xmlns:xlink="http://www.w3.org/1999/xlink" xmlns:a="http://ns.adobe.com/AdobeSVGViewerExtensions/3.0/"
	 x="0px" y="0px" width="450px" height="450px" viewBox="0 0 450 450" enable-background="new 0 0 450 450" xml:space="preserve">
<defs>
</defs>
<rect fill="none" width="450" height="450"/>
<linearGradient id="SVGID_1_" gradientUnits="userSpaceOnUse" x1="215.7729" y1="150.6167" x2="379.4265" y2="-44.418" gradientTransform="matrix(1 0 0 -1 -72.6001 256.0996)">
	<stop  offset="0" style="stop-color:#FFF6B7"/>
	<stop  offset="1" style="stop-color:#98761E"/>
</linearGradient>
<path fill="url(#SVGID_1_)" d="M225,330.298c-70.304,0-127.297-56.994-127.297-127.298c0-70.304,56.994-127.296,127.297-127.296
	S352.297,132.696,352.297,203C352.297,273.304,295.304,330.298,225,330.298z"/>
<linearGradient id="SVGID_2_" gradientUnits="userSpaceOnUse" x1="184.6753" y1="105.7568" x2="410.5253" y2="0.4417" gradientTransform="matrix(1 0 0 -1 -72.6001 256.0996)">
	<stop  offset="0" style="stop-color:#FDFFCF"/>
	<stop  offset="0.158" style="stop-color:#D9B14D"/>
	<stop  offset="0.427" style="stop-color:#F1C458"/>
	<stop  offset="0.682" style="stop-color:#FDFFCE"/>
	<stop  offset="0.853" style="stop-color:#E4B950"/>
</linearGradient>
<path fill="url(#SVGID_2_)" d="M225,327.569c-68.796,0-124.569-55.772-124.569-124.569S156.204,78.431,225,78.431
	c68.798,0,124.569,55.772,124.569,124.569S293.797,327.569,225,327.569z"/>
<linearGradient id="SVGID_3_" gradientUnits="userSpaceOnUse" x1="215.2158" y1="135.4849" x2="379.9851" y2="-29.2844" gradientTransform="matrix(1 0 0 -1 -72.6001 256.0996)">
	<stop  offset="0" style="stop-color:#987F25"/>
	<stop  offset="0.759" style="stop-color:#FFF6B7"/>
	<stop  offset="1" style="stop-color:#FFFFFF"/>
</linearGradient>
<path fill="url(#SVGID_3_)" d="M225,319.509c-64.347,0-116.509-52.162-116.509-116.509S160.653,86.491,225,86.491
	S341.51,138.653,341.51,203S289.347,319.509,225,319.509z"/>
<linearGradient id="SVGID_4_" gradientUnits="userSpaceOnUse" x1="194.5903" y1="101.1343" x2="400.6095" y2="5.0651" gradientTransform="matrix(1 0 0 -1 -72.6001 256.0996)">
	<stop  offset="0" style="stop-color:#EABE54"/>
	<stop  offset="0.22" style="stop-color:#FDFFCF"/>
	<stop  offset="0.425" style="stop-color:#F2BE4F"/>
	<stop  offset="0.551" style="stop-color:#F5CC4F"/>
	<stop  offset="0.763" style="stop-color:#FCFFBF"/>
	<stop  offset="1" style="stop-color:#E8BB53"/>
</linearGradient>
<path fill="url(#SVGID_4_)" d="M225,316.632c-62.758,0-113.632-50.874-113.632-113.632c0-62.757,50.875-113.631,113.632-113.631
	c62.757,0,113.631,50.874,113.631,113.631C338.631,265.758,287.757,316.632,225,316.632z"/>
<path fill="#765C1A" d="M209.85,293.658c-6.987,0-12.651-5.664-12.651-12.65v-13.531h-12.554c-5.478,0-9.54-1.169-12.242-3.634
	c-2.774-2.533-4.122-6.39-4.122-11.476c0-4.598,1.264-8.263,3.833-10.879c2.442-2.373,5.664-3.581,9.03-3.823v-71.18
	c-3.461-0.084-6.486-1.752-9.059-3.928c-2.549-2.644-3.804-6.35-3.804-11.005c0-5.012,1.37-8.861,4.172-11.422
	c2.732-2.496,6.788-3.687,12.192-3.687h12.554v-10.429c0-6.986,5.664-12.651,12.651-12.651c6.005,0.102,11.129,4.218,12.334,10.12
	c1.171-6.147,6.282-9.814,12.332-10.12c6.987,0,12.652,5.665,12.652,12.651v11.491c7.667,0.878,14.691,4.06,21.13,8.161l0.069,0.051
	c8.541,6.394,12.854,15.799,12.854,27.901c0,6.032-1.317,11.414-3.954,16.099c-1.589,3.017-3.933,5.431-6.403,7.724
	c4.956,2.319,9.059,5.946,12.503,10.134c4.013,5.469,6.012,12.373,6.012,20.634c0,6.964-1.697,13.362-5.082,19.131
	c-3.375,5.753-8.199,10.469-14.433,14.116c-3.675,2.145-7.774,3.69-12.276,4.637c-2.66,0.595-5.274,0.878-9.29,1.105
	c-0.598,0.033-0.221,0.012-1.13,0.061v13.75c0,6.986-5.665,12.65-12.652,12.65c-6.005-0.102-11.129-4.218-12.332-10.119
	c-0.816,4.478-4.224,8.209-8.572,9.551c-0.802,0.248-1.646,0.336-2.469,0.504L209.85,293.658z M213.978,185.282h10.592
	c2.297-0.044,4.593-0.105,6.886-0.259c3.99-0.303,7.061-0.998,9.54-2.31c2.393-1.374,3.524-3.627,3.524-7.214
	c0-3.381-1.032-5.593-3.186-7.012c-2.52-1.662-7.095-2.559-13.498-2.559h-13.859V185.282z M213.978,238.2h12.096
	c1.781-0.051,3.563-0.083,5.346-0.136c5.282-0.165,8.852-0.56,12.325-1.531c3.211-0.898,5.33-1.939,6.823-3.602
	c1.566-1.739,2.244-4.042,2.319-7.128c0-4.551-1.519-7.495-4.664-9.27c-2.249-1.008-2.241-1.088-4.985-1.848
	c-4.796-1.326-11.065-1.327-16.029-1.383h-13.231V238.2z"/>
<linearGradient id="SVGID_5_" gradientUnits="userSpaceOnUse" x1="245.167" y1="88.5781" x2="348.573" y2="15.3398" gradientTransform="matrix(1 0 0 -1 -72.6001 256.0996)">
	<stop  offset="0" style="stop-color:#FBFFD3"/>
	<stop  offset="0.532" style="stop-color:#FFE67D"/>
	<stop  offset="1" style="stop-color:#FCFFE2"/>
</linearGradient>
<path fill="url(#SVGID_5_)" d="M207.51,287.654c-5.055,0-9.152-4.098-9.152-9.151v-16.435l0.031-0.598h-16.084
	c-4.601,0-7.895-0.906-9.882-2.72c-1.987-1.812-2.981-4.775-2.981-8.889c0-3.695,0.941-6.502,2.825-8.419
	c1.881-1.918,4.636-2.877,8.261-2.877h1.777v-78.016h-1.777c-3.625,0-6.38-0.977-8.261-2.929c-1.884-1.952-2.825-4.81-2.825-8.575
	c0-4.043,1.01-6.989,3.034-8.836c2.021-1.848,5.298-2.771,9.83-2.771h16.053V123.51c0-5.055,4.097-9.152,9.152-9.152
	c5.053,0,9.15,4.097,9.15,9.152v13.929h6.365V123.51c0-5.055,4.097-9.152,9.151-9.152c5.053,0,9.151,4.097,9.151,9.152v14.563
	c8.078,0.777,15.947,3.248,22.602,7.942c7.636,5.717,11.452,14.083,11.452,25.099c0,5.438-1.168,10.232-3.504,14.38
	c-2.335,4.148-5.805,7.546-10.405,10.196c7.599,2.789,13.176,6.605,16.733,11.451c3.554,4.846,5.333,11.034,5.333,18.563
	c0,6.345-1.533,12.132-4.602,17.36c-3.067,5.229-7.46,9.516-13.177,12.863c-3.347,1.952-7.095,3.364-11.242,4.234
	c-4.349,0.911-8.8,1.092-13.224,1.235l0.033,0.671v16.435c0,5.054-4.099,9.151-9.151,9.151c-5.054,0-9.151-4.098-9.151-9.151
	v-16.435l0.03-0.598h-6.426l0.03,0.598v16.435C216.661,283.557,212.563,287.654,207.51,287.654z M208.137,186.276h14.118
	c8.575,0,14.624-1.01,18.145-3.032c3.521-2.022,5.281-5.438,5.281-10.249c0-4.532-1.586-7.843-4.758-9.935
	c-3.173-2.092-8.314-3.138-15.426-3.138h-17.36V186.276z M208.137,239.195h15.687c7.736-0.188,16.332-0.121,23.426-3.66
	c4.532-2.44,6.797-6.52,6.797-12.236c0-5.787-2.16-9.9-6.483-12.34c-4.322-2.44-11.887-3.662-22.694-3.662h-16.732V239.195z"/>
<linearGradient id="SVGID_6_" gradientUnits="userSpaceOnUse" x1="242.9014" y1="89.668" x2="350.9221" y2="14.2791" gradientTransform="matrix(1 0 0 -1 -72.6001 256.0996)">
	<stop  offset="0" style="stop-color:#FFD366"/>
	<stop  offset="0.22" style="stop-color:#FFF998"/>
	<stop  offset="0.425" style="stop-color:#FFD05C"/>
	<stop  offset="0.551" style="stop-color:#FFD262"/>
	<stop  offset="0.763" style="stop-color:#FFF998"/>
	<stop  offset="1" style="stop-color:#FFD366"/>
</linearGradient>
<path fill="url(#SVGID_6_)" d="M207.51,290.199c-6.461,0-11.698-5.235-11.698-11.696v-14.487h-13.507
	c-5.176,0-9.06-1.067-11.598-3.384c-2.589-2.362-3.811-6.003-3.811-10.77c0-4.313,1.156-7.762,3.553-10.203
	c2.495-2.486,5.859-3.487,9.312-3.61v-72.979c-3.55,0.007-6.746-1.299-9.327-3.68c-2.388-2.475-3.537-5.966-3.537-10.343
	c0-4.698,1.245-8.325,3.862-10.716c2.567-2.348,6.438-3.438,11.547-3.438h13.507V123.51c0-6.461,5.237-11.698,11.698-11.698
	c6.459,0,11.695,5.236,11.695,11.698v11.383h1.275V123.51c0-6.461,5.237-11.698,11.696-11.698c6.46,0,11.697,5.236,11.697,11.698
	v12.315c7.749,0.893,15.099,3.752,21.522,8.108l0.06,0.043c8.306,6.22,12.472,15.35,12.472,27.137
	c0,5.861-1.273,11.085-3.831,15.629c-1.847,3.271-4.341,6.134-7.343,8.388c5.288,2.418,9.953,5.89,13.504,10.506
	c3.898,5.31,5.827,12.025,5.827,20.068c0,6.792-1.652,13.024-4.951,18.648c-3.294,5.613-8.003,10.211-14.091,13.774
	c-3.588,2.094-7.593,3.601-12.004,4.528c-3.667,0.821-7.427,0.996-11.165,1.193v14.654c0,6.461-5.237,11.696-11.697,11.696
	c-6.459,0-11.696-5.235-11.696-11.696v-14.487h-1.275v14.487C219.206,284.964,213.969,290.199,207.51,290.199z M207.51,285.108
	c3.646,0,6.604-2.957,6.604-6.605c0-17.441,0.275-10.921-0.162-19.578h11.782c-0.438,8.657-0.162,2.137-0.162,19.578
	c0,3.648,2.957,6.605,6.604,6.605c3.648,0,6.604-2.957,6.604-6.605c0-17.438,0.276-10.921-0.161-19.566l2.592-0.084
	c6.123-0.197,9.303-0.453,12.783-1.181c3.887-0.816,7.377-2.133,10.479-3.941c5.349-3.131,9.426-7.11,12.267-11.954
	c2.836-4.834,4.252-10.176,4.252-16.072c0-7.018-1.627-12.677-4.841-17.056c-3.232-4.407-8.396-7.94-15.558-10.568l-5.115-1.877
	l4.723-2.719c4.217-2.428,7.353-5.502,9.458-9.24c2.112-3.753,3.175-8.116,3.175-13.131c0.02-8.73-2.978-17.826-10.4-23.036
	c-7.142-5.013-15.125-6.872-23.653-7.69V123.51c0-3.649-2.956-6.605-6.604-6.605c-3.647,0-6.604,2.956-6.604,6.605v16.474h-11.458
	V123.51c0-3.649-2.958-6.605-6.604-6.605c-3.649,0-6.605,2.956-6.605,6.605v16.474h-18.6c-3.955,0-6.637,0.756-8.112,2.106
	c-1.427,1.303-2.205,3.567-2.205,6.956c0,3.155,0.733,5.379,2.111,6.809c1.357,1.409,3.448,2.15,6.429,2.15h4.324v83.109h-4.324
	c-2.99,0-5.087,0.729-6.445,2.112c-1.368,1.394-2.095,3.56-2.095,6.636c0,3.46,0.767,5.746,2.151,7.008
	c1.435,1.311,4.141,2.055,8.166,2.055h18.762c-0.437,8.657-0.162,2.137-0.162,19.578
	C200.905,282.151,203.861,285.108,207.51,285.108z M205.592,188.824v-31.447h19.905c7.564,0,13.156,1.137,16.826,3.559
	c3.929,2.588,5.904,6.713,5.904,12.06c0,5.679-2.203,9.957-6.561,12.457c-3.997,2.296-10.428,3.372-19.412,3.372H205.592z
	 M210.682,183.731h11.573c5.443-0.141,11.933-0.079,16.877-2.694c2.687-1.543,4.003-4.1,4.003-8.042
	c0-3.716-1.196-6.216-3.614-7.809c-2.673-1.763-7.364-2.717-14.023-2.717h-14.815V183.731z M205.592,241.74v-36.988h19.277
	c11.21,0,19.147,1.28,23.945,3.99c5.163,2.914,7.778,7.891,7.778,14.557c0,6.624-2.751,11.578-8.136,14.478l-0.071,0.037
	c-4.385,2.188-9.336,3.225-15.726,3.634c-2.94,0.187-5.891,0.229-8.836,0.293H205.592z M210.682,236.649h13.08
	c5.982-0.176,12.083-0.073,17.9-1.702c2.652-0.74,5.389-1.782,7.276-3.881c1.943-2.161,2.495-4.948,2.563-7.768
	c0-4.908-1.707-8.157-5.189-10.123c-6.269-3.14-14.572-3.284-21.443-3.332h-14.187V236.649z"/>
<path fill="#AD8C3C" d="M207.51,291.153c-6.988,0-12.652-5.663-12.652-12.65v-13.532h-12.553c-5.478,0-9.539-1.167-12.242-3.633
	c-2.774-2.532-4.122-6.39-4.122-11.476c0-4.597,1.264-8.263,3.833-10.879c2.442-2.373,5.664-3.581,9.03-3.822v-71.18
	c-3.461-0.085-6.486-1.753-9.059-3.929c-2.549-2.643-3.805-6.35-3.805-11.005c0-5.012,1.37-8.86,4.172-11.421
	c2.732-2.496,6.787-3.687,12.191-3.687h12.553V123.51c0-6.987,5.665-12.652,12.652-12.652c6.005,0.103,11.129,4.219,12.333,10.121
	c1.171-6.147,6.282-9.814,12.333-10.121c6.987,0,12.651,5.665,12.651,12.652v11.491c7.667,0.877,14.691,4.059,21.131,8.16
	l0.069,0.051c8.54,6.394,12.854,15.801,12.854,27.901c0,6.033-1.317,11.415-3.954,16.099c-1.588,3.017-3.933,5.431-6.402,7.724
	c4.956,2.32,9.058,5.947,12.502,10.135c4.014,5.468,6.012,12.372,6.012,20.634c0,6.964-1.697,13.363-5.082,19.132
	c-3.374,5.753-8.199,10.466-14.432,14.115c-3.675,2.145-7.775,3.689-12.277,4.636c-2.661,0.596-5.274,0.879-9.29,1.105
	c-0.598,0.033-0.22,0.013-1.13,0.063v13.748c0,6.987-5.664,12.65-12.651,12.65c-6.006-0.102-11.13-4.218-12.333-10.119
	c-0.816,4.478-4.223,8.209-8.572,9.552c-0.802,0.248-1.646,0.336-2.469,0.503L207.51,291.153z M207.51,286.063
	c-4.175,0-7.561-3.386-7.561-7.561c0-3.845-0.013-6.779-0.035-9.191c-0.131-3.148-0.011-6.289,0.148-9.433h-17.758
	c-4.148,0-7.125-0.767-8.811-2.303c-1.65-1.507-2.46-4.09-2.46-7.714c0-3.256,0.777-5.686,2.366-7.304
	c1.583-1.612,3.95-2.4,7.127-2.4h3.37v-81.199h-3.37c-3.173,0-5.535-0.8-7.116-2.441c-1.595-1.655-2.377-4.142-2.377-7.471
	c0-3.561,0.826-6.12,2.514-7.661c1.722-1.573,4.673-2.356,8.757-2.356h17.645V123.51c0-4.175,3.385-7.561,7.561-7.561
	c4.174,0,7.558,3.385,7.558,7.561v15.519h9.549V123.51c0-4.175,3.384-7.561,7.559-7.561s7.561,3.385,7.561,7.561v16.018
	c8.3,0.704,16.316,3.099,23.247,7.768c7.142,5.013,10.826,13.851,10.807,23.817c0,5.162-1.098,9.689-3.3,13.6
	c-2.195,3.899-5.461,7.092-9.813,9.599l-2.952,1.699l3.197,1.173c7.293,2.676,12.629,6.309,15.999,10.899
	c3.354,4.572,5.024,10.44,5.024,17.622c0,6.062-1.457,11.569-4.383,16.555c-2.929,4.996-7.128,9.087-12.609,12.297
	c-3.196,1.865-6.784,3.215-10.765,4.051c-3.415,0.715-6.501,0.993-12.948,1.2l-1.618,0.053c0.092,1.857,0.211,3.713,0.195,5.572
	c-0.001,0.21-0.034,2.653-0.047,3.883c-0.023,2.41-0.035,5.344-0.035,9.188c0,4.175-3.386,7.561-7.561,7.561
	s-7.559-3.386-7.559-7.561c0-3.845-0.014-6.779-0.037-9.191c-0.131-3.148-0.009-6.289,0.148-9.433h-9.772
	c0.092,1.849,0.21,3.698,0.195,5.549c-0.002,0.215-0.036,2.657-0.047,3.884c-0.022,2.412-0.037,5.347-0.037,9.191
	C215.068,282.678,211.684,286.063,207.51,286.063z M207.51,284.154c3.119,0,5.649-2.53,5.649-5.651c0-3.852,0.015-6.79,0.037-9.209
	c0.167-3.78-0.057-7.551-0.247-11.325h13.788c-0.092,2.481-0.313,4.959-0.294,7.442c0.003,0.209,0.036,2.649,0.047,3.883
	c0.022,2.419,0.037,5.357,0.037,9.209c0,3.121,2.529,5.651,5.649,5.651c3.121,0,5.65-2.53,5.65-5.651
	c0-3.851,0.013-6.789,0.037-9.207c0.164-3.766-0.057-7.522-0.247-11.282l3.563-0.115c6.345-0.204,9.336-0.474,12.617-1.16
	c3.784-0.796,7.18-2.073,10.194-3.831c5.204-3.047,9.165-6.908,11.926-11.613c2.751-4.689,4.12-9.864,4.12-15.59
	c0-6.799-1.557-12.271-4.654-16.492c-3.127-4.26-8.152-7.681-15.116-10.236l-7.035-2.581l6.493-3.74
	c4.063-2.338,7.081-5.288,9.103-8.879c2.034-3.613,3.053-7.819,3.053-12.666c0.02-9.393-3.418-17.636-9.994-22.252
	c-6.299-4.421-13.479-6.589-23.196-7.522l-0.863-0.083V123.51c0-3.122-2.529-5.651-5.65-5.651c-3.12,0-5.649,2.53-5.649,5.651
	v17.428h-13.368V123.51c0-3.122-2.53-5.651-5.649-5.651c-3.122,0-5.651,2.53-5.651,5.651v17.428h-19.554
	c-3.652,0-6.168,0.667-7.469,1.856c-1.229,1.124-1.893,3.178-1.893,6.252c0,2.876,0.634,4.893,1.841,6.146
	c1.181,1.225,3.047,1.857,5.743,1.857h5.279v85.019h-5.279c-2.706,0-4.583,0.624-5.764,1.827c-1.194,1.218-1.82,3.171-1.82,5.967
	c0,3.14,0.653,5.221,1.838,6.304c1.261,1.148,3.807,1.803,7.524,1.803h19.766c-0.092,2.481-0.315,4.959-0.295,7.442
	c0.002,0.209,0.034,2.649,0.048,3.883c0.022,2.419,0.035,5.357,0.035,9.209C201.859,281.624,204.388,284.154,207.51,284.154z
	 M204.637,242.696v-38.898h20.232c11.456,0,19.479,1.326,24.415,4.111c5.453,3.079,8.265,8.363,8.265,15.39
	c0,6.987-2.953,12.256-8.652,15.326l-0.084,0.041c-4.365,2.18-9.334,3.303-16.091,3.733c-1.887,0.119-3.712,0.184-6.544,0.246
	l-2.354,0.051H204.637z M206.546,240.786h17.257l2.333-0.05c2.807-0.062,4.608-0.125,6.463-0.242
	c6.523-0.417,11.25-1.484,15.348-3.529l0.057-0.029c5.049-2.719,7.635-7.333,7.635-13.637c0-6.365-2.467-11.002-7.293-13.726
	c-4.583-2.586-12.321-3.866-23.477-3.866h-18.323V240.786z M209.728,237.604v-28.715h15.148c5.441,0.178,11.306-0.023,16.599,1.468
	c2.9,0.816,2.914,0.911,5.307,1.986c3.822,2.159,5.675,5.751,5.675,10.979c-0.084,3.521-0.888,6.248-2.808,8.382
	c-1.791,1.992-4.199,3.176-7.729,4.164c-3.654,1.021-7.357,1.432-12.779,1.6c-1.793,0.055-3.586,0.086-5.378,0.137H209.728z
	 M211.637,235.695h12.097c1.782-0.051,3.563-0.083,5.346-0.136c5.283-0.164,8.852-0.559,12.325-1.531
	c3.211-0.898,5.33-1.939,6.824-3.601c1.565-1.74,2.243-4.042,2.317-7.129c0-4.55-1.518-7.494-4.662-9.269
	c-2.25-1.009-2.242-1.088-4.985-1.848c-4.797-1.327-11.066-1.328-16.03-1.383h-13.232V235.695z M204.637,189.778v-33.355h20.86
	c7.814,0,13.534,1.197,17.353,3.715c4.186,2.76,6.332,7.17,6.332,12.857c0,6.042-2.396,10.62-7.039,13.286
	c-4.135,2.375-10.66,3.498-19.888,3.498H204.637z M206.546,187.869h15.709c8.922,0,15.155-1.073,18.937-3.244
	c4.021-2.309,6.081-6.243,6.081-11.63c0-5.072-1.852-8.875-5.474-11.262c-3.449-2.274-8.827-3.401-16.302-3.401h-18.951V187.869z
	 M209.728,184.687v-23.172h15.769c6.743,0,11.65,0.963,14.55,2.875c2.726,1.798,4.043,4.62,4.043,8.606
	c0,4.232-1.456,7.131-4.511,8.885c-2.781,1.473-6.089,2.221-10.317,2.543c-2.332,0.178-4.67,0.207-7.007,0.264H209.728z
	 M211.637,182.777h10.593c2.297-0.044,4.593-0.104,6.886-0.258c3.991-0.304,7.062-0.998,9.54-2.311
	c2.393-1.375,3.524-3.628,3.524-7.213c0-3.381-1.033-5.593-3.186-7.012c-2.521-1.662-7.096-2.56-13.498-2.56h-13.86V182.777z
	 M207.51,289.244c5.932,0,10.741-4.808,10.741-10.741v-15.441h3.183v15.441c0,5.934,4.811,10.741,10.742,10.741
	c5.934,0,10.742-4.808,10.742-10.741v-15.56c0.978-0.053,1.955-0.103,2.933-0.157c3.918-0.221,6.443-0.495,8.992-1.065
	c4.317-0.907,8.225-2.381,11.718-4.419c5.957-3.485,10.543-7.968,13.749-13.432c3.209-5.474,4.819-11.537,4.819-18.166
	c0-7.876-1.884-14.384-5.629-19.486c-3.344-4.345-7.809-7.78-13.145-10.22l-1.459-0.668l1.283-0.963
	c2.883-2.164,5.295-4.923,7.084-8.094c2.47-4.386,3.708-9.445,3.708-15.16c0-11.521-4.051-20.355-12.076-26.365l-0.035-0.024
	c-6.413-4.349-13.631-7.09-21.098-7.951l-0.845-0.097V123.51c0-5.934-4.81-10.743-10.742-10.743
	c-5.932,0-10.742,4.809-10.742,10.743v12.338h-3.183V123.51c0-5.934-4.81-10.743-10.741-10.743c-5.934,0-10.742,4.809-10.742,10.743
	v12.338h-14.463c-4.969,0-8.574,1.058-10.904,3.187c-2.362,2.161-3.55,5.496-3.55,10.012c0,4.194,1.095,7.424,3.23,9.642
	c2.437,2.248,5.412,3.432,8.677,3.426l0.957-0.001v74.857l-0.922,0.033c-3.567,0.128-6.538,1.209-8.662,3.325
	c-2.181,2.223-3.279,5.405-3.279,9.534c0,4.592,1.167,7.938,3.499,10.064c2.297,2.095,5.911,3.135,10.955,3.135h14.463v15.441
	C196.769,284.437,201.576,289.244,207.51,289.244z"/>
<path opacity="0.357" fill="#FFFFFF" enable-background="new    " d="M178.921,148.712c-3.122,1.88-7.177,0.871-9.056-2.252
	c-1.881-3.122-0.871-7.177,2.252-9.057c3.122-1.88,7.177-0.87,9.056,2.252C183.053,142.778,182.044,146.833,178.921,148.712z"/>
<path fill="#FFFFFF" d="M176.408,146.206c-0.773-1.31-0.495-0.83-0.844-1.431c-0.754,2.342-1.232,4.815-2.271,7.061
	c-0.55,1.022,0-2.078,1.229-6.926l0.104-0.398c-0.707,0.405-1.406,0.823-2.121,1.214c-3.043,1.664-3.849,2.075-6.485,3.412
	c-0.918,0.466-1.869,0.972-2.894,1.146l-0.066-0.057c0.421-0.717,1.346-1.227,2.026-1.688c0.918-0.622,1.433-0.978,2.371-1.57
	c3.406-2.147,2.886-1.807,6.346-3.865c-2.349-0.737-4.814-1.232-7.061-2.271c-1.023-0.55,2.078,0,6.926,1.229l0.389,0.101
	c-1.461-2.563-2.882-5.147-4.21-7.78c-0.55-1.09-1.137-2.206-1.5-3.377c-0.491-1.739,2.322,2.248,6.284,8.905
	c0.773,1.309,0.495,0.83,0.843,1.43c0.754-2.341,1.233-4.815,2.272-7.061c0.55-1.022,0,2.078-1.229,6.927l-0.103,0.397
	c0.707-0.404,1.406-0.823,2.121-1.214c3.043-1.664,3.849-2.075,6.484-3.412c0.918-0.466,1.869-0.972,2.895-1.145l0.065,0.056
	c-0.672,0.925-2.617,2.11-3.518,2.689c-2.099,1.353-2.45,1.554-4.578,2.861c-1.761,1.056-0.878,0.531-2.646,1.572
	c2.349,0.738,4.814,1.233,7.061,2.272c1.023,0.55-2.078,0-6.926-1.229l-0.39-0.101c1.461,2.562,2.883,5.146,4.21,7.779
	c0.551,1.091,1.138,2.206,1.5,3.377C183.183,156.85,180.37,152.862,176.408,146.206z"/>
<path opacity="0.357" fill="#FFFFFF" enable-background="new    " d="M262.928,259.291c-4.618-1.475-7.166-6.412-5.691-11.03
	c1.475-4.619,6.413-7.166,11.03-5.692c4.618,1.475,7.167,6.412,5.693,11.03C272.485,258.218,267.545,260.766,262.928,259.291z"/>
<path fill="#FFFFFF" d="M263.23,254.581c0.631-1.923,0.395-1.224,0.69-2.099c-3.002,1.3-5.896,2.989-9.052,3.922
	c-1.506,0.346,2.077-1.823,8.002-4.848l0.489-0.245c-1.025-0.353-2.057-0.684-3.075-1.055c-4.333-1.585-5.45-2.03-9.099-3.493
	c-1.271-0.509-2.611-1.017-3.683-1.888l-0.003-0.118c1.087-0.207,2.407,0.271,3.465,0.547c1.427,0.371,2.234,0.574,3.65,0.994
	c5.133,1.522,4.337,1.3,9.43,2.954c-1.322-2.995-2.989-5.896-3.922-9.051c-0.347-1.506,1.823,2.077,4.848,8.001l0.238,0.479
	c1.282-3.708,2.62-7.396,4.088-11.034c0.606-1.505,1.209-3.071,2.061-4.462c1.308-2.015-0.212,4.295-3.393,14.094
	c-0.631,1.923-0.396,1.224-0.69,2.098c3.002-1.299,5.896-2.989,9.051-3.921c1.506-0.347-2.077,1.823-8.001,4.848l-0.489,0.244
	c1.024,0.353,2.056,0.685,3.074,1.056c4.333,1.584,5.451,2.03,9.1,3.493c1.271,0.509,2.611,1.017,3.683,1.888l0.002,0.116
	c-1.515,0.139-4.405-0.769-5.774-1.158c-3.193-0.912-3.701-1.089-6.876-2.068c-2.6-0.836-1.301-0.412-3.895-1.267
	c1.323,2.995,2.989,5.896,3.923,9.052c0.347,1.505-1.823-2.077-4.849-8.002l-0.237-0.479c-1.282,3.708-2.62,7.396-4.088,11.033
	c-0.607,1.506-1.209,3.072-2.061,4.461C258.529,270.689,260.05,264.38,263.23,254.581z"/>
<path opacity="0.357" fill="#FFFFFF" enable-background="new    " d="M323.835,257.961c-0.854-1.881-0.022-4.098,1.857-4.951
	c1.881-0.855,4.097-0.023,4.952,1.857c0.854,1.881,0.021,4.097-1.858,4.951C326.905,260.673,324.689,259.841,323.835,257.961z"/>
<path fill="#FFFFFF" d="M325.409,256.709c0.787-0.351,0.5-0.225,0.86-0.381c-1.269-0.577-2.629-1.009-3.826-1.739
	c-0.54-0.376,1.17,0.135,3.819,1.143l0.217,0.084c-0.182-0.424-0.372-0.845-0.545-1.272c-0.739-1.821-0.917-2.302-1.498-3.872
	c-0.202-0.548-0.425-1.116-0.456-1.704l0.036-0.034c0.376,0.284,0.603,0.837,0.817,1.251c0.29,0.558,0.457,0.87,0.729,1.438
	c0.986,2.057,0.829,1.741,1.762,3.823c0.569-1.273,1.008-2.63,1.739-3.826c0.376-0.54-0.135,1.17-1.143,3.818l-0.082,0.212
	c1.536-0.654,3.085-1.287,4.652-1.862c0.65-0.238,1.316-0.496,1.999-0.624c1.01-0.163-1.417,1.161-5.422,2.957
	c-0.787,0.35-0.5,0.224-0.86,0.381c1.27,0.577,2.63,1.008,3.826,1.738c0.54,0.377-1.17-0.135-3.818-1.143l-0.218-0.084
	c0.183,0.424,0.372,0.845,0.545,1.273c0.739,1.82,0.918,2.302,1.498,3.872c0.202,0.548,0.426,1.115,0.456,1.703l-0.035,0.034
	c-0.478-0.438-1.017-1.611-1.284-2.156c-0.625-1.27-0.715-1.479-1.313-2.763c-0.479-1.06-0.241-0.529-0.712-1.593
	c-0.569,1.274-1.008,2.63-1.739,3.827c-0.376,0.54,0.136-1.17,1.144-3.819l0.082-0.212c-1.537,0.655-3.085,1.287-4.653,1.863
	c-0.649,0.237-1.315,0.496-1.999,0.624C318.978,259.829,321.404,258.505,325.409,256.709z"/>
</svg>
