<?xml version="1.0" encoding="utf-8"?>
<!-- Generator: Adobe Illustrator 15.1.0, SVG Export Plug-In  -->
<!DOCTYPE svg PUBLIC "-//W3C//DTD SVG 1.1//EN" "http://www.w3.org/Graphics/SVG/1.1/DTD/svg11.dtd" [
	<!ENTITY ns_flows "http://ns.adobe.com/Flows/1.0/">
]>
<svg version="1.1"
	 xmlns="http://www.w3.org/2000/svg" xmlns:xlink="http://www.w3.org/1999/xlink" xmlns:a="http://ns.adobe.com/AdobeSVGViewerExtensions/3.0/"
	 x="0px" y="0px" width="512px" height="512px" viewBox="-17.3 -11.625 512 512" enable-background="new -17.3 -11.625 512 512"
	 xml:space="preserve">
<defs>
</defs>
<path fill="#F45B69" d="M476.9,476.375c0,0,0-225.8,0-301c0-3.1-3.9-7-7.7-9.9l-78.7-57.1v-63.1c0-6.2-5.2-10.4-10.399-10.4h-89.7
	l-45.7-33.3c-3.1-2.1-8.3-2.1-11.5,0l-45.7,33.3H97.8c-6.2,0-10.4,5.2-10.4,10.4v62.4l-79.7,57.9c-4.7,2.9-7.7,6.7-7.7,9.9
	c0,75.7,0,303,0,303c0,5.9,4.7,10,9.6,10.4c0.3,0,0.5,0,0.8,0h456C473.101,488.775,476.9,483.575,476.9,476.375z M457.101,194.075
	v263.6L285,319.875L457.101,194.075z M449.4,175.775l-58.9,42.9v-86.2L449.4,175.775z M238.5,21.275l18.3,13.5h-36.7L238.5,21.275
	L238.5,21.275z M369.7,55.675v178.2l-131.2,95.6l-131.2-95.6v-178.2H369.7L369.7,55.675z M19.9,194.075l172.1,125.8l-172.1,138.6
	V194.075z M87.5,219.475l-60.4-44l60.4-43.9V219.475z M38.6,468.975l170.1-136.899l23.5,17.2c4.5,3.399,7.9,3.399,12.5,0l23.5-17.2
	l171.1,136.899H38.6L38.6,468.975z"/>
<rect x="168.8" y="106.675" fill="#F45B69" width="140.5" height="19.8"/>
<rect x="168.8" y="170.175" fill="#F45B69" width="140.5" height="19.8"/>
<rect x="168.8" y="233.675" fill="#F45B69" width="140.5" height="19.8"/>
</svg>
