<?xml version="1.0" encoding="utf-8"?>
<!-- Generator: Adobe Illustrator 15.1.0, SVG Export Plug-In  -->
<!DOCTYPE svg PUBLIC "-//W3C//DTD SVG 1.1//EN" "http://www.w3.org/Graphics/SVG/1.1/DTD/svg11.dtd" [
	<!ENTITY ns_flows "http://ns.adobe.com/Flows/1.0/">
]>
<svg version="1.1"
	 xmlns="http://www.w3.org/2000/svg" xmlns:xlink="http://www.w3.org/1999/xlink" xmlns:a="http://ns.adobe.com/AdobeSVGViewerExtensions/3.0/"
	 x="0px" y="0px" width="35px" height="35px" viewBox="-6.506 -0.121 35 35" enable-background="new -6.506 -0.121 35 35"
	 xml:space="preserve">
<defs>
</defs>
<path fill="#8991B1" d="M0,17.628c1.305-2.149,2.609-4.299,3.915-6.467c2.17-3.608,4.356-7.216,6.525-10.824
	c0.058-0.115,0.115-0.21,0.172-0.325c0.057-0.021,0.116-0.021,0.134,0.057c0.078,0.402,0.078,0.805,0.078,1.209
	c0,3.588,0,7.177,0,10.766c0,0.23,0.019,0.48-0.039,0.71c-0.057,0.192-0.23,0.268-0.384,0.345c-3.263,1.496-6.526,2.955-9.788,4.452
	c-0.172,0.076-0.344,0.211-0.536,0.076l-0.021,0.02L0,17.628z"/>
<path fill="#63698F" d="M10.651,12.869c0-3.089,0-6.18,0.019-9.289c0-1.017,0-2.053,0-3.07c0-0.153-0.057-0.307,0.059-0.441
	c2.955,4.894,5.89,9.787,8.847,14.661c0.574,0.96,1.15,1.919,1.727,2.898c-0.172,0.116-0.327,0.02-0.461-0.058
	c-1.919-0.883-3.819-1.747-5.738-2.609c-1.381-0.633-2.744-1.248-4.125-1.881c-0.096-0.037-0.212-0.076-0.288-0.153
	C10.669,12.908,10.669,12.888,10.651,12.869z"/>
<path fill="#63698F" d="M0.039,17.628c0.883-0.307,1.688-0.729,2.534-1.112c2.667-1.191,5.314-2.4,7.964-3.608
	c0.037-0.02,0.076-0.02,0.115-0.039l0.019,0.019c0.134,0.155,0.134,0.327,0.134,0.519c0,3.377,0,6.775,0,10.152
	c0,0.135-0.039,0.268-0.057,0.402c-0.114,0.135-0.21,0-0.288-0.038c-3.416-2.015-6.832-4.029-10.248-6.064
	C0.135,17.802,0,17.783,0.039,17.628z"/>
<path fill="#464B76" d="M10.765,23.961c-0.133-0.096-0.096-0.249-0.096-0.384c0-3.569,0-7.12,0-10.689
	c0.903,0.288,1.728,0.75,2.572,1.134c2.647,1.189,5.296,2.398,7.926,3.588c0.039,0.019,0.077,0.019,0.116,0.038
	c0.037,0.154-0.116,0.173-0.192,0.231c-3.416,2.015-6.832,4.029-10.248,6.044C10.843,23.942,10.804,23.942,10.765,23.961z"/>
<path fill="#8991B1" d="M10.594,34.747c-0.844-1.21-1.69-2.42-2.552-3.627c-2.668-3.781-5.354-7.543-8.023-11.323
	c0.825,0.346,1.536,0.864,2.303,1.306c2.649,1.553,5.279,3.128,7.927,4.682c0.153,0.096,0.307,0.211,0.499,0.191
	c0.057,0.135,0.057,0.27,0.057,0.404c0,2.475,0,4.951,0,7.445c0,0.288,0,0.576-0.057,0.864
	C10.728,34.766,10.669,34.766,10.594,34.747z"/>
<path fill="#63698F" d="M10.747,34.689c-0.114-0.116-0.077-0.27-0.077-0.384c0-2.63,0-5.259,0-7.889
	c0-0.153-0.019-0.307,0.077-0.441c3.473-2.053,6.947-4.106,10.42-6.16c0.077,0.097,0.021,0.153-0.019,0.211
	C17.693,24.9,14.22,29.796,10.747,34.689z"/>
</svg>
