<?xml version="1.0" encoding="utf-8"?>
<!-- Generator: Adobe Illustrator 15.1.0, SVG Export Plug-In  -->
<!DOCTYPE svg PUBLIC "-//W3C//DTD SVG 1.1//EN" "http://www.w3.org/Graphics/SVG/1.1/DTD/svg11.dtd" [
	<!ENTITY ns_flows "http://ns.adobe.com/Flows/1.0/">
]>
<svg version="1.1"
	 xmlns="http://www.w3.org/2000/svg" xmlns:xlink="http://www.w3.org/1999/xlink" xmlns:a="http://ns.adobe.com/AdobeSVGViewerExtensions/3.0/"
	 x="0px" y="0px" width="25px" height="25px" viewBox="0 0 25 25" enable-background="new 0 0 25 25" xml:space="preserve">
<defs>
</defs>
<path display="none" fill="#E53935" d="M19.043,3.303L7.291,8.828v3.548l-2.05-0.912V7.917l11.751-5.525l-3.947-1.754
	c-0.528-0.235-1.394-0.235-1.922,0l-9.719,4.32C0.63,5.302-0.001,6.277,0,7.125l0.024,10.13c0.002,0.856,0.648,1.833,1.435,2.169
	l9.694,4.145c0.511,0.221,1.348,0.221,1.859,0l9.696-4.145c0.787-0.336,1.435-1.313,1.437-2.168l0.022-10.131
	c0.002-0.848-0.629-1.822-1.403-2.166L19.043,3.303z M21.973,11.413l-0.568,0.264l-0.012,4.003c0,0.174-0.153,0.383-0.344,0.465
	l-0.852,0.366c-0.188,0.081-0.338,0.007-0.338-0.167l-0.004-3.95l-0.551,0.256c-0.262,0.119-0.424-0.069-0.294-0.34l1.317-2.778
	c0.133-0.28,0.465-0.442,0.598-0.29l1.354,1.541C22.415,10.936,22.245,11.287,21.973,11.413z M16.413,17.84
	c0.002,0.168-0.142,0.365-0.315,0.439l-0.789,0.342c-0.174,0.074-0.314,0.002-0.316-0.164l-0.047-3.784l-0.512,0.237
	c-0.24,0.111-0.394-0.071-0.275-0.33l1.195-2.64c0.121-0.267,0.433-0.417,0.558-0.27l1.274,1.495
	c0.127,0.147-0.026,0.481-0.278,0.599l-0.525,0.243L16.413,17.84z M22.913,16.741c0,0.088-0.078,0.192-0.177,0.231l-9.021,3.788
	c-0.085,0.036-0.151-0.002-0.153-0.081l-0.008-0.44c0-0.081,0.065-0.177,0.149-0.212l9.037-3.852
	c0.096-0.041,0.174-0.003,0.174,0.085L22.913,16.741z"/>
<path id="Dropbox_2_" display="none" fill="#E53935" d="M19.475,9.576L12.372,5.25l4.479-3.708l7.106,4.374L19.475,9.576z
	 M16.803,17.754l6.823-3.993l-4.104-3.471l-6.679,4.042L16.803,17.754z M11.326,14.331l-6.68-4.042L0.544,13.76l6.822,3.993
	L11.326,14.331z M4.98,17.184v1.283l6.818,4.186v-7.939L7.271,18.42L4.98,17.184z M19.188,17.184l-2.289,1.236l-4.525-3.709v7.941
	l6.814-4.188V17.184z M11.798,5.25l-4.48-3.708L0.209,5.915l4.485,3.661L11.798,5.25z"/>
<path display="none" fill="#E53935" d="M21.104,9.072h-1.59V7.056C19.514,3.165,16.18,0,12.084,0C7.987,0,4.655,3.165,4.655,7.056
	v2.017H3.063c-0.293,0-0.531,0.225-0.531,0.504V22.18c0,1.11,0.952,2.016,2.123,2.016h14.859c1.172,0,2.123-0.903,2.123-2.016V9.576
	C21.637,9.297,21.4,9.072,21.104,9.072z M13.672,19.6c0.018,0.146-0.031,0.287-0.132,0.396c-0.101,0.104-0.244,0.166-0.396,0.166
	h-2.123c-0.151,0-0.294-0.063-0.396-0.166c-0.1-0.105-0.148-0.25-0.132-0.396l0.334-2.855c-0.543-0.377-0.868-0.973-0.868-1.623
	c0-1.111,0.952-2.018,2.123-2.018s2.124,0.904,2.124,2.018c0,0.65-0.327,1.246-0.87,1.623L13.672,19.6z M16.331,9.072H7.839V7.056
	c0-2.223,1.904-4.032,4.245-4.032c2.34,0,4.246,1.809,4.246,4.032L16.331,9.072L16.331,9.072z"/>
<ellipse fill="#F45B69" cx="13.337" cy="12.5" rx="7.476" ry="7.237"/>
<path fill="#F45B69" d="M12.896,0.882c-4.28,0-8.071,2.324-10.027,5.87L1.442,4.894l-0.956,5.895l5.465-0.668l-1.37-1.656
	c1.589-3.059,4.646-5.138,8.315-5.138c5.014,0,9.172,4.158,9.172,9.174c0,5.014-4.158,9.172-9.172,9.172
	c-4.035,0-7.337-2.568-8.683-6.115H1.646c1.344,4.893,5.87,8.562,11.25,8.562c6.482,0,11.617-5.259,11.617-11.618
	C24.514,6.142,19.256,0.882,12.896,0.882z"/>
<polygon fill="#FFFFFF" points="17.559,15.188 13.5,12.754 13.5,8.491 11.98,8.491 11.98,13.666 16.747,16.506 "/>
</svg>
