<?xml version="1.0" encoding="utf-8"?>
<!-- Generator: Adobe Illustrator 15.1.0, SVG Export Plug-In  -->
<!DOCTYPE svg PUBLIC "-//W3C//DTD SVG 1.1//EN" "http://www.w3.org/Graphics/SVG/1.1/DTD/svg11.dtd" [
	<!ENTITY ns_flows "http://ns.adobe.com/Flows/1.0/">
]>
<svg version="1.1"
	 xmlns="http://www.w3.org/2000/svg" xmlns:xlink="http://www.w3.org/1999/xlink" xmlns:a="http://ns.adobe.com/AdobeSVGViewerExtensions/3.0/"
	 x="0px" y="0px" width="512px" height="512px" viewBox="-39.116 0.001 512 512" enable-background="new -39.116 0.001 512 512"
	 xml:space="preserve">
<defs>
</defs>
<path fill="#F45B69" d="M137.76,219.711v188.407c0,8.378-5.283,15.829-13.167,18.589c-11.157,3.923-24.621,5.992-38.951,5.992l0,0
	c-41.218,0-85.55-16.913-85.55-54.05V137.572c-0.926-16.558,4.849-45.811,32.584-61.64C45.547,68.58,113.14,25.115,147.084,3.155
	c6.052-3.922,13.779-4.199,20.126-0.769c6.347,3.469,10.29,10.112,10.29,17.327v28.543c0,10.881-8.831,19.712-19.712,19.712
	c-8.476,0-15.71-5.342-18.49-12.872c-30.672,19.712-75.852,48.649-87.068,55.056c-10.093,5.775-12.281,16.38-12.714,22.136
	c0,6.466,1.399,11.551,3.922,14.331c6.998,7.628,30.317,2.878,55.766-12.399c24.443-14.666,145.001-94.933,146.204-95.741
	c6.091-4.041,13.857-4.416,20.225-0.966c6.426,3.43,10.428,10.112,10.428,17.386v2.247c0,6.584-3.292,12.734-8.753,16.4
	c0,0-83.697,55.864-91.108,60.615C147.833,152.415,137.76,174.808,137.76,219.711z M433.756,124.582v255.901
	c0,6.761-3.489,13.069-9.226,16.677c0,0-114.921,89.256-138.24,103.429c-12.261,7.471-27.873,11.413-45.121,11.413
	c-40.981,0-83.382-22.176-83.382-59.254V213.917v-5.776c0-0.079,0.059-0.158,0.059-0.256c0.395-14.429,3.765-35.028,30.593-54.819
	c16.085-11.867,111.886-77.192,115.946-79.952c6.052-4.1,13.877-4.534,20.303-1.143c6.466,3.41,10.507,10.112,10.507,17.425v28.543
	c0,10.881-8.812,19.712-19.712,19.712c-8.142,0-15.139-4.928-18.135-11.985c-30.574,20.915-75.458,51.725-85.511,59.116
	c-12.694,9.383-14.39,15.573-14.606,23.517c0.04,5.894,1.636,10.388,4.869,13.345c10.053,9.206,37.118,5.342,63.808-10.665
	c19.752-11.866,104.868-77.586,135.974-101.911c5.973-4.612,14.016-5.46,20.797-2.168
	C429.458,110.192,433.756,117.032,433.756,124.582z M394.332,212.418l-98.56,76.463v39.424l98.56-76.463V212.418z"/>
</svg>
