<?xml version="1.0" encoding="utf-8"?>
<!-- Generator: Adobe Illustrator 15.1.0, SVG Export Plug-In  -->
<!DOCTYPE svg PUBLIC "-//W3C//DTD SVG 1.1//EN" "http://www.w3.org/Graphics/SVG/1.1/DTD/svg11.dtd" [
	<!ENTITY ns_flows "http://ns.adobe.com/Flows/1.0/">
]>
<svg version="1.1"
	 xmlns="http://www.w3.org/2000/svg" xmlns:xlink="http://www.w3.org/1999/xlink" xmlns:a="http://ns.adobe.com/AdobeSVGViewerExtensions/3.0/"
	 x="0px" y="0px" width="652px" height="612px" viewBox="-29.5 -110.495 652 612" enable-background="new -29.5 -110.495 652 612"
	 xml:space="preserve">
<defs>
</defs>
<path fill="none" stroke="#F45B69" stroke-width="15" stroke-miterlimit="10" d="M188.798,275.769
	c-29.77,0-53.915,24.146-53.915,53.827c0,29.77,24.145,53.914,53.915,53.914c29.683,0,53.827-24.146,53.827-53.914
	C242.625,299.914,218.481,275.769,188.798,275.769z M188.798,356.596c-14.885,0-27-12.115-27-27c0-14.798,12.115-26.914,27-26.914
	c14.797,0,26.913,12.115,26.913,26.914C215.711,344.48,203.596,356.596,188.798,356.596z M142.388,275.792H21.728
	c-4.779,0-8.653,3.874-8.653,8.652v26.257c0,4.778,3.874,8.652,8.653,8.652h96.714C120.968,302.029,129.712,286.724,142.388,275.792
	z M470.481,275.769c-29.685,0-53.827,24.146-53.827,53.827c0,29.77,24.144,53.914,53.827,53.914
	c29.769,0,53.825-24.146,53.825-53.914C524.308,299.914,500.25,275.769,470.481,275.769z M470.481,356.596
	c-14.886,0-26.914-12.115-26.914-27c0-14.798,12.028-26.914,26.914-26.914c14.884,0,26.912,12.115,26.912,26.914
	C497.395,344.48,485.365,356.596,470.481,356.596z M610.847,275.769h-21.028V158.163c0-13.759-4.154-27.259-11.856-38.683
	l-52.701-78.057c-12.809-19.039-34.355-30.462-57.375-30.462h-81.691c-9.521,0-17.309,7.702-17.309,17.308v247.5H235.183
	c12.635,10.99,21.375,26.223,23.885,43.615h141.144c4.933-34.355,34.529-60.923,70.271-60.923c35.738,0,65.336,26.567,70.354,60.923
	h70.01c4.848,0,8.653-3.895,8.653-8.654v-26.307C619.5,279.663,615.692,275.769,610.847,275.769z M524.653,135.057H416.827
	c-4.76,0-8.654-3.808-8.654-8.654V66.606c0-4.76,3.896-8.654,8.654-8.654h65.683c2.855,0,5.539,1.384,7.098,3.634l42.145,59.884
	C535.817,127.182,531.663,135.057,524.653,135.057z M327.692,258.461H24.807c-9.558,0-17.307-7.748-17.307-17.308v-77.884
	c0-9.559,7.749-17.308,17.307-17.308h302.885c9.559,0,17.308,7.749,17.308,17.308v77.884
	C345,250.713,337.251,258.461,327.692,258.461z M145.962,120H24.807C15.249,120,7.5,112.25,7.5,102.692V24.808
	C7.5,15.249,15.249,7.5,24.807,7.5h121.154c9.559,0,17.308,7.749,17.308,17.308v77.884C163.27,112.25,155.521,120,145.962,120z
	 M327.692,120H206.539c-9.559,0-17.308-7.749-17.308-17.307V24.808c0-9.559,7.749-17.307,17.308-17.307h121.154
	c9.559,0,17.308,7.749,17.308,17.307v77.885C345,112.25,337.251,120,327.692,120z"/>
</svg>
