<?xml version="1.0" encoding="utf-8"?>
<!-- Generator: Adobe Illustrator 15.1.0, SVG Export Plug-In  -->
<!DOCTYPE svg PUBLIC "-//W3C//DTD SVG 1.1//EN" "http://www.w3.org/Graphics/SVG/1.1/DTD/svg11.dtd" [
	<!ENTITY ns_flows "http://ns.adobe.com/Flows/1.0/">
]>
<svg version="1.1"
	 xmlns="http://www.w3.org/2000/svg" xmlns:xlink="http://www.w3.org/1999/xlink" xmlns:a="http://ns.adobe.com/AdobeSVGViewerExtensions/3.0/"
	 x="0px" y="0px" width="36px" height="37px" viewBox="-0.833 -1.102 36 37" enable-background="new -0.833 -1.102 36 37"
	 xml:space="preserve">
<defs>
</defs>
<path fill="none" stroke="#F45B69" stroke-miterlimit="10" d="M27.109,23.718c-1.144-1.129-2.57-1.129-3.707,0
	c-0.867,0.859-1.733,1.719-2.586,2.593c-0.232,0.24-0.43,0.291-0.713,0.131c-0.562-0.306-1.158-0.553-1.698-0.889
	c-2.513-1.58-4.617-3.612-6.482-5.898c-0.925-1.137-1.748-2.353-2.323-3.722c-0.117-0.277-0.095-0.459,0.131-0.685
	c0.867-0.837,1.711-1.697,2.563-2.556c1.187-1.194,1.187-2.593-0.007-3.794c-0.677-0.685-1.354-1.355-2.032-2.04
	C9.557,6.158,8.865,5.452,8.158,4.76C7.015,3.645,5.587,3.645,4.451,4.767c-0.874,0.86-1.711,1.741-2.6,2.586
	C1.028,8.132,0.613,9.086,0.525,10.2c-0.139,1.813,0.306,3.525,0.932,5.193c1.282,3.453,3.234,6.519,5.601,9.33
	c3.197,3.802,7.014,6.811,11.479,8.98c2.01,0.976,4.094,1.727,6.358,1.85c1.559,0.088,2.913-0.306,3.998-1.521
	c0.743-0.831,1.581-1.588,2.367-2.383c1.165-1.18,1.173-2.607,0.015-3.771C29.891,26.485,28.5,25.102,27.109,23.718z"/>
<path fill="none" stroke="#F45B69" stroke-miterlimit="10" d="M25.718,17.913l2.688-0.459c-0.423-2.469-1.588-4.705-3.357-6.482
	c-1.873-1.872-4.239-3.052-6.847-3.416l-0.379,2.702c2.018,0.284,3.853,1.194,5.302,2.644C24.494,14.271,25.39,16.005,25.718,17.913
	z"/>
<path fill="none" stroke="#F45B69" stroke-miterlimit="10" d="M29.92,6.231c-3.103-3.103-7.028-5.062-11.362-5.667L18.18,3.267
	c3.744,0.524,7.138,2.221,9.818,4.894c2.541,2.542,4.209,5.754,4.814,9.286l2.688-0.459C34.792,12.895,32.863,9.181,29.92,6.231z"/>
</svg>
