<?xml version="1.0" encoding="utf-8"?>
<!-- Generator: Adobe Illustrator 15.1.0, SVG Export Plug-In  -->
<!DOCTYPE svg PUBLIC "-//W3C//DTD SVG 1.1//EN" "http://www.w3.org/Graphics/SVG/1.1/DTD/svg11.dtd" [
	<!ENTITY ns_flows "http://ns.adobe.com/Flows/1.0/">
]>
<svg version="1.1"
	 xmlns="http://www.w3.org/2000/svg" xmlns:xlink="http://www.w3.org/1999/xlink" xmlns:a="http://ns.adobe.com/AdobeSVGViewerExtensions/3.0/"
	 x="0px" y="0px" width="25px" height="25px" viewBox="0 0 25 25" enable-background="new 0 0 25 25" xml:space="preserve">
<defs>
</defs>
<path display="none" fill="#E53935" d="M19.043,3.303L7.291,8.828v3.548l-2.05-0.912V7.917l11.751-5.525l-3.947-1.754
	c-0.528-0.235-1.394-0.235-1.922,0l-9.719,4.32C0.63,5.302-0.001,6.277,0,7.125l0.024,10.13c0.002,0.856,0.648,1.833,1.435,2.169
	l9.694,4.145c0.511,0.221,1.348,0.221,1.859,0l9.696-4.145c0.787-0.336,1.435-1.313,1.437-2.168l0.022-10.131
	c0.002-0.848-0.629-1.822-1.403-2.166L19.043,3.303z M21.973,11.413l-0.568,0.264l-0.012,4.003c0,0.174-0.154,0.383-0.344,0.465
	l-0.852,0.366c-0.188,0.081-0.338,0.007-0.338-0.167l-0.004-3.95l-0.551,0.256c-0.262,0.119-0.424-0.069-0.293-0.34l1.316-2.778
	c0.133-0.28,0.465-0.442,0.598-0.29l1.354,1.541C22.415,10.936,22.245,11.287,21.973,11.413z M16.413,17.84
	c0.002,0.168-0.142,0.365-0.315,0.439l-0.789,0.342c-0.174,0.074-0.314,0.002-0.316-0.164l-0.047-3.784l-0.512,0.237
	c-0.24,0.111-0.394-0.071-0.275-0.33l1.195-2.64c0.121-0.267,0.433-0.417,0.558-0.27l1.274,1.495
	c0.127,0.147-0.026,0.481-0.278,0.599l-0.525,0.243L16.413,17.84z M22.913,16.741c0,0.088-0.078,0.192-0.177,0.231l-9.021,3.788
	c-0.085,0.036-0.151-0.002-0.153-0.081l-0.008-0.44c0-0.081,0.065-0.177,0.149-0.212l9.037-3.852
	c0.096-0.041,0.174-0.003,0.174,0.085L22.913,16.741z"/>
<path id="Dropbox_2_" display="none" fill="#E53935" d="M19.475,9.576L12.372,5.25l4.479-3.708l7.106,4.374L19.475,9.576z
	 M16.803,17.754l6.823-3.993l-4.104-3.471l-6.679,4.042L16.803,17.754z M11.326,14.331l-6.68-4.042L0.544,13.76l6.822,3.993
	L11.326,14.331z M4.98,17.184v1.283l6.818,4.186v-7.939L7.271,18.42L4.98,17.184z M19.188,17.184l-2.289,1.236l-4.525-3.709v7.941
	l6.814-4.188V17.184z M11.798,5.25l-4.48-3.708L0.209,5.915l4.485,3.661L11.798,5.25z"/>
<path display="none" fill="#E53935" d="M21.104,9.072h-1.59V7.056C19.514,3.165,16.18,0,12.084,0C7.987,0,4.655,3.165,4.655,7.056
	v2.017H3.063c-0.293,0-0.531,0.225-0.531,0.504V22.18c0,1.11,0.952,2.016,2.123,2.016h14.859c1.172,0,2.123-0.903,2.123-2.016V9.576
	C21.637,9.297,21.4,9.072,21.104,9.072z M13.672,19.6c0.018,0.146-0.031,0.287-0.132,0.396c-0.101,0.104-0.244,0.166-0.396,0.166
	h-2.123c-0.151,0-0.294-0.063-0.396-0.166c-0.1-0.105-0.148-0.25-0.132-0.396l0.334-2.855c-0.543-0.377-0.868-0.973-0.868-1.623
	c0-1.111,0.952-2.018,2.123-2.018s2.124,0.904,2.124,2.018c0,0.65-0.327,1.246-0.87,1.623L13.672,19.6z M16.331,9.072H7.839V7.056
	c0-2.223,1.904-4.032,4.245-4.032c2.34,0,4.246,1.809,4.246,4.032L16.331,9.072L16.331,9.072z"/>
<ellipse display="none" fill="#E53935" cx="12.921" cy="12.097" rx="7.476" ry="7.237"/>
<path display="none" fill="#E53935" d="M12.48,0.479c-4.28,0-8.071,2.324-10.027,5.87L1.026,4.491L0.07,10.386l5.465-0.668
	l-1.37-1.657c1.589-3.058,4.646-5.137,8.315-5.137c5.014,0,9.172,4.158,9.172,9.173c0,5.014-4.158,9.172-9.172,9.172
	c-4.035,0-7.337-2.568-8.682-6.115H1.23c1.344,4.893,5.87,8.562,11.25,8.562c6.483,0,11.618-5.259,11.618-11.618
	S18.84,0.479,12.48,0.479z"/>
<polygon display="none" fill="#FFFFFF" points="17.143,14.785 13.084,12.351 13.084,8.089 11.564,8.089 11.564,13.264 
	16.331,16.104 "/>
<path display="none" fill="#E53935" d="M13.686,15.962c-0.088-0.097-0.199-0.168-0.313-0.228c-0.25-0.131-0.523-0.209-0.795-0.281
	v2.105c0.44-0.051,0.946-0.211,1.179-0.621l0,0c0.11-0.197,0.135-0.438,0.088-0.658C13.818,16.161,13.768,16.052,13.686,15.962z"/>
<path display="none" fill="#E53935" d="M13.752,16.941c0.001-0.002,0.001-0.002,0.002-0.004l0,0
	C13.753,16.939,13.753,16.939,13.752,16.941z"/>
<path display="none" fill="#E53935" d="M10.507,12.598c-0.076,0.111-0.123,0.237-0.136,0.371c-0.013,0.135-0.006,0.282,0.045,0.407
	c0.049,0.121,0.15,0.21,0.255,0.281c0.117,0.079,0.248,0.142,0.379,0.194c0.11,0.045,0.235,0.088,0.369,0.127v-1.902
	C11.079,12.148,10.709,12.303,10.507,12.598z"/>
<path display="none" fill="#E53935" d="M13.764,16.922c-0.004,0.005-0.007,0.01-0.01,0.016l0,0
	C13.758,16.932,13.76,16.926,13.764,16.922z"/>
<path display="none" fill="#E53935" d="M13.318,5.451c1.789-1.504,2.986-4.892,2.25-5.041c-0.979-0.197-3.104,0.667-4.129,0.819
	C9.982,1.405,8.396-0.35,7.506,0.628C6.782,1.424,8.025,4.316,9.969,5.576c-5.801,2.851-13.955,17.163,0.27,18.201
	C29.922,25.215,20.066,8.229,13.318,5.451z M15.007,16.738c-0.062,0.557-0.354,1.062-0.798,1.404
	c-0.467,0.36-1.053,0.528-1.634,0.576v0.616c0,0.165-0.072,0.324-0.195,0.435c-0.169,0.149-0.42,0.188-0.626,0.092
	c-0.204-0.094-0.336-0.301-0.336-0.524v-0.674c-0.101-0.021-0.199-0.042-0.296-0.067c-0.544-0.15-1.048-0.441-1.417-0.871
	c-0.184-0.217-0.333-0.459-0.436-0.723c-0.027-0.068-0.052-0.139-0.073-0.21c-0.019-0.063-0.039-0.129-0.045-0.196
	c-0.012-0.111,0.01-0.227,0.063-0.324c0.107-0.205,0.333-0.33,0.564-0.31c0.227,0.021,0.426,0.179,0.498,0.396
	c0.021,0.065,0.037,0.136,0.062,0.199c0.025,0.066,0.054,0.131,0.089,0.19c0.069,0.12,0.155,0.229,0.254,0.325
	c0.204,0.197,0.465,0.324,0.737,0.4v-2.289c-0.531-0.14-1.08-0.315-1.518-0.656c-0.213-0.166-0.394-0.373-0.512-0.616
	c-0.125-0.259-0.177-0.543-0.179-0.828c-0.002-0.288,0.053-0.575,0.173-0.839c0.113-0.246,0.275-0.468,0.475-0.651
	c0.426-0.393,0.993-0.611,1.561-0.692v-0.05v-0.59c0-0.165,0.072-0.324,0.195-0.433c0.17-0.15,0.419-0.188,0.626-0.093
	c0.203,0.093,0.336,0.302,0.336,0.526v0.59v0.047c0.076,0.009,0.151,0.021,0.227,0.034c0.558,0.101,1.104,0.332,1.513,0.734
	c0.191,0.19,0.352,0.417,0.461,0.665c0.031,0.07,0.061,0.14,0.082,0.212c0.021,0.067,0.045,0.138,0.057,0.207
	c0.018,0.111,0,0.228-0.048,0.33c-0.101,0.21-0.318,0.342-0.552,0.332c-0.228-0.01-0.434-0.157-0.517-0.369
	c-0.022-0.063-0.034-0.13-0.062-0.193c-0.023-0.064-0.057-0.124-0.094-0.183c-0.072-0.111-0.166-0.208-0.272-0.287
	c-0.231-0.172-0.515-0.261-0.795-0.31v2.19c0.334,0.08,0.669,0.167,0.987,0.293c0.483,0.191,0.942,0.483,1.209,0.945
	c-0.043-0.072-0.082-0.143,0,0.002c0.082,0.143,0.041,0.075,0.002,0.004C14.984,15.874,15.053,16.316,15.007,16.738z"/>
<path display="none" fill="#E53935" d="M13.747,16.952c-0.005,0.006-0.007,0.011-0.011,0.016
	C13.738,16.964,13.742,16.959,13.747,16.952z"/>
<ellipse display="none" fill="#E53935" cx="12.084" cy="12.096" rx="12.004" ry="12.031"/>
<path display="none" fill="#FFFFFF" d="M15.15,16.084c-0.463,0.561-1.063,0.938-1.76,1.131c-0.306,0.08-0.442,0.242-0.429,0.559
	c0.016,0.313,0,0.625,0,0.938c0,0.279-0.143,0.43-0.417,0.434c-0.336,0.012-0.671,0.012-1.007,0
	c-0.294-0.004-0.432-0.174-0.437-0.457c-0.006-0.229-0.006-0.459-0.006-0.684c-0.005-0.504-0.02-0.521-0.503-0.602
	c-0.621-0.098-1.226-0.238-1.791-0.514c-0.442-0.213-0.488-0.326-0.361-0.793c0.096-0.346,0.188-0.697,0.3-1.039
	c0.127-0.396,0.234-0.445,0.6-0.258c0.626,0.324,1.292,0.508,1.989,0.594c0.447,0.059,0.889,0.014,1.307-0.172
	c0.777-0.342,0.9-1.242,0.242-1.781c-0.223-0.182-0.477-0.318-0.741-0.437c-0.681-0.301-1.393-0.529-2.034-0.915
	c-1.042-0.626-1.703-1.48-1.627-2.751c0.087-1.435,0.9-2.329,2.212-2.807c0.545-0.198,0.545-0.188,0.55-0.758
	c0-0.194,0-0.382,0-0.575c0.009-0.427,0.081-0.503,0.508-0.514c0.132-0.005,0.264,0,0.397,0c0.903,0,0.903,0,0.912,0.905
	c0.004,0.641,0,0.646,0.639,0.743c0.488,0.076,0.957,0.223,1.41,0.421c0.248,0.112,0.347,0.285,0.271,0.55
	c-0.11,0.391-0.222,0.788-0.349,1.175c-0.114,0.366-0.231,0.422-0.588,0.249c-0.707-0.34-1.452-0.482-2.232-0.442
	c-0.204,0.01-0.408,0.041-0.595,0.122c-0.676,0.295-0.789,1.042-0.209,1.5c0.29,0.233,0.626,0.401,0.971,0.543
	c0.601,0.25,1.201,0.483,1.771,0.799C15.939,12.261,16.428,14.533,15.15,16.084z"/>
<path display="none" fill="#E53935" d="M16.713,7.854c-0.092,0.17-0.081,0.377,0.025,0.538l1.232,1.848h-7.457
	c-1.023,0-1.856,0.833-1.856,1.857c0,1.023,0.833,1.856,1.856,1.856h7.457l-1.232,1.85c-0.106,0.16-0.117,0.368-0.025,0.539
	c0.092,0.169,0.27,0.275,0.463,0.275h3.553c0.176,0,0.34-0.088,0.438-0.234l2.665-3.994c0.114-0.177,0.114-0.407,0-0.583
	L21.165,7.81c-0.097-0.146-0.261-0.233-0.437-0.233h-3.554C16.982,7.576,16.805,7.683,16.713,7.854z"/>
<path fill="#F45B69" d="M12.146,23.814c2.402,0,4.697-0.744,6.637-2.15c0.223-0.162,0.283-0.467,0.139-0.699L17.1,18.008
	c-0.076-0.123-0.201-0.211-0.344-0.236c-0.143-0.029-0.293,0.004-0.41,0.09c-1.135,0.818-2.475,1.256-3.878,1.256
	c-3.648,0-6.616-2.967-6.616-6.615c0-3.648,2.966-6.62,6.615-6.62c1.404,0,2.746,0.435,3.879,1.258
	c0.117,0.085,0.268,0.118,0.408,0.09c0.145-0.028,0.27-0.115,0.346-0.24l1.822-2.955c0.145-0.234,0.082-0.539-0.139-0.7
	c-1.939-1.407-4.234-2.151-6.638-2.151C5.907,1.185,0.832,6.261,0.832,12.5C0.833,18.74,5.909,23.814,12.146,23.814z"/>
<path id="XMLID_1_" fill="#F45B69" d="M19.676,11.37H9.45c-0.726,0-1.314,0.588-1.314,1.313c0,0.727,0.588,1.314,1.314,1.314h10.226
	l-1.699,1.699c-0.514,0.513-0.514,1.345,0,1.856c0.516,0.515,1.348,0.515,1.859,0l3.943-3.94c0.029-0.031,0.059-0.063,0.086-0.096
	c0.006-0.009,0.012-0.019,0.02-0.025c0.021-0.025,0.039-0.051,0.057-0.078c0.008-0.008,0.012-0.018,0.018-0.024
	c0.02-0.026,0.035-0.056,0.053-0.086c0.004-0.006,0.006-0.013,0.01-0.018c0.016-0.032,0.031-0.065,0.047-0.099
	c0-0.004,0.002-0.01,0.004-0.014c0.014-0.036,0.027-0.07,0.039-0.107c0-0.006,0.002-0.011,0.004-0.015
	c0.01-0.037,0.02-0.073,0.027-0.11c0.002-0.011,0.002-0.021,0.004-0.033c0.006-0.031,0.012-0.063,0.014-0.094
	c0.006-0.043,0.008-0.088,0.008-0.131c0-0.046-0.002-0.089-0.008-0.133c-0.002-0.031-0.008-0.063-0.014-0.095
	c-0.002-0.011-0.002-0.021-0.004-0.032c-0.01-0.038-0.02-0.075-0.029-0.111c0-0.004-0.002-0.009-0.002-0.013
	c-0.012-0.037-0.025-0.073-0.039-0.108c-0.002-0.004-0.004-0.008-0.004-0.013c-0.016-0.034-0.031-0.065-0.047-0.099
	c-0.004-0.006-0.006-0.012-0.01-0.018c-0.018-0.029-0.033-0.059-0.055-0.086c-0.004-0.009-0.008-0.017-0.016-0.023
	c-0.018-0.027-0.035-0.053-0.059-0.079c-0.006-0.009-0.012-0.017-0.018-0.025c-0.027-0.032-0.057-0.065-0.086-0.095l-3.943-3.943
	c-0.258-0.257-0.594-0.385-0.93-0.385s-0.672,0.128-0.93,0.385c-0.516,0.513-0.516,1.346,0,1.858L19.676,11.37z"/>
</svg>
