<?xml version="1.0" encoding="utf-8"?>
<!-- Generator: Adobe Illustrator 15.1.0, SVG Export Plug-In  -->
<!DOCTYPE svg PUBLIC "-//W3C//DTD SVG 1.1//EN" "http://www.w3.org/Graphics/SVG/1.1/DTD/svg11.dtd" [
	<!ENTITY ns_flows "http://ns.adobe.com/Flows/1.0/">
]>
<svg version="1.1"
	 xmlns="http://www.w3.org/2000/svg" xmlns:xlink="http://www.w3.org/1999/xlink" xmlns:a="http://ns.adobe.com/AdobeSVGViewerExtensions/3.0/"
	 x="0px" y="0px" width="25px" height="25px" viewBox="0 -0.402 25 25" enable-background="new 0 -0.402 25 25"
	 xml:space="preserve">
<defs>
</defs>
<path display="none" fill="#E53935" d="M19.043,2.901L7.291,8.426v3.548l-2.05-0.912V7.515L16.992,1.99l-3.947-1.754
	C12.517,0,11.651,0,11.123,0.236l-9.719,4.32C0.63,4.899-0.001,5.875,0,6.723l0.024,10.13c0.002,0.856,0.648,1.833,1.435,2.169
	l9.694,4.145c0.511,0.221,1.348,0.221,1.859,0l9.696-4.145c0.787-0.336,1.435-1.313,1.437-2.168l0.022-10.131
	c0.002-0.848-0.629-1.822-1.403-2.166L19.043,2.901z M21.973,11.011l-0.568,0.264l-0.012,4.003c0,0.174-0.154,0.383-0.344,0.465
	l-0.852,0.366c-0.188,0.081-0.338,0.007-0.338-0.167l-0.004-3.95l-0.551,0.256c-0.262,0.119-0.424-0.069-0.293-0.34l1.316-2.778
	c0.133-0.28,0.465-0.442,0.598-0.29l1.354,1.541C22.415,10.534,22.245,10.885,21.973,11.011z M16.413,17.438
	c0.002,0.168-0.142,0.365-0.315,0.439l-0.789,0.342c-0.174,0.074-0.314,0.002-0.316-0.164l-0.047-3.784l-0.512,0.237
	c-0.24,0.111-0.394-0.071-0.275-0.33l1.195-2.64c0.121-0.267,0.433-0.417,0.558-0.27l1.274,1.495
	c0.127,0.147-0.026,0.481-0.278,0.599l-0.525,0.243L16.413,17.438z M22.913,16.339c0,0.088-0.078,0.192-0.177,0.231l-9.021,3.788
	c-0.085,0.036-0.151-0.002-0.153-0.081l-0.008-0.44c0-0.081,0.065-0.177,0.149-0.212l9.037-3.852
	c0.096-0.041,0.174-0.003,0.174,0.085L22.913,16.339z"/>
<path id="Dropbox_2_" display="none" fill="#E53935" d="M19.475,9.174l-7.103-4.326l4.479-3.708l7.106,4.374L19.475,9.174z
	 M16.803,17.352l6.823-3.993l-4.104-3.471l-6.679,4.042L16.803,17.352z M11.326,13.929l-6.68-4.042l-4.102,3.471l6.822,3.993
	L11.326,13.929z M4.98,16.781v1.283l6.818,4.186v-7.939l-4.527,3.707L4.98,16.781z M19.188,16.781l-2.289,1.236l-4.525-3.709v7.941
	l6.814-4.188V16.781z M11.798,4.848L7.318,1.14L0.209,5.513l4.485,3.661L11.798,4.848z"/>
<path fill="#F45B69" d="M21.52,9.072h-1.59V7.056C19.93,3.165,16.596,0,12.5,0C8.402,0,5.07,3.165,5.07,7.056v2.017H3.479
	c-0.293,0-0.531,0.225-0.531,0.504V22.18c0,1.11,0.952,2.016,2.123,2.016H19.93c1.172,0,2.123-0.903,2.123-2.016V9.576
	C22.053,9.297,21.816,9.072,21.52,9.072z M14.088,19.6c0.018,0.146-0.031,0.287-0.133,0.396c-0.1,0.104-0.244,0.166-0.395,0.166
	h-2.123c-0.15,0-0.294-0.063-0.396-0.166c-0.1-0.105-0.147-0.25-0.131-0.396l0.334-2.855c-0.543-0.377-0.869-0.973-0.869-1.623
	c0-1.111,0.953-2.018,2.123-2.018c1.172,0,2.125,0.904,2.125,2.018c0,0.65-0.328,1.246-0.871,1.623L14.088,19.6z M16.746,9.072
	H8.254V7.056c0-2.223,1.904-4.032,4.246-4.032c2.34,0,4.246,1.809,4.246,4.032V9.072L16.746,9.072z"/>
</svg>
