<?xml version="1.0" encoding="utf-8"?>
<!-- Generator: Adobe Illustrator 15.1.0, SVG Export Plug-In  -->
<!DOCTYPE svg PUBLIC "-//W3C//DTD SVG 1.1//EN" "http://www.w3.org/Graphics/SVG/1.1/DTD/svg11.dtd" [
	<!ENTITY ns_flows "http://ns.adobe.com/Flows/1.0/">
]>
<svg version="1.1"
	 xmlns="http://www.w3.org/2000/svg" xmlns:xlink="http://www.w3.org/1999/xlink" xmlns:a="http://ns.adobe.com/AdobeSVGViewerExtensions/3.0/"
	 x="0px" y="0px" width="184px" height="21px" viewBox="-2.506 -1.808 184 21" enable-background="new -2.506 -1.808 184 21"
	 xml:space="preserve">
<defs>
</defs>
<path fill="#F6AB22" d="M17.631,6.371c-0.058-0.178-0.21-0.305-0.395-0.334l-5.508-0.782L9.25,0.272C9.167,0.105,8.996,0,8.812,0
	l0,0C8.626,0,8.456,0.105,8.373,0.275L5.927,5.273L0.418,6.092C0.234,6.121,0.082,6.248,0.023,6.426
	c-0.058,0.178-0.007,0.373,0.127,0.5L4.147,10.8l-0.924,5.486c-0.033,0.185,0.043,0.369,0.195,0.479
	c0.083,0.062,0.185,0.094,0.287,0.094c0.08,0,0.156-0.019,0.228-0.058l4.917-2.605l4.933,2.576c0.072,0.036,0.148,0.055,0.225,0.055
	l0,0c0.268,0,0.489-0.222,0.489-0.489c0-0.04-0.004-0.076-0.015-0.112l-0.953-5.454l3.972-3.896
	C17.642,6.744,17.69,6.549,17.631,6.371z M12.667,10.252c-0.116,0.112-0.167,0.275-0.138,0.436l0.829,4.758l-4.283-2.236
	c-0.142-0.076-0.312-0.072-0.457,0l-4.269,2.262l0.801-4.766c0.025-0.159-0.025-0.318-0.141-0.431L1.546,6.911l4.78-0.71
	c0.159-0.025,0.297-0.123,0.366-0.269l2.124-4.338l2.152,4.327c0.072,0.145,0.21,0.242,0.37,0.268l4.783,0.682L12.667,10.252z"/>
<path fill="#F6AB22" d="M53.631,6.371c-0.058-0.178-0.21-0.305-0.395-0.334l-5.508-0.782L45.25,0.272
	C45.167,0.105,44.996,0,44.812,0l0,0c-0.185,0-0.355,0.105-0.438,0.275l-2.446,4.998l-5.508,0.818
	c-0.185,0.029-0.337,0.156-0.395,0.334c-0.058,0.178-0.007,0.373,0.127,0.5l3.997,3.874l-0.924,5.486
	c-0.033,0.185,0.043,0.369,0.195,0.479c0.083,0.062,0.185,0.094,0.287,0.094c0.08,0,0.156-0.019,0.228-0.058l4.917-2.605
	l4.933,2.576c0.072,0.036,0.148,0.055,0.225,0.055l0,0c0.268,0,0.489-0.222,0.489-0.489c0-0.04-0.004-0.076-0.015-0.112
	l-0.953-5.454l3.972-3.896C53.642,6.744,53.69,6.549,53.631,6.371z M48.667,10.252c-0.116,0.112-0.167,0.275-0.138,0.436
	l0.829,4.758l-4.283-2.236c-0.142-0.076-0.312-0.072-0.457,0l-4.269,2.262l0.801-4.766c0.025-0.159-0.025-0.318-0.141-0.431
	l-3.464-3.363l4.78-0.71c0.159-0.025,0.297-0.123,0.366-0.269l2.124-4.338l2.152,4.327c0.072,0.145,0.21,0.242,0.37,0.268
	l4.783,0.682L48.667,10.252z"/>
<path fill="#F6AB22" d="M35.631,6.371c-0.058-0.178-0.21-0.305-0.395-0.334l-5.508-0.782L27.25,0.272
	C27.167,0.105,26.996,0,26.812,0l0,0c-0.185,0-0.355,0.105-0.438,0.275l-2.446,4.998l-5.508,0.818
	c-0.185,0.029-0.337,0.156-0.395,0.334c-0.058,0.178-0.007,0.373,0.127,0.5l3.997,3.874l-0.924,5.486
	c-0.033,0.185,0.043,0.369,0.195,0.479c0.083,0.062,0.185,0.094,0.287,0.094c0.08,0,0.156-0.019,0.228-0.058l4.917-2.605
	l4.933,2.576c0.072,0.036,0.148,0.055,0.225,0.055l0,0c0.268,0,0.489-0.222,0.489-0.489c0-0.04-0.004-0.076-0.015-0.112
	l-0.953-5.454l3.972-3.896C35.642,6.744,35.69,6.549,35.631,6.371z M30.667,10.252c-0.116,0.112-0.167,0.275-0.138,0.436
	l0.829,4.758l-4.283-2.236c-0.142-0.076-0.312-0.072-0.457,0l-4.269,2.262l0.801-4.766c0.025-0.159-0.025-0.318-0.141-0.431
	l-3.464-3.363l4.78-0.71c0.159-0.025,0.297-0.123,0.366-0.269l2.124-4.338l2.152,4.327c0.072,0.145,0.21,0.242,0.37,0.268
	l4.783,0.682L30.667,10.252z"/>
<path fill="#F6AB22" d="M89.631,6.371c-0.058-0.178-0.21-0.305-0.395-0.334l-5.508-0.782L81.25,0.272
	C81.167,0.105,80.996,0,80.812,0l0,0c-0.185,0-0.355,0.105-0.438,0.275l-2.446,4.998l-5.508,0.818
	c-0.185,0.029-0.337,0.156-0.395,0.334c-0.058,0.178-0.007,0.373,0.127,0.5l3.997,3.874l-0.924,5.486
	c-0.033,0.185,0.043,0.369,0.195,0.479c0.083,0.062,0.185,0.094,0.287,0.094c0.08,0,0.156-0.019,0.228-0.058l4.917-2.605
	l4.933,2.576c0.072,0.036,0.148,0.055,0.225,0.055l0,0c0.268,0,0.489-0.222,0.489-0.489c0-0.04-0.004-0.076-0.015-0.112
	l-0.953-5.454l3.972-3.896C89.642,6.744,89.69,6.549,89.631,6.371z M84.667,10.252c-0.116,0.112-0.167,0.275-0.138,0.436
	l0.829,4.758l-4.283-2.236c-0.142-0.076-0.312-0.072-0.457,0l-4.269,2.262l0.801-4.766c0.025-0.159-0.025-0.318-0.141-0.431
	l-3.464-3.363l4.78-0.71c0.159-0.025,0.297-0.123,0.366-0.269l2.124-4.338l2.152,4.327c0.072,0.145,0.21,0.242,0.37,0.268
	l4.783,0.682L84.667,10.252z"/>
<path fill="#F6AB22" d="M71.631,6.371c-0.058-0.178-0.21-0.305-0.395-0.334l-5.508-0.782L63.25,0.272
	C63.167,0.105,62.996,0,62.812,0l0,0c-0.185,0-0.355,0.105-0.438,0.275l-2.446,4.998l-5.508,0.818
	c-0.185,0.029-0.337,0.156-0.395,0.334c-0.058,0.178-0.007,0.373,0.127,0.5l3.997,3.874l-0.924,5.486
	c-0.033,0.185,0.043,0.369,0.195,0.479c0.083,0.062,0.185,0.094,0.287,0.094c0.08,0,0.156-0.019,0.228-0.058l4.917-2.605
	l4.933,2.576c0.072,0.036,0.148,0.055,0.225,0.055l0,0c0.268,0,0.489-0.222,0.489-0.489c0-0.04-0.004-0.076-0.015-0.112
	l-0.953-5.454l3.972-3.896C71.642,6.744,71.69,6.549,71.631,6.371z M66.667,10.252c-0.116,0.112-0.167,0.275-0.138,0.436
	l0.829,4.758l-4.283-2.236c-0.142-0.076-0.312-0.072-0.457,0l-4.269,2.262l0.801-4.766c0.025-0.159-0.025-0.318-0.141-0.431
	l-3.464-3.363l4.78-0.71c0.159-0.025,0.297-0.123,0.366-0.269l2.124-4.338l2.152,4.327c0.072,0.145,0.21,0.242,0.37,0.268
	l4.783,0.682L66.667,10.252z"/>
<path fill="#F6AB22" d="M107.631,6.371c-0.058-0.178-0.21-0.305-0.395-0.334l-5.508-0.782L99.25,0.272
	C99.167,0.105,98.996,0,98.812,0l0,0c-0.185,0-0.355,0.105-0.438,0.275l-2.446,4.998l-5.508,0.818
	c-0.185,0.029-0.337,0.156-0.395,0.334c-0.058,0.178-0.007,0.373,0.127,0.5l3.997,3.874l-0.924,5.486
	c-0.033,0.185,0.043,0.369,0.195,0.479c0.083,0.062,0.185,0.094,0.287,0.094c0.08,0,0.156-0.019,0.228-0.058l4.917-2.605
	l4.933,2.576c0.072,0.036,0.148,0.055,0.225,0.055l0,0c0.268,0,0.489-0.222,0.489-0.489c0-0.04-0.004-0.076-0.015-0.112
	l-0.953-5.454l3.972-3.896C107.642,6.744,107.69,6.549,107.631,6.371z M102.667,10.252c-0.116,0.112-0.167,0.275-0.138,0.436
	l0.829,4.758l-4.283-2.236c-0.142-0.076-0.312-0.072-0.457,0l-4.269,2.262l0.801-4.766c0.025-0.159-0.025-0.318-0.141-0.431
	l-3.464-3.363l4.78-0.71c0.159-0.025,0.297-0.123,0.366-0.269l2.124-4.338l2.152,4.327c0.072,0.145,0.21,0.242,0.37,0.268
	l4.783,0.682L102.667,10.252z"/>
<path fill="#F6AB22" d="M143.631,6.371c-0.058-0.178-0.21-0.305-0.395-0.334l-5.508-0.782l-2.479-4.982
	C135.167,0.105,134.996,0,134.812,0l0,0c-0.186,0-0.355,0.105-0.439,0.275l-2.445,4.998l-5.509,0.818
	c-0.185,0.029-0.337,0.156-0.396,0.334c-0.057,0.178-0.006,0.373,0.127,0.5l3.998,3.874l-0.924,5.486
	c-0.033,0.185,0.043,0.369,0.195,0.479c0.083,0.062,0.185,0.094,0.286,0.094c0.079,0,0.155-0.019,0.228-0.058l4.918-2.605
	l4.933,2.576c0.072,0.036,0.148,0.055,0.225,0.055l0,0c0.268,0,0.489-0.222,0.489-0.489c0-0.04-0.004-0.076-0.015-0.112
	l-0.953-5.454l3.972-3.896C143.642,6.744,143.69,6.549,143.631,6.371z M138.667,10.252c-0.116,0.112-0.167,0.275-0.138,0.436
	l0.829,4.758l-4.283-2.236c-0.141-0.076-0.312-0.072-0.457,0l-4.268,2.262l0.801-4.766c0.025-0.159-0.025-0.318-0.142-0.431
	l-3.464-3.363l4.779-0.71c0.159-0.025,0.297-0.123,0.365-0.269l2.124-4.338l2.152,4.327c0.072,0.145,0.21,0.242,0.37,0.268
	l4.783,0.682L138.667,10.252z"/>
<path fill="#F6AB22" d="M125.631,6.371c-0.058-0.178-0.21-0.305-0.395-0.334l-5.508-0.782l-2.479-4.982
	C117.167,0.105,116.996,0,116.812,0l0,0c-0.186,0-0.355,0.105-0.439,0.275l-2.445,4.998l-5.509,0.818
	c-0.185,0.029-0.337,0.156-0.396,0.334c-0.057,0.178-0.006,0.373,0.127,0.5l3.998,3.874l-0.924,5.486
	c-0.033,0.185,0.043,0.369,0.195,0.479c0.083,0.062,0.185,0.094,0.286,0.094c0.079,0,0.155-0.019,0.228-0.058l4.918-2.605
	l4.933,2.576c0.072,0.036,0.148,0.055,0.225,0.055l0,0c0.268,0,0.489-0.222,0.489-0.489c0-0.04-0.004-0.076-0.015-0.112
	l-0.953-5.454l3.972-3.896C125.642,6.744,125.69,6.549,125.631,6.371z M120.667,10.252c-0.116,0.112-0.167,0.275-0.138,0.436
	l0.829,4.758l-4.283-2.236c-0.141-0.076-0.312-0.072-0.457,0l-4.268,2.262l0.801-4.766c0.025-0.159-0.025-0.318-0.142-0.431
	l-3.464-3.363l4.779-0.71c0.159-0.025,0.297-0.123,0.365-0.269l2.124-4.338l2.152,4.327c0.072,0.145,0.21,0.242,0.37,0.268
	l4.783,0.682L120.667,10.252z"/>
<path fill="#F6AB22" d="M179.631,6.371c-0.058-0.178-0.21-0.305-0.395-0.334l-5.508-0.782l-2.479-4.982
	C171.167,0.105,170.996,0,170.812,0l0,0c-0.186,0-0.355,0.105-0.439,0.275l-2.445,4.998l-5.509,0.818
	c-0.185,0.029-0.337,0.156-0.396,0.334c-0.057,0.178-0.006,0.373,0.127,0.5l3.998,3.874l-0.924,5.486
	c-0.033,0.185,0.043,0.369,0.195,0.479c0.083,0.062,0.185,0.094,0.286,0.094c0.079,0,0.155-0.019,0.228-0.058l4.918-2.605
	l4.933,2.576c0.072,0.036,0.148,0.055,0.225,0.055l0,0c0.268,0,0.489-0.222,0.489-0.489c0-0.04-0.004-0.076-0.015-0.112
	l-0.953-5.454l3.972-3.896C179.642,6.744,179.69,6.549,179.631,6.371z M174.667,10.252c-0.116,0.112-0.167,0.275-0.138,0.436
	l0.829,4.758l-4.283-2.236c-0.141-0.076-0.312-0.072-0.457,0l-4.268,2.262l0.801-4.766c0.025-0.159-0.025-0.318-0.142-0.431
	l-3.464-3.363l4.779-0.71c0.159-0.025,0.297-0.123,0.365-0.269l2.124-4.338l2.152,4.327c0.072,0.145,0.21,0.242,0.37,0.268
	l4.783,0.682L174.667,10.252z"/>
<path fill="#F6AB22" d="M161.631,6.371c-0.058-0.178-0.21-0.305-0.395-0.334l-5.508-0.782l-2.479-4.982
	C153.167,0.105,152.996,0,152.812,0l0,0c-0.186,0-0.355,0.105-0.439,0.275l-2.445,4.998l-5.509,0.818
	c-0.185,0.029-0.337,0.156-0.396,0.334c-0.057,0.178-0.006,0.373,0.127,0.5l3.998,3.874l-0.924,5.486
	c-0.033,0.185,0.043,0.369,0.195,0.479c0.083,0.062,0.185,0.094,0.286,0.094c0.079,0,0.155-0.019,0.228-0.058l4.918-2.605
	l4.933,2.576c0.072,0.036,0.148,0.055,0.225,0.055l0,0c0.268,0,0.489-0.222,0.489-0.489c0-0.04-0.004-0.076-0.015-0.112
	l-0.953-5.454l3.972-3.896C161.642,6.744,161.69,6.549,161.631,6.371z M156.667,10.252c-0.116,0.112-0.167,0.275-0.138,0.436
	l0.829,4.758l-4.283-2.236c-0.141-0.076-0.312-0.072-0.457,0l-4.268,2.262l0.801-4.766c0.025-0.159-0.025-0.318-0.142-0.431
	l-3.464-3.363l4.779-0.71c0.159-0.025,0.297-0.123,0.365-0.269l2.124-4.338l2.152,4.327c0.072,0.145,0.21,0.242,0.37,0.268
	l4.783,0.682L156.667,10.252z"/>
<polyline fill="#F5AB21" points="1.218,6.838 4.838,10.353 4.148,15.783 9.087,13.42 13.563,15.757 12.696,10.784 16.449,6.796 
	11.063,5.804 8.814,1.282 6.213,6.096 6.595,5.815 "/>
<polyline fill="#F5AB21" points="19.218,6.838 22.838,10.353 22.148,15.783 27.087,13.42 31.563,15.757 30.696,10.784 34.449,6.796 
	29.063,5.804 26.814,1.282 24.213,6.097 24.595,5.815 "/>
<polyline fill="#F5AB21" points="37.218,6.838 40.838,10.353 40.148,15.783 45.087,13.42 49.563,15.757 48.696,10.784 52.449,6.796 
	47.063,5.804 44.814,1.282 42.213,6.097 42.595,5.815 "/>
<polyline fill="#F5AB21" points="55.218,6.838 58.838,10.353 58.148,15.783 63.087,13.42 67.563,15.757 66.696,10.784 70.449,6.796 
	65.063,5.804 62.814,1.282 60.213,6.097 60.595,5.815 "/>
<polyline fill="#F5AB21" points="73.218,6.838 76.838,10.353 76.148,15.783 81.087,13.42 85.563,15.757 84.696,10.784 88.449,6.796 
	83.063,5.804 80.814,1.282 78.213,6.097 78.595,5.815 "/>
</svg>
