<?xml version="1.0" encoding="utf-8"?>
<!-- Generator: Adobe Illustrator 15.1.0, SVG Export Plug-In  -->
<!DOCTYPE svg PUBLIC "-//W3C//DTD SVG 1.1//EN" "http://www.w3.org/Graphics/SVG/1.1/DTD/svg11.dtd" [
	<!ENTITY ns_flows "http://ns.adobe.com/Flows/1.0/">
]>
<svg version="1.1"
	 xmlns="http://www.w3.org/2000/svg" xmlns:xlink="http://www.w3.org/1999/xlink" xmlns:a="http://ns.adobe.com/AdobeSVGViewerExtensions/3.0/"
	 x="0px" y="0px" width="500px" height="443px" viewBox="-4.76 -12.792 500 443" enable-background="new -4.76 -12.792 500 443"
	 xml:space="preserve">
<defs>
</defs>
<path fill="#DFDDDD" d="M439.315,335.368C439.315,335.368,439.315,335.368,439.315,335.368c0.364-3.614,2.63-6.816,5.91-8.359
	c2.506-1.176,5.32-1.307,7.927-0.366c2.605,0.941,4.689,2.839,5.867,5.345c0.798,1.697,1.121,3.577,0.934,5.437
	c-0.362,3.611-2.627,6.813-5.909,8.355c-5.176,2.431-11.363,0.199-13.794-4.975C439.451,339.108,439.129,337.227,439.315,335.368z
	 M458.138,337.24c0.154-1.529-0.112-3.078-0.771-4.478c-0.969-2.065-2.687-3.629-4.836-4.404c-2.147-0.774-4.466-0.667-6.53,0.302
	c-2.705,1.271-4.57,3.911-4.87,6.891c-0.154,1.53,0.111,3.079,0.771,4.479c2.002,4.264,7.102,6.102,11.366,4.098
	C455.973,342.857,457.838,340.217,458.138,337.24z"/>
<path fill="#DFDDDD" d="M390.825,257.171L390.825,257.171c0.325-3.239,2.355-6.11,5.298-7.492
	c4.637-2.178,10.183-0.176,12.361,4.462c0.717,1.522,1.005,3.207,0.838,4.872c-0.326,3.238-2.354,6.107-5.296,7.49
	c-2.246,1.055-4.771,1.173-7.106,0.331s-4.203-2.542-5.259-4.789C390.946,260.523,390.657,258.837,390.825,257.171z
	 M407.505,258.831c0.136-1.337-0.097-2.69-0.672-3.913c-1.751-3.729-6.209-5.339-9.936-3.588c-2.365,1.111-3.997,3.419-4.259,6.024
	c-0.134,1.337,0.098,2.692,0.673,3.915c0.849,1.806,2.35,3.172,4.227,3.849s3.905,0.583,5.711-0.267
	C405.614,263.741,407.244,261.434,407.505,258.831z"/>
<path fill="#DFDDDD" d="M380.481,256.154c0,0,0-0.001,0-0.002c0.692-6.871,4.991-12.957,11.22-15.884
	c4.754-2.233,10.1-2.479,15.054-0.692c4.953,1.787,8.91,5.39,11.144,10.143c1.513,3.22,2.124,6.786,1.769,10.313
	c-0.69,6.871-4.99,12.958-11.219,15.883c-9.828,4.617-21.581,0.379-26.198-9.449C380.739,263.248,380.126,259.68,380.481,256.154z
	 M417.852,259.849c0.322-3.199-0.232-6.435-1.604-9.354c-2.026-4.313-5.617-7.58-10.113-9.203
	c-4.494-1.622-9.344-1.399-13.658,0.628c-5.649,2.654-9.552,8.179-10.18,14.415c0,0.001,0,0.002,0,0.002
	c-0.321,3.199,0.232,6.434,1.605,9.354c4.188,8.916,14.854,12.764,23.771,8.574C413.324,271.609,417.225,266.085,417.852,259.849z
	 M390.825,257.171c0.325-3.239,2.355-6.11,5.298-7.492c4.637-2.178,10.183-0.176,12.361,4.462c0.717,1.522,1.005,3.207,0.838,4.872
	c-0.326,3.238-2.354,6.107-5.296,7.49c-2.246,1.055-4.771,1.173-7.106,0.331s-4.203-2.542-5.259-4.789
	C390.946,260.523,390.657,258.837,390.825,257.171z M407.505,258.831c0.136-1.337-0.097-2.69-0.672-3.913
	c-1.751-3.729-6.209-5.339-9.936-3.588c-2.365,1.111-3.997,3.419-4.259,6.024c-0.134,1.337,0.098,2.692,0.673,3.915
	c0.849,1.806,2.35,3.172,4.227,3.849s3.905,0.583,5.711-0.267C405.614,263.741,407.244,261.434,407.505,258.831z"/>
<path fill="#DFDDDD" d="M363.398,259.111l2.972-15.512l8.057,1.546c0.305-0.6,0.634-1.196,0.997-1.799l-5.616-5.99l11.517-10.799
	l5.616,5.985c0.312-0.161,0.618-0.313,0.919-0.454c0.305-0.143,0.614-0.281,0.935-0.417l-1.019-8.147l15.666-1.968l1.021,8.148
	c0.702,0.107,1.371,0.233,2.019,0.381l3.961-7.191l13.831,7.618l-3.958,7.189c0.508,0.503,0.975,0.999,1.411,1.497l7.421-3.488
	l6.715,14.294l-7.422,3.486c0.105,0.652,0.188,1.327,0.25,2.04l8.06,1.542l-2.966,15.508l-8.062-1.54
	c-0.305,0.599-0.638,1.199-0.996,1.795l5.619,5.99l-11.516,10.8l-5.621-5.983c-0.306,0.158-0.612,0.309-0.917,0.452
	s-0.616,0.282-0.936,0.417l1.021,8.145l-15.667,1.969l-1.024-8.146c-0.685-0.104-1.358-0.23-2.017-0.38l-3.957,7.188l-13.837-7.614
	l3.959-7.187c-0.501-0.494-0.973-0.994-1.411-1.496l-7.42,3.485l-6.716-14.293l7.421-3.486c-0.107-0.659-0.19-1.34-0.251-2.041
	L363.398,259.111z M367.818,245.736l-2.284,11.928l7.649,1.465l0.043,0.707c0.069,1.125,0.203,2.209,0.397,3.218l0.133,0.695
	l-7.043,3.31l5.164,10.99l7.042-3.308l0.451,0.546c0.654,0.795,1.402,1.589,2.225,2.36l0.516,0.485l-3.758,6.821l10.641,5.855
	l3.755-6.818l0.685,0.175c1.019,0.26,2.089,0.463,3.185,0.602l0.702,0.089l0.973,7.732l12.048-1.513l-0.97-7.729l0.657-0.261
	c0.513-0.203,1.014-0.419,1.487-0.642c0.48-0.224,0.964-0.473,1.439-0.733l0.62-0.343l5.336,5.682l8.855-8.307l-5.333-5.685
	l0.379-0.598c0.598-0.939,1.127-1.894,1.573-2.836l0.303-0.638l7.646,1.459l2.282-11.924l-7.646-1.462l-0.048-0.703
	c-0.078-1.169-0.207-2.223-0.397-3.226l-0.132-0.694l7.041-3.308l-5.164-10.991l-7.04,3.308l-0.451-0.544
	c-0.65-0.786-1.38-1.561-2.229-2.368l-0.511-0.484l3.754-6.819l-10.634-5.857l-3.759,6.821l-0.684-0.175
	c-1-0.256-2.044-0.455-3.193-0.605l-0.698-0.092l-0.969-7.728l-12.047,1.513l0.967,7.732l-0.657,0.26
	c-0.526,0.208-1.012,0.417-1.486,0.64c-0.465,0.219-0.95,0.466-1.441,0.735l-0.62,0.342l-5.331-5.683l-8.856,8.305l5.328,5.682
	l-0.375,0.597c-0.61,0.965-1.125,1.896-1.573,2.846l-0.303,0.638L367.818,245.736z M378.624,255.968
	c0.757-7.522,5.464-14.187,12.283-17.39c10.761-5.056,23.626-0.414,28.683,10.346c1.654,3.523,2.323,7.429,1.936,11.292
	c-0.758,7.521-5.464,14.187-12.283,17.39c-10.761,5.054-23.627,0.412-28.682-10.347
	C378.905,263.735,378.235,259.833,378.624,255.968z M419.71,260.034c0.355-3.535-0.259-7.108-1.772-10.334
	c-4.628-9.849-16.404-14.097-26.255-9.471c-6.241,2.933-10.551,9.033-11.244,15.923c-0.355,3.533,0.257,7.106,1.772,10.332
	c4.628,9.849,16.405,14.098,26.254,9.471C414.708,273.022,419.017,266.92,419.71,260.034z"/>
<path fill="#DFDDDD" d="M408.392,337.453l3.31-17.273l9.062,1.738c0.364-0.721,0.762-1.441,1.206-2.177l-6.318-6.736l12.824-12.027
	l6.317,6.735c0.377-0.197,0.748-0.382,1.109-0.552c0.367-0.173,0.743-0.339,1.134-0.503l-1.145-9.162l17.44-2.192l1.149,9.163
	c0.852,0.129,1.66,0.281,2.442,0.463l4.456-8.086l15.399,8.481l-4.452,8.086c0.619,0.609,1.185,1.208,1.707,1.81l8.349-3.922
	l7.477,15.915l-8.348,3.922c0.128,0.785,0.228,1.602,0.303,2.468l9.065,1.736l-3.304,17.265l-9.067-1.731
	c-0.366,0.727-0.771,1.454-1.204,2.172l6.319,6.738l-12.822,12.024l-6.322-6.73c-0.369,0.192-0.74,0.376-1.11,0.551
	c-0.365,0.171-0.745,0.339-1.131,0.503l1.148,9.161l-17.443,2.192l-1.153-9.165c-0.831-0.123-1.647-0.275-2.44-0.459l-4.45,8.084
	l-15.406-8.478l4.451-8.084c-0.605-0.594-1.177-1.2-1.707-1.811l-8.347,3.921l-7.477-15.914l8.348-3.922
	c-0.133-0.796-0.233-1.622-0.303-2.469L408.392,337.453z M413.151,322.315l-2.624,13.688l8.657,1.658l0.043,0.706
	c0.078,1.271,0.229,2.497,0.45,3.646l0.133,0.695l-7.97,3.745l5.926,12.612l7.969-3.744l0.452,0.547
	c0.744,0.904,1.592,1.805,2.518,2.676l0.517,0.484l-4.251,7.718l12.21,6.72l4.249-7.716l0.685,0.176
	c1.147,0.292,2.362,0.521,3.607,0.68l0.703,0.089l1.101,8.751l13.824-1.736l-1.098-8.747l0.656-0.26
	c0.582-0.229,1.148-0.475,1.686-0.727c0.544-0.256,1.094-0.537,1.632-0.832l0.62-0.342l6.037,6.429l10.163-9.532l-6.036-6.433
	l0.38-0.598c0.673-1.058,1.272-2.139,1.781-3.213l0.303-0.638l8.652,1.653l2.619-13.683l-8.651-1.657l-0.047-0.702
	c-0.09-1.328-0.238-2.523-0.452-3.652l-0.131-0.695l7.969-3.744l-5.926-12.611l-7.969,3.743l-0.45-0.545
	c-0.737-0.891-1.563-1.768-2.525-2.682l-0.511-0.484l4.25-7.717l-12.204-6.721l-4.253,7.718l-0.684-0.175
	c-1.136-0.292-2.318-0.516-3.617-0.687l-0.698-0.092l-1.096-8.745l-13.823,1.737l1.094,8.751l-0.658,0.26
	c-0.6,0.235-1.149,0.473-1.686,0.724c-0.523,0.246-1.072,0.527-1.631,0.834l-0.621,0.341l-6.032-6.431l-10.163,9.531l6.029,6.43
	l-0.376,0.598c-0.694,1.101-1.277,2.154-1.781,3.221l-0.303,0.639L413.151,322.315z M425.551,334.009
	c0.851-8.447,6.134-15.928,13.791-19.527c12.083-5.674,26.528-0.463,32.205,11.619c1.858,3.956,2.61,8.341,2.173,12.678
	c-0.85,8.446-6.133,15.928-13.789,19.525c-12.082,5.676-26.529,0.466-32.205-11.617C425.867,342.73,425.115,338.346,425.551,334.009
	z M471.907,338.596c0.403-4.009-0.293-8.062-2.012-11.72c-5.248-11.172-18.605-15.99-29.776-10.742
	c-7.08,3.326-11.967,10.246-12.753,18.058c-0.402,4.009,0.292,8.061,2.012,11.72c5.247,11.171,18.606,15.99,29.777,10.741
	C466.234,353.327,471.12,346.409,471.907,338.596z"/>
<path fill="#DFDDDD" d="M427.647,334.218C427.647,334.217,427.647,334.217,427.647,334.218c0.777-7.713,5.602-14.544,12.593-17.829
	c5.335-2.505,11.334-2.781,16.894-0.776c5.559,2.006,10.001,6.049,12.509,11.383c1.696,3.614,2.384,7.616,1.984,11.575
	c-0.776,7.712-5.601,14.543-12.592,17.827c-5.336,2.506-11.336,2.783-16.895,0.778c-5.56-2.007-10.001-6.05-12.509-11.386
	C427.935,342.178,427.249,338.177,427.647,334.218z M469.81,338.388c0.367-3.632-0.263-7.303-1.819-10.617
	c-2.3-4.893-6.376-8.603-11.477-10.441c-5.102-1.841-10.605-1.587-15.499,0.711c-6.414,3.015-10.841,9.282-11.553,16.359v0.001
	c-0.366,3.631,0.264,7.3,1.821,10.614c2.298,4.895,6.374,8.604,11.475,10.445c5.102,1.84,10.606,1.586,15.501-0.714
	C464.672,351.734,469.099,345.465,469.81,338.388z M439.315,335.367c0.364-3.613,2.63-6.815,5.91-8.358
	c2.506-1.176,5.32-1.307,7.927-0.366c2.605,0.941,4.689,2.839,5.867,5.345c0.798,1.697,1.121,3.577,0.934,5.437
	c-0.362,3.611-2.627,6.813-5.909,8.355c-5.176,2.431-11.363,0.199-13.794-4.975C439.451,339.108,439.129,337.227,439.315,335.367z
	 M458.138,337.24c0.154-1.529-0.112-3.078-0.771-4.478c-0.969-2.065-2.687-3.629-4.836-4.404c-2.147-0.774-4.466-0.667-6.53,0.302
	c-2.705,1.271-4.57,3.911-4.87,6.891c-0.154,1.53,0.112,3.079,0.771,4.479c2.002,4.264,7.102,6.102,11.366,4.098
	C455.973,342.857,457.838,340.217,458.138,337.24z"/>
<path fill="#DFDDDD" d="M404.533,18.686V9.452h-13.702v9.234h-53.297V9.452H323.83v9.234h-13.04v97.311h106.784V18.686H404.533z
	 M393.414,12.035h8.535v14.507h-8.535V12.035z M326.413,12.035h8.537v14.507h-8.537V12.035z M414.991,113.414H313.373V40.45h101.618
	V113.414z M414.991,37.866H313.373V21.269h10.457v7.856h13.704v-7.856h53.297v7.856h13.702v-7.856h10.458V37.866z"/>
<path fill="#DFDDDD" d="M362.205,95.046h-20.389l1.719-1.587c10.219-9.845,17.452-17.581,17.452-27.504
	c0-7.806-5.085-15.684-16.445-15.684c-5.502,0-10.773,1.893-14.844,5.332l-0.745,0.629l3.23,7.157l1.307-1.087
	c2.13-1.774,5.539-3.889,9.68-3.889c5.662,0,8.533,2.815,8.533,8.364c-0.07,6.792-5.372,12.925-18.035,24.977l-5.646,5.482v5.95
	h34.184V95.046L362.205,95.046z M359.622,100.604h-29.017v-2.274l4.853-4.712c12.735-12.123,18.745-18.72,18.828-26.826
	c0-6.966-4.052-10.962-11.116-10.962c-4.2,0-7.692,1.811-10.002,3.459l-1.047-2.318c3.487-2.656,7.884-4.115,12.421-4.115
	c10.232,0,13.861,7.056,13.861,13.1c0,8.902-6.899,16.239-16.64,25.625l-4.378,4.039v2.011h22.236V100.604L359.622,100.604z"/>
<path fill="#DFDDDD" d="M380.928,96.035c-4.52,0-8.692-1.909-10.269-2.918l-1.372-0.878l-2.707,7.669l0.845,0.554
	c2.505,1.644,7.563,3.563,13.578,3.563c13.359,0,19.338-8.105,19.338-16.139c0-5.865-3.381-10.779-8.893-13.031
	c4.517-2.573,6.99-6.621,6.99-11.489c0-6.518-4.778-13.094-15.455-13.094c-5.659,0-10.965,2.039-13.71,4.059l-0.777,0.57
	l2.655,7.388l1.39-0.994c1.957-1.399,5.528-3.033,9.148-3.033c6.428,0,7.388,3.865,7.388,6.169c0,5.198-5.83,7.085-9.749,7.085
	h-5.023v7.608h5.023c5.261,0,11.431,2.26,11.501,8.632c0.039,2.125-0.75,4.17-2.165,5.613
	C386.928,95.138,384.325,96.035,380.928,96.035z M393.413,87.718c-0.092-8.249-7.645-11.176-14.084-11.176h-2.439V74.1h2.439
	c6.13,0,12.332-3.321,12.332-9.668c0-4.231-2.619-8.753-9.971-8.753c-4.087,0-7.567,1.655-9.231,2.608l-0.864-2.404
	c2.339-1.437,6.6-3.026,11.39-3.026c9.5,0,12.871,5.661,12.871,10.51c0,4.794-2.942,8.5-8.286,10.436l-0.852,0.31v2.117l1.038,0.207
	c6.076,1.217,10.002,5.71,10.002,11.451c0,6.748-5.18,13.556-16.754,13.556c-4.751,0-8.971-1.378-11.297-2.628l0.965-2.736
	c1.638,0.814,5.655,2.541,10.257,2.541c4.117,0,7.34-1.157,9.58-3.439C392.406,93.246,393.464,90.524,393.413,87.718z"/>
<path fill="#DFDDDD" d="M129.09,80.724c-0.315-4.969-1.373-9.725-3.144-14.134l-1.166-2.902h0.005l-1.103-2.129h-0.09l-0.608-1.065
	c-7.843-13.709-21.929-22.503-37.677-23.524l-1.978-0.128v-0.098h-2.101v0.098l-1.978,0.128
	c-15.745,1.019-29.832,9.813-37.68,23.524l-0.609,1.065h-0.086l-1.272,2.458l-1.015,2.563c-1.751,4.429-2.801,9.189-3.12,14.146
	l-0.126,1.979h-0.075v2.102h0.074l0.127,1.979c0.321,4.965,1.37,9.725,3.119,14.144l1.018,2.569l1.261,2.43h0.095l0.611,1.065
	c7.841,13.727,21.927,22.53,37.678,23.55l1.978,0.129v0.067h2.101v-0.067l1.978-0.129c15.755-1.021,29.838-9.825,37.676-23.549
	l0.609-1.066h0.101l1.094-2.105h-0.005l1.167-2.903c1.767-4.401,2.824-9.156,3.143-14.134l0.127-1.98h0.045v-2.102h-0.048
	L129.09,80.724z M45.854,58.23c4.48-6.399,10.348-11.345,17.438-14.699l7.489-3.541l-4.874,6.698
	c-2.618,3.595-4.832,8.109-6.587,13.418l-0.479,1.452H43.524L45.854,58.23z M37.778,80.432c0.41-5.524,1.746-10.746,3.966-15.522
	l0.566-1.223h15.879l-0.591,2.586c-1.057,4.617-1.677,9.457-1.842,14.387l-0.07,2.043H37.61L37.778,80.432z M41.741,102.595
	c-2.216-4.796-3.552-10.017-3.962-15.517l-0.168-2.273h18.076l0.07,2.043c0.166,4.938,0.787,9.779,1.842,14.387l0.591,2.586H42.309
	L41.741,102.595z M63.297,123.956c-7.064-3.316-12.932-8.263-17.441-14.702l-2.333-3.327h15.319l0.479,1.454
	c1.734,5.279,3.952,9.792,6.586,13.416l4.837,6.653L63.297,123.956z M81.228,128.489l-2.711-0.796
	c-6.64-1.951-12.427-8.665-16.298-18.904l-1.082-2.862h20.091V128.489z M81.228,103.822H60.675l-0.402-1.598
	c-1.15-4.55-1.832-9.527-2.086-15.21l-0.098-2.209h23.139L81.228,103.822L81.228,103.822z M81.228,82.704h-23.14l0.098-2.208
	c0.254-5.711,0.937-10.688,2.087-15.214l0.406-1.594h20.549V82.704L81.228,82.704z M81.228,61.558H61.134l1.085-2.864
	c3.881-10.246,9.671-16.958,16.301-18.898l2.708-0.793V61.558z M122.782,64.902c2.242,4.768,3.588,9.994,3.997,15.531l0.169,2.271
	h-18.063l-0.081-2.032c-0.201-5.092-0.821-9.936-1.847-14.396l-0.594-2.588h15.847L122.782,64.902z M101.263,43.532
	c7.108,3.371,12.974,8.316,17.439,14.699l2.33,3.327h-15.341l-0.479-1.452c-1.76-5.338-3.97-9.853-6.565-13.418l-4.888-6.715
	L101.263,43.532z M83.329,38.999l2.71,0.797c6.636,1.949,12.423,8.662,16.295,18.899l1.083,2.863H83.329V38.999L83.329,38.999z
	 M83.329,63.687h20.551l0.405,1.595c1.15,4.537,1.845,9.658,2.063,15.223l0.086,2.198H83.329V63.687z M83.329,84.805h23.104
	l-0.086,2.198c-0.219,5.616-0.894,10.596-2.061,15.222l-0.404,1.598H83.329V84.805L83.329,84.805z M83.329,128.492v-22.565h20.086
	l-1.079,2.861c-3.862,10.229-9.647,16.943-16.295,18.903L83.329,128.492z M118.703,109.254c-4.432,6.331-10.465,11.415-17.445,14.7
	l-7.462,3.512l4.851-6.67c2.613-3.594,4.822-8.107,6.565-13.415l0.476-1.455h15.344L118.703,109.254z M126.779,87.077
	c-0.41,5.513-1.755,10.737-3.996,15.526l-0.57,1.219h-15.849l0.594-2.589c1.023-4.452,1.644-9.295,1.847-14.396l0.081-2.032h18.063
	L126.779,87.077z"/>
<path fill="#DFDDDD" d="M0,389.596h75.888v-92.897H0V389.596z M2.184,298.882h71.521v88.531H2.184V298.882z"/>
<rect x="8.031" y="308.321" fill="#DFDDDD" width="59.826" height="2.185"/>
<rect x="8.031" y="376.53" fill="#DFDDDD" width="59.826" height="2.184"/>
<rect x="8.031" y="315.899" fill="#DFDDDD" width="59.826" height="2.185"/>
<rect x="8.031" y="323.479" fill="#DFDDDD" width="59.826" height="2.184"/>
<rect x="8.031" y="353.792" fill="#DFDDDD" width="59.826" height="2.185"/>
<rect x="8.031" y="361.373" fill="#DFDDDD" width="59.826" height="2.184"/>
<rect x="8.031" y="368.952" fill="#DFDDDD" width="59.826" height="2.183"/>
<rect x="8.031" y="331.057" fill="#DFDDDD" width="59.826" height="2.184"/>
<rect x="8.031" y="338.636" fill="#DFDDDD" width="59.826" height="2.184"/>
<rect x="8.031" y="346.213" fill="#DFDDDD" width="59.826" height="2.185"/>
<polygon fill="#DFDDDD" points="27.47,281.329 27.47,295.7 29.653,295.7 29.653,283.511 101.175,283.511 101.175,372.043 
	77.124,372.043 77.124,374.227 103.359,374.227 103.359,281.329 "/>
<rect x="35.502" y="292.952" fill="#DFDDDD" width="59.825" height="2.183"/>
<rect x="77.124" y="361.16" fill="#DFDDDD" width="18.203" height="2.184"/>
<rect x="77.124" y="300.53" fill="#DFDDDD" width="18.203" height="2.184"/>
<rect x="77.124" y="308.109" fill="#DFDDDD" width="18.203" height="2.184"/>
<rect x="77.124" y="338.424" fill="#DFDDDD" width="18.203" height="2.183"/>
<rect x="77.124" y="346.002" fill="#DFDDDD" width="18.203" height="2.184"/>
<rect x="77.124" y="353.582" fill="#DFDDDD" width="18.203" height="2.184"/>
<rect x="77.124" y="315.687" fill="#DFDDDD" width="18.203" height="2.185"/>
<rect x="77.124" y="323.266" fill="#DFDDDD" width="18.203" height="2.184"/>
<rect x="77.124" y="330.845" fill="#DFDDDD" width="18.203" height="2.183"/>
<path fill="#19B0BF" d="M254.569,121.813l132.009,106.527c-0.662,0.128-2.926,11.47-3.629,11.47l-17.149,64.442l-220.504-4.072
	l-18.453-64.471c-0.668,0-3.589-7.254-4.253-7.383L254.569,121.813z"/>
<rect x="147.323" y="174.991" fill="#E1E1EB" width="210.599" height="119.417"/>
<path fill="#FFFFFF" d="M375.009,304.251h-5.131V172.852c0-3.807-3.881-6.891-8.659-6.891H147.691c-4.778,0-8.663,3.084-8.663,6.891
	v131.399h-5.701c-6.306,0-11.419,5.113-11.419,11.42v70.085c0,6.308,5.113,11.419,11.419,11.419h241.682
	c6.309,0,11.42-5.111,11.42-11.419v-70.085C386.429,309.365,381.318,304.251,375.009,304.251z M167.784,177.196h173.342
	c6.911,0,12.514,4.43,12.514,9.899c0,5.468-5.603,9.899-12.514,9.899H167.784c-6.914,0-12.514-4.431-12.514-9.899
	C155.27,181.625,160.87,177.196,167.784,177.196z M167.784,205.883h173.342c6.911,0,12.514,4.433,12.514,9.9
	c0,5.465-5.603,9.898-12.514,9.898H167.784c-6.914,0-12.514-4.433-12.514-9.898C155.27,210.316,160.87,205.883,167.784,205.883z
	 M167.784,234.577h173.342c6.911,0,12.514,4.429,12.514,9.896s-5.603,9.901-12.514,9.901H167.784
	c-6.914,0-12.514-4.435-12.514-9.901C155.27,239.005,160.87,234.577,167.784,234.577z M167.784,263.265h173.342
	c6.911,0,12.514,4.432,12.514,9.899s-5.603,9.898-12.514,9.898H167.784c-6.914,0-12.514-4.431-12.514-9.898
	S160.87,263.265,167.784,263.265z"/>
<path fill="#CF4D3E" d="M290.425,308.458l-32.313,26.915c-1.013,0.865-2.264,1.284-3.543,1.284c-1.249,0-2.5-0.419-3.53-1.284
	l-32.297-26.905l-88.457,88.444c0.874,0.234,1.739,0.548,2.676,0.548h243.22c0.961,0,1.822-0.313,2.709-0.548L290.425,308.458z"/>
<path fill="#CF4D3E" d="M387.24,231.63c0-1.164-0.327-2.232-0.662-3.291l-87.61,73.004l87.742,87.752
	c0.215-0.885,0.53-1.736,0.53-2.689V231.63L387.24,231.63z"/>
<path fill="#CF4D3E" d="M122.589,228.325c-0.346,1.063-0.681,2.131-0.681,3.306v154.774c0,0.96,0.32,1.817,0.55,2.7l87.749-87.752
	L122.589,228.325z"/>
<polygon fill="#125371" points="417.799,356.798 332.918,333.833 361.419,416.847 374.087,385.416 400.033,410.868 407.2,403.627 
	414.548,395.736 388.469,370.992 "/>
<polygon fill="#D3E9F8" points="337.181,330.788 363.598,407.737 375.341,378.601 399.392,402.195 406.036,395.484 "/>
<polygon fill="#FFFFFF" points="337.181,330.788 415.861,352.076 388.673,365.232 412.848,388.168 406.036,395.484 "/>
<path fill="#19B0BF" d="M247.507,58.987c0,32.577-26.409,58.987-58.987,58.987c-32.578,0-58.988-26.41-58.988-58.987
	C129.533,26.41,155.943,0,188.521,0C221.099,0,247.507,26.41,247.507,58.987z"/>
<circle fill="#FFFFFF" cx="70.002" cy="192.385" r="50.775"/>
<path fill="#E1E1EB" d="M217.947,61.651c3.867,0,7.001-3.135,7.001-7.001c0-3.868-3.134-7.002-7.001-7.002h-3.372v14.003H217.947z"
	/>
<path fill="#DC4844" d="M218.77,85.208c0,1.111-0.9,2.012-2.011,2.012l0,0c-1.111,0-2.012-0.901-2.012-2.012V24.092
	c0-1.111,0.901-2.013,2.012-2.013l0,0c1.111,0,2.011,0.901,2.011,2.013V85.208z"/>
<path fill="#DC4844" d="M172.257,42.078c-6.944,0-12.572,5.628-12.572,12.571c0,6.944,5.627,12.573,12.572,12.573
	c0.029,0,0.057,0,0.085,0L172.257,42.078z"/>
<path fill="#E1E1EB" d="M172.924,67.265c0,0,5.226,22.529,8.685,23.047c3.458,0.518,4.841-1.729,3.804-4.668
	s-2.768-19.367-2.422-21.269c0.346-1.902-10.648,2.867-10.648,2.867"/>
<path fill="#FFFEF5" d="M177.771,42.053h-4.847v25.192h4.847c0,0,25.341-4.242,37.846,19.792V54.887v-0.474V22.262
	C203.113,46.295,177.771,42.053,177.771,42.053z"/>
<path fill="#CCCBC8" d="M175.21,46.219c0,0,25.418,4.323,38.214-14.525c0,0-3.977,17.119-37.869,17.637L175.21,46.219z"/>
<path fill="#E22849" d="M486.833,174.697c0,27.734-22.48,50.214-50.213,50.214s-50.215-22.48-50.215-50.214
	c0-27.732,22.482-50.214,50.215-50.214S486.833,146.965,486.833,174.697z"/>
<rect x="409.737" y="172.78" fill="#FFFFFF" width="53.767" height="0.443"/>
<rect x="438.875" y="175.892" fill="#FFFFFF" width="24.629" height="6.199"/>
<rect x="409.737" y="186.601" fill="#FFFFFF" width="24.627" height="23.166"/>
<rect x="409.737" y="175.892" fill="#FFFFFF" width="24.627" height="6.199"/>
<rect x="438.875" y="186.601" fill="#FFFFFF" width="24.629" height="23.166"/>
<polygon fill="#CFCCCC" points="409.737,173.223 409.737,175.892 434.364,175.892 434.364,173.925 438.875,173.925 438.875,175.892 
	463.502,175.892 463.502,173.223 "/>
<rect x="434.364" y="173.925" fill="#142D38" width="4.511" height="1.967"/>
<rect x="434.364" y="186.601" fill="#2D5972" width="4.511" height="23.166"/>
<rect x="434.364" y="175.892" fill="#2D5972" width="4.511" height="6.199"/>
<rect x="434.364" y="156.385" fill="#2D5972" width="4.511" height="17.54"/>
<rect x="409.737" y="182.091" fill="#2D5972" width="24.627" height="4.51"/>
<rect x="438.875" y="182.091" fill="#2D5972" width="24.629" height="4.51"/>
<rect x="434.364" y="182.091" fill="#2D5972" width="4.511" height="4.51"/>
<rect x="404.017" y="156.385" fill="#FFFFFF" width="30.347" height="17.54"/>
<rect x="438.875" y="156.385" fill="#FFFFFF" width="30.346" height="17.54"/>
<polygon fill="#142D38" points="422.457,147.147 429.032,139.629 435.048,153.347 434.296,155.79 "/>
<path fill="#2D5972" d="M415.805,156.602c0,0-0.865-8.517,2.895-10.771c3.757-2.254,17.476,10.711,17.476,10.711L415.805,156.602z"
	/>
<polygon fill="#142D38" points="450.959,147.147 444.382,139.629 438.369,153.347 439.12,155.79 "/>
<path fill="#2D5972" d="M457.658,156.407c0,0,0.819-8.322-2.939-10.577c-3.76-2.254-17.479,10.711-17.479,10.711L457.658,156.407z"
	/>
<path fill="#142D38" d="M439.275,154.851c0,0.985-0.798,1.785-1.783,1.785h-2.255c-0.988,0-1.785-0.8-1.785-1.785l0,0
	c0-0.986,0.797-1.786,1.785-1.786h2.255C438.477,153.065,439.275,153.865,439.275,154.851L439.275,154.851z"/>
<path fill="#FFFFFF" d="M50.191,161.428v57.82c-1.814-0.175-2.875-0.27-2.875-0.27l-2.415,8.655H94.98h4.156h0.534
	c1.331,0,2.456-0.885,2.819-2.097h0.126v-0.849v-47.845v-15.415H50.191z"/>
<path fill="#0C3859" d="M101.878,162.165v14.678v47.845v0.322l-0.093,0.314c-0.279,0.926-1.148,1.572-2.115,1.572h-0.534H94.98
	H45.871l1.99-7.128c0.492,0.045,1.264,0.118,2.259,0.214l0.807,0.078v-0.812v-57.083H101.878 M102.615,161.428H50.191v57.82
	c-1.814-0.175-2.875-0.27-2.875-0.27l-2.415,8.655H94.98h4.156h0.534c1.331,0,2.456-0.885,2.819-2.097h0.126v-0.849v-47.845
	L102.615,161.428L102.615,161.428z"/>
<path fill="#FFFFFF" d="M41.085,161.428v15.415v13.432v34.414c0,1.627,1.319,2.946,2.946,2.946h4.688
	c1.627,0,2.946-1.319,2.946-2.946v-34.414v-13.432v-15.415H41.085z"/>
<path fill="#0C3859" d="M50.928,162.165v14.678v13.432v34.414c0,1.217-0.991,2.208-2.209,2.208h-4.688
	c-1.219,0-2.209-0.991-2.209-2.208v-34.414v-13.432v-14.678H50.928 M51.665,161.428H41.085v15.415v13.432v34.414
	c0,1.627,1.319,2.946,2.946,2.946h4.688c1.627,0,2.946-1.319,2.946-2.946v-34.414v-13.432V161.428L51.665,161.428z"/>
<path fill="#0C3859" d="M48.724,164.294v58.267c0,0.559-0.454,1.014-1.014,1.014h-2.671c-0.559,0-1.014-0.455-1.014-1.014v-58.267
	h-0.911v58.267c0,1.061,0.863,1.924,1.924,1.924h2.672c1.062,0,1.925-0.863,1.925-1.924v-58.267H48.724z"/>
<rect x="45.919" y="164.294" fill="#0C3859" width="0.912" height="56.674"/>
<path fill="#0C3859" d="M56.31,177.329v-10.969h2.896l2.279,4.02c0.649,1.155,1.302,2.522,1.79,3.759h0.049
	c-0.163-1.449-0.211-2.929-0.211-4.573v-3.206h2.279v10.969h-2.604l-2.344-4.232c-0.65-1.171-1.366-2.587-1.903-3.874l-0.048,0.017
	c0.064,1.448,0.098,2.995,0.098,4.785v3.304H56.31L56.31,177.329z"/>
<path fill="#0C3859" d="M74.066,172.689H70.03v2.604h4.507v2.036H67.54v-10.969h6.771v2.034h-4.28v2.278h4.036L74.066,172.689
	L74.066,172.689z"/>
<path fill="#0C3859" d="M78.119,177.329l-2.604-10.969h2.652l0.83,4.523c0.244,1.302,0.473,2.718,0.651,3.824h0.032
	c0.179-1.187,0.439-2.506,0.717-3.856l0.927-4.492h2.636l0.879,4.622c0.244,1.286,0.423,2.458,0.586,3.679h0.032
	c0.163-1.221,0.407-2.508,0.635-3.809l0.895-4.492h2.522l-2.832,10.969h-2.686l-0.928-4.72c-0.211-1.106-0.391-2.132-0.52-3.385
	h-0.033c-0.195,1.237-0.374,2.279-0.634,3.385l-1.042,4.72L78.119,177.329L78.119,177.329z"/>
<path fill="#0C3859" d="M90.75,174.772c0.667,0.342,1.692,0.685,2.75,0.685c1.139,0,1.741-0.473,1.741-1.189
	c0-0.684-0.52-1.074-1.839-1.546c-1.823-0.634-3.011-1.644-3.011-3.238c0-1.872,1.563-3.305,4.15-3.305
	c1.237,0,2.149,0.261,2.799,0.554l-0.553,2.002c-0.44-0.212-1.22-0.521-2.294-0.521c-1.074,0-1.595,0.488-1.595,1.057
	c0,0.701,0.618,1.01,2.034,1.547c1.937,0.716,2.848,1.724,2.848,3.271c0,1.839-1.415,3.402-4.425,3.402
	c-1.254,0-2.49-0.326-3.109-0.668L90.75,174.772z"/>
<rect x="54.804" y="181.892" fill="#0C3859" width="42.975" height="7.901"/>
<rect x="54.804" y="193.239" fill="#0C3859" width="20.711" height="2.299"/>
<rect x="77.07" y="193.239" fill="#0C3859" width="20.709" height="2.299"/>
<rect x="54.804" y="199.885" fill="#0C3859" width="20.711" height="2.299"/>
<rect x="77.07" y="199.885" fill="#0C3859" width="20.709" height="2.299"/>
<rect x="54.804" y="206.53" fill="#0C3859" width="20.711" height="2.299"/>
<rect x="77.07" y="206.53" fill="#0C3859" width="20.709" height="2.299"/>
<rect x="54.804" y="213.175" fill="#0C3859" width="20.711" height="2.299"/>
<rect x="77.07" y="213.175" fill="#0C3859" width="20.709" height="2.299"/>
<rect x="54.804" y="219.82" fill="#0C3859" width="20.711" height="2.299"/>
<rect x="77.07" y="219.82" fill="#0C3859" width="20.709" height="2.299"/>
</svg>
