<?xml version="1.0" encoding="utf-8"?>
<!-- Generator: Adobe Illustrator 15.1.0, SVG Export Plug-In  -->
<!DOCTYPE svg PUBLIC "-//W3C//DTD SVG 1.1//EN" "http://www.w3.org/Graphics/SVG/1.1/DTD/svg11.dtd" [
	<!ENTITY ns_flows "http://ns.adobe.com/Flows/1.0/">
]>
<svg version="1.1"
	 xmlns="http://www.w3.org/2000/svg" xmlns:xlink="http://www.w3.org/1999/xlink" xmlns:a="http://ns.adobe.com/AdobeSVGViewerExtensions/3.0/"
	 x="0px" y="0px" width="30px" height="30px" viewBox="-1.588 -2.733 30 30" enable-background="new -1.588 -2.733 30 30"
	 xml:space="preserve">
<defs>
</defs>
<path fill="#F45B69" d="M13.411,3.4c-4.095,0-7.429,3.813-7.429,8.502v4.13c0,4.686,3.334,8.502,7.429,8.502
	c2.843,0,5.313-1.834,6.565-4.521c-0.92,0.41-1.91,0.631-2.922,0.631h-2.16c-0.615,0-1.112-0.57-1.112-1.275
	c0-0.703,0.497-1.275,1.112-1.275h2.16c1.398,0,2.734-0.578,3.773-1.598c0.01-0.152,0.014-0.309,0.014-0.463v-4.13
	C20.842,7.213,17.51,3.4,13.411,3.4z"/>
<path fill="#F45B69" d="M23.877,10.561h-0.133C23.162,4.627,18.75,0,13.41,0C8.073,0,3.661,4.626,3.077,10.561h-0.13
	C1.322,10.561,0,12.073,0,13.933c0,1.859,1.322,3.373,2.947,3.373h1.179c0.615,0,1.114-0.57,1.114-1.273v-4.128
	c0-5.157,3.666-9.354,8.172-9.354c4.508,0,8.172,4.195,8.172,9.354v3.703c-0.23,0.324-0.48,0.623-0.752,0.891
	c-0.063,1.268-0.363,2.457-0.855,3.52c1.26-0.564,2.393-1.492,3.271-2.707h0.629c1.625,0,2.947-1.514,2.947-3.373
	C26.824,12.073,25.502,10.561,23.877,10.561z"/>
</svg>
