<?xml version="1.0" encoding="iso-8859-1"?>
<!-- Generator: Adobe Illustrator 19.0.0, SVG Export Plug-In . SVG Version: 6.00 Build 0)  -->
<svg version="1.1" id="Layer_1" xmlns="http://www.w3.org/2000/svg" xmlns:xlink="http://www.w3.org/1999/xlink" x="0px" y="0px"
	 viewBox="0 0 491.499 491.499" style="enable-background:new 0 0 491.499 491.499;" xml:space="preserve">
<path style="fill:#27A2DB;" d="M245.75,0C131.433,0,38.432,93.009,38.432,207.326v124.488h8.834V214.929
	c0-4.872,3.949-8.823,8.822-8.823c4.872,0,8.823,3.951,8.823,8.823v70.345h8.812v-77.949c0-94.862,77.173-172.035,172.027-172.035
	s172.027,77.173,172.027,172.035v77.949h8.822v-70.345c0-4.872,3.951-8.823,8.823-8.823c4.872,0,8.822,3.951,8.822,8.823v116.884
	h8.823V207.326C453.068,93.009,360.067,0,245.75,0z"/>
<path style="fill:#EBF0F3;" d="M398.211,480.606H245.749v-12.24h152.462c10.263,0,18.606-8.343,18.606-18.606v-50.074h12.24v50.074
	C429.057,466.764,415.216,480.606,398.211,480.606z"/>
<path style="fill:#FCD462;" d="M337.228,130.149H154.271c-4.536,0-8.215,3.677-8.215,8.215v99.761c0,4.537,3.678,8.216,8.215,8.216
	h15.886v35.835c0,4.024,4.864,6.039,7.711,3.194l39.029-39.029h120.33c4.537,0,8.216-3.679,8.216-8.216v-99.759
	C345.443,133.827,341.765,130.149,337.228,130.149z"/>
<g>
	<rect x="162.596" y="148.188" style="fill:#DC8744;" width="166.313" height="10.598"/>
	<rect x="162.596" y="182.031" style="fill:#DC8744;" width="166.313" height="10.598"/>
	<rect x="162.596" y="215.859" style="fill:#DC8744;" width="166.313" height="10.598"/>
</g>
<path style="fill:#64798A;" d="M405.412,244.306h-38.944c-4.348,0-7.871,3.525-7.871,7.871v169.035c0,4.347,3.524,7.871,7.871,7.871
	h38.944c4.349,0,7.872-3.525,7.872-7.871V252.177C413.284,247.831,409.76,244.306,405.412,244.306z"/>
<path style="fill:#3A556A;" d="M423.734,266.339h-10.451v140.713h10.451c4.888,0,8.852-3.963,8.852-8.851V275.19
	C432.586,270.301,428.623,266.339,423.734,266.339z"/>
<path style="fill:#2F4859;" d="M432.586,299.138v75.114c20.743,0,37.557-16.814,37.557-37.557
	C470.144,315.953,453.329,299.138,432.586,299.138z"/>
<path style="fill:#64798A;" d="M86.088,429.084h38.944c4.348,0,7.871-3.524,7.871-7.871V252.177c0-4.347-3.524-7.871-7.871-7.871
	H86.088c-4.349,0-7.872,3.525-7.872,7.871v169.035C78.216,425.561,81.739,429.084,86.088,429.084z"/>
<path style="fill:#3A556A;" d="M67.765,407.052h10.451V266.339H67.765c-4.888,0-8.852,3.963-8.852,8.851v123.011
	C58.913,403.089,62.877,407.052,67.765,407.052z"/>
<path style="fill:#2F4859;" d="M58.913,374.252v-75.114c-20.743,0-37.557,16.814-37.557,37.557
	C21.356,357.438,38.17,374.252,58.913,374.252z"/>
<ellipse style="fill:#64798A;" cx="251.279" cy="472.986" rx="32.589" ry="18.514"/>
<g>
</g>
<g>
</g>
<g>
</g>
<g>
</g>
<g>
</g>
<g>
</g>
<g>
</g>
<g>
</g>
<g>
</g>
<g>
</g>
<g>
</g>
<g>
</g>
<g>
</g>
<g>
</g>
<g>
</g>
</svg>
