<?xml version="1.0" encoding="utf-8"?>
<!-- Generator: Adobe Illustrator 15.1.0, SVG Export Plug-In  -->
<!DOCTYPE svg PUBLIC "-//W3C//DTD SVG 1.1//EN" "http://www.w3.org/Graphics/SVG/1.1/DTD/svg11.dtd" [
	<!ENTITY ns_flows "http://ns.adobe.com/Flows/1.0/">
]>
<svg version="1.1"
	 xmlns="http://www.w3.org/2000/svg" xmlns:xlink="http://www.w3.org/1999/xlink" xmlns:a="http://ns.adobe.com/AdobeSVGViewerExtensions/3.0/"
	 x="0px" y="0px" width="30px" height="30px" viewBox="-3.415 -0.463 30 30" enable-background="new -3.415 -0.463 30 30"
	 xml:space="preserve">
<defs>
</defs>
<path fill="#F15C6A" d="M14.14,5.224c-0.747,0-1.426,0.414-1.768,1.082l-0.238,0.463h-1.098l-0.238-0.463
	c-0.342-0.668-1.02-1.082-1.769-1.082c-1.096,0-1.987,0.893-1.987,1.988c0,1.706,1.307,3.198,2.404,4.149
	c0.834,0.725,1.668,1.249,2.138,1.521c1.159-0.674,4.543-2.883,4.543-5.671C16.127,6.116,15.237,5.224,14.14,5.224z"/>
<path fill="#F15C6A" d="M0,0v29.074h23.17V0H0z M12.948,24.929H5.11v-1.704h7.838V24.929z M12.948,21.521H5.11v-1.703h7.838V21.521z
	 M12.948,18.115H5.11v-1.704h7.838V18.115z M11.969,14.616l-0.384,0.193l-0.384-0.193c-0.239-0.12-5.863-3.007-5.863-7.404
	c0-2.036,1.656-3.69,3.691-3.69c0.972,0,1.88,0.375,2.556,1.024c0.675-0.649,1.584-1.024,2.555-1.024
	c2.035,0,3.692,1.654,3.692,3.69C17.832,11.609,12.208,14.496,11.969,14.616z M18.058,24.929h-1.702v-1.704h1.702V24.929z
	 M18.058,21.521h-1.702v-1.703h1.702V21.521z M18.058,18.115h-1.702v-1.704h1.702V18.115z"/>
</svg>
