<?xml version="1.0" encoding="utf-8"?>
<!-- Generator: Adobe Illustrator 15.1.0, SVG Export Plug-In  -->
<!DOCTYPE svg PUBLIC "-//W3C//DTD SVG 1.1//EN" "http://www.w3.org/Graphics/SVG/1.1/DTD/svg11.dtd" [
	<!ENTITY ns_flows "http://ns.adobe.com/Flows/1.0/">
]>
<svg version="1.1"
	 xmlns="http://www.w3.org/2000/svg" xmlns:xlink="http://www.w3.org/1999/xlink" xmlns:a="http://ns.adobe.com/AdobeSVGViewerExtensions/3.0/"
	 x="0px" y="0px" width="38px" height="35px" viewBox="-7.334 0 38 35" enable-background="new -7.334 0 38 35"
	 xml:space="preserve">
<defs>
</defs>
<path d="M17.968,0H2.364C1.064,0,0,1.063,0,2.364v30.271C0,33.936,1.064,35,2.364,35h15.604c1.3,0,2.364-1.063,2.364-2.364V2.364
	C20.332,1.063,19.268,0,17.968,0z M7.67,1.704h4.992c0.158,0,0.286,0.128,0.286,0.287c0,0.158-0.128,0.286-0.286,0.286H7.67
	c-0.158,0-0.286-0.128-0.286-0.286C7.384,1.832,7.512,1.704,7.67,1.704z M10.166,33.818c-0.653,0-1.182-0.529-1.182-1.184
	s0.529-1.182,1.182-1.182c0.652,0,1.182,0.527,1.182,1.182S10.818,33.818,10.166,33.818z M18.688,30.625H1.645V3.749h17.042V30.625z
	"/>
<rect x="18.197" y="8.031" fill="#FFFFFF" width="2.542" height="2.022"/>
<rect x="18.604" y="23.031" fill="#FFFFFF" width="1.833" height="2.021"/>
<polygon fill="#FFFFFF" points="13.626,11.498 15.53,11.049 16.847,10.587 17.983,10.095 19.06,9.56 19.466,9.344 20.287,9.774 
	20.816,10.033 21.674,10.421 22.502,10.75 23.153,10.975 23.803,11.168 24.522,11.347 25.084,11.458 25.308,11.826 25.308,12.824 
	25.229,13.555 25.14,14.385 24.933,15.615 24.724,16.499 24.418,17.486 23.991,18.556 23.58,19.38 22.995,20.336 22.331,21.217 
	21.745,21.863 20.92,22.628 20.318,23.101 19.466,23.67 18.487,23.005 17.622,22.289 16.837,21.492 15.981,20.396 15.354,19.373 
	14.964,18.593 14.702,17.979 14.476,17.452 14.214,16.499 13.931,15.249 13.704,14.277 13.626,12.463 "/>
<path d="M25.641,11.548c-0.004-0.196-0.146-0.367-0.343-0.394c-0.919-0.127-1.826-0.346-2.715-0.672
	c-0.885-0.324-1.864-0.776-2.92-1.372c-0.134-0.076-0.26-0.076-0.394,0c-1.049,0.596-2.021,1.047-2.912,1.372
	c-0.89,0.324-1.796,0.545-2.708,0.672c-0.197,0.027-0.336,0.197-0.357,0.394c-0.088,3.743,0.732,6.807,2.452,9.188
	c0.937,1.297,2.109,2.35,3.525,3.152c0.109,0.08,0.28,0.074,0.409,0c1.404-0.816,2.575-1.861,3.51-3.152
	C24.911,18.356,25.724,15.292,25.641,11.548z M22.532,20.276c-0.813,1.122-1.832,2.058-3.066,2.81
	c-1.232-0.752-2.257-1.685-3.064-2.81c-1.564-2.181-2.328-4.97-2.299-8.37c0.861-0.139,1.715-0.373,2.568-0.688
	c0.854-0.313,1.788-0.744,2.795-1.291c1.008,0.547,1.935,0.978,2.789,1.291c0.854,0.314,1.715,0.549,2.576,0.688
	C24.86,15.328,24.092,18.122,22.532,20.276z"/>
<polygon fill="#008000" points="18.396,17.392 16.896,15.893 16.396,16.393 18.396,18.393 22.68,14.107 22.18,13.607 "/>
</svg>
