<?xml version="1.0" encoding="utf-8"?>
<!-- Generator: Adobe Illustrator 15.1.0, SVG Export Plug-In  -->
<!DOCTYPE svg PUBLIC "-//W3C//DTD SVG 1.1//EN" "http://www.w3.org/Graphics/SVG/1.1/DTD/svg11.dtd" [
	<!ENTITY ns_flows "http://ns.adobe.com/Flows/1.0/">
]>
<svg version="1.1"
	 xmlns="http://www.w3.org/2000/svg" xmlns:xlink="http://www.w3.org/1999/xlink" xmlns:a="http://ns.adobe.com/AdobeSVGViewerExtensions/3.0/"
	 x="0px" y="0px" width="36px" height="36px" viewBox="0 -3 36 36" enable-background="new 0 -3 36 36" xml:space="preserve">
<defs>
</defs>
<path fill="#F45B69" d="M7.984,12.875v4.984c0,0.828-0.672,1.5-1.5,1.5H1.5c-0.828,0-1.5-0.672-1.5-1.5v-4.984
	c0-0.829,0.672-1.5,1.5-1.5h4.984C7.312,11.375,7.984,12.048,7.984,12.875z M34.792,11.375H13.289h-0.781
	c-0.827,0-1.5,0.671-1.5,1.5v4.984c0,0.828,0.673,1.5,1.5,1.5h0.781h21.504c0.828,0,1.5-0.672,1.5-1.5v-4.984
	C36.292,12.048,35.621,11.375,34.792,11.375z M6.484,0H1.5C0.672,0,0,0.671,0,1.5v4.985c0,0.829,0.672,1.5,1.5,1.5h4.984
	c0.828,0,1.5-0.671,1.5-1.5V1.5C7.984,0.673,7.312,0,6.484,0z M34.792,0H13.289h-0.781c-0.827,0-1.5,0.671-1.5,1.5v4.985
	c0,0.829,0.673,1.5,1.5,1.5h0.781h21.504c0.828,0,1.5-0.671,1.5-1.5V1.5C36.292,0.673,35.621,0,34.792,0z M6.484,22.752H1.5
	c-0.828,0-1.5,0.67-1.5,1.5v4.982c0,0.83,0.672,1.5,1.5,1.5h4.984c0.828,0,1.5-0.67,1.5-1.5v-4.982
	C7.984,23.422,7.312,22.752,6.484,22.752z M34.792,22.752H13.289h-0.781c-0.827,0-1.5,0.67-1.5,1.5v4.982c0,0.83,0.673,1.5,1.5,1.5
	h0.781h21.504c0.828,0,1.5-0.67,1.5-1.5v-4.982C36.292,23.422,35.621,22.752,34.792,22.752z"/>
</svg>
