<?xml version="1.0" encoding="utf-8"?>
<!-- Generator: Adobe Illustrator 15.1.0, SVG Export Plug-In  -->
<!DOCTYPE svg PUBLIC "-//W3C//DTD SVG 1.1//EN" "http://www.w3.org/Graphics/SVG/1.1/DTD/svg11.dtd" [
	<!ENTITY ns_flows "http://ns.adobe.com/Flows/1.0/">
]>
<svg version="1.1"
	 xmlns="http://www.w3.org/2000/svg" xmlns:xlink="http://www.w3.org/1999/xlink" xmlns:a="http://ns.adobe.com/AdobeSVGViewerExtensions/3.0/"
	 x="0px" y="0px" width="100px" height="100px" viewBox="0 -4.264 100 100" enable-background="new 0 -4.264 100 100"
	 xml:space="preserve">
<defs>
</defs>
<path fill="#F15C6A" d="M50.002,12.678c-15.267,0-27.697,14.215-27.697,31.699v15.397c0,17.47,12.43,31.698,27.697,31.698
	c10.599,0,19.811-6.837,24.479-16.854c-3.431,1.526-7.123,2.352-10.895,2.352h-8.056c-2.293,0-4.146-2.126-4.146-4.755
	c0-2.621,1.854-4.755,4.146-4.755h8.056c5.209,0,10.19-2.155,14.065-5.957c0.035-0.568,0.05-1.15,0.05-1.727v-15.4
	C77.706,26.893,65.284,12.678,50.002,12.678z"/>
<path fill="#F15C6A" d="M89.021,39.374h-0.494C86.356,17.251,69.906,0,49.998,0C30.1,0,13.65,17.248,11.473,39.374h-0.484
	C4.93,39.374,0,45.014,0,51.95c0,6.929,4.93,12.576,10.988,12.576h4.395c2.294,0,4.154-2.126,4.154-4.749V44.384
	c0-19.224,13.668-34.873,30.468-34.873c16.807,0,30.467,15.642,30.467,34.873v13.808c-0.857,1.209-1.79,2.322-2.803,3.323
	c-0.232,4.73-1.354,9.161-3.188,13.126c4.696-2.104,8.923-5.563,12.196-10.093h2.344c6.06,0,10.989-5.646,10.989-12.576
	C100.011,45.014,95.081,39.374,89.021,39.374z"/>
</svg>
