<?xml version="1.0" encoding="utf-8"?>
<!-- Generator: Adobe Illustrator 15.1.0, SVG Export Plug-In  -->
<!DOCTYPE svg PUBLIC "-//W3C//DTD SVG 1.1//EN" "http://www.w3.org/Graphics/SVG/1.1/DTD/svg11.dtd" [
	<!ENTITY ns_flows "http://ns.adobe.com/Flows/1.0/">
]>
<svg version="1.1"
	 xmlns="http://www.w3.org/2000/svg" xmlns:xlink="http://www.w3.org/1999/xlink" xmlns:a="http://ns.adobe.com/AdobeSVGViewerExtensions/3.0/"
	 x="0px" y="0px" width="200px" height="200px" viewBox="-39.354 -1.2 200 200" enable-background="new -39.354 -1.2 200 200"
	 xml:space="preserve">
<defs>
</defs>
<path fill="#FFFFFF" d="M0,100.074c7.41-12.2,14.811-24.405,22.226-36.713C34.545,42.878,46.956,22.394,59.269,1.911
	c0.33-0.651,0.654-1.192,0.976-1.843c0.324-0.119,0.659-0.119,0.763,0.322c0.443,2.284,0.443,4.571,0.443,6.863
	c0,20.372,0,40.747,0,61.121c0,1.306,0.105,2.725-0.222,4.03c-0.325,1.09-1.306,1.521-2.182,1.96
	C40.525,82.856,22,91.14,3.479,99.637c-0.976,0.432-1.951,1.199-3.041,0.432l-0.119,0.113L0,100.074z"/>
<path fill="#FFFFFF" d="M60.466,73.058c0-17.539,0-35.086,0.108-52.735c0-5.774,0-11.656,0-17.431c0-0.868-0.324-1.741,0.335-2.503
	c16.776,27.784,33.439,55.563,50.227,83.233c3.26,5.449,6.531,10.895,9.802,16.452c-0.976,0.66-1.852,0.113-2.616-0.33
	c-10.895-5.012-21.681-9.915-32.574-14.812c-7.84-3.592-15.579-7.085-23.418-10.678c-0.547-0.211-1.203-0.432-1.636-0.87
	C60.569,73.279,60.569,73.166,60.466,73.058z"/>
<path fill="#FFFFFF" d="M0.222,100.074c5.012-1.744,9.583-4.14,14.387-6.312c15.141-6.762,30.168-13.625,45.212-20.483
	c0.21-0.113,0.43-0.113,0.651-0.222l0.107,0.108c0.763,0.878,0.763,1.854,0.763,2.946c0,19.172,0,38.46,0,57.63
	c0,0.766-0.222,1.525-0.324,2.285c-0.648,0.766-1.192,0-1.636-0.217c-19.393-11.438-38.786-22.869-58.179-34.426
	C0.765,101.061,0,100.955,0.222,100.074z"/>
<path fill="#FFFFFF" d="M61.115,136.027c-0.756-0.543-0.546-1.414-0.546-2.18c0-20.264,0-40.421,0-60.682
	c5.126,1.632,9.811,4.258,14.604,6.437c15.027,6.75,30.065,13.613,44.995,20.368c0.222,0.109,0.438,0.109,0.66,0.217
	c0.21,0.873-0.66,0.98-1.093,1.311c-19.393,11.443-38.786,22.875-58.179,34.313C61.556,135.916,61.337,135.916,61.115,136.027z"/>
<path fill="#FFFFFF" d="M60.142,197.262c-4.79-6.869-9.594-13.738-14.486-20.592c-15.146-21.467-30.396-42.822-45.547-64.283
	c4.682,1.963,8.721,4.906,13.073,7.418c15.041,8.816,29.971,17.752,45.004,26.578c0.867,0.543,1.744,1.197,2.833,1.088
	c0.324,0.764,0.324,1.529,0.324,2.289c0,14.055,0,28.107,0,42.268c0,1.637,0,3.266-0.324,4.906
	C60.904,197.367,60.569,197.367,60.142,197.262z"/>
<path fill="#FFFFFF" d="M61.013,196.934c-0.649-0.66-0.438-1.535-0.438-2.184c0-14.93,0-29.855,0-44.785
	c0-0.865-0.108-1.74,0.438-2.506c19.717-11.654,39.438-23.307,59.154-34.973c0.438,0.555,0.116,0.871-0.105,1.197
	C100.445,141.361,80.73,169.152,61.013,196.934z"/>
</svg>
