<?xml version="1.0" encoding="utf-8"?>
<!-- Generator: Adobe Illustrator 15.1.0, SVG Export Plug-In  -->
<!DOCTYPE svg PUBLIC "-//W3C//DTD SVG 1.1//EN" "http://www.w3.org/Graphics/SVG/1.1/DTD/svg11.dtd" [
	<!ENTITY ns_flows "http://ns.adobe.com/Flows/1.0/">
]>
<svg version="1.1"
	 xmlns="http://www.w3.org/2000/svg" xmlns:xlink="http://www.w3.org/1999/xlink" xmlns:a="http://ns.adobe.com/AdobeSVGViewerExtensions/3.0/"
	 x="0px" y="0px" width="512px" height="512px" viewBox="0 -59.882 512 512" enable-background="new 0 -59.882 512 512"
	 xml:space="preserve">
<defs>
</defs>
<path fill="#00AFEB" d="M258.911,142.137c8.45,0,16.505,1.767,23.826,4.944c0.549-11.947,4.667-22.995,11.272-32.141
	c-4.65-0.972-9.449-1.489-14.361-1.489h-46.544c-4.902,0-9.7,0.512-14.314,1.474c7.04,9.768,11.247,21.689,11.314,34.598
	C238.66,144.818,248.474,142.137,258.911,142.137z"/>
<circle fill="#00AFEB" cx="256.366" cy="54.854" r="54.854"/>
<path fill="#00AFEB" d="M342.52,203.31c27.918,0,50.537-22.629,50.537-50.538c0-27.918-22.619-50.537-50.537-50.537
	c-27.656,0-50.082,22.216-50.5,49.774c15.934,9.992,27.107,26.894,29.146,46.513C327.656,201.563,334.873,203.31,342.52,203.31z"/>
<path fill="#00AFEB" d="M170.223,102.229c-27.924,0-50.543,22.624-50.543,50.537c0,27.914,22.619,50.532,50.543,50.532
	c9.888,0,19.081-2.89,26.878-7.797c2.482-16.154,11.143-30.281,23.513-39.897c0.052-0.946,0.141-1.881,0.141-2.838
	C220.754,124.854,198.125,102.229,170.223,102.229z"/>
<path fill="#00AFEB" d="M375.346,101.153c15.935,9.993,27.108,26.894,29.141,46.519c6.486,3.037,13.709,4.787,21.354,4.787
	c27.918,0,50.537-22.624,50.537-50.537s-22.619-50.538-50.537-50.538C398.189,51.379,375.764,73.601,375.346,101.153z"/>
<circle fill="#00AFEB" cx="258.911" cy="204.945" r="50.542"/>
<path fill="#00AFEB" d="M363.968,206.753h-42.562c-0.465,17.027-7.73,32.361-19.228,43.383
	c31.712,9.438,54.922,38.852,54.922,73.596v16.159c42.019-1.552,66.237-13.446,67.831-14.262l3.376-1.715h0.351v-52.45
	C428.668,235.78,399.642,206.753,363.968,206.753z"/>
<path fill="#00AFEB" d="M447.284,155.902h-42.552c-0.46,17.027-7.729,32.361-19.223,43.383c31.713,9.438,54.918,38.847,54.918,73.59
	v16.16c42.013-1.548,66.236-13.442,67.83-14.263l3.376-1.709h0.361v-52.45C511.995,184.934,482.969,155.902,447.284,155.902z"/>
<path fill="#00AFEB" d="M215.612,250.131c-11.44-10.97-18.684-26.22-19.217-43.137c-1.573-0.115-3.135-0.246-4.745-0.246h-42.871
	c-35.685,0-64.716,29.032-64.716,64.716v52.456l0.13,0.81l3.611,1.14c27.317,8.534,51.703,12.454,72.874,13.697v-15.84
	C160.69,288.987,183.889,259.574,215.612,250.131z"/>
<path fill="#00AFEB" d="M280.349,258.932h-42.886c-35.685,0-64.716,29.042-64.716,64.711v52.455l0.136,0.82l3.606,1.129
	c34.054,10.636,63.639,14.189,87.983,14.189c47.563,0,75.126-13.562,76.83-14.424l3.376-1.715h0.355v-52.455
	C345.049,287.963,316.023,258.932,280.349,258.932z"/>
<path fill="#00AFEB" d="M86.159,154.068c7.646,0,14.863-1.751,21.354-4.788c2.039-19.624,13.207-36.531,29.142-46.523
	c-0.418-27.547-22.844-49.769-50.496-49.769c-27.924,0-50.542,22.624-50.542,50.542C35.617,131.444,58.235,154.068,86.159,154.068z"
	/>
<path fill="#00AFEB" d="M126.484,200.899c-11.487-11.021-18.757-26.36-19.217-43.393H64.711C29.026,157.512,0,186.544,0,222.224
	v52.455h0.361l3.376,1.709c1.599,0.805,25.812,12.715,67.831,14.257v-16.159C71.567,239.747,94.767,210.333,126.484,200.899z"/>
<path fill="#00AFEB" d="M145.268,97.233c6.062-2.457,15.313-5.472,24.145-5.472c10.28,0,20.335,2.644,29.303,7.677
	c1.996-1.96,3.825-4.092,5.487-6.376c-8.519-11.189-13.17-24.903-13.17-39.008c0-9.501,2.122-18.93,6.167-27.495
	c-9.208-8.32-20.957-12.862-33.442-12.862c-22.724,0-42.505,15.381-48.295,37.043C132.437,60.619,143.496,77.886,145.268,97.233z"/>
<path fill="#00AFEB" d="M308.957,90.204c1.756,2.791,3.811,5.419,6.141,7.865c8.299-4.139,17.424-6.313,26.611-6.313
	c9.037,0,17.697,2.31,23.372,4.244c1.776-20.973,14.461-39.484,33.448-48.865c-6.962-19.885-25.808-33.458-47.146-33.458
	c-13.797,0-26.862,5.666-36.295,15.637c3.313,7.902,4.99,16.207,4.99,24.72C320.073,67.073,316.237,79.501,308.957,90.204z"/>
</svg>
