<?xml version="1.0" encoding="utf-8"?>
<!-- Generator: Adobe Illustrator 15.1.0, SVG Export Plug-In  -->
<!DOCTYPE svg PUBLIC "-//W3C//DTD SVG 1.1//EN" "http://www.w3.org/Graphics/SVG/1.1/DTD/svg11.dtd" [
	<!ENTITY ns_flows "http://ns.adobe.com/Flows/1.0/">
]>
<svg version="1.1"
	 xmlns="http://www.w3.org/2000/svg" xmlns:xlink="http://www.w3.org/1999/xlink" xmlns:a="http://ns.adobe.com/AdobeSVGViewerExtensions/3.0/"
	 x="0px" y="0px" width="512px" height="512px" viewBox="0 -98.715 512 512" enable-background="new 0 -98.715 512 512"
	 xml:space="preserve">
<defs>
</defs>
<path fill="#00AFEB" d="M151.674,224.435c-24.906,0-45.105,20.199-45.105,45.031c0,24.905,20.2,45.104,45.105,45.104
	c24.833,0,45.032-20.2,45.032-45.104C196.706,244.634,176.507,224.435,151.674,224.435z M151.674,292.054
	c-12.453,0-22.588-10.135-22.588-22.588c0-12.38,10.135-22.517,22.588-22.517c12.379,0,22.515,10.136,22.515,22.517
	C174.189,281.919,164.054,292.054,151.674,292.054z M112.848,224.453H11.903c-3.998,0-7.239,3.241-7.239,7.239v21.966
	c0,3.998,3.241,7.239,7.239,7.239h80.911C94.927,246.403,102.243,233.599,112.848,224.453z M387.33,224.435
	c-24.833,0-45.031,20.199-45.031,45.031c0,24.905,20.199,45.104,45.031,45.104c24.905,0,45.031-20.2,45.031-45.104
	C432.362,244.634,412.235,224.435,387.33,224.435z M387.33,292.054c-12.452,0-22.516-10.135-22.516-22.588
	c0-12.38,10.063-22.517,22.516-22.517s22.516,10.136,22.516,22.517C409.847,281.919,399.782,292.054,387.33,292.054z
	 M504.761,224.435h-17.593v-98.39c0-11.511-3.476-22.805-9.919-32.362l-44.09-65.303C422.443,12.452,404.417,2.896,385.16,2.896
	h-68.344c-7.965,0-14.48,6.443-14.48,14.48v207.059H190.48c10.57,9.193,17.882,21.937,19.982,36.488h118.081
	c4.127-28.742,28.887-50.969,58.789-50.969c29.898,0,54.659,22.227,58.858,50.969h58.57c4.055,0,7.239-3.259,7.239-7.24v-22.009
	C512,227.691,508.814,224.435,504.761,224.435z M432.65,106.714h-90.207c-3.982,0-7.24-3.186-7.24-7.24V49.448
	c0-3.982,3.26-7.24,7.24-7.24h54.95c2.389,0,4.635,1.158,5.938,3.041l35.259,50.099C441.99,100.126,438.516,106.714,432.65,106.714z
	 M267.873,209.954H14.479C6.483,209.954,0,203.473,0,195.475v-65.158c0-7.997,6.483-14.48,14.479-14.48h253.394
	c7.997,0,14.48,6.483,14.48,14.48v65.158C282.354,203.473,275.87,209.954,267.873,209.954z M115.837,94.118H14.479
	C6.483,94.118,0,87.634,0,79.638V14.48C0,6.483,6.483,0,14.479,0h101.357c7.997,0,14.48,6.483,14.48,14.48v65.158
	C130.317,87.634,123.834,94.118,115.837,94.118z M267.873,94.118H166.516c-7.997,0-14.479-6.483-14.479-14.479V14.48
	c0-7.997,6.482-14.479,14.479-14.479h101.358c7.997,0,14.479,6.482,14.479,14.479v65.159
	C282.354,87.634,275.87,94.118,267.873,94.118z"/>
</svg>
