<?xml version="1.0" encoding="utf-8"?>
<!-- Generator: Adobe Illustrator 15.1.0, SVG Export Plug-In  -->
<!DOCTYPE svg PUBLIC "-//W3C//DTD SVG 1.1//EN" "http://www.w3.org/Graphics/SVG/1.1/DTD/svg11.dtd" [
	<!ENTITY ns_flows "http://ns.adobe.com/Flows/1.0/">
]>
<svg version="1.1"
	 xmlns="http://www.w3.org/2000/svg" xmlns:xlink="http://www.w3.org/1999/xlink" xmlns:a="http://ns.adobe.com/AdobeSVGViewerExtensions/3.0/"
	 x="0px" y="0px" width="512px" height="512px" viewBox="0 -32.482 512 512" enable-background="new 0 -32.482 512 512"
	 xml:space="preserve">
<defs>
</defs>
<path fill="#00AFEB" d="M383.055,124.946c-15.299-6.133-19.72-9.842-19.72-16.539c0-5.359,4.06-11.621,15.505-11.621
	c10.123,0,17.887,3.992,17.956,4.026c0.816,0.436,1.733,0.668,2.641,0.668c2.215,0,4.175-1.341,4.987-3.416l2.781-7.108
	c0.968-2.59-0.501-4.847-2.374-5.657c-6.232-2.713-18.414-4.813-18.538-4.834c-0.196-0.035-0.879-0.181-0.879-0.979l-0.039-10.312
	c0-3.106-2.593-5.634-5.776-5.634h-4.989c-3.18,0-5.771,2.527-5.771,5.635l0.013,10.842c0,0.831-0.9,1.192-1.229,1.269
	c-15.376,3.662-24.986,14.926-24.986,29.133c0,17.711,14.641,25.714,30.448,31.722c12.638,4.961,17.792,9.992,17.792,17.371
	c0,8.029-7.301,13.637-17.76,13.637c-8.932,0-21.02-5.662-21.139-5.719c-0.773-0.367-1.594-0.551-2.436-0.551
	c-2.301,0-4.304,1.391-5.104,3.546l-2.655,7.189c-0.943,2.684,0.51,4.863,2.369,5.833c7.424,3.866,21.788,6.132,22.428,6.231
	c0.172,0.024,1.046,0.332,1.046,1.131v10.794c0,3.105,2.593,5.634,5.778,5.634h5.154c3.187,0,5.779-2.527,5.779-5.634v-11.36
	c0-1.063,0.783-1.156,0.945-1.195c16.381-3.68,26.471-15.665,26.471-30.713C411.749,142.878,403.165,132.891,383.055,124.946z"/>
<path fill="#00AFEB" d="M376.615,0C301.84,0,241.228,60.617,241.228,135.387c0,74.772,60.613,135.39,135.387,135.39
	c74.771,0,135.386-60.618,135.386-135.39C512,60.617,451.386,0,376.615,0z M376.615,239.4c-57.446,0-104.012-46.57-104.012-104.012
	s46.565-104.01,104.012-104.01c57.443,0,104.008,46.568,104.008,104.01S434.058,239.4,376.615,239.4z"/>
<path fill="#00AFEB" d="M484.491,336.384c-28.789,15.89-68.386,30.582-107.875,36.775c-35.133,5.51-101.229-7.778-101.229-23.472
	c0-5.946,57.969,14.653,93.033,5.298c26.89-7.174,23.072-32.326,8.447-35.645c-14.541-3.3-99.729-34.508-136.116-35.585
	c-17.141-0.506-59.459,5.962-79.937,9.297c-7.015,1.142-11.414,1.016-11.852,7.729c-2.038,31.2-6.054,95.001-8.243,128.328
	c-0.046,0.704,0.932,10.174,8.747,3.51c8.553-7.294,20.549-15.378,31.646-12.861c17.408,3.95,168.01,31.54,188.783,26.712
	c29.717-6.908,113.841-56.763,129.971-72.258C524.866,350.188,505.431,324.826,484.491,336.384z"/>
<path fill="#00AFEB" d="M107.403,291.836l-78.896-3.888c-6.091-0.3-12.313,4.29-13.826,10.197L0.335,428.391
	c-1.513,5.908,2.237,10.936,8.331,11.171l87.437-0.009c6.096,0.235,11.461-4.547,11.929-10.628l9.602-125.488
	C118.098,297.357,113.495,292.136,107.403,291.836z M60.957,422.298c-12.048,0-21.814-9.767-21.814-21.813
	c0-12.049,9.767-21.813,21.814-21.813c12.046,0,21.813,9.767,21.813,21.813C82.77,412.532,73.004,422.298,60.957,422.298z"/>
</svg>
