<?xml version="1.0" encoding="utf-8"?>
<!-- Generator: Adobe Illustrator 15.1.0, SVG Export Plug-In  -->
<!DOCTYPE svg PUBLIC "-//W3C//DTD SVG 1.1//EN" "http://www.w3.org/Graphics/SVG/1.1/DTD/svg11.dtd" [
	<!ENTITY ns_flows "http://ns.adobe.com/Flows/1.0/">
]>
<svg version="1.1"
	 xmlns="http://www.w3.org/2000/svg" xmlns:xlink="http://www.w3.org/1999/xlink" xmlns:a="http://ns.adobe.com/AdobeSVGViewerExtensions/3.0/"
	 x="0px" y="0px" width="512px" height="512px" viewBox="-36 0 512 512" enable-background="new -36 0 512 512"
	 xml:space="preserve">
<defs>
</defs>
<path fill="#0A8AE2" d="M411.988,139.696c-0.156-2.084-1.9-3.696-3.988-3.696h-72v-20c0-63.964-52.04-116-116-116
	S104,52.036,104,116v20H32c-2.088,0-3.832,1.612-3.988,3.696l-28,368c-0.084,1.104,0.296,2.204,1.056,3.02
	C1.822,511.536,2.888,512,4,512h432c1.112,0,2.176-0.464,2.932-1.28c0.759-0.813,1.144-1.912,1.06-3.02L411.988,139.696z M136,116
	c0-46.316,37.68-84,84-84c46.317,0,84,37.684,84,84v20H136V116z M120,248c-22.06,0-40-17.944-40-40c0-15.964,8-30.348,24-36.66V208
	c0,8.824,7.18,16,16,16s16-7.176,16-16v-36.636c16,6.312,24,20.804,24,36.636C160,230.056,142.06,248,120,248z M320,248
	c-22.062,0-40-17.944-40-40c0-15.964,8-30.348,24-36.66V208c0,8.824,7.183,16,16,16s16-7.176,16-16v-36.636
	c16,6.312,24,20.804,24,36.636C360,230.056,342.059,248,320,248z"/>
</svg>
