<?xml version="1.0" encoding="utf-8"?>
<!-- Generator: Adobe Illustrator 15.1.0, SVG Export Plug-In  -->
<!DOCTYPE svg PUBLIC "-//W3C//DTD SVG 1.1//EN" "http://www.w3.org/Graphics/SVG/1.1/DTD/svg11.dtd" [
	<!ENTITY ns_flows "http://ns.adobe.com/Flows/1.0/">
]>
<svg version="1.1"
	 xmlns="http://www.w3.org/2000/svg" xmlns:xlink="http://www.w3.org/1999/xlink" xmlns:a="http://ns.adobe.com/AdobeSVGViewerExtensions/3.0/"
	 x="0px" y="0px" width="512px" height="512px" viewBox="0 -0.125 512 512" enable-background="new 0 -0.125 512 512"
	 xml:space="preserve">
<defs>
</defs>
<path fill="#00AFEB" d="M488.514,465.219H23.269C10.415,465.219,0,475.633,0,488.498c0,12.843,10.414,23.257,23.268,23.257h465.235
	c12.854,0,23.269-10.414,23.269-23.257C511.761,475.633,501.347,465.219,488.514,465.219z"/>
<path fill="#00AFEB" d="M52.343,404.728c-12.854,0-23.269,10.414-23.269,23.269s10.415,23.279,23.269,23.279h407.086
	c12.854,0,23.269-10.425,23.269-23.279s-10.414-23.269-23.269-23.269h-5.807V195.357h5.807c6.438,0,11.623-5.207,11.623-11.624
	c0-6.416-5.207-11.623-11.623-11.623H52.343c-6.427,0-11.623,5.207-11.623,11.623c0,6.417,5.207,11.624,11.623,11.624h5.817v209.36
	h-5.817V404.728z M407.086,195.357v209.36h-69.783v-209.36H407.086z M290.766,195.357v209.36h-69.782v-209.36H290.766z
	 M104.675,195.357h69.783v209.36h-69.783V195.357z"/>
<path fill="#00AFEB" d="M23.269,151.195h465.235c0.076,0,0.163,0,0.229,0c12.865,0,23.269-10.414,23.269-23.268
	c0-10.218-6.579-18.878-15.719-22.016L265.451,2.043c-6.067-2.724-13.007-2.724-19.085,0L13.726,106.717
	c-10.011,4.51-15.512,15.381-13.203,26.101C2.822,143.537,12.299,151.195,23.269,151.195z"/>
</svg>
