<?xml version="1.0" encoding="utf-8"?>
<!-- Generator: Adobe Illustrator 15.1.0, SVG Export Plug-In  -->
<!DOCTYPE svg PUBLIC "-//W3C//DTD SVG 1.1//EN" "http://www.w3.org/Graphics/SVG/1.1/DTD/svg11.dtd" [
	<!ENTITY ns_flows "http://ns.adobe.com/Flows/1.0/">
]>
<svg version="1.1"
	 xmlns="http://www.w3.org/2000/svg" xmlns:xlink="http://www.w3.org/1999/xlink" xmlns:a="http://ns.adobe.com/AdobeSVGViewerExtensions/3.0/"
	 x="0px" y="0px" width="512px" height="512px" viewBox="-0.001 0 512 512" enable-background="new -0.001 0 512 512"
	 xml:space="preserve">
<defs>
</defs>
<polygon fill="#00AFEB" points="448,383.997 181.533,383.997 69.53,128.001 0,128.001 0,96 90.469,96 202.468,352 448,352 "/>
<path fill="#00AFEB" d="M288.001,464.002c0,26.496-21.506,47.996-48.001,47.996c-26.53,0-48-21.5-48-47.996
	c0-26.504,21.469-48.001,48-48.001C266.495,416.001,288.001,437.499,288.001,464.002z"/>
<path fill="#00AFEB" d="M448,464.002c0,26.496-21.501,47.996-47.996,47.996c-26.505,0-48.001-21.5-48.001-47.996
	c0-26.504,21.496-48.001,48.001-48.001C426.5,416.001,448,437.499,448,464.002z"/>
<path fill="#00AFEB" d="M400.004,0c-61.845,0-112.005,50.156-112.005,112.001c0,61.841,50.158,112,112.005,112
	c61.839,0,111.994-50.158,111.994-112C511.998,50.156,461.844,0,400.004,0z M463.997,128.001h-47.996v48.001h-32.002v-48.001
	h-47.996V96h47.996V48.001h32.002V96h47.996V128.001z"/>
<path fill="#00AFEB" d="M400.004,256c-62.505,0-115.288-40.25-135.159-96H159.999l64.002,160H448l36.94-92.311
	C461.065,245.251,431.848,256,400.004,256z"/>
</svg>
