<?xml version="1.0" encoding="utf-8"?>
<!-- Generator: Adobe Illustrator 15.1.0, SVG Export Plug-In  -->
<!DOCTYPE svg PUBLIC "-//W3C//DTD SVG 1.1//EN" "http://www.w3.org/Graphics/SVG/1.1/DTD/svg11.dtd" [
	<!ENTITY ns_flows "http://ns.adobe.com/Flows/1.0/">
]>
<svg version="1.1"
	 xmlns="http://www.w3.org/2000/svg" xmlns:xlink="http://www.w3.org/1999/xlink" xmlns:a="http://ns.adobe.com/AdobeSVGViewerExtensions/3.0/"
	 x="0px" y="0px" width="512px" height="512px" viewBox="-36.001 0 512 512" enable-background="new -36.001 0 512 512"
	 xml:space="preserve">
<defs>
</defs>
<path fill="#00AFEB" d="M411.987,139.696c-0.156-2.084-1.9-3.696-3.988-3.696h-72v-20c0-63.964-52.04-116-116-116
	s-116,52.036-116,116v20h-72c-2.088,0-3.832,1.612-3.988,3.696l-28,368c-0.084,1.107,0.296,2.204,1.056,3.02
	c0.756,0.82,1.82,1.284,2.932,1.284h432c1.112,0,2.176-0.464,2.932-1.28c0.757-0.815,1.141-1.912,1.057-3.02L411.987,139.696z
	 M135.999,116c0-46.316,37.68-84,84-84c46.32,0,84,37.684,84,84v20h-168V116z M119.999,248c-22.06,0-40-17.944-40-40
	c0-15.964,8-30.348,24-36.66V208c0,8.824,7.18,16,16,16s16-7.176,16-16v-36.636c16,6.312,24,20.804,24,36.636
	C159.999,230.056,142.059,248,119.999,248z M319.999,248c-22.061,0-40-17.944-40-40c0-15.964,8-30.348,24-36.66V208
	c0,8.824,7.18,16,16,16s16-7.176,16-16v-36.636c16,6.312,24,20.804,24,36.636C359.999,230.056,342.06,248,319.999,248z"/>
</svg>
