<?xml version="1.0" encoding="utf-8"?>
<!-- Generator: Adobe Illustrator 15.1.0, SVG Export Plug-In  -->
<!DOCTYPE svg PUBLIC "-//W3C//DTD SVG 1.1//EN" "http://www.w3.org/Graphics/SVG/1.1/DTD/svg11.dtd" [
	<!ENTITY ns_flows "http://ns.adobe.com/Flows/1.0/">
]>
<svg version="1.1"
	 xmlns="http://www.w3.org/2000/svg" xmlns:xlink="http://www.w3.org/1999/xlink" xmlns:a="http://ns.adobe.com/AdobeSVGViewerExtensions/3.0/"
	 x="0px" y="0px" width="35px" height="35px" viewBox="-5 0 35 35" enable-background="new -5 0 35 35" xml:space="preserve">
<defs>
</defs>
<path fill="#FFFFFF" d="M24.28,18.351c-0.813-1.051-2.039-1.772-3.68-2.165c2.089-1.065,3.006-2.873,2.755-5.424
	c-0.085-0.925-0.341-1.727-0.769-2.406c-0.428-0.68-1.005-1.226-1.734-1.639c-0.728-0.414-1.521-0.729-2.375-0.946
	c-0.855-0.218-1.837-0.375-2.942-0.473V0h-3.238v5.15c-0.56,0-1.416,0.015-2.564,0.042V0H6.496v5.297
	c-0.462,0.014-1.142,0.021-2.04,0.021L0,5.297v3.447h2.333c1.065,0,1.688,0.477,1.871,1.429v6.034c0.14,0,0.252,0.007,0.336,0.021
	H4.204v8.45c-0.112,0.715-0.519,1.072-1.219,1.072H0.652L0,29.599h4.205c0.267,0,0.651,0.003,1.156,0.009
	c0.504,0.008,0.882,0.011,1.135,0.011v5.36h3.238v-5.298c0.588,0.015,1.443,0.022,2.565,0.022v5.275h3.236v-5.36
	c1.148-0.056,2.168-0.16,3.058-0.315c0.891-0.154,1.742-0.396,2.555-0.725c0.813-0.33,1.492-0.739,2.039-1.23
	c0.546-0.489,0.998-1.113,1.355-1.87c0.356-0.758,0.585-1.633,0.684-2.629C25.408,20.901,25.093,19.402,24.28,18.351z M9.796,8.975
	c0.098,0,0.375-0.003,0.831-0.01c0.455-0.007,0.833-0.014,1.135-0.021s0.708,0.01,1.219,0.053c0.512,0.042,0.943,0.098,1.293,0.168
	c0.35,0.069,0.736,0.185,1.156,0.346c0.421,0.161,0.757,0.357,1.009,0.588c0.253,0.231,0.466,0.526,0.642,0.883
	c0.174,0.357,0.262,0.768,0.262,1.229c0,0.393-0.063,0.75-0.188,1.073c-0.126,0.322-0.315,0.592-0.567,0.809
	c-0.252,0.218-0.512,0.407-0.777,0.568c-0.267,0.161-0.606,0.29-1.02,0.388c-0.414,0.098-0.775,0.176-1.083,0.231
	c-0.309,0.056-0.692,0.095-1.155,0.116c-0.463,0.021-0.814,0.035-1.052,0.042c-0.239,0.006-0.564,0.006-0.978,0
	c-0.413-0.007-0.655-0.011-0.725-0.011V8.975L9.796,8.975L9.796,8.975z M18.636,23.291c-0.134,0.322-0.306,0.603-0.515,0.841
	c-0.211,0.238-0.488,0.449-0.83,0.631c-0.344,0.182-0.678,0.329-1,0.44c-0.322,0.113-0.711,0.211-1.166,0.295
	c-0.456,0.084-0.855,0.144-1.199,0.179c-0.342,0.035-0.752,0.063-1.229,0.084s-0.848,0.031-1.115,0.031
	c-0.266,0-0.603-0.004-1.009-0.01c-0.407-0.008-0.666-0.011-0.778-0.011v-7.105c0.112,0,0.444-0.007,0.999-0.021
	c0.554-0.014,1.005-0.021,1.356-0.021c0.35,0,0.834,0.021,1.451,0.063c0.616,0.042,1.135,0.104,1.555,0.188s0.879,0.214,1.377,0.389
	c0.498,0.176,0.9,0.39,1.209,0.642c0.309,0.253,0.567,0.574,0.777,0.967c0.211,0.393,0.316,0.841,0.316,1.346
	C18.836,22.611,18.769,22.969,18.636,23.291z"/>
</svg>
