<?xml version="1.0" encoding="iso-8859-1"?>
<!-- Generator: Adobe Illustrator 19.1.0, SVG Export Plug-In . SVG Version: 6.00 Build 0)  -->
<svg version="1.1" id="Capa_1" xmlns="http://www.w3.org/2000/svg" xmlns:xlink="http://www.w3.org/1999/xlink" x="0px" y="0px"
	 viewBox="0 0 64 64" style="enable-background:new 0 0 64 64;" xml:space="preserve">
<g>
	<g>
		<path d="M32,13.851c-2.361-5.783-8.643-9.929-16-9.929c-10.016,0-16,8.644-16,17c0,8.589,5.326,17.755,15.83,27.242
			c7.737,6.989,15.59,11.577,15.668,11.623L32,60.078l0.502-0.291c0.078-0.046,7.931-4.634,15.668-11.623
			C58.674,38.677,64,29.511,64,20.922c0-8.356-5.984-17-16-17C40.643,3.922,34.361,8.068,32,13.851z M2,20.922
			c0-7.373,5.236-15,14-15c7.214,0,15,4.971,15,13v0.469l5.519,4.599l-7.933,7.932l6,6l-6,6l6,6l-5.777,5.777
			C20.689,50.239,2,36.029,2,20.922z M62,20.922c0,17.818-26.032,34.409-30,36.833c-0.34-0.208-0.852-0.526-1.485-0.934l6.899-6.899
			l-6-6l6-6l-6-6l8.067-8.067l-6.454-5.379C33.314,10.714,40.923,5.922,48,5.922C56.764,5.922,62,13.549,62,20.922z"/>
	</g>
</g>
<g>
</g>
<g>
</g>
<g>
</g>
<g>
</g>
<g>
</g>
<g>
</g>
<g>
</g>
<g>
</g>
<g>
</g>
<g>
</g>
<g>
</g>
<g>
</g>
<g>
</g>
<g>
</g>
<g>
</g>
</svg>
