<?xml version="1.0" encoding="utf-8"?>
<!-- Generator: Adobe Illustrator 15.1.0, SVG Export Plug-In  -->
<!DOCTYPE svg PUBLIC "-//W3C//DTD SVG 1.1//EN" "http://www.w3.org/Graphics/SVG/1.1/DTD/svg11.dtd" [
	<!ENTITY ns_flows "http://ns.adobe.com/Flows/1.0/">
]>
<svg version="1.1"
	 xmlns="http://www.w3.org/2000/svg" xmlns:xlink="http://www.w3.org/1999/xlink" xmlns:a="http://ns.adobe.com/AdobeSVGViewerExtensions/3.0/"
	 x="0px" y="0px" width="30px" height="30px" viewBox="-0.316 -3.463 30 30" enable-background="new -0.316 -3.463 30 30"
	 xml:space="preserve">
<defs>
</defs>
<path fill="#F15C6A" d="M28.205,8.98c-0.775-1.813-1.82-3.376-3.131-4.687c-1.311-1.312-2.873-2.354-4.688-3.131
	C18.574,0.387,16.673,0,14.685,0c-1.989,0-3.891,0.387-5.703,1.163C7.168,1.939,5.604,2.982,4.293,4.294
	C2.982,5.604,1.939,7.167,1.163,8.98C0.388,10.794,0,12.695,0,14.684c0,2.861,0.771,5.502,2.311,7.916
	c0.208,0.316,0.503,0.475,0.885,0.475h22.977c0.383,0,0.678-0.158,0.885-0.475c1.541-2.426,2.311-5.064,2.311-7.916
	C29.367,12.695,28.98,10.794,28.205,8.98z M13.201,2.712c0.409-0.41,0.904-0.615,1.483-0.615s1.072,0.205,1.482,0.615
	s0.615,0.904,0.615,1.482c0,0.579-0.205,1.074-0.615,1.483c-0.41,0.41-0.903,0.614-1.482,0.614s-1.074-0.204-1.483-0.614
	c-0.409-0.409-0.614-0.904-0.614-1.483C12.587,3.616,12.791,3.122,13.201,2.712z M5.679,16.166c-0.41,0.41-0.904,0.616-1.483,0.616
	s-1.073-0.206-1.483-0.616c-0.409-0.409-0.614-0.903-0.614-1.482S2.303,13.61,2.712,13.2c0.41-0.409,0.904-0.614,1.483-0.614
	s1.073,0.205,1.483,0.614c0.409,0.41,0.614,0.904,0.614,1.483S6.088,15.757,5.679,16.166z M8.825,8.825
	c-0.41,0.409-0.904,0.614-1.482,0.614c-0.579,0-1.074-0.205-1.484-0.614c-0.409-0.41-0.613-0.904-0.613-1.483
	s0.204-1.073,0.613-1.483c0.41-0.409,0.905-0.614,1.484-0.614c0.578,0,1.072,0.205,1.482,0.614c0.41,0.41,0.615,0.904,0.615,1.483
	S9.235,8.415,8.825,8.825z M18.109,8.965l-1.655,6.26c0.547,0.37,0.939,0.868,1.181,1.491c0.239,0.622,0.272,1.262,0.098,1.917
	c-0.218,0.842-0.704,1.48-1.458,1.917c-0.755,0.438-1.551,0.547-2.394,0.329c-0.842-0.219-1.48-0.705-1.917-1.459
	s-0.546-1.552-0.328-2.394c0.175-0.654,0.52-1.192,1.032-1.613c0.514-0.422,1.099-0.658,1.754-0.714l1.655-6.26
	c0.076-0.284,0.24-0.5,0.492-0.646c0.25-0.147,0.514-0.184,0.786-0.107c0.273,0.077,0.483,0.237,0.631,0.483
	S18.176,8.681,18.109,8.965z M20.543,8.825c-0.41-0.41-0.615-0.904-0.615-1.483s0.205-1.073,0.615-1.483
	c0.41-0.409,0.904-0.614,1.482-0.614c0.58,0,1.074,0.205,1.484,0.614c0.408,0.41,0.613,0.904,0.613,1.483s-0.205,1.073-0.613,1.483
	c-0.41,0.409-0.904,0.614-1.484,0.614C21.447,9.439,20.953,9.234,20.543,8.825z M26.654,16.166c-0.408,0.41-0.902,0.616-1.482,0.616
	c-0.578,0-1.072-0.206-1.482-0.616c-0.41-0.409-0.615-0.903-0.615-1.482s0.205-1.073,0.615-1.483
	c0.41-0.409,0.904-0.614,1.482-0.614c0.58,0,1.074,0.205,1.482,0.614c0.412,0.41,0.615,0.904,0.615,1.483
	S27.066,15.757,26.654,16.166z"/>
</svg>
