<?xml version="1.0" encoding="utf-8"?>
<!-- Generator: Adobe Illustrator 15.1.0, SVG Export Plug-In  -->
<!DOCTYPE svg PUBLIC "-//W3C//DTD SVG 1.1//EN" "http://www.w3.org/Graphics/SVG/1.1/DTD/svg11.dtd" [
	<!ENTITY ns_flows "http://ns.adobe.com/Flows/1.0/">
]>
<svg version="1.1"
	 xmlns="http://www.w3.org/2000/svg" xmlns:xlink="http://www.w3.org/1999/xlink" xmlns:a="http://ns.adobe.com/AdobeSVGViewerExtensions/3.0/"
	 x="0px" y="0px" width="512px" height="536px" viewBox="-66 -7 512 536" enable-background="new -66 -7 512 536"
	 xml:space="preserve">
<defs>
</defs>
<path fill="none" stroke="#00AFEB" stroke-width="10" stroke-miterlimit="10" d="M361.31,273.607
	c-11.896-15.38-29.846-25.945-53.849-31.688c30.565-15.591,43.999-42.054,40.312-79.392c-1.232-13.54-4.975-25.274-11.233-35.22
	c-6.265-9.949-14.717-17.946-25.392-23.997c-10.664-6.058-22.265-10.67-34.771-13.849c-12.511-3.179-26.873-5.488-43.079-6.922V5
	h-47.381v75.386c-8.205,0-20.717,0.205-37.536,0.616V5h-47.388v77.54c-6.771,0.206-16.719,0.311-29.847,0.311L5.917,82.54v50.464
	h34.152c15.591,0,24.719,6.976,27.385,20.923v88.311c2.054,0,3.693,0.105,4.925,0.311h-4.925v123.69
	c-1.639,10.459-7.587,15.692-17.845,15.692h-34.15l-9.54,56.312h61.541c3.898,0,9.536,0.052,16.924,0.145
	c7.383,0.104,12.919,0.155,16.613,0.155v78.461h47.396v-77.539c8.613,0.21,21.125,0.312,37.536,0.312v77.229h47.383v-78.461
	c16.822-0.819,31.746-2.35,44.766-4.614c13.025-2.265,25.492-5.797,37.387-10.621c11.895-4.816,21.842-10.82,29.84-18.001
	c8.004-7.173,14.613-16.306,19.854-27.386c5.223-11.078,8.561-23.897,9.992-38.467C377.825,310.947,373.207,288.996,361.31,273.607z
	 M149.303,136.379c1.437,0,5.488-0.052,12.155-0.155c6.67-0.106,12.206-0.207,16.616-0.311c4.411-0.101,10.36,0.155,17.85,0.771
	c7.488,0.616,13.795,1.438,18.922,2.461c5.127,1.024,10.772,2.717,16.922,5.076c6.158,2.357,11.078,5.23,14.767,8.614
	c3.696,3.384,6.823,7.694,9.383,12.925c2.567,5.23,3.851,11.23,3.851,17.998c0,5.744-0.922,10.977-2.767,15.697
	c-1.841,4.717-4.616,8.667-8.306,11.846c-3.688,3.181-7.49,5.952-11.389,8.31c-3.895,2.357-8.873,4.256-14.923,5.69
	c-6.048,1.437-11.329,2.565-15.841,3.384c-4.514,0.821-10.152,1.387-16.923,1.693c-6.771,0.306-11.901,0.515-15.387,0.617
	c-3.488,0.101-8.256,0.101-14.31,0c-6.055-0.101-9.588-0.155-10.617-0.155v-94.463h-0.003V136.379z M278.695,345.918
	c-1.954,4.721-4.463,8.826-7.538,12.315c-3.08,3.48-7.134,6.562-12.156,9.225c-5.022,2.671-9.899,4.82-14.612,6.462
	c-4.721,1.648-10.416,3.076-17.076,4.312c-6.676,1.231-12.518,2.099-17.549,2.614c-5.022,0.515-11.021,0.922-17.998,1.232
	c-6.972,0.302-12.411,0.458-16.307,0.458c-3.898,0-8.822-0.056-14.771-0.156c-5.952-0.096-9.744-0.146-11.386-0.146V278.227
	c1.639,0,6.511-0.101,14.616-0.31c8.106-0.207,14.718-0.304,19.847-0.304c5.127,0,12.208,0.304,21.236,0.924
	c9.021,0.611,16.61,1.529,22.771,2.761c6.151,1.233,12.865,3.128,20.152,5.694c7.28,2.563,13.182,5.691,17.695,9.383
	c4.514,3.699,8.306,8.41,11.382,14.155c3.083,5.741,4.621,12.308,4.621,19.693C281.62,335.975,280.646,341.197,278.695,345.918z"/>
</svg>
