<?xml version="1.0" encoding="utf-8"?>
<!-- Generator: Adobe Illustrator 15.1.0, SVG Export Plug-In  -->
<!DOCTYPE svg PUBLIC "-//W3C//DTD SVG 1.1//EN" "http://www.w3.org/Graphics/SVG/1.1/DTD/svg11.dtd" [
	<!ENTITY ns_flows "http://ns.adobe.com/Flows/1.0/">
]>
<svg version="1.1"
	 xmlns="http://www.w3.org/2000/svg" xmlns:xlink="http://www.w3.org/1999/xlink" xmlns:a="http://ns.adobe.com/AdobeSVGViewerExtensions/3.0/"
	 x="0px" y="0px" width="36px" height="37px" viewBox="0 0 36 37" enable-background="new 0 0 36 37" xml:space="preserve">
<defs>
</defs>
<path fill="none" stroke="#00AFEB" stroke-miterlimit="10" d="M27.11,23.718c-1.145-1.129-2.57-1.129-3.707,0
	c-0.867,0.859-1.733,1.72-2.586,2.593c-0.232,0.24-0.43,0.291-0.713,0.131c-0.563-0.306-1.158-0.553-1.699-0.889
	c-2.513-1.58-4.617-3.611-6.482-5.898c-0.925-1.136-1.748-2.353-2.323-3.721c-0.117-0.277-0.095-0.459,0.131-0.685
	c0.867-0.837,1.711-1.697,2.563-2.556c1.187-1.194,1.187-2.593-0.007-3.794c-0.677-0.685-1.354-1.355-2.032-2.04
	c-0.698-0.7-1.39-1.406-2.097-2.098C7.016,3.646,5.587,3.646,4.452,4.768c-0.874,0.86-1.711,1.741-2.6,2.586
	c-0.823,0.779-1.238,1.733-1.326,2.847c-0.139,1.813,0.306,3.525,0.932,5.193c1.282,3.453,3.234,6.519,5.601,9.33
	c3.197,3.803,7.014,6.812,11.479,8.98c2.01,0.977,4.094,1.727,6.357,1.85c1.56,0.088,2.914-0.306,3.998-1.521
	c0.744-0.831,1.582-1.589,2.367-2.384c1.165-1.18,1.174-2.606,0.016-3.771C29.891,26.485,28.5,25.102,27.11,23.718z"/>
<path fill="none" stroke="#00AFEB" stroke-miterlimit="10" d="M25.718,17.914l2.688-0.459c-0.424-2.469-1.588-4.705-3.357-6.482
	c-1.873-1.872-4.238-3.052-6.847-3.416l-0.379,2.702c2.018,0.284,3.853,1.194,5.302,2.644
	C24.495,14.271,25.391,16.005,25.718,17.914z"/>
<path fill="none" stroke="#00AFEB" stroke-miterlimit="10" d="M29.92,6.231c-3.104-3.103-7.027-5.062-11.361-5.667l-0.378,2.703
	c3.744,0.524,7.138,2.221,9.818,4.894c2.541,2.542,4.209,5.754,4.814,9.286l2.688-0.459C34.792,12.896,32.864,9.182,29.92,6.231z"/>
</svg>
