<?xml version="1.0" encoding="utf-8"?>
<!-- Generator: Adobe Illustrator 15.1.0, SVG Export Plug-In  -->
<!DOCTYPE svg PUBLIC "-//W3C//DTD SVG 1.1//EN" "http://www.w3.org/Graphics/SVG/1.1/DTD/svg11.dtd" [
	<!ENTITY ns_flows "http://ns.adobe.com/Flows/1.0/">
]>
<svg version="1.1"
	 xmlns="http://www.w3.org/2000/svg" xmlns:xlink="http://www.w3.org/1999/xlink" xmlns:a="http://ns.adobe.com/AdobeSVGViewerExtensions/3.0/"
	 x="0px" y="0px" width="652px" height="612px" viewBox="-13 -110 652 612" enable-background="new -13 -110 652 612"
	 xml:space="preserve">
<defs>
</defs>
<path fill="none" stroke="#00AFEB" stroke-width="15" stroke-miterlimit="10" d="M188.798,275.77
	c-29.77,0-53.915,24.146-53.915,53.826c0,29.771,24.145,53.914,53.915,53.914c29.683,0,53.827-24.146,53.827-53.914
	C242.625,299.914,218.481,275.77,188.798,275.77z M188.798,356.596c-14.885,0-27-12.113-27-27c0-14.798,12.115-26.914,27-26.914
	c14.797,0,26.913,12.115,26.913,26.914C215.711,344.48,203.596,356.596,188.798,356.596z M142.388,275.792H21.728
	c-4.779,0-8.653,3.874-8.653,8.651v26.258c0,4.776,3.874,8.65,8.653,8.65h96.714C120.968,302.029,129.712,286.725,142.388,275.792z
	 M470.481,275.77c-29.687,0-53.827,24.146-53.827,53.826c0,29.771,24.144,53.914,53.827,53.914
	c29.769,0,53.823-24.146,53.823-53.914C524.308,299.914,500.25,275.77,470.481,275.77z M470.481,356.596
	c-14.888,0-26.914-12.113-26.914-27c0-14.798,12.026-26.914,26.914-26.914c14.884,0,26.91,12.115,26.91,26.914
	C497.395,344.48,485.365,356.596,470.481,356.596z M610.847,275.77H589.82V158.163c0-13.759-4.154-27.259-11.856-38.683
	l-52.701-78.057c-12.809-19.039-34.354-30.462-57.375-30.462h-81.69c-9.521,0-17.309,7.702-17.309,17.308v247.5H235.183
	c12.635,10.988,21.375,26.223,23.885,43.613h141.144c4.933-34.354,34.529-60.923,70.271-60.923
	c35.736,0,65.336,26.565,70.354,60.923h70.01c4.85,0,8.653-3.895,8.653-8.652v-26.309C619.5,279.663,615.692,275.77,610.847,275.77z
	 M524.653,135.057H416.827c-4.76,0-8.654-3.808-8.654-8.654V66.606c0-4.76,3.896-8.654,8.654-8.654h65.683
	c2.855,0,5.539,1.384,7.1,3.634l42.145,59.884C535.817,127.182,531.663,135.057,524.653,135.057z M327.691,258.461H24.807
	c-9.558,0-17.307-7.748-17.307-17.309v-77.883c0-9.559,7.749-17.308,17.307-17.308h302.884c9.56,0,17.309,7.749,17.309,17.308
	v77.883C345,250.713,337.251,258.461,327.691,258.461z M145.962,120H24.807C15.249,120,7.5,112.25,7.5,102.692V24.808
	C7.5,15.249,15.249,7.5,24.807,7.5h121.154c9.559,0,17.308,7.749,17.308,17.308v77.884C163.27,112.25,155.521,120,145.962,120z
	 M327.691,120H206.539c-9.559,0-17.308-7.749-17.308-17.307V24.808c0-9.559,7.749-17.307,17.308-17.307h121.154
	c9.559,0,17.308,7.749,17.308,17.307v77.885C345,112.25,337.251,120,327.691,120z"/>
</svg>
