<?xml version="1.0" encoding="utf-8"?>
<!-- Generator: Adobe Illustrator 15.1.0, SVG Export Plug-In  -->
<!DOCTYPE svg PUBLIC "-//W3C//DTD SVG 1.1//EN" "http://www.w3.org/Graphics/SVG/1.1/DTD/svg11.dtd" [
	<!ENTITY ns_flows "http://ns.adobe.com/Flows/1.0/">
]>
<svg version="1.1"
	 xmlns="http://www.w3.org/2000/svg" xmlns:xlink="http://www.w3.org/1999/xlink" xmlns:a="http://ns.adobe.com/AdobeSVGViewerExtensions/3.0/"
	 x="0px" y="0px" width="35px" height="35px" viewBox="0 0 35 35" enable-background="new 0 0 35 35" xml:space="preserve">
<defs>
</defs>
<path fill="#00AFEB" d="M32.092,25.018l-5.572-2.785c-0.525-0.264-0.854-0.791-0.854-1.379V18.88
	c0.135-0.163,0.275-0.349,0.42-0.555c0.723-1.021,1.303-2.157,1.723-3.383c0.824-0.377,1.357-1.191,1.357-2.11V10.5
	c0-0.562-0.209-1.106-0.582-1.531V5.866c0.032-0.321,0.16-2.23-1.221-3.806C26.165,0.693,24.221,0,21.584,0
	c-2.639,0-4.582,0.693-5.78,2.059c-0.837,0.955-1.119,2.03-1.204,2.803c-1-0.517-2.178-0.779-3.516-0.779
	c-6.061,0-6.414,5.166-6.417,5.25v2.671c-0.378,0.412-0.583,0.887-0.583,1.359v2.015c0,0.629,0.282,1.216,0.765,1.612
	c0.481,1.814,1.665,3.186,2.125,3.666v1.601c0,0.46-0.25,0.88-0.683,1.117L2.41,25.809C0.923,26.62,0,28.175,0,29.868v2.215h8.167
	h1.167H35v-2.356C35,27.719,33.885,25.916,32.092,25.018z M8.167,29.611v1.306h-7v-1.049c0-1.267,0.691-2.429,1.833-3.052
	l3.88-2.436c0.777-0.424,1.26-1.236,1.26-2.124v-2.095L7.954,19.99c-0.015-0.016-1.565-1.479-2.023-3.474l-0.053-0.231l-0.2-0.128
	c-0.268-0.174-0.429-0.465-0.429-0.778v-2.015c0-0.21,0.143-0.459,0.392-0.685l0.192-0.173L5.832,9.367
	C5.843,9.2,6.146,5.25,11.083,5.25c1.396,0,2.571,0.322,3.5,0.959v2.76C14.21,9.394,14,9.938,14,10.5v2.333
	c0,0.177,0.021,0.352,0.059,0.521c0.016,0.068,0.047,0.129,0.069,0.195c0.032,0.098,0.058,0.199,0.103,0.292
	c0,0.001,0.001,0.002,0.002,0.003c0.149,0.308,0.367,0.583,0.641,0.804c0.003,0.011,0.007,0.021,0.01,0.031
	c0.035,0.134,0.071,0.267,0.111,0.396l0.047,0.152c0.008,0.027,0.019,0.054,0.027,0.081c0.021,0.063,0.041,0.125,0.062,0.188
	c0.035,0.102,0.072,0.208,0.114,0.322c0.018,0.048,0.038,0.091,0.057,0.139c0.048,0.122,0.096,0.24,0.146,0.356
	c0.012,0.028,0.022,0.058,0.035,0.085l0.033,0.074c0.015,0.034,0.031,0.064,0.046,0.097c0.057,0.125,0.113,0.246,0.171,0.363
	c0.009,0.018,0.018,0.039,0.027,0.057c0.037,0.074,0.073,0.143,0.11,0.213c0.063,0.119,0.125,0.232,0.187,0.342
	c0.03,0.055,0.06,0.107,0.09,0.158c0.084,0.143,0.164,0.275,0.242,0.397c0.017,0.025,0.033,0.053,0.049,0.078
	c0.141,0.219,0.264,0.396,0.365,0.533c0.027,0.037,0.05,0.068,0.073,0.1c0.013,0.019,0.03,0.041,0.042,0.058v1.93
	c0,0.565-0.308,1.084-0.803,1.354l-1.543,0.842L14.3,22.969l-0.109,0.23l-3.282,1.79C9.217,25.915,8.167,27.684,8.167,29.611z
	 M33.834,30.917h-24.5v-1.306c0-1.5,0.818-2.879,2.134-3.596l5.204-2.84c0.871-0.475,1.412-1.387,1.412-2.378v-2.344v-0.001
	l-0.114-0.135l-0.022-0.026c-0.001-0.001-0.038-0.046-0.097-0.122c-0.003-0.005-0.007-0.01-0.011-0.014
	c-0.031-0.041-0.067-0.09-0.108-0.146c-0.001-0.002-0.001-0.002-0.002-0.004c-0.087-0.12-0.196-0.277-0.317-0.467
	c-0.003-0.004-0.005-0.008-0.008-0.012c-0.057-0.09-0.118-0.188-0.18-0.291c-0.004-0.007-0.009-0.015-0.014-0.023
	c-0.132-0.221-0.272-0.471-0.412-0.748c0,0,0,0,0-0.001c-0.074-0.148-0.148-0.305-0.22-0.468l0,0
	c-0.01-0.023-0.021-0.045-0.03-0.068l0,0c-0.032-0.073-0.064-0.149-0.097-0.228c-0.012-0.028-0.023-0.058-0.035-0.087
	c-0.031-0.076-0.062-0.153-0.094-0.242c-0.06-0.158-0.115-0.324-0.169-0.495l-0.032-0.104c-0.003-0.012-0.008-0.023-0.011-0.036
	c-0.055-0.185-0.107-0.373-0.151-0.566l-0.053-0.231l-0.199-0.128c-0.338-0.218-0.541-0.584-0.541-0.979V10.5
	c0-0.328,0.139-0.632,0.391-0.86l0.192-0.173V5.833V5.626l-0.016-0.012c-0.02-0.421,0.005-1.712,0.947-2.786
	c0.966-1.104,2.616-1.662,4.903-1.662c2.277,0,3.924,0.555,4.891,1.649c1.137,1.284,0.948,2.927,0.947,2.941l-0.006,3.709
	l0.193,0.174C27.861,9.868,28,10.172,28,10.5v2.333c0,0.509-0.334,0.955-0.83,1.108l-0.29,0.089l-0.093,0.289
	c-0.391,1.214-0.947,2.335-1.654,3.332c-0.172,0.246-0.342,0.464-0.488,0.63L24.5,18.447v2.406c0,1.031,0.573,1.959,1.497,2.422
	l5.571,2.785c1.396,0.699,2.266,2.103,2.266,3.664V30.917z"/>
</svg>
