<?xml version="1.0" encoding="utf-8"?>
<!-- Generator: Adobe Illustrator 15.1.0, SVG Export Plug-In  -->
<!DOCTYPE svg PUBLIC "-//W3C//DTD SVG 1.1//EN" "http://www.w3.org/Graphics/SVG/1.1/DTD/svg11.dtd" [
	<!ENTITY ns_flows "http://ns.adobe.com/Flows/1.0/">
]>
<svg version="1.1"
	 xmlns="http://www.w3.org/2000/svg" xmlns:xlink="http://www.w3.org/1999/xlink" xmlns:a="http://ns.adobe.com/AdobeSVGViewerExtensions/3.0/"
	 x="0px" y="0px" width="200px" height="206px" viewBox="-35 -0.999 200 206" enable-background="new -35 -0.999 200 206"
	 xml:space="preserve">
<defs>
</defs>
<path fill="none" stroke="#00AFEB" stroke-width="4" stroke-miterlimit="10" d="M5.535,104.052
	c7.48-12.318,14.96-24.638,22.441-37.069c12.43-20.68,24.97-41.361,37.401-62.042c0.329-0.66,0.659-1.21,0.99-1.87
	c0.328-0.11,0.66-0.11,0.77,0.33c0.439,2.31,0.439,4.62,0.439,6.93c0,20.571,0,41.141,0,61.711c0,1.32,0.109,2.75-0.221,4.07
	c-0.328,1.1-1.319,1.54-2.198,1.979c-18.701,8.58-37.402,16.94-56.102,25.52c-0.99,0.439-1.98,1.209-3.08,0.439l-0.11,0.111
	L5.535,104.052z"/>
<path fill="none" stroke="#00AFEB" stroke-width="4" stroke-miterlimit="10" d="M66.586,76.773c0-17.71,0-35.42,0.108-53.241
	c0-5.83,0-11.771,0-17.6c0-0.88-0.328-1.76,0.332-2.53c16.938,28.05,33.77,56.101,50.709,84.041c3.302,5.5,6.602,11,9.9,16.609
	c-0.99,0.66-1.869,0.111-2.64-0.33c-11-5.058-21.892-10.008-32.892-14.958c-7.92-3.631-15.729-7.15-23.649-10.781
	c-0.552-0.219-1.211-0.44-1.649-0.88C66.695,76.993,66.695,76.883,66.586,76.773z"/>
<path fill="none" stroke="#00AFEB" stroke-width="4" stroke-miterlimit="10" d="M5.754,104.052c5.06-1.758,9.68-4.178,14.521-6.378
	c15.29-6.82,30.47-13.75,45.651-20.681c0.22-0.109,0.44-0.109,0.66-0.22l0.108,0.11c0.771,0.88,0.771,1.87,0.771,2.97
	c0,19.361,0,38.83,0,58.191c0,0.77-0.221,1.539-0.33,2.309c-0.66,0.771-1.209,0-1.651-0.219c-19.579-11.551-39.16-23.1-58.74-34.762
	C6.305,105.042,5.535,104.933,5.754,104.052z"/>
<path fill="none" stroke="#00AFEB" stroke-width="4" stroke-miterlimit="10" d="M67.246,140.353c-0.77-0.551-0.551-1.43-0.551-2.199
	c0-20.461,0-40.81,0-61.27c5.171,1.65,9.9,4.29,14.74,6.49c15.182,6.82,30.361,13.75,45.432,20.568
	c0.22,0.109,0.439,0.109,0.66,0.222c0.221,0.879-0.66,0.987-1.101,1.317c-19.579,11.554-39.161,23.103-58.741,34.652
	C67.687,140.243,67.466,140.243,67.246,140.353z"/>
<path fill="none" stroke="#00AFEB" stroke-width="4" stroke-miterlimit="10" d="M66.256,202.175
	c-4.84-6.932-9.681-13.859-14.63-20.791c-15.291-21.67-30.691-43.23-45.981-64.9c4.73,1.98,8.8,4.949,13.2,7.479
	c15.18,8.912,30.25,17.931,45.431,26.843c0.881,0.549,1.76,1.209,2.86,1.1c0.33,0.77,0.33,1.539,0.33,2.309
	c0,14.191,0,28.383,0,42.684c0,1.648,0,3.299-0.33,4.947C67.027,202.284,66.695,202.284,66.256,202.175z"/>
<path fill="none" stroke="#00AFEB" stroke-width="4" stroke-miterlimit="10" d="M67.136,201.843c-0.66-0.66-0.439-1.539-0.439-2.199
	c0-15.069,0-30.143,0-45.209c0-0.883-0.109-1.762,0.439-2.531c19.91-11.77,39.821-23.541,59.73-35.311
	c0.439,0.551,0.109,0.879-0.109,1.209C106.958,145.741,87.046,173.792,67.136,201.843z"/>
</svg>
