<?xml version="1.0" encoding="utf-8"?>
<!-- Generator: Adobe Illustrator 15.1.0, SVG Export Plug-In  -->
<!DOCTYPE svg PUBLIC "-//W3C//DTD SVG 1.1//EN" "http://www.w3.org/Graphics/SVG/1.1/DTD/svg11.dtd" [
	<!ENTITY ns_flows "http://ns.adobe.com/Flows/1.0/">
]>
<svg version="1.1"
	 xmlns="http://www.w3.org/2000/svg" xmlns:xlink="http://www.w3.org/1999/xlink" xmlns:a="http://ns.adobe.com/AdobeSVGViewerExtensions/3.0/"
	 x="0px" y="0px" width="25px" height="25px" viewBox="0 -0.694 25 25" enable-background="new 0 -0.694 25 25"
	 xml:space="preserve">
<defs>
</defs>
<path display="none" fill="#E53935" d="M13.264,0C7.188,0,2.246,4.942,2.247,10.984c-0.005,0.098-0.06,1.697,0.395,3.419
	l-1.484-0.865c-0.368-0.213-0.838-0.09-1.054,0.278c-0.213,0.367-0.089,0.839,0.278,1.054l3.477,2.027
	c0.007,0.004,0.015,0.004,0.022,0.008c0.037,0.021,0.075,0.034,0.115,0.049c0.027,0.011,0.054,0.021,0.081,0.024
	c0.033,0.009,0.066,0.011,0.101,0.013c0.023,0.004,0.047,0.013,0.071,0.013c0.014,0,0.026-0.007,0.04-0.007
	C4.302,16.996,4.312,17,4.326,17c0.019-0.004,0.037-0.01,0.055-0.014c0.037-0.008,0.072-0.016,0.108-0.027
	c0.03-0.008,0.059-0.021,0.088-0.033c0.032-0.018,0.062-0.031,0.092-0.053c0.027-0.019,0.054-0.037,0.078-0.059
	c0.027-0.021,0.051-0.047,0.075-0.074c0.023-0.022,0.042-0.051,0.061-0.078c0.01-0.016,0.024-0.024,0.033-0.041
	c0.007-0.013,0.007-0.024,0.012-0.039c0.011-0.021,0.027-0.039,0.036-0.062l1.383-3.426c0.159-0.394-0.03-0.845-0.425-1.002
	c-0.395-0.159-0.844,0.03-1.003,0.425l-0.71,1.76c-0.474-1.587-0.42-3.215-0.419-3.26c0-5.226,4.251-9.476,9.476-9.476
	s9.475,4.25,9.475,9.476c0,5.225-4.25,9.475-9.475,9.475c-0.427,0-0.771,0.344-0.771,0.771c0,0.426,0.343,0.771,0.771,0.771
	c6.075,0,11.018-4.94,11.018-11.017C24.279,4.943,19.337,0,13.264,0z"/>
<path display="none" fill="#E53935" d="M12.968,12.498c0.078,0.033,0.158,0.045,0.24,0.051c0.021,0.001,0.035,0.011,0.054,0.011
	c0.09,0,0.178-0.021,0.262-0.052c0.022-0.01,0.047-0.021,0.066-0.031c0.063-0.031,0.124-0.07,0.178-0.118
	c0.014-0.01,0.026-0.013,0.039-0.024l4.813-4.813c0.302-0.301,0.302-0.789,0-1.09c-0.304-0.302-0.791-0.302-1.093,0l-4.446,4.447
	L9.09,9.205C8.695,9.04,8.246,9.225,8.081,9.619c-0.164,0.393,0.021,0.844,0.413,1.009l4.469,1.87
	C12.965,12.498,12.965,12.498,12.968,12.498L12.968,12.498z"/>
<path display="none" fill="#E53935" d="M17.009,6.148c-0.354-0.354-0.928-0.354-1.28,0c-0.354,0.354-0.354,0.928,0,1.281
	l2.682,2.683H7.306c-0.5,0-0.906,0.405-0.906,0.906c0,0.499,0.406,0.905,0.906,0.905H18.41l-2.682,2.683
	c-0.354,0.354-0.354,0.929,0,1.282c0.178,0.177,0.408,0.266,0.641,0.266s0.463-0.089,0.643-0.266l4.229-4.23
	c0.354-0.353,0.354-0.927,0-1.281L17.009,6.148z"/>
<path display="none" fill="#E53935" d="M11.535,20.986c0.501,0,0.907-0.404,0.907-0.906c0-0.498-0.406-0.905-0.907-0.905H4.587
	V2.862h6.947c0.501,0,0.907-0.405,0.907-0.907c0-0.5-0.406-0.905-0.907-0.905H3.681c-0.5,0-0.906,0.405-0.906,0.905V20.08
	c0,0.502,0.406,0.906,0.906,0.906H11.535z"/>
<path fill="#F45B69" d="M24.211,11.806c0-6.458-5.254-11.711-11.711-11.711c-6.458,0-11.711,5.253-11.711,11.711
	c0,3.41,1.467,6.484,3.801,8.627l-0.012,0.01l0.381,0.32c0.023,0.021,0.052,0.038,0.075,0.059c0.202,0.168,0.411,0.325,0.624,0.479
	c0.069,0.05,0.139,0.101,0.208,0.147c0.229,0.156,0.461,0.306,0.699,0.445c0.052,0.03,0.104,0.063,0.157,0.092
	c0.261,0.146,0.528,0.287,0.801,0.418c0.021,0.008,0.041,0.018,0.062,0.025c0.89,0.413,1.839,0.717,2.833,0.896
	c0.025,0.006,0.052,0.011,0.078,0.016c0.308,0.053,0.619,0.096,0.936,0.124c0.039,0.003,0.077,0.006,0.116,0.009
	c0.313,0.025,0.631,0.043,0.954,0.043c0.318,0,0.635-0.018,0.945-0.042c0.038-0.003,0.079-0.006,0.118-0.009
	c0.313-0.028,0.623-0.07,0.928-0.122c0.025-0.005,0.054-0.011,0.08-0.015c0.979-0.176,1.914-0.475,2.793-0.875
	c0.031-0.018,0.063-0.029,0.097-0.045c0.264-0.123,0.521-0.258,0.771-0.397c0.063-0.036,0.125-0.071,0.188-0.108
	c0.229-0.135,0.455-0.273,0.674-0.426c0.078-0.054,0.156-0.109,0.234-0.167c0.188-0.134,0.369-0.272,0.549-0.418
	c0.039-0.032,0.082-0.06,0.121-0.093l0.389-0.325l-0.012-0.01C22.73,18.324,24.211,15.234,24.211,11.806z M1.641,11.806
	c0-5.988,4.872-10.859,10.859-10.859s10.859,4.872,10.859,10.859c0,3.227-1.416,6.128-3.658,8.118
	c-0.125-0.087-0.251-0.164-0.381-0.229l-3.604-1.802c-0.323-0.162-0.524-0.487-0.524-0.849v-1.26
	c0.084-0.104,0.172-0.222,0.265-0.35c0.465-0.658,0.84-1.395,1.112-2.182c0.539-0.258,0.89-0.794,0.89-1.401v-1.51
	c0-0.369-0.138-0.727-0.379-1.009V7.348c0.021-0.221,0.102-1.468-0.802-2.498c-0.785-0.896-2.058-1.349-3.775-1.349
	c-1.721,0-2.992,0.454-3.777,1.35C7.821,5.88,7.899,7.128,7.922,7.348v1.988c-0.242,0.281-0.378,0.64-0.378,1.009v1.51
	c0,0.469,0.21,0.906,0.57,1.201c0.346,1.352,1.056,2.374,1.317,2.721v1.232c0,0.348-0.189,0.667-0.495,0.834l-3.367,1.836
	c-0.106,0.059-0.213,0.127-0.319,0.202C3.035,17.892,1.641,15.009,1.641,11.806z"/>
</svg>
