<?xml version="1.0" encoding="utf-8"?>
<!-- Generator: Adobe Illustrator 15.1.0, SVG Export Plug-In  -->
<!DOCTYPE svg PUBLIC "-//W3C//DTD SVG 1.1//EN" "http://www.w3.org/Graphics/SVG/1.1/DTD/svg11.dtd" [
	<!ENTITY ns_flows "http://ns.adobe.com/Flows/1.0/">
]>
<svg version="1.1"
	 xmlns="http://www.w3.org/2000/svg" xmlns:xlink="http://www.w3.org/1999/xlink" xmlns:a="http://ns.adobe.com/AdobeSVGViewerExtensions/3.0/"
	 x="0px" y="0px" width="512px" height="512px" viewBox="0 -8.433 512 512" enable-background="new 0 -8.433 512 512"
	 xml:space="preserve">
<defs>
</defs>
<path fill="#00AFEB" d="M256.032,0L0,191.15v303.984h512V191.15L256.032,0z M185.202,136.4c7.512-13.73,17.864-24.069,30.996-30.931
	c13.1-6.92,28.048-10.403,44.953-10.403c14.252,0,26.979,2.8,38.115,8.317c11.13,5.601,19.602,13.48,25.537,23.734
	c5.793,10.268,8.799,21.462,8.799,33.584c0,14.464-4.467,27.545-13.402,39.248c-11.201,14.754-25.498,22.119-43.001,22.119
	c-4.712,0-8.233-0.786-10.647-2.446c-2.35-1.687-3.998-4.068-4.783-7.268c-6.579,6.515-14.361,9.785-23.104,9.785
	c-9.431,0-17.246-3.264-23.451-9.714c-6.218-6.515-9.314-15.198-9.314-25.949c0-13.416,3.721-25.53,11.22-36.513
	c9.115-13.415,20.715-20.149,34.916-20.149c10.113,0,17.581,3.869,22.37,11.62l2.131-9.45h22.531l-12.862,61.02
	c-0.805,3.901-1.204,6.347-1.204,7.487c0,1.468,0.335,2.446,0.959,3.199c0.638,0.715,1.436,1.063,2.299,1.063
	c2.807,0,6.302-1.597,10.596-4.951c5.8-4.268,10.473-10.132,14.039-17.349c3.566-7.268,5.401-14.799,5.401-22.582
	c0-13.937-5.034-25.601-15.141-35.051c-10.126-9.334-24.269-14.065-42.345-14.065c-15.404,0-28.434,3.135-39.12,9.45
	c-10.686,6.219-18.752,15.083-24.237,26.483c-5.401,11.33-8.098,23.219-8.098,35.534c0,11.948,3.083,22.865,9.083,32.663
	c6.083,9.868,14.548,17.001,25.466,21.533c10.918,4.487,23.451,6.733,37.517,6.733c13.5,0,25.164-1.886,34.968-5.671
	c9.798-3.779,17.632-9.379,23.6-17.001h18.069c-5.665,11.536-14.336,20.548-26.064,27.133
	c-13.467,7.486-29.869,11.201-49.207,11.201c-18.784,0-34.929-3.135-48.551-9.45c-13.653-6.347-23.747-15.668-30.448-28.002
	c-6.618-12.347-9.881-25.801-9.881-40.35C173.917,165.066,177.638,150.183,185.202,136.4z M18.05,197.182l188.897,126.687
	L18.05,470.074V197.182z M32.399,479.8l223.633-173.067L479.595,479.8H32.399z M493.931,470.074L305.072,323.869l188.864-126.687
	v272.892H493.931z M265.25,150.318c3,3.418,4.5,8.336,4.5,14.754c0,5.736-1.12,11.948-3.303,18.533
	c-2.149,6.669-4.782,11.754-7.782,15.199c-2.047,2.414-4.236,4.197-6.386,5.317c-2.826,1.603-5.832,2.382-9.077,2.382
	c-4.339,0.039-7.918-1.699-10.886-5.111c-2.896-3.418-4.332-8.665-4.332-15.868c0-5.401,1.017-11.62,3.135-18.598
	c2.118-7.004,5.214-12.334,9.354-16.151c4.165-3.785,8.665-5.671,13.519-5.671C258.536,145.136,262.314,146.868,265.25,150.318z"/>
</svg>
