<?xml version="1.0" encoding="utf-8"?>
<!-- Generator: Adobe Illustrator 15.1.0, SVG Export Plug-In  -->
<!DOCTYPE svg PUBLIC "-//W3C//DTD SVG 1.1//EN" "http://www.w3.org/Graphics/SVG/1.1/DTD/svg11.dtd" [
	<!ENTITY ns_flows "http://ns.adobe.com/Flows/1.0/">
]>
<svg version="1.1"
	 xmlns="http://www.w3.org/2000/svg" xmlns:xlink="http://www.w3.org/1999/xlink" xmlns:a="http://ns.adobe.com/AdobeSVGViewerExtensions/3.0/"
	 x="0px" y="0px" width="500px" height="466px" viewBox="1 -51 500 466" enable-background="new 1 -51 500 466"
	 xml:space="preserve">
<defs>
</defs>
<g>
	<defs>
		<rect id="SVGID_1_" width="500" height="500"/>
	</defs>
	<clipPath id="SVGID_17_">
		<use xlink:href="#SVGID_1_"  overflow="visible"/>
	</clipPath>
	<rect display="none" clip-path="url(#SVGID_17_)" fill="#FFF3D2" width="500" height="500"/>
	<g display="none" clip-path="url(#SVGID_17_)">
		<text transform="matrix(1 0 0 1 162.2578 379.7383)" display="inline"><tspan x="0" y="0" fill="#504E45" font-family="'Montserrat-Medium'" font-size="25.5944">E-</tspan><tspan x="26.388" y="0" fill="#504E45" font-family="'Montserrat-Medium'" font-size="25.5944">C</tspan><tspan x="43.843" y="0" fill="#504E45" font-family="'Montserrat-Medium'" font-size="25.5944">OMMERCE</tspan></text>
	</g>
	<g display="none" clip-path="url(#SVGID_17_)">
		<text transform="matrix(1 0 0 1 135.8149 403.6094)" display="inline"><tspan x="0" y="0" font-family="'Montserrat-ExtraLight'" font-size="7">Lorem ipsum dolor sit amet, </tspan><tspan x="97.235" y="0" font-family="'Montserrat-ExtraLight'" font-size="7">c</tspan><tspan x="100.959" y="0" font-family="'Montserrat-ExtraLight'" font-size="7">onsec</tspan><tspan x="120.86" y="0" font-family="'Montserrat-ExtraLight'" font-size="7">t</tspan><tspan x="123.401" y="0" font-family="'Montserrat-ExtraLight'" font-size="7">etuer adipiscing elit, sed diam </tspan></text>
	</g>
	<g display="none" clip-path="url(#SVGID_17_)">
		<text transform="matrix(1 0 0 1 124.7407 412.0098)" display="inline"><tspan x="0" y="0" font-family="'Montserrat-ExtraLight'" font-size="7">nonum</tspan><tspan x="25.144" y="0" font-family="'Montserrat-ExtraLight'" font-size="7">m</tspan><tspan x="32.27" y="0" font-family="'Montserrat-ExtraLight'" font-size="7">y nibh euismod tincidunt ut laoreet dolore magna aliquam e</tspan><tspan x="238.333" y="0" font-family="'Montserrat-ExtraLight'" font-size="7">r</tspan><tspan x="240.593" y="0" font-family="'Montserrat-ExtraLight'" font-size="7">at </tspan></text>
	</g>
	<g display="none" clip-path="url(#SVGID_17_)">
		<text transform="matrix(1 0 0 1 136.249 420.4092)" display="inline"><tspan x="0" y="0" font-family="'Montserrat-ExtraLight'" font-size="7">v</tspan><tspan x="3.199" y="0" font-family="'Montserrat-ExtraLight'" font-size="7">olutpat. Ut wisi enim ad minim </tspan><tspan x="110.458" y="0" font-family="'Montserrat-ExtraLight'" font-size="7">v</tspan><tspan x="113.657" y="0" font-family="'Montserrat-ExtraLight'" font-size="7">eniam, quis nostrud </tspan><tspan x="182.788" y="0" font-family="'Montserrat-ExtraLight'" font-size="7">e</tspan><tspan x="186.708" y="0" font-family="'Montserrat-ExtraLight'" font-size="7">x</tspan><tspan x="190.082" y="0" font-family="'Montserrat-ExtraLight'" font-size="7">erci tation </tspan></text>
	</g>
	<g display="none" clip-path="url(#SVGID_17_)">
		<text transform="matrix(1 0 0 1 128.7939 428.8096)" display="inline"><tspan x="0" y="0" font-family="'Montserrat-ExtraLight'" font-size="7">ullam</tspan><tspan x="19.411" y="0" font-family="'Montserrat-ExtraLight'" font-size="7">c</tspan><tspan x="23.135" y="0" font-family="'Montserrat-ExtraLight'" font-size="7">orper suscipit lobortis nisl ut aliquip </tspan><tspan x="144.869" y="0" font-family="'Montserrat-ExtraLight'" font-size="7">e</tspan><tspan x="148.789" y="0" font-family="'Montserrat-ExtraLight'" font-size="7">x ea </tspan><tspan x="164.42" y="0" font-family="'Montserrat-ExtraLight'" font-size="7">c</tspan><tspan x="168.144" y="0" font-family="'Montserrat-ExtraLight'" font-size="7">ommodo </tspan><tspan x="202.317" y="0" font-family="'Montserrat-ExtraLight'" font-size="7">c</tspan><tspan x="206.041" y="0" font-family="'Montserrat-ExtraLight'" font-size="7">onsequat. </tspan></text>
	</g>
	<g clip-path="url(#SVGID_17_)">
		<defs>
			<rect id="SVGID_3_" width="500" height="500"/>
		</defs>
		<clipPath id="SVGID_18_">
			<use xlink:href="#SVGID_3_"  overflow="visible"/>
		</clipPath>
		<path clip-path="url(#SVGID_18_)" fill="#A8A59A" d="M455.781,321.96H44.219c-4.389,0-7.98,3.591-7.98,7.98
			c0,4.389,3.591,7.979,7.98,7.979h411.562c4.389,0,7.979-3.591,7.979-7.979C463.76,325.551,460.17,321.96,455.781,321.96"/>
		<path clip-path="url(#SVGID_18_)" fill="#CFCDC4" d="M279.385,282.507h-52.321c0.487,5.575,1.491,23.727-5.283,29.981h62.886
			C277.894,306.233,278.898,288.082,279.385,282.507"/>
		<path clip-path="url(#SVGID_18_)" fill="#A8A59A" d="M224.073,309.441c-0.642,1.184-1.397,2.221-2.292,3.047h62.886
			c-0.895-0.826-1.649-1.863-2.292-3.047H224.073z"/>
		<rect x="211.544" y="312.473" clip-path="url(#SVGID_18_)" fill="#CFCDC4" width="83.36" height="9.17"/>
		<path clip-path="url(#SVGID_18_)" fill="#504E45" d="M339.735,257.175H166.713v-95.763c0-2.808,2.276-5.085,5.085-5.085H334.65
			c2.809,0,5.085,2.277,5.085,5.085V257.175z"/>
		<rect x="175.137" y="164.756" clip-path="url(#SVGID_18_)" fill="#ADE6FF" width="156.171" height="83.988"/>
		<path clip-path="url(#SVGID_18_)" fill="#E2E0D9" d="M339.735,257.178v20.225c0,4.028-3.27,7.299-7.299,7.299H174.011
			c-4.028,0-7.298-3.271-7.298-7.299v-20.225H339.735z"/>
		<path clip-path="url(#SVGID_18_)" fill="#CFCDC4" d="M261.65,271.219c0,4.344-3.521,7.864-7.864,7.864
			c-4.344,0-7.865-3.521-7.865-7.864s3.521-7.864,7.865-7.864C258.129,263.354,261.65,266.875,261.65,271.219"/>
		<path clip-path="url(#SVGID_18_)" fill="#504E45" d="M318.453,104.551H187.995c-5.095,0-9.225,4.13-9.225,9.225v5.864h148.908
			v-5.864C327.678,108.681,323.548,104.551,318.453,104.551"/>
		<polygon clip-path="url(#SVGID_18_)" fill="#ED393D" points="178.45,119.764 159.671,156.065 186.397,156.065 199.812,119.764 		
			"/>
		<polygon clip-path="url(#SVGID_18_)" fill="#FFFFFF" points="199.812,119.764 186.397,156.065 213.125,156.065 221.173,119.764 		
			"/>
		<polygon clip-path="url(#SVGID_18_)" fill="#ED393D" points="221.173,119.764 213.123,156.065 239.85,156.065 242.535,119.764 		
			"/>
		<polygon clip-path="url(#SVGID_18_)" fill="#FFFFFF" points="242.535,119.764 239.85,156.065 266.577,156.065 263.896,119.764 		
			"/>
		<polygon clip-path="url(#SVGID_18_)" fill="#ED393D" points="263.914,119.764 266.599,156.065 293.325,156.065 285.275,119.764 		
			"/>
		<polygon clip-path="url(#SVGID_18_)" fill="#FFFFFF" points="285.275,119.764 293.325,156.065 320.052,156.065 306.638,119.764 		
			"/>
		<polygon clip-path="url(#SVGID_18_)" fill="#ED393D" points="306.637,119.764 320.051,156.065 346.777,156.065 327.999,119.764 		
			"/>
		<path clip-path="url(#SVGID_18_)" fill="#C11E26" d="M186.397,156.065v9.212c0,6.275-5.983,11.363-13.363,11.363
			c-7.381,0-13.364-5.088-13.364-11.363v-9.212H186.397z"/>
		<path clip-path="url(#SVGID_18_)" fill="#E2E0D9" d="M213.124,156.065v9.212c0,6.275-5.983,11.363-13.363,11.363
			c-7.381,0-13.364-5.088-13.364-11.363v-9.212H213.124z"/>
		<path clip-path="url(#SVGID_18_)" fill="#C11E26" d="M239.85,156.065v9.212c0,6.275-5.983,11.363-13.363,11.363h-0.001
			c-7.38,0-13.363-5.088-13.363-11.363v-9.212H239.85z"/>
		<path clip-path="url(#SVGID_18_)" fill="#E2E0D9" d="M266.576,156.065v9.212c0,6.275-5.982,11.363-13.363,11.363
			c-7.38,0-13.364-5.088-13.364-11.363v-9.212H266.576z"/>
		<path clip-path="url(#SVGID_18_)" fill="#C11E26" d="M293.325,156.065v9.212c0,6.275-5.983,11.363-13.363,11.363
			c-7.381,0-13.363-5.088-13.363-11.363v-9.212H293.325z"/>
		<path clip-path="url(#SVGID_18_)" fill="#E2E0D9" d="M320.052,156.065v9.212c0,6.275-5.982,11.363-13.363,11.363
			s-13.363-5.088-13.363-11.363v-9.212H320.052z"/>
		<path clip-path="url(#SVGID_18_)" fill="#C11E26" d="M346.777,156.065v9.212c0,6.275-5.982,11.363-13.363,11.363
			c-7.38,0-13.363-5.088-13.363-11.363v-9.212H346.777z"/>
		<g clip-path="url(#SVGID_18_)">
			<g>
				<defs>
					<rect id="SVGID_16_" x="206.871" y="184.283" width="99.812" height="58.421"/>
				</defs>
				<clipPath id="SVGID_19_">
					<use xlink:href="#SVGID_16_"  overflow="visible"/>
				</clipPath>
				<path clip-path="url(#SVGID_19_)" fill="#CFCDC4" d="M300.423,184.283h-87.292c-3.458,0-6.26,2.803-6.26,6.26v45.9
					c0,3.457,2.802,6.26,6.26,6.26h87.292c3.457,0,6.26-2.803,6.26-6.26v-45.9C306.683,187.086,303.88,184.283,300.423,184.283"/>
			</g>
		</g>
		<path clip-path="url(#SVGID_18_)" fill="#FFFFFF" d="M298.229,181.114h-87.292c-3.458,0-6.261,2.803-6.261,6.261v45.9
			c0,3.458,2.803,6.26,6.261,6.26h87.292c3.457,0,6.26-2.803,6.26-6.26v-45.9C304.489,183.917,301.687,181.114,298.229,181.114"/>
		<rect x="258.85" y="190.353" clip-path="url(#SVGID_18_)" fill="#E2E0D9" width="39.399" height="4.348"/>
		<rect x="258.849" y="201.493" clip-path="url(#SVGID_18_)" fill="#E2E0D9" width="31.132" height="4.348"/>
		<rect x="258.85" y="212.633" clip-path="url(#SVGID_18_)" fill="#E2E0D9" width="16.699" height="4.348"/>
		<path clip-path="url(#SVGID_18_)" fill="#E2E0D9" d="M264.828,229.208c0-1.65-1.338-2.989-2.989-2.989
			c-1.65,0-2.99,1.339-2.99,2.989c0,1.651,1.34,2.989,2.99,2.989C263.49,232.197,264.828,230.859,264.828,229.208"/>
		<path clip-path="url(#SVGID_18_)" fill="#E2E0D9" d="M276.104,229.208c0-1.65-1.339-2.989-2.989-2.989s-2.99,1.339-2.99,2.989
			c0,1.651,1.34,2.989,2.99,2.989S276.104,230.859,276.104,229.208"/>
		<path clip-path="url(#SVGID_18_)" fill="#E2E0D9" d="M288.146,229.208c0-1.65-1.338-2.989-2.988-2.989
			c-1.651,0-2.989,1.339-2.989,2.989c0,1.651,1.338,2.989,2.989,2.989C286.808,232.197,288.146,230.859,288.146,229.208"/>
		<path clip-path="url(#SVGID_18_)" fill="#F76F34" d="M253.034,203.661l-7.336,7.336l-3.51-3.085v21.387H220.07v-21.387
			l-3.504,3.085l-7.336-7.336l4.933-4.951c2.674-2.683,6.307-4.191,10.095-4.191l6.861,3.79l0.013,0.013l6.861-3.797l0.007-0.006
			c3.788,0,7.421,1.507,10.096,4.19L253.034,203.661z"/>
		<polygon clip-path="url(#SVGID_18_)" fill="#FFA88A" points="211.314,201.577 218.785,209.047 216.566,210.998 209.23,203.661 		
			"/>
		<polygon clip-path="url(#SVGID_18_)" fill="#FFA88A" points="253.034,203.661 245.698,210.997 243.391,208.97 250.874,201.488 		
			"/>
		<polygon clip-path="url(#SVGID_18_)" fill="#FFA88A" points="231.132,198.322 231.126,198.328 227.14,201.205 224.257,194.52 
			231.119,198.31 231.126,198.303 		"/>
		<polygon clip-path="url(#SVGID_18_)" fill="#FFA88A" points="237.994,194.525 235.111,201.206 231.125,198.329 231.12,198.322 
			231.12,198.31 231.125,198.303 231.133,198.322 		"/>
		<path clip-path="url(#SVGID_18_)" fill="#FFA88A" d="M232.067,202.757c0,0.474-0.384,0.858-0.857,0.858
			c-0.475,0-0.858-0.384-0.858-0.858s0.383-0.858,0.858-0.858C231.683,201.899,232.067,202.283,232.067,202.757"/>
		<path clip-path="url(#SVGID_18_)" fill="#FFA88A" d="M232.067,206.374c0,0.474-0.384,0.858-0.857,0.858
			c-0.475,0-0.858-0.384-0.858-0.858s0.383-0.857,0.858-0.857C231.683,205.517,232.067,205.9,232.067,206.374"/>
		<polygon clip-path="url(#SVGID_18_)" fill="#FFA88A" points="218.784,209.046 216.566,210.998 209.23,203.662 211.314,201.576 		
			"/>
		<polygon clip-path="url(#SVGID_18_)" fill="#FFA88A" points="253.034,203.661 245.698,210.997 243.391,208.97 250.874,201.488 		
			"/>
		<g clip-path="url(#SVGID_18_)">
			<g>
				<defs>
					<rect id="SVGID_15_" x="102.27" y="104.941" width="99.812" height="58.421"/>
				</defs>
				<clipPath id="SVGID_20_">
					<use xlink:href="#SVGID_15_"  overflow="visible"/>
				</clipPath>
				<path clip-path="url(#SVGID_20_)" fill="#CFCDC4" d="M195.822,104.941H108.53c-3.457,0-6.26,2.803-6.26,6.26v45.9
					c0,3.458,2.803,6.261,6.26,6.261h87.292c3.458,0,6.261-2.803,6.261-6.261v-45.9C202.083,107.744,199.28,104.941,195.822,104.941
					"/>
			</g>
		</g>
		<path clip-path="url(#SVGID_18_)" fill="#FFFFFF" d="M193.628,101.772h-87.292c-3.457,0-6.26,2.803-6.26,6.261v45.9
			c0,3.458,2.803,6.26,6.26,6.26h87.292c3.458,0,6.26-2.802,6.26-6.26v-45.9C199.888,104.575,197.086,101.772,193.628,101.772"/>
		<rect x="154.249" y="111.011" clip-path="url(#SVGID_18_)" fill="#E2E0D9" width="39.399" height="4.347"/>
		<rect x="154.249" y="122.151" clip-path="url(#SVGID_18_)" fill="#E2E0D9" width="31.13" height="4.348"/>
		<rect x="154.249" y="133.292" clip-path="url(#SVGID_18_)" fill="#E2E0D9" width="16.699" height="4.348"/>
		<path clip-path="url(#SVGID_18_)" fill="#E2E0D9" d="M160.227,149.866c0-1.65-1.338-2.989-2.989-2.989
			c-1.651,0-2.989,1.339-2.989,2.989c0,1.651,1.338,2.989,2.989,2.989C158.889,152.855,160.227,151.517,160.227,149.866"/>
		<path clip-path="url(#SVGID_18_)" fill="#E2E0D9" d="M171.503,149.866c0-1.65-1.338-2.989-2.989-2.989
			c-1.651,0-2.989,1.339-2.989,2.989c0,1.651,1.338,2.989,2.989,2.989C170.166,152.855,171.503,151.517,171.503,149.866"/>
		<path clip-path="url(#SVGID_18_)" fill="#E2E0D9" d="M183.098,149.866c0-1.65-1.338-2.989-2.989-2.989
			c-1.651,0-2.989,1.339-2.989,2.989c0,1.651,1.338,2.989,2.989,2.989C181.76,152.855,183.098,151.517,183.098,149.866"/>
		<path clip-path="url(#SVGID_18_)" fill="#FFCC3B" d="M141.589,147.558h-31.404c-1.923,0-3.397-1.708-3.116-3.61l3.351-22.686
			c0.228-1.545,1.554-2.69,3.116-2.69h24.702c1.562,0,2.888,1.145,3.116,2.69l3.351,22.686
			C144.986,145.85,143.512,147.558,141.589,147.558"/>
		<path clip-path="url(#SVGID_18_)" fill="#504E45" d="M137.558,124.988h-23.341c-0.75,0-1.358,0.608-1.358,1.358
			s0.608,1.358,1.358,1.358h23.341c0.75,0,1.358-0.608,1.358-1.358S138.308,124.988,137.558,124.988"/>
		<path clip-path="url(#SVGID_18_)" fill="#504E45" d="M120.592,118.675v-1.983c0-1.057,0.859-1.916,1.916-1.916h6.757
			c1.057,0,1.916,0.859,1.916,1.916v1.983h2.136v-1.983c0-2.229-1.823-4.052-4.052-4.052h-6.757c-2.228,0-4.052,1.823-4.052,4.052
			v1.983H120.592z"/>
		<g clip-path="url(#SVGID_18_)">
			<g>
				<defs>
					<rect id="SVGID_14_" x="319.313" y="103.634" width="102.645" height="59.705"/>
				</defs>
				<clipPath id="SVGID_21_">
					<use xlink:href="#SVGID_14_"  overflow="visible"/>
				</clipPath>
				<path clip-path="url(#SVGID_21_)" fill="#CFCDC4" d="M415.539,103.634h-89.808c-3.545,0-6.418,2.874-6.418,6.418v46.869
					c0,3.544,2.873,6.418,6.418,6.418h89.808c3.545,0,6.418-2.874,6.418-6.418v-46.869
					C421.957,106.508,419.084,103.634,415.539,103.634"/>
			</g>
		</g>
		<path clip-path="url(#SVGID_18_)" fill="#FFFFFF" d="M413.283,100.396h-89.808c-3.545,0-6.418,2.874-6.418,6.418v46.868
			c0,3.545,2.873,6.418,6.418,6.418h89.808c3.545,0,6.418-2.873,6.418-6.418v-46.868
			C419.701,103.271,416.828,100.396,413.283,100.396"/>
		<rect x="372.767" y="109.838" clip-path="url(#SVGID_18_)" fill="#E2E0D9" width="40.518" height="4.443"/>
		<rect x="372.767" y="121.223" clip-path="url(#SVGID_18_)" fill="#E2E0D9" width="32.014" height="4.443"/>
		<rect x="372.767" y="132.608" clip-path="url(#SVGID_18_)" fill="#E2E0D9" width="17.173" height="4.443"/>
		<path clip-path="url(#SVGID_18_)" fill="#E2E0D9" d="M378.915,149.547c0-1.687-1.376-3.055-3.074-3.055
			c-1.697,0-3.073,1.368-3.073,3.055s1.376,3.055,3.073,3.055C377.539,152.602,378.915,151.234,378.915,149.547"/>
		<path clip-path="url(#SVGID_18_)" fill="#E2E0D9" d="M390.511,149.547c0-1.687-1.376-3.055-3.073-3.055
			c-1.698,0-3.074,1.368-3.074,3.055s1.376,3.055,3.074,3.055C389.135,152.602,390.511,151.234,390.511,149.547"/>
		<path clip-path="url(#SVGID_18_)" fill="#E2E0D9" d="M402.895,149.547c0-1.687-1.377-3.055-3.074-3.055s-3.073,1.368-3.073,3.055
			s1.376,3.055,3.073,3.055S402.895,151.234,402.895,149.547"/>
		<path clip-path="url(#SVGID_18_)" fill="#ED393D" d="M329.179,146c0,0,13.862,2.1,16.652-5.125
			c2.789-7.224,10.566-15.625,11.243-12.18c0.676,3.444,1.099,16.381,1.099,16.381h2.536v-17.305l1.859-5.125
			c0,0-4.649-11.088-6.678-11.004c-2.029,0.084-8.264,19.384-22.105,24.508c0,0-10.524,2.142-12.373,6.731
			C321.412,142.881,322.353,145.643,329.179,146"/>
		<g clip-path="url(#SVGID_18_)">
			<g>
				<defs>
					<rect id="SVGID_13_" x="209.312" y="28.681" width="99.812" height="58.421"/>
				</defs>
				<clipPath id="SVGID_22_">
					<use xlink:href="#SVGID_13_"  overflow="visible"/>
				</clipPath>
				<path clip-path="url(#SVGID_22_)" fill="#CFCDC4" d="M302.863,28.681h-87.291c-3.458,0-6.261,2.803-6.261,6.261v45.9
					c0,3.458,2.803,6.26,6.261,6.26h87.291c3.458,0,6.261-2.802,6.261-6.26v-45.9C309.124,31.484,306.321,28.681,302.863,28.681"/>
			</g>
		</g>
		<path clip-path="url(#SVGID_18_)" fill="#FFFFFF" d="M300.67,25.513h-87.292c-3.457,0-6.26,2.803-6.26,6.26v45.901
			c0,3.457,2.803,6.26,6.26,6.26h87.292c3.458,0,6.261-2.803,6.261-6.26V31.772C306.931,28.316,304.128,25.513,300.67,25.513"/>
		<rect x="261.291" y="34.751" clip-path="url(#SVGID_18_)" fill="#E2E0D9" width="39.399" height="4.348"/>
		<rect x="261.291" y="45.892" clip-path="url(#SVGID_18_)" fill="#E2E0D9" width="31.13" height="4.347"/>
		<rect x="261.291" y="57.032" clip-path="url(#SVGID_18_)" fill="#E2E0D9" width="16.699" height="4.348"/>
		<path clip-path="url(#SVGID_18_)" fill="#E2E0D9" d="M267.269,73.607c0-1.651-1.338-2.989-2.988-2.989
			c-1.651,0-2.989,1.338-2.989,2.989c0,1.65,1.338,2.989,2.989,2.989C265.931,76.596,267.269,75.257,267.269,73.607"/>
		<path clip-path="url(#SVGID_18_)" fill="#E2E0D9" d="M278.545,73.607c0-1.651-1.338-2.989-2.988-2.989
			c-1.651,0-2.99,1.338-2.99,2.989c0,1.65,1.339,2.989,2.99,2.989C277.207,76.596,278.545,75.257,278.545,73.607"/>
		<path clip-path="url(#SVGID_18_)" fill="#E2E0D9" d="M290.587,73.607c0-1.651-1.338-2.989-2.989-2.989
			c-1.65,0-2.988,1.338-2.988,2.989c0,1.65,1.338,2.989,2.988,2.989C289.249,76.596,290.587,75.257,290.587,73.607"/>
		<path clip-path="url(#SVGID_18_)" fill="#77D2F2" d="M248.21,80.058h-28.755l4.453-27.492l-0.79-8.828
			c3.95-3.604,1.975-11,1.333-13.054h2.341c1.698,10.556,6.181,10.99,6.942,10.99h0.099h0.009c0.346,0.02,5.234,0.149,7.031-10.99
			h2.35c-0.651,2.054-2.617,9.45,1.334,13.054l-0.801,8.828L248.21,80.058z"/>
		<g clip-path="url(#SVGID_18_)">
			<g>
				<defs>
					<rect id="SVGID_7_" x="222.427" y="60.437" width="22.633" height="19.621"/>
				</defs>
				<clipPath id="SVGID_23_">
					<use xlink:href="#SVGID_7_"  overflow="visible"/>
				</clipPath>
				<g clip-path="url(#SVGID_23_)">
					<g>
						<defs>
							<rect id="SVGID_12_" x="222.427" y="60.466" width="3.765" height="19.592"/>
						</defs>
						<clipPath id="SVGID_24_">
							<use xlink:href="#SVGID_12_"  overflow="visible"/>
						</clipPath>
						<path clip-path="url(#SVGID_24_)" fill="#52BEDB" d="M225.433,60.466c0.455,0,0.808,0.397,0.754,0.849l-0.975,8.157
							l-1.264,10.586h-1.52l1.263-10.586l0.988-8.336C224.724,60.754,225.047,60.466,225.433,60.466z"/>
					</g>
				</g>
				<g clip-path="url(#SVGID_23_)">
					<g>
						<defs>
							<rect id="SVGID_11_" x="227.611" y="60.456" width="2.792" height="19.602"/>
						</defs>
						<clipPath id="SVGID_25_">
							<use xlink:href="#SVGID_11_"  overflow="visible"/>
						</clipPath>
						<path clip-path="url(#SVGID_25_)" fill="#52BEDB" d="M229.644,60.457c0.439,0,0.787,0.372,0.757,0.81l-0.548,8.196
							l-0.513,10.388c0,0.03-0.01,0.108-0.03,0.208h-1.698l0.711-10.596l0.408-8.284c0.02-0.405,0.354-0.722,0.759-0.722H229.644z"
							/>
					</g>
				</g>
				<g clip-path="url(#SVGID_23_)">
					<g>
						<defs>
							<rect id="SVGID_10_" x="232.846" y="60.447" width="1.786" height="19.611"/>
						</defs>
						<clipPath id="SVGID_26_">
							<use xlink:href="#SVGID_10_"  overflow="visible"/>
						</clipPath>
						<path clip-path="url(#SVGID_26_)" fill="#52BEDB" d="M232.855,80.058l0.108-10.605l-0.117-8.236
							c-0.006-0.424,0.336-0.77,0.759-0.77h0.201c0.423,0,0.764,0.344,0.759,0.766l-0.081,8.24l0.148,10.605H232.855z"/>
					</g>
				</g>
				<g clip-path="url(#SVGID_23_)">
					<g>
						<defs>
							<rect id="SVGID_9_" x="237.017" y="60.441" width="2.859" height="19.617"/>
						</defs>
						<clipPath id="SVGID_27_">
							<use xlink:href="#SVGID_9_"  overflow="visible"/>
						</clipPath>
						<path clip-path="url(#SVGID_27_)" fill="#52BEDB" d="M239.876,80.058h-1.699c-0.019-0.099-0.03-0.168-0.03-0.198
							l-0.552-10.407l-0.575-8.199c-0.031-0.437,0.314-0.81,0.752-0.812l0.155-0.001c0.405-0.003,0.741,0.314,0.762,0.719
							l0.437,8.282L239.876,80.058z"/>
					</g>
				</g>
				<g clip-path="url(#SVGID_23_)">
					<g>
						<defs>
							<rect id="SVGID_8_" x="241.229" y="60.437" width="3.831" height="19.621"/>
						</defs>
						<clipPath id="SVGID_28_">
							<use xlink:href="#SVGID_8_"  overflow="visible"/>
						</clipPath>
						<path clip-path="url(#SVGID_28_)" fill="#52BEDB" d="M245.06,80.058h-1.521l-1.303-10.616l-1.002-8.154
							c-0.055-0.452,0.298-0.852,0.754-0.852c0.384,0,0.707,0.287,0.754,0.668l1.014,8.338L245.06,80.058z"/>
					</g>
				</g>
			</g>
		</g>
		<g clip-path="url(#SVGID_18_)">
			<g>
				<defs>
					<rect id="SVGID_6_" x="166.713" y="211.182" width="30.373" height="73.519"/>
				</defs>
				<clipPath id="SVGID_29_">
					<use xlink:href="#SVGID_6_"  overflow="visible"/>
				</clipPath>
				<path clip-path="url(#SVGID_29_)" fill="#CFCDC4" d="M197.086,282.057v2.645h-23.075c-4.028,0-7.298-3.271-7.298-7.299v-66.076
					c0.604-0.103,1.209-0.144,1.814-0.144c6.673,0,12.096,5.422,12.096,12.096v2.542h11.05v19.097l-5.883,0.011v37.128H197.086z"/>
			</g>
		</g>
		<rect x="99.245" y="286.156" clip-path="url(#SVGID_18_)" fill="#CFCDC4" width="93.74" height="22.354"/>
		<rect x="99.245" y="286.156" clip-path="url(#SVGID_18_)" fill="#A8A59A" width="93.74" height="2.385"/>
		<path clip-path="url(#SVGID_18_)" fill="#E2E0D9" d="M99.414,251.43H61.816c-2.733,0-4.943,2.211-4.943,4.943l-13.39,27.758
			v20.932c0,1.906,1.542,3.449,3.449,3.449h52.482V251.43z"/>
		<polygon clip-path="url(#SVGID_18_)" fill="#504E45" points="84.51,256.511 61.954,256.511 61.954,257.534 51.084,280.067 
			84.51,280.067 		"/>
		<path clip-path="url(#SVGID_18_)" fill="#CFCDC4" d="M93.203,308.512h-35.9c0-9.898,8.052-17.95,17.95-17.95
			S93.203,298.613,93.203,308.512"/>
		<path clip-path="url(#SVGID_18_)" fill="#A8A59A" d="M172.433,308.512h-35.901c0-9.898,8.052-17.95,17.951-17.95
			C164.38,290.562,172.433,298.613,172.433,308.512"/>
		<path clip-path="url(#SVGID_18_)" fill="#504E45" d="M89.562,308.512c0,7.901-6.406,14.308-14.307,14.308
			c-7.902,0-14.308-6.406-14.308-14.308c0-7.902,6.406-14.308,14.308-14.308C83.156,294.204,89.562,300.609,89.562,308.512"/>
		<path clip-path="url(#SVGID_18_)" fill="#CFCDC4" d="M82.574,308.512c0,4.042-3.277,7.319-7.319,7.319s-7.319-3.277-7.319-7.319
			s3.277-7.319,7.319-7.319S82.574,304.47,82.574,308.512"/>
		<path clip-path="url(#SVGID_18_)" fill="#504E45" d="M79.469,308.512c0,2.327-1.887,4.214-4.214,4.214
			c-2.328,0-4.215-1.887-4.215-4.214c0-2.328,1.887-4.215,4.215-4.215C77.582,304.297,79.469,306.184,79.469,308.512"/>
		<path clip-path="url(#SVGID_18_)" fill="#504E45" d="M168.792,308.512c0,7.901-6.406,14.308-14.308,14.308
			c-7.901,0-14.307-6.406-14.307-14.308c0-7.902,6.406-14.308,14.307-14.308C162.386,294.204,168.792,300.609,168.792,308.512"/>
		<path clip-path="url(#SVGID_18_)" fill="#CFCDC4" d="M161.803,308.512c0,4.042-3.277,7.319-7.319,7.319s-7.319-3.277-7.319-7.319
			s3.277-7.319,7.319-7.319S161.803,304.47,161.803,308.512"/>
		<path clip-path="url(#SVGID_18_)" fill="#504E45" d="M158.698,308.512c0,2.327-1.887,4.214-4.214,4.214
			c-2.328,0-4.215-1.887-4.215-4.214c0-2.328,1.887-4.215,4.215-4.215C156.811,304.297,158.698,306.184,158.698,308.512"/>
		<rect x="105.213" y="240.824" clip-path="url(#SVGID_18_)" fill="#77D2F2" width="76.476" height="45.252"/>
		<rect x="105.213" y="240.824" clip-path="url(#SVGID_18_)" fill="#4DB3CE" width="76.476" height="4.431"/>
		<rect x="99.437" y="229.924" clip-path="url(#SVGID_18_)" fill="#77D2F2" width="88.133" height="10.899"/>
		<rect x="132.64" y="229.924" clip-path="url(#SVGID_18_)" fill="#ED393D" width="21.173" height="56.153"/>
		<rect x="132.64" y="240.814" clip-path="url(#SVGID_18_)" fill="#C61E27" width="21.173" height="4.449"/>
		<path clip-path="url(#SVGID_18_)" fill="#ED393D" d="M144.414,230.006c-4.032-3.48-13.577-11.077-23.5-14.319
			c-5.184-1.693-10.516,2.136-10.516,7.59v6.729H144.414z"/>
		<path clip-path="url(#SVGID_18_)" fill="#ED393D" d="M142.507,230.006c4.032-3.48,13.577-11.077,23.5-14.319
			c5.183-1.693,10.516,2.136,10.516,7.59v6.729"/>
		<g clip-path="url(#SVGID_18_)">
			<g>
				<defs>
					<rect id="SVGID_5_" x="309.393" y="260.376" width="30.343" height="24.325"/>
				</defs>
				<clipPath id="SVGID_30_">
					<use xlink:href="#SVGID_5_"  overflow="visible"/>
				</clipPath>
				<path clip-path="url(#SVGID_30_)" fill="#CFCDC4" d="M339.735,260.376v17.026c0,4.028-3.27,7.299-7.299,7.299h-23.043v-14.956
					c0-5.166,4.202-9.369,9.369-9.369H339.735z"/>
			</g>
		</g>
		<path clip-path="url(#SVGID_18_)" fill="#FFCC3B" d="M389.522,269.745v34.357c0,3.479-2.816,6.296-6.285,6.296h-63.616
			c-3.479,0-6.296-2.817-6.296-6.296v-34.357c0-3.479,2.816-6.295,6.296-6.295h63.616
			C386.706,263.45,389.522,266.266,389.522,269.745"/>
		<rect x="313.325" y="274.486" clip-path="url(#SVGID_18_)" fill="#504E45" width="76.197" height="9.107"/>
		<rect x="321.645" y="290.589" clip-path="url(#SVGID_18_)" fill="#504E45" width="24.962" height="3.625"/>
		<rect x="321.645" y="298.8" clip-path="url(#SVGID_18_)" fill="#504E45" width="24.962" height="3.625"/>
		<g clip-path="url(#SVGID_18_)">
			<g>
				<defs>
					<rect id="SVGID_4_" x="377.188" y="263.453" width="12.335" height="35.668"/>
				</defs>
				<clipPath id="SVGID_31_">
					<use xlink:href="#SVGID_4_"  overflow="visible"/>
				</clipPath>
				<path clip-path="url(#SVGID_31_)" fill="#CFCDC4" d="M389.521,269.743v29.377h-1.768c-5.826,0-10.565-4.739-10.565-10.564
					v-25.103h6.053C386.709,263.453,389.521,266.268,389.521,269.743"/>
			</g>
		</g>
		<path clip-path="url(#SVGID_18_)" fill="#FFFFFF" d="M438.099,194.28h-48.741c-5.083,0-9.203,4.121-9.203,9.204v85.074
			c0,4.195,3.401,7.597,7.598,7.597h51.953c4.196,0,7.598-3.401,7.598-7.597v-85.074C447.303,198.401,443.182,194.28,438.099,194.28
			"/>
		<rect x="380.154" y="203.825" clip-path="url(#SVGID_18_)" fill="#77D2F2" width="67.147" height="78.011"/>
		<path clip-path="url(#SVGID_18_)" fill="#FFFFFF" d="M424.831,239.674c0,4.539-3.442,7.225-8.206,7.829v5.633h-4.351v-5.633
			c-3.589-0.417-6.995-1.929-9.489-4.048l2.38-4.877c2.725,2.42,6.58,3.971,9.379,3.971c2.457,0,3.933-0.909,3.933-2.535
			c0-4.99-14.106-2.08-14.106-11.457c0-4.16,3.101-6.996,7.904-7.676v-5.37h4.351v5.331c3.024,0.302,5.896,1.324,8.052,2.761
			l-2.306,4.954c-2.799-1.664-6.124-2.723-8.243-2.723c-2.004,0-3.365,0.718-3.365,2.155
			C410.763,232.868,424.868,230.144,424.831,239.674"/>
		<path clip-path="url(#SVGID_18_)" fill="#ADE6FF" d="M433.313,263.239h-37.03c-0.955,0-1.729,0.773-1.729,1.729
			c0,0.953,0.773,1.728,1.729,1.728h37.03c0.954,0,1.728-0.774,1.728-1.728C435.041,264.013,434.268,263.239,433.313,263.239"/>
		<path clip-path="url(#SVGID_18_)" fill="#ADE6FF" d="M424.097,273.113h-20.901c-0.953,0-1.729,0.774-1.729,1.729
			c0,0.953,0.775,1.727,1.729,1.727h20.901c0.954,0,1.729-0.773,1.729-1.727C425.826,273.888,425.051,273.113,424.097,273.113"/>
		<path clip-path="url(#SVGID_18_)" fill="#CFCDC4" d="M418.378,289.242c0-2.113-1.714-3.826-3.827-3.826s-3.826,1.713-3.826,3.826
			s1.713,3.827,3.826,3.827S418.378,291.355,418.378,289.242"/>
		<path clip-path="url(#SVGID_18_)" fill="#77D2F2" d="M447.117,167.897L447.117,167.897c-0.693,0-1.261-0.567-1.261-1.261v-3.88
			c0-0.693,0.567-1.26,1.261-1.26c0.694,0,1.262,0.567,1.262,1.26v3.88C448.379,167.331,447.812,167.897,447.117,167.897"/>
		<path clip-path="url(#SVGID_18_)" fill="#77D2F2" d="M447.117,183.747L447.117,183.747c-0.693,0-1.261-0.567-1.261-1.261v-3.88
			c0-0.693,0.567-1.26,1.261-1.26c0.694,0,1.262,0.567,1.262,1.26v3.88C448.379,183.18,447.812,183.747,447.117,183.747"/>
		<path clip-path="url(#SVGID_18_)" fill="#77D2F2" d="M443.777,169.281L443.777,169.281c-0.49,0.49-1.293,0.49-1.783,0
			l-2.743-2.744c-0.49-0.49-0.49-1.292,0-1.783c0.49-0.49,1.293-0.49,1.783,0l2.743,2.744
			C444.268,167.988,444.268,168.791,443.777,169.281"/>
		<path clip-path="url(#SVGID_18_)" fill="#77D2F2" d="M454.984,180.488L454.984,180.488c-0.49,0.49-1.293,0.49-1.783,0
			l-2.743-2.743c-0.49-0.491-0.49-1.293,0-1.783c0.49-0.491,1.293-0.491,1.783,0l2.743,2.743
			C455.475,179.195,455.475,179.997,454.984,180.488"/>
		<path clip-path="url(#SVGID_18_)" fill="#77D2F2" d="M442.394,172.622L442.394,172.622c0,0.693-0.567,1.261-1.261,1.261h-3.88
			c-0.693,0-1.261-0.568-1.261-1.261c0-0.694,0.567-1.261,1.261-1.261h3.88C441.826,171.361,442.394,171.928,442.394,172.622"/>
		<path clip-path="url(#SVGID_18_)" fill="#77D2F2" d="M458.243,172.622L458.243,172.622c0,0.693-0.567,1.261-1.261,1.261h-3.88
			c-0.693,0-1.261-0.568-1.261-1.261c0-0.694,0.567-1.261,1.261-1.261h3.88C457.676,171.361,458.243,171.928,458.243,172.622"/>
		<path clip-path="url(#SVGID_18_)" fill="#77D2F2" d="M443.777,175.962L443.777,175.962c0.49,0.49,0.49,1.292,0,1.783l-2.743,2.743
			c-0.49,0.491-1.293,0.491-1.783,0c-0.49-0.49-0.49-1.293,0-1.783l2.743-2.743C442.484,175.471,443.287,175.471,443.777,175.962"/>
		<path clip-path="url(#SVGID_18_)" fill="#77D2F2" d="M454.984,164.754L454.984,164.754c0.49,0.491,0.49,1.293,0,1.783
			l-2.743,2.744c-0.49,0.49-1.293,0.49-1.783,0c-0.49-0.491-0.49-1.293,0-1.783l2.743-2.744
			C453.691,164.265,454.494,164.265,454.984,164.754"/>
		<path clip-path="url(#SVGID_18_)" fill="#F76F34" d="M355.898,71.114L355.898,71.114c-0.671,0-1.22-0.549-1.22-1.22v-3.752
			c0-0.671,0.549-1.219,1.22-1.219s1.22,0.548,1.22,1.219v3.752C357.118,70.565,356.569,71.114,355.898,71.114"/>
		<path clip-path="url(#SVGID_18_)" fill="#F76F34" d="M355.898,86.442L355.898,86.442c-0.671,0-1.22-0.549-1.22-1.219V81.47
			c0-0.67,0.549-1.219,1.22-1.219s1.22,0.549,1.22,1.219v3.753C357.118,85.894,356.569,86.442,355.898,86.442"/>
		<path clip-path="url(#SVGID_18_)" fill="#F76F34" d="M352.668,72.452L352.668,72.452c-0.475,0.475-1.251,0.475-1.725,0
			l-2.653-2.653c-0.475-0.474-0.475-1.25,0-1.724c0.474-0.475,1.25-0.475,1.725,0l2.653,2.652
			C353.142,71.202,353.142,71.978,352.668,72.452"/>
		<path clip-path="url(#SVGID_18_)" fill="#F76F34" d="M363.507,83.291L363.507,83.291c-0.475,0.474-1.25,0.474-1.725,0
			l-2.653-2.653c-0.476-0.474-0.476-1.251,0-1.725c0.475-0.474,1.25-0.474,1.725,0l2.653,2.653
			C363.981,82.041,363.981,82.817,363.507,83.291"/>
		<path clip-path="url(#SVGID_18_)" fill="#F76F34" d="M351.329,75.683L351.329,75.683c0,0.67-0.549,1.219-1.219,1.219h-3.753
			c-0.67,0-1.219-0.549-1.219-1.219c0-0.671,0.549-1.22,1.219-1.22h3.753C350.78,74.462,351.329,75.012,351.329,75.683"/>
		<path clip-path="url(#SVGID_18_)" fill="#F76F34" d="M366.658,75.683L366.658,75.683c0,0.67-0.549,1.219-1.22,1.219h-3.752
			c-0.671,0-1.22-0.549-1.22-1.219c0-0.671,0.549-1.22,1.22-1.22h3.752C366.109,74.462,366.658,75.012,366.658,75.683"/>
		<path clip-path="url(#SVGID_18_)" fill="#F76F34" d="M352.668,78.913L352.668,78.913c0.474,0.474,0.474,1.25,0,1.725l-2.653,2.653
			c-0.475,0.474-1.251,0.474-1.725,0c-0.475-0.474-0.475-1.251,0-1.725l2.653-2.653C351.417,78.439,352.193,78.439,352.668,78.913"
			/>
		<path clip-path="url(#SVGID_18_)" fill="#F76F34" d="M363.507,68.074L363.507,68.074c0.475,0.474,0.475,1.25,0,1.725l-2.653,2.652
			c-0.475,0.475-1.25,0.475-1.725,0c-0.476-0.474-0.476-1.25,0-1.724l2.653-2.653C362.257,67.599,363.032,67.599,363.507,68.074"/>
		<path clip-path="url(#SVGID_18_)" fill="#77D2F2" d="M119.385,73.72L119.385,73.72c-0.561,0-1.021-0.459-1.021-1.02v-3.139
			c0-0.561,0.46-1.02,1.021-1.02s1.02,0.459,1.02,1.02V72.7C120.405,73.261,119.946,73.72,119.385,73.72"/>
		<path clip-path="url(#SVGID_18_)" fill="#77D2F2" d="M119.385,86.542L119.385,86.542c-0.561,0-1.021-0.459-1.021-1.02v-3.139
			c0-0.561,0.46-1.02,1.021-1.02s1.02,0.459,1.02,1.02v3.139C120.405,86.083,119.946,86.542,119.385,86.542"/>
		<path clip-path="url(#SVGID_18_)" fill="#77D2F2" d="M116.683,74.839L116.683,74.839c-0.396,0.397-1.046,0.397-1.442,0
			l-2.22-2.219c-0.397-0.397-0.397-1.046,0-1.443s1.046-0.397,1.443,0l2.219,2.22C117.08,73.793,117.08,74.443,116.683,74.839"/>
		<path clip-path="url(#SVGID_18_)" fill="#77D2F2" d="M125.75,83.906L125.75,83.906c-0.396,0.397-1.046,0.397-1.442,0l-2.22-2.219
			c-0.397-0.397-0.397-1.046,0-1.443s1.046-0.397,1.443,0l2.219,2.22C126.146,82.86,126.146,83.51,125.75,83.906"/>
		<path clip-path="url(#SVGID_18_)" fill="#77D2F2" d="M115.563,77.542L115.563,77.542c0,0.561-0.459,1.02-1.021,1.02h-3.138
			c-0.561,0-1.02-0.459-1.02-1.02s0.459-1.02,1.02-1.02h3.138C115.104,76.521,115.563,76.98,115.563,77.542"/>
		<path clip-path="url(#SVGID_18_)" fill="#77D2F2" d="M128.386,77.542L128.386,77.542c0,0.561-0.459,1.02-1.02,1.02h-3.139
			c-0.561,0-1.02-0.459-1.02-1.02s0.459-1.02,1.02-1.02h3.139C127.927,76.521,128.386,76.98,128.386,77.542"/>
		<path clip-path="url(#SVGID_18_)" fill="#77D2F2" d="M116.683,80.244L116.683,80.244c0.397,0.396,0.397,1.046,0,1.442l-2.219,2.22
			c-0.397,0.397-1.046,0.397-1.443,0s-0.397-1.046,0-1.443l2.22-2.219C115.637,79.847,116.287,79.847,116.683,80.244"/>
		<path clip-path="url(#SVGID_18_)" fill="#77D2F2" d="M125.75,71.177L125.75,71.177c0.397,0.397,0.397,1.046,0,1.443l-2.219,2.219
			c-0.397,0.397-1.046,0.397-1.443,0c-0.397-0.396-0.397-1.046,0-1.442l2.22-2.22C124.704,70.781,125.354,70.781,125.75,71.177"/>
		<path clip-path="url(#SVGID_18_)" fill="#F76F34" d="M71.731,220.006L71.731,220.006c-0.673,0-1.223-0.55-1.223-1.223v-3.763
			c0-0.673,0.55-1.223,1.223-1.223s1.223,0.55,1.223,1.223v3.763C72.954,219.456,72.404,220.006,71.731,220.006"/>
		<path clip-path="url(#SVGID_18_)" fill="#F76F34" d="M71.731,235.381L71.731,235.381c-0.673,0-1.223-0.551-1.223-1.224v-3.763
			c0-0.673,0.55-1.223,1.223-1.223s1.223,0.55,1.223,1.223v3.763C72.954,234.83,72.404,235.381,71.731,235.381"/>
		<path clip-path="url(#SVGID_18_)" fill="#F76F34" d="M68.491,221.348L68.491,221.348c-0.476,0.476-1.254,0.476-1.729,0
			l-2.662-2.661c-0.476-0.476-0.476-1.254,0-1.73c0.476-0.475,1.254-0.475,1.73,0l2.661,2.662
			C68.967,220.094,68.967,220.872,68.491,221.348"/>
		<path clip-path="url(#SVGID_18_)" fill="#F76F34" d="M79.362,232.219L79.362,232.219c-0.476,0.476-1.254,0.476-1.729,0
			l-2.662-2.661c-0.475-0.476-0.475-1.254,0-1.73c0.476-0.475,1.254-0.475,1.73,0l2.661,2.662
			C79.838,230.965,79.838,231.743,79.362,232.219"/>
		<path clip-path="url(#SVGID_18_)" fill="#F76F34" d="M67.148,224.588L67.148,224.588c0,0.673-0.55,1.223-1.223,1.223h-3.763
			c-0.673,0-1.223-0.55-1.223-1.223s0.55-1.223,1.223-1.223h3.763C66.599,223.365,67.148,223.916,67.148,224.588"/>
		<path clip-path="url(#SVGID_18_)" fill="#F76F34" d="M82.523,224.588L82.523,224.588c0,0.673-0.551,1.223-1.223,1.223h-3.764
			c-0.672,0-1.222-0.55-1.222-1.223s0.55-1.223,1.222-1.223H81.3C81.972,223.365,82.523,223.916,82.523,224.588"/>
		<path clip-path="url(#SVGID_18_)" fill="#F76F34" d="M68.491,227.829L68.491,227.829c0.476,0.476,0.476,1.254,0,1.729
			l-2.661,2.662c-0.476,0.475-1.254,0.475-1.73,0c-0.476-0.476-0.476-1.254,0-1.73l2.662-2.661
			C67.237,227.353,68.015,227.353,68.491,227.829"/>
		<path clip-path="url(#SVGID_18_)" fill="#F76F34" d="M79.362,216.958L79.362,216.958c0.476,0.476,0.476,1.254,0,1.729
			l-2.661,2.662c-0.476,0.475-1.254,0.475-1.73,0c-0.475-0.476-0.475-1.254,0-1.73l2.662-2.661
			C78.108,216.481,78.886,216.481,79.362,216.958"/>
		<path clip-path="url(#SVGID_18_)" fill="#ED393D" d="M430.723,73.313c-1.96,0-3.697,0.95-4.777,2.415
			c-1.081-1.465-2.817-2.415-4.777-2.415c-3.277,0-5.934,2.657-5.934,5.934c0,4.881,10.441,12.837,10.711,13.042l0.016-0.019
			l-0.01,0.024c0,0,10.705-7.915,10.705-13.047C436.656,75.971,434,73.313,430.723,73.313"/>
		<path clip-path="url(#SVGID_18_)" fill="#ED393D" d="M176.159,58.955c-1.71-0.008-3.23,0.814-4.18,2.088
			c-0.937-1.282-2.449-2.119-4.16-2.127c-2.861-0.013-5.191,2.295-5.204,5.156c-0.02,4.261,9.063,11.248,9.297,11.428l0.014-0.017
			l-0.008,0.021c0,0,9.376-6.866,9.397-11.345C181.328,61.298,179.02,58.968,176.159,58.955"/>
		<path clip-path="url(#SVGID_18_)" fill="#ED393D" d="M328.26,192.007c-4.682,4.681-6.65,12.103-7.072,18.226l-13.232,6.337
			c0,0,4.51,3.503,14.787,4.608c1.281,2.936,3.115,5.69,5.518,8.093c10.29,10.29,26.974,10.29,37.265,0
			c10.29-10.29,10.29-26.974,0-37.264C355.233,181.716,338.55,181.716,328.26,192.007"/>
		<path clip-path="url(#SVGID_18_)" fill="#FFFFFF" d="M335.939,201.016h2.501c1.14,0,1.967,0.162,2.481,0.487
			c0.516,0.324,0.772,0.84,0.772,1.547c0,0.48-0.112,0.874-0.338,1.182c-0.226,0.307-0.524,0.492-0.898,0.555v0.055
			c0.509,0.113,0.876,0.326,1.102,0.637c0.226,0.312,0.338,0.726,0.338,1.242c0,0.733-0.265,1.305-0.794,1.716
			c-0.529,0.41-1.249,0.615-2.157,0.615h-3.007V201.016z M337.644,204.198h0.989c0.462,0,0.796-0.071,1.003-0.214
			c0.207-0.142,0.311-0.379,0.311-0.709c0-0.307-0.112-0.529-0.338-0.662c-0.226-0.134-0.582-0.201-1.068-0.201h-0.896V204.198z
			 M337.644,205.551v2.094h1.11c0.469,0,0.815-0.09,1.039-0.269c0.224-0.18,0.335-0.455,0.335-0.825c0-0.667-0.477-1-1.429-1
			H337.644z"/>
		<path clip-path="url(#SVGID_18_)" fill="#FFFFFF" d="M350.044,201.016v5.2c0,0.594-0.133,1.114-0.398,1.561
			c-0.266,0.447-0.649,0.79-1.151,1.028c-0.502,0.238-1.097,0.357-1.781,0.357c-1.033,0-1.836-0.265-2.407-0.794
			c-0.573-0.529-0.857-1.254-0.857-2.174v-5.178h1.698v4.92c0,0.619,0.124,1.074,0.374,1.363c0.249,0.289,0.661,0.434,1.236,0.434
			c0.557,0,0.961-0.146,1.212-0.437s0.377-0.748,0.377-1.371v-4.909H350.044z"/>
		<polygon clip-path="url(#SVGID_18_)" fill="#FFFFFF" points="354.513,204.325 356.189,201.016 358.025,201.016 355.359,205.925 
			355.359,209.052 353.666,209.052 353.666,205.979 351,201.016 352.848,201.016 		"/>
		<path clip-path="url(#SVGID_18_)" fill="#FFFFFF" d="M340.12,221.037h-2.166l-3.496-6.08h-0.05c0.07,1.074,0.104,1.84,0.104,2.298
			v3.782h-1.522v-8.036h2.149l3.49,6.018h0.038c-0.055-1.044-0.082-1.782-0.082-2.214v-3.804h1.534V221.037z"/>
		<path clip-path="url(#SVGID_18_)" fill="#FFFFFF" d="M349.437,217.008c0,1.33-0.33,2.353-0.989,3.067
			c-0.66,0.715-1.605,1.072-2.836,1.072c-1.231,0-2.177-0.357-2.837-1.072c-0.659-0.714-0.989-1.74-0.989-3.078
			c0-1.338,0.331-2.359,0.992-3.064c0.661-0.706,1.609-1.058,2.845-1.058c1.234,0,2.179,0.355,2.833,1.066
			S349.437,215.674,349.437,217.008 M343.571,217.008c0,0.898,0.171,1.574,0.512,2.028c0.341,0.455,0.85,0.682,1.528,0.682
			c1.359,0,2.039-0.903,2.039-2.71c0-1.81-0.677-2.715-2.028-2.715c-0.678,0-1.189,0.228-1.534,0.684
			C343.744,215.433,343.571,216.11,343.571,217.008"/>
		<path clip-path="url(#SVGID_18_)" fill="#FFFFFF" d="M358.93,221.037h-1.94l-1.089-4.222c-0.04-0.15-0.108-0.461-0.206-0.931
			c-0.097-0.471-0.152-0.787-0.167-0.949c-0.022,0.198-0.076,0.516-0.165,0.954c-0.088,0.438-0.156,0.751-0.204,0.938l-1.082,4.21
			h-1.936l-2.05-8.036h1.677l1.027,4.386c0.18,0.81,0.31,1.512,0.391,2.105c0.021-0.208,0.072-0.532,0.151-0.97
			c0.078-0.438,0.152-0.777,0.223-1.02l1.17-4.501h1.611l1.171,4.501c0.051,0.202,0.115,0.51,0.192,0.924
			c0.076,0.414,0.135,0.77,0.176,1.066c0.036-0.286,0.095-0.642,0.176-1.069c0.08-0.427,0.153-0.772,0.22-1.036l1.022-4.386h1.677
			L358.93,221.037z"/>
		<path clip-path="url(#SVGID_18_)" fill="#77D2F2" d="M103.12,200.58c9.644-5.837,16.091-16.426,16.091-28.521
			c0-18.4-14.916-33.315-33.315-33.315c-18.4,0-33.315,14.915-33.315,33.315c0,18.399,14.915,33.314,33.315,33.314
			c1.966,0,3.888-0.179,5.761-0.506c8.511,7.271,20.122,2.728,20.122,2.728C108.663,207.115,105.249,203.349,103.12,200.58"/>
		<polygon clip-path="url(#SVGID_18_)" fill="#FFFFFF" points="77.406,161.281 77.396,162.673 73.741,162.673 73.741,164.5 
			77.098,164.5 77.098,165.902 73.741,165.902 73.741,168.717 72.063,168.717 72.063,161.281 		"/>
		<path clip-path="url(#SVGID_18_)" fill="#FFFFFF" d="M82.954,168.716l-1.179-2.125h-0.159h-1.551v2.125h-1.678v-7.436h3.229
			c1.944,0,3.049,0.935,3.049,2.581c0,1.148-0.489,1.976-1.392,2.401l1.583,2.454H82.954z M80.064,165.189h1.551
			c0.924,0,1.455-0.424,1.455-1.274c0-0.829-0.531-1.243-1.455-1.243h-1.551V165.189z"/>
		<polygon clip-path="url(#SVGID_18_)" fill="#FFFFFF" points="91.743,161.281 91.743,162.673 87.76,162.673 87.76,164.287 
			91.339,164.287 91.339,165.678 87.76,165.678 87.76,167.325 91.86,167.325 91.86,168.717 86.081,168.717 86.081,161.281 		"/>
		<polygon clip-path="url(#SVGID_18_)" fill="#FFFFFF" points="98.842,161.281 98.842,162.673 94.859,162.673 94.859,164.287 
			98.438,164.287 98.438,165.678 94.859,165.678 94.859,167.325 98.959,167.325 98.959,168.717 93.18,168.717 93.18,161.281 		"/>
		<path clip-path="url(#SVGID_18_)" fill="#FFFFFF" d="M62.507,175.394c-0.563,0-0.945,0.202-0.945,0.605
			c0,1.371,3.962,0.605,3.951,3.283c0,1.455-1.264,2.241-2.91,2.241c-1.222,0-2.443-0.468-3.283-1.179l0.67-1.37
			c0.765,0.679,1.848,1.115,2.634,1.115c0.691,0,1.105-0.255,1.105-0.712c0-1.402-3.962-0.584-3.962-3.218
			c0-1.349,1.157-2.199,2.878-2.199c1.041,0,2.082,0.318,2.826,0.807l-0.648,1.392C64.037,175.691,63.102,175.394,62.507,175.394"/>
		<polygon clip-path="url(#SVGID_18_)" fill="#FFFFFF" points="68.374,174.034 68.374,177.136 71.742,177.136 71.742,174.034 
			73.419,174.034 73.419,181.47 71.742,181.47 71.742,178.538 68.374,178.538 68.374,181.47 66.696,181.47 66.696,174.034 		"/>
		<rect x="75.06" y="174.034" clip-path="url(#SVGID_18_)" fill="#FFFFFF" width="1.678" height="7.436"/>
		<path clip-path="url(#SVGID_18_)" fill="#FFFFFF" d="M84.516,176.616c0,1.732-1.084,2.73-2.974,2.73h-1.477v2.124h-1.678v-7.435
			h3.155C83.432,174.035,84.516,174.97,84.516,176.616 M82.922,176.668c0-0.828-0.532-1.243-1.466-1.243h-1.392v2.517h1.392
			C82.391,177.942,82.922,177.519,82.922,176.668"/>
		<path clip-path="url(#SVGID_18_)" fill="#FFFFFF" d="M91.721,176.616c0,1.732-1.084,2.73-2.974,2.73H87.27v2.124h-1.678v-7.435
			h3.155C90.637,174.035,91.721,174.97,91.721,176.616 M90.128,176.668c0-0.828-0.532-1.243-1.466-1.243H87.27v2.517h1.392
			C89.596,177.942,90.128,177.519,90.128,176.668"/>
		<rect x="92.798" y="174.034" clip-path="url(#SVGID_18_)" fill="#FFFFFF" width="1.678" height="7.436"/>
		<polygon clip-path="url(#SVGID_18_)" fill="#FFFFFF" points="97.653,174.034 101.265,178.814 101.265,174.034 102.858,174.034 
			102.858,181.47 101.328,181.47 97.728,176.7 97.728,181.47 96.123,181.47 96.123,174.034 		"/>
		<path clip-path="url(#SVGID_18_)" fill="#FFFFFF" d="M109.491,177.72h1.455v2.858c-0.786,0.573-1.986,0.966-3.017,0.966
			c-2.251,0-3.961-1.636-3.961-3.792c0-2.145,1.741-3.771,4.057-3.771c1.105,0,2.231,0.425,2.985,1.084l-0.945,1.2
			c-0.553-0.51-1.318-0.829-2.04-0.829c-1.317,0-2.337,1.01-2.337,2.316c0,1.318,1.031,2.326,2.348,2.326
			c0.446,0,0.977-0.159,1.455-0.403V177.72z"/>
	</g>
	<g display="none" clip-path="url(#SVGID_17_)">
		<defs>
			<rect id="SVGID_2_" width="500" height="500"/>
		</defs>
		<clipPath id="SVGID_32_" display="inline">
			<use xlink:href="#SVGID_2_"  display="none" overflow="visible"/>
		</clipPath>
		<path clip-path="url(#SVGID_32_)" fill="#E5CD88" d="M180.308,486.856v-0.16c-0.218,0.249-0.433,0.452-0.644,0.607
			c-0.212,0.157-0.441,0.277-0.689,0.356c-0.247,0.083-0.517,0.122-0.81,0.122c-0.388,0-0.747-0.081-1.078-0.246
			c-0.33-0.163-0.616-0.398-0.857-0.703c-0.242-0.305-0.425-0.662-0.549-1.074c-0.125-0.412-0.187-0.857-0.187-1.336
			c0-1.013,0.247-1.804,0.742-2.369c0.494-0.565,1.145-0.848,1.953-0.848c0.467,0,0.861,0.08,1.181,0.239
			c0.321,0.16,0.633,0.407,0.938,0.739v-2.393c0-0.332,0.066-0.583,0.199-0.752c0.132-0.172,0.321-0.257,0.567-0.257
			c0.245,0,0.434,0.078,0.567,0.234c0.132,0.157,0.198,0.387,0.198,0.691v7.147c0,0.309-0.071,0.54-0.213,0.694
			c-0.143,0.155-0.326,0.231-0.552,0.231c-0.222,0-0.405-0.08-0.55-0.239C180.379,487.382,180.308,487.153,180.308,486.856
			 M177.12,484.477c0,0.439,0.068,0.813,0.205,1.121c0.137,0.31,0.323,0.542,0.561,0.697c0.237,0.157,0.497,0.236,0.777,0.236
			c0.286,0,0.545-0.075,0.781-0.224c0.236-0.148,0.424-0.376,0.564-0.682c0.141-0.308,0.211-0.691,0.211-1.149
			c0-0.432-0.07-0.803-0.211-1.114c-0.14-0.31-0.33-0.548-0.57-0.712c-0.239-0.164-0.502-0.246-0.786-0.246
			c-0.297,0-0.562,0.085-0.796,0.253c-0.233,0.167-0.414,0.408-0.543,0.724C177.184,483.695,177.12,484.061,177.12,484.477"/>
		<path clip-path="url(#SVGID_32_)" fill="#E5CD88" d="M187.453,484.887h-3.169c0.004,0.367,0.078,0.691,0.223,0.973
			c0.144,0.281,0.336,0.493,0.575,0.636c0.24,0.143,0.504,0.213,0.793,0.213c0.194,0,0.37-0.022,0.531-0.067
			c0.161-0.047,0.316-0.116,0.466-0.214c0.151-0.097,0.289-0.201,0.416-0.313c0.126-0.111,0.29-0.262,0.492-0.451
			c0.083-0.071,0.202-0.107,0.357-0.107c0.166,0,0.3,0.047,0.403,0.138c0.103,0.092,0.155,0.219,0.155,0.386
			c0,0.146-0.058,0.316-0.172,0.514c-0.116,0.195-0.289,0.384-0.52,0.563c-0.232,0.18-0.522,0.329-0.873,0.448
			c-0.35,0.119-0.753,0.178-1.208,0.178c-1.04,0-1.85-0.297-2.428-0.89c-0.577-0.594-0.866-1.399-0.866-2.416
			c0-0.479,0.071-0.924,0.213-1.333c0.143-0.41,0.351-0.761,0.624-1.054s0.609-0.517,1.009-0.674
			c0.399-0.156,0.843-0.233,1.33-0.233c0.633,0,1.176,0.132,1.628,0.4c0.454,0.267,0.794,0.611,1.019,1.035
			c0.225,0.423,0.338,0.855,0.338,1.294c0,0.407-0.116,0.672-0.35,0.793C188.206,484.825,187.877,484.887,187.453,484.887
			 M184.284,483.966h2.938c-0.039-0.554-0.189-0.969-0.448-1.244c-0.259-0.274-0.6-0.412-1.024-0.412
			c-0.404,0-0.735,0.139-0.994,0.418C184.496,483.007,184.34,483.42,184.284,483.966"/>
		<path clip-path="url(#SVGID_32_)" fill="#E5CD88" d="M194.838,485.663c0,0.447-0.108,0.83-0.327,1.149
			c-0.216,0.318-0.538,0.56-0.964,0.724c-0.425,0.165-0.943,0.246-1.552,0.246c-0.582,0-1.081-0.089-1.496-0.267
			s-0.723-0.401-0.92-0.668c-0.198-0.268-0.297-0.535-0.297-0.805c0-0.178,0.063-0.33,0.19-0.456c0.127-0.127,0.287-0.19,0.481-0.19
			c0.17,0,0.3,0.042,0.391,0.125c0.092,0.083,0.179,0.2,0.261,0.35c0.167,0.29,0.366,0.504,0.598,0.647
			c0.231,0.143,0.546,0.214,0.947,0.214c0.324,0,0.59-0.073,0.798-0.217c0.207-0.146,0.311-0.311,0.311-0.496
			c0-0.285-0.108-0.492-0.323-0.623c-0.216-0.131-0.572-0.256-1.066-0.375c-0.558-0.138-1.012-0.283-1.363-0.436
			c-0.35-0.151-0.629-0.354-0.839-0.603s-0.315-0.557-0.315-0.92c0-0.324,0.097-0.631,0.291-0.921
			c0.194-0.288,0.48-0.519,0.859-0.69c0.377-0.173,0.833-0.259,1.367-0.259c0.42,0,0.797,0.043,1.131,0.131
			c0.335,0.086,0.614,0.204,0.837,0.351c0.224,0.146,0.394,0.309,0.51,0.485c0.117,0.179,0.175,0.353,0.175,0.524
			c0,0.185-0.062,0.337-0.186,0.456c-0.125,0.118-0.302,0.179-0.532,0.179c-0.166,0-0.308-0.048-0.424-0.144
			c-0.117-0.095-0.251-0.237-0.401-0.427c-0.122-0.158-0.266-0.285-0.433-0.38c-0.166-0.096-0.392-0.143-0.677-0.143
			c-0.293,0-0.536,0.062-0.73,0.188c-0.194,0.124-0.291,0.279-0.291,0.465c0,0.171,0.071,0.311,0.214,0.419
			c0.142,0.109,0.334,0.199,0.576,0.271c0.241,0.07,0.573,0.158,0.997,0.261c0.502,0.123,0.913,0.27,1.232,0.439
			c0.318,0.169,0.559,0.371,0.724,0.603C194.756,485.103,194.838,485.366,194.838,485.663"/>
		<path clip-path="url(#SVGID_32_)" fill="#E5CD88" d="M196.493,480.44c-0.225,0-0.418-0.07-0.578-0.209
			c-0.161-0.138-0.241-0.333-0.241-0.587c0-0.23,0.082-0.418,0.246-0.567c0.165-0.149,0.356-0.223,0.573-0.223
			c0.21,0,0.396,0.067,0.558,0.202s0.244,0.33,0.244,0.588c0,0.249-0.08,0.444-0.238,0.584
			C196.899,480.369,196.711,480.44,196.493,480.44 M197.295,482.113v4.684c0,0.325-0.078,0.57-0.232,0.736
			c-0.155,0.166-0.35,0.249-0.588,0.249c-0.237,0-0.43-0.084-0.578-0.255c-0.149-0.17-0.223-0.414-0.223-0.73v-4.637
			c0-0.319,0.074-0.562,0.223-0.724c0.148-0.162,0.341-0.243,0.578-0.243c0.238,0,0.433,0.081,0.588,0.243
			C197.217,481.599,197.295,481.825,197.295,482.113"/>
		<path clip-path="url(#SVGID_32_)" fill="#E5CD88" d="M204.395,482.381v4.707c0,0.538-0.058,1.002-0.173,1.39
			c-0.114,0.387-0.298,0.708-0.552,0.962c-0.253,0.252-0.585,0.441-0.994,0.563c-0.41,0.124-0.919,0.185-1.529,0.185
			c-0.558,0-1.056-0.078-1.496-0.234c-0.439-0.156-0.777-0.358-1.015-0.605c-0.237-0.247-0.356-0.502-0.356-0.763
			c0-0.198,0.067-0.359,0.202-0.483c0.134-0.125,0.297-0.187,0.487-0.187c0.237,0,0.445,0.104,0.623,0.313
			c0.086,0.106,0.177,0.216,0.27,0.324c0.093,0.109,0.196,0.202,0.309,0.279c0.112,0.076,0.248,0.134,0.406,0.172
			c0.159,0.036,0.341,0.056,0.546,0.056c0.42,0,0.745-0.058,0.977-0.175c0.232-0.116,0.394-0.28,0.487-0.49
			c0.093-0.209,0.147-0.434,0.163-0.673c0.016-0.24,0.028-0.625,0.035-1.156c-0.249,0.35-0.536,0.615-0.863,0.797
			c-0.327,0.182-0.716,0.273-1.166,0.273c-0.543,0-1.016-0.138-1.423-0.416c-0.405-0.277-0.717-0.665-0.934-1.163
			c-0.218-0.5-0.326-1.074-0.326-1.728c0-0.486,0.065-0.927,0.198-1.317c0.133-0.393,0.322-0.722,0.567-0.992
			c0.246-0.27,0.528-0.472,0.849-0.608c0.32-0.137,0.673-0.204,1.056-0.204c0.459,0,0.857,0.088,1.194,0.263
			c0.336,0.178,0.649,0.453,0.938,0.829v-0.221c0-0.28,0.069-0.496,0.207-0.652c0.139-0.154,0.317-0.231,0.535-0.231
			c0.312,0,0.52,0.103,0.623,0.306C204.343,481.703,204.395,481.997,204.395,482.381 M199.699,484.435
			c0,0.657,0.143,1.154,0.43,1.49c0.287,0.337,0.658,0.505,1.113,0.505c0.269,0,0.523-0.073,0.763-0.217
			c0.239-0.145,0.434-0.362,0.585-0.653c0.15-0.291,0.226-0.644,0.226-1.06c0-0.66-0.146-1.176-0.437-1.543
			c-0.291-0.368-0.674-0.553-1.149-0.553c-0.463,0-0.834,0.177-1.113,0.529C199.838,483.285,199.699,483.786,199.699,484.435"/>
		<path clip-path="url(#SVGID_32_)" fill="#E5CD88" d="M206.97,482.09v0.196c0.285-0.376,0.597-0.652,0.935-0.829
			c0.338-0.176,0.727-0.264,1.166-0.264c0.428,0,0.81,0.093,1.146,0.279s0.588,0.449,0.754,0.789
			c0.107,0.198,0.176,0.412,0.207,0.64c0.032,0.231,0.049,0.524,0.049,0.88v3.016c0,0.325-0.075,0.57-0.223,0.736
			c-0.149,0.166-0.342,0.249-0.579,0.249c-0.242,0-0.437-0.084-0.588-0.256c-0.15-0.169-0.225-0.413-0.225-0.729v-2.701
			c0-0.534-0.075-0.943-0.223-1.226s-0.444-0.426-0.888-0.426c-0.288,0-0.552,0.087-0.789,0.26c-0.238,0.173-0.411,0.409-0.522,0.71
			c-0.079,0.241-0.119,0.691-0.119,1.353v2.03c0,0.328-0.077,0.575-0.228,0.739c-0.153,0.165-0.35,0.246-0.591,0.246
			c-0.234,0-0.426-0.084-0.576-0.256c-0.15-0.169-0.226-0.413-0.226-0.729v-4.684c0-0.309,0.067-0.539,0.202-0.691
			c0.135-0.152,0.319-0.229,0.552-0.229c0.143,0,0.271,0.033,0.387,0.102c0.114,0.066,0.206,0.168,0.275,0.302
			C206.936,481.731,206.97,481.896,206.97,482.09"/>
		<path clip-path="url(#SVGID_32_)" fill="#E5CD88" d="M216.829,484.887h-3.17c0.004,0.367,0.078,0.691,0.223,0.973
			c0.144,0.281,0.336,0.493,0.576,0.636c0.239,0.143,0.503,0.213,0.792,0.213c0.194,0,0.371-0.022,0.532-0.067
			c0.159-0.047,0.315-0.116,0.465-0.214c0.15-0.097,0.289-0.201,0.416-0.313c0.126-0.111,0.29-0.262,0.493-0.451
			c0.083-0.071,0.201-0.107,0.356-0.107c0.166,0,0.301,0.047,0.403,0.138c0.103,0.092,0.155,0.219,0.155,0.386
			c0,0.146-0.057,0.316-0.173,0.514c-0.114,0.195-0.288,0.384-0.519,0.563c-0.232,0.18-0.522,0.329-0.872,0.448
			c-0.351,0.119-0.754,0.178-1.209,0.178c-1.04,0-1.849-0.297-2.428-0.89c-0.577-0.594-0.866-1.399-0.866-2.416
			c0-0.479,0.071-0.924,0.213-1.333c0.143-0.41,0.351-0.761,0.624-1.054s0.61-0.517,1.009-0.674c0.399-0.156,0.843-0.233,1.33-0.233
			c0.633,0,1.175,0.132,1.628,0.4c0.454,0.267,0.793,0.611,1.019,1.035c0.226,0.423,0.339,0.855,0.339,1.294
			c0,0.407-0.117,0.672-0.351,0.793C217.581,484.825,217.253,484.887,216.829,484.887 M213.659,483.966h2.938
			c-0.039-0.554-0.188-0.969-0.448-1.244c-0.259-0.274-0.6-0.412-1.024-0.412c-0.404,0-0.735,0.139-0.994,0.418
			C213.871,483.007,213.715,483.42,213.659,483.966"/>
		<path clip-path="url(#SVGID_32_)" fill="#E5CD88" d="M223.436,486.856v-0.16c-0.218,0.249-0.433,0.452-0.645,0.607
			c-0.211,0.157-0.44,0.277-0.688,0.356c-0.247,0.083-0.517,0.122-0.81,0.122c-0.388,0-0.747-0.081-1.077-0.246
			c-0.331-0.163-0.617-0.398-0.858-0.703c-0.242-0.305-0.425-0.662-0.549-1.074c-0.125-0.412-0.187-0.857-0.187-1.336
			c0-1.013,0.247-1.804,0.742-2.369c0.494-0.565,1.145-0.848,1.953-0.848c0.467,0,0.861,0.08,1.181,0.239
			c0.32,0.16,0.633,0.407,0.938,0.739v-2.393c0-0.332,0.066-0.583,0.199-0.752c0.132-0.172,0.321-0.257,0.567-0.257
			c0.245,0,0.434,0.078,0.567,0.234c0.132,0.157,0.198,0.387,0.198,0.691v7.147c0,0.309-0.071,0.54-0.213,0.694
			c-0.143,0.155-0.326,0.231-0.552,0.231c-0.222,0-0.405-0.08-0.55-0.239C223.508,487.382,223.436,487.153,223.436,486.856
			 M220.248,484.477c0,0.439,0.068,0.813,0.205,1.121c0.136,0.31,0.323,0.542,0.561,0.697c0.237,0.157,0.496,0.236,0.777,0.236
			c0.286,0,0.546-0.075,0.781-0.224c0.236-0.148,0.424-0.376,0.564-0.682c0.14-0.308,0.211-0.691,0.211-1.149
			c0-0.432-0.071-0.803-0.211-1.114c-0.14-0.31-0.33-0.548-0.57-0.712c-0.24-0.164-0.502-0.246-0.787-0.246
			c-0.296,0-0.562,0.085-0.795,0.253c-0.233,0.167-0.414,0.408-0.543,0.724C220.312,483.695,220.248,484.061,220.248,484.477"/>
		<path clip-path="url(#SVGID_32_)" fill="#E5CD88" d="M230.059,479.709v2.476c0.304-0.316,0.615-0.56,0.931-0.728
			c0.317-0.167,0.709-0.252,1.176-0.252c0.538,0,1.01,0.128,1.416,0.382c0.405,0.257,0.72,0.627,0.944,1.111
			c0.223,0.484,0.336,1.06,0.336,1.725c0,0.491-0.063,0.94-0.187,1.351c-0.125,0.409-0.307,0.765-0.544,1.065
			c-0.238,0.301-0.525,0.533-0.864,0.697c-0.338,0.165-0.711,0.246-1.118,0.246c-0.25,0-0.485-0.03-0.704-0.089
			c-0.22-0.059-0.407-0.137-0.561-0.234c-0.154-0.097-0.286-0.196-0.395-0.3c-0.109-0.103-0.252-0.258-0.43-0.463v0.16
			c0,0.305-0.073,0.535-0.22,0.692c-0.146,0.156-0.332,0.233-0.558,0.233c-0.229,0-0.413-0.077-0.549-0.233
			c-0.137-0.157-0.205-0.388-0.205-0.692v-7.076c0-0.328,0.067-0.577,0.199-0.745c0.133-0.167,0.318-0.252,0.555-0.252
			c0.25,0,0.441,0.08,0.576,0.24C229.991,479.185,230.059,479.412,230.059,479.709 M230.136,484.523
			c0,0.646,0.147,1.141,0.442,1.486c0.295,0.347,0.682,0.521,1.161,0.521c0.407,0,0.758-0.178,1.053-0.532
			c0.295-0.354,0.442-0.861,0.442-1.522c0-0.428-0.06-0.796-0.183-1.104s-0.297-0.548-0.522-0.715
			c-0.226-0.168-0.49-0.253-0.79-0.253c-0.309,0-0.584,0.085-0.826,0.253c-0.241,0.167-0.431,0.411-0.569,0.729
			C230.205,483.705,230.136,484.084,230.136,484.523"/>
		<path clip-path="url(#SVGID_32_)" fill="#E5CD88" d="M236.962,487.984l0.148-0.362l-1.994-5.021
			c-0.123-0.289-0.184-0.499-0.184-0.63c0-0.139,0.035-0.267,0.107-0.385c0.071-0.119,0.169-0.215,0.293-0.285
			c0.125-0.072,0.255-0.107,0.389-0.107c0.234,0,0.409,0.074,0.529,0.223c0.119,0.148,0.223,0.36,0.314,0.638l1.372,3.989l1.3-3.71
			c0.102-0.3,0.195-0.535,0.279-0.706c0.083-0.171,0.171-0.285,0.263-0.344c0.093-0.061,0.226-0.09,0.395-0.09
			c0.124,0,0.241,0.032,0.354,0.098c0.113,0.065,0.2,0.153,0.261,0.265c0.061,0.11,0.092,0.228,0.092,0.35
			c-0.016,0.075-0.041,0.182-0.077,0.321c-0.036,0.138-0.079,0.279-0.131,0.421l-2.113,5.533c-0.182,0.486-0.36,0.868-0.535,1.145
			c-0.174,0.277-0.404,0.491-0.691,0.639c-0.287,0.149-0.674,0.223-1.161,0.223c-0.474,0-0.831-0.051-1.067-0.153
			c-0.239-0.104-0.357-0.292-0.357-0.564c0-0.186,0.056-0.33,0.17-0.431c0.112-0.101,0.279-0.152,0.5-0.152
			c0.087,0,0.173,0.013,0.256,0.037c0.103,0.023,0.192,0.035,0.267,0.035c0.186,0,0.333-0.027,0.439-0.084
			c0.107-0.055,0.203-0.15,0.288-0.288C236.753,488.451,236.852,488.249,236.962,487.984"/>
		<path clip-path="url(#SVGID_32_)" fill="#E5CD88" d="M260.439,481.334h0.387v-0.487c0-0.509,0.062-0.91,0.191-1.211
			c0.127-0.299,0.347-0.516,0.654-0.652c0.307-0.136,0.727-0.204,1.26-0.204c0.95,0,1.421,0.229,1.421,0.696
			c0,0.149-0.05,0.277-0.15,0.385c-0.097,0.105-0.214,0.161-0.349,0.161c-0.063,0-0.174-0.013-0.329-0.039
			c-0.147-0.021-0.283-0.034-0.39-0.034c-0.292,0-0.479,0.088-0.565,0.259c-0.08,0.173-0.122,0.419-0.122,0.741v0.386h0.396
			c0.619,0,0.926,0.186,0.926,0.56c0,0.262-0.08,0.432-0.246,0.503c-0.163,0.071-0.39,0.106-0.68,0.106h-0.396v4.295
			c0,0.319-0.075,0.563-0.231,0.729c-0.15,0.171-0.346,0.254-0.589,0.254c-0.229,0-0.418-0.083-0.573-0.254
			c-0.153-0.167-0.228-0.41-0.228-0.729v-4.295h-0.446c-0.243,0-0.427-0.053-0.559-0.163c-0.131-0.107-0.196-0.25-0.196-0.424
			C259.625,481.526,259.896,481.334,260.439,481.334"/>
		<path clip-path="url(#SVGID_32_)" fill="#E5CD88" d="M265.745,485.442v1.355c0,0.327-0.083,0.574-0.233,0.737
			c-0.154,0.166-0.35,0.246-0.586,0.246c-0.239,0-0.43-0.082-0.579-0.25c-0.148-0.165-0.226-0.41-0.226-0.733v-4.515
			c0-0.729,0.263-1.093,0.788-1.093c0.271,0,0.464,0.084,0.583,0.255s0.185,0.421,0.198,0.755c0.192-0.334,0.391-0.584,0.593-0.755
			c0.208-0.171,0.477-0.255,0.818-0.255c0.344,0,0.671,0.084,0.991,0.255c0.322,0.171,0.481,0.398,0.481,0.678
			c0,0.197-0.068,0.363-0.203,0.488c-0.138,0.131-0.284,0.195-0.441,0.195c-0.063,0-0.207-0.039-0.433-0.112
			c-0.229-0.071-0.431-0.108-0.603-0.108c-0.237,0-0.433,0.064-0.582,0.187c-0.151,0.128-0.269,0.311-0.353,0.554
			c-0.081,0.247-0.137,0.541-0.17,0.878C265.759,484.543,265.745,484.956,265.745,485.442"/>
		<path clip-path="url(#SVGID_32_)" fill="#E5CD88" d="M273.195,484.885h-3.171c0.006,0.367,0.077,0.693,0.222,0.975
			c0.146,0.278,0.337,0.491,0.578,0.635c0.24,0.143,0.502,0.212,0.792,0.212c0.194,0,0.371-0.021,0.531-0.069
			c0.159-0.043,0.315-0.115,0.466-0.213c0.151-0.095,0.288-0.199,0.415-0.313c0.127-0.109,0.292-0.26,0.494-0.449
			c0.084-0.07,0.202-0.108,0.355-0.108c0.167,0,0.301,0.046,0.405,0.139c0.104,0.092,0.152,0.219,0.152,0.386
			c0,0.146-0.057,0.317-0.167,0.512c-0.117,0.198-0.29,0.386-0.522,0.566c-0.234,0.179-0.524,0.33-0.874,0.446
			c-0.35,0.119-0.754,0.179-1.207,0.179c-1.044,0-1.853-0.295-2.43-0.889c-0.577-0.595-0.869-1.401-0.869-2.417
			c0-0.479,0.073-0.925,0.217-1.335c0.141-0.411,0.349-0.76,0.625-1.055c0.271-0.294,0.605-0.518,1.007-0.674
			c0.399-0.155,0.842-0.233,1.33-0.233c0.632,0,1.176,0.134,1.629,0.403c0.453,0.265,0.797,0.61,1.019,1.034
			c0.226,0.425,0.339,0.854,0.339,1.296c0,0.405-0.118,0.669-0.351,0.791C273.947,484.824,273.619,484.885,273.195,484.885
			 M270.024,483.963h2.938c-0.039-0.553-0.187-0.969-0.446-1.241c-0.263-0.276-0.6-0.413-1.025-0.413
			c-0.403,0-0.735,0.138-0.995,0.418C270.237,483.006,270.079,483.417,270.024,483.963"/>
		<path clip-path="url(#SVGID_32_)" fill="#E5CD88" d="M279.938,484.885h-3.171c0.004,0.367,0.078,0.693,0.222,0.975
			c0.145,0.278,0.337,0.491,0.576,0.635c0.239,0.143,0.503,0.212,0.794,0.212c0.192,0,0.371-0.021,0.528-0.069
			c0.162-0.043,0.316-0.115,0.469-0.213c0.151-0.095,0.287-0.199,0.415-0.313c0.124-0.109,0.29-0.26,0.492-0.449
			c0.085-0.07,0.204-0.108,0.355-0.108c0.168,0,0.302,0.046,0.406,0.139c0.104,0.092,0.15,0.219,0.15,0.386
			c0,0.146-0.055,0.317-0.171,0.512c-0.11,0.198-0.284,0.386-0.519,0.566c-0.231,0.179-0.525,0.33-0.872,0.446
			c-0.349,0.119-0.755,0.179-1.21,0.179c-1.041,0-1.849-0.295-2.429-0.889c-0.577-0.595-0.868-1.401-0.868-2.417
			c0-0.479,0.073-0.925,0.218-1.335c0.142-0.411,0.349-0.76,0.622-1.055c0.272-0.294,0.608-0.518,1.009-0.674
			c0.398-0.155,0.845-0.233,1.331-0.233c0.63,0,1.174,0.134,1.633,0.403c0.45,0.265,0.791,0.61,1.014,1.034
			c0.225,0.425,0.341,0.854,0.341,1.296c0,0.405-0.12,0.669-0.352,0.791C280.688,484.824,280.36,484.885,279.938,484.885
			 M276.767,483.963h2.938c-0.04-0.553-0.189-0.969-0.447-1.241c-0.263-0.276-0.601-0.413-1.026-0.413
			c-0.403,0-0.735,0.138-0.995,0.418C276.979,483.006,276.819,483.417,276.767,483.963"/>
		<path clip-path="url(#SVGID_32_)" fill="#E5CD88" d="M283.487,482.102v0.194c0.304-0.375,0.621-0.652,0.953-0.827
			c0.324-0.178,0.698-0.267,1.113-0.267c0.497,0,0.96,0.13,1.38,0.386c0.418,0.259,0.749,0.635,0.993,1.129
			c0.243,0.497,0.366,1.081,0.366,1.759c0,0.497-0.07,0.956-0.21,1.375c-0.14,0.418-0.336,0.767-0.581,1.05
			c-0.245,0.281-0.534,0.501-0.868,0.654c-0.339,0.15-0.694,0.227-1.08,0.227c-0.461,0-0.853-0.093-1.165-0.279
			c-0.314-0.183-0.614-0.459-0.901-0.816v2.433c0,0.71-0.261,1.068-0.777,1.068c-0.307,0-0.506-0.091-0.607-0.273
			c-0.095-0.188-0.146-0.453-0.146-0.808v-6.995c0-0.31,0.066-0.537,0.2-0.692c0.134-0.149,0.319-0.228,0.553-0.228
			c0.23,0,0.416,0.078,0.559,0.233C283.417,481.583,283.487,481.806,283.487,482.102 M286.665,484.457
			c0-0.428-0.066-0.796-0.196-1.102c-0.131-0.308-0.313-0.542-0.542-0.705c-0.229-0.164-0.489-0.248-0.77-0.248
			c-0.446,0-0.824,0.178-1.131,0.527c-0.308,0.354-0.462,0.872-0.462,1.559c0,0.642,0.152,1.146,0.46,1.504
			c0.304,0.358,0.679,0.536,1.133,0.536c0.268,0,0.519-0.079,0.748-0.232c0.231-0.158,0.415-0.392,0.552-0.704
			C286.596,485.277,286.665,484.899,286.665,484.457"/>
		<path clip-path="url(#SVGID_32_)" fill="#E5CD88" d="M289.925,480.436c-0.227,0-0.418-0.071-0.577-0.209
			c-0.162-0.14-0.242-0.333-0.242-0.586c0-0.229,0.082-0.418,0.248-0.568c0.164-0.146,0.353-0.222,0.571-0.222
			c0.212,0,0.397,0.066,0.559,0.199c0.162,0.137,0.244,0.334,0.244,0.591c0,0.25-0.079,0.444-0.236,0.585
			C290.331,480.364,290.145,480.436,289.925,480.436 M290.728,482.11v4.688c0,0.322-0.077,0.567-0.231,0.732
			c-0.156,0.168-0.351,0.25-0.588,0.25c-0.238,0-0.429-0.083-0.58-0.254c-0.146-0.173-0.223-0.416-0.223-0.729v-4.643
			c0-0.317,0.076-0.559,0.223-0.722c0.151-0.165,0.342-0.244,0.58-0.244c0.237,0,0.432,0.079,0.588,0.244
			C290.65,481.598,290.728,481.823,290.728,482.11"/>
		<path clip-path="url(#SVGID_32_)" fill="#E5CD88" d="M295.952,487.042l-1.428-2.354l-0.88,0.83v1.291
			c0,0.312-0.083,0.551-0.248,0.718c-0.16,0.171-0.354,0.254-0.566,0.254c-0.249,0-0.447-0.082-0.588-0.25
			c-0.143-0.165-0.215-0.41-0.215-0.733v-6.915c0-0.358,0.07-0.632,0.207-0.821c0.14-0.19,0.341-0.282,0.596-0.282
			c0.25,0,0.445,0.085,0.594,0.257c0.146,0.169,0.221,0.421,0.221,0.752v3.933l1.822-1.914c0.227-0.235,0.396-0.4,0.517-0.486
			c0.119-0.087,0.263-0.13,0.432-0.13c0.203,0,0.371,0.064,0.509,0.192c0.132,0.129,0.2,0.291,0.2,0.483
			c0,0.237-0.221,0.556-0.659,0.951l-0.86,0.789l1.661,2.614c0.122,0.196,0.213,0.34,0.266,0.441c0.053,0.1,0.081,0.199,0.081,0.289
			c0,0.258-0.071,0.458-0.213,0.609c-0.14,0.147-0.327,0.221-0.553,0.221c-0.198,0-0.353-0.051-0.459-0.16
			C296.281,487.514,296.133,487.319,295.952,487.042"/>
		<path clip-path="url(#SVGID_32_)" fill="#E5CD88" d="M299.475,487.781c-0.245,0-0.455-0.079-0.634-0.238
			c-0.179-0.155-0.268-0.378-0.268-0.665c0-0.241,0.086-0.449,0.255-0.622c0.173-0.175,0.381-0.262,0.631-0.262
			c0.248,0,0.46,0.087,0.64,0.258c0.174,0.172,0.263,0.384,0.263,0.626c0,0.282-0.089,0.505-0.263,0.662
			C299.919,487.702,299.711,487.781,299.475,487.781"/>
		<path clip-path="url(#SVGID_32_)" fill="#E5CD88" d="M307.536,485.775c0,0.2-0.062,0.417-0.183,0.646
			c-0.119,0.23-0.305,0.448-0.553,0.655c-0.247,0.208-0.558,0.377-0.935,0.503c-0.376,0.126-0.801,0.191-1.27,0.191
			c-1.004,0-1.786-0.294-2.349-0.876c-0.56-0.585-0.841-1.368-0.841-2.349c0-0.667,0.128-1.255,0.387-1.766
			c0.255-0.51,0.628-0.905,1.113-1.184c0.487-0.28,1.073-0.419,1.746-0.419c0.422,0,0.806,0.061,1.158,0.185
			c0.351,0.122,0.646,0.281,0.891,0.474c0.242,0.197,0.429,0.402,0.556,0.62c0.13,0.22,0.192,0.426,0.192,0.617
			c0,0.192-0.07,0.357-0.214,0.492c-0.147,0.134-0.322,0.202-0.524,0.202c-0.137,0-0.248-0.035-0.338-0.104
			c-0.09-0.07-0.191-0.181-0.3-0.339c-0.198-0.299-0.403-0.525-0.622-0.674c-0.214-0.152-0.487-0.227-0.821-0.227
			c-0.476,0-0.865,0.186-1.158,0.561c-0.292,0.372-0.439,0.888-0.439,1.534c0,0.305,0.039,0.587,0.114,0.842
			c0.073,0.255,0.182,0.473,0.325,0.652c0.145,0.18,0.315,0.316,0.517,0.409c0.202,0.096,0.426,0.141,0.664,0.141
			c0.326,0,0.604-0.074,0.836-0.225c0.234-0.151,0.439-0.38,0.616-0.689c0.1-0.182,0.205-0.323,0.318-0.427
			c0.114-0.103,0.256-0.156,0.423-0.156c0.197,0,0.362,0.077,0.491,0.227C307.47,485.444,307.536,485.606,307.536,485.775"/>
		<path clip-path="url(#SVGID_32_)" fill="#E5CD88" d="M314.53,484.487c0,0.481-0.076,0.928-0.223,1.337
			c-0.154,0.407-0.37,0.758-0.656,1.049c-0.284,0.293-0.626,0.518-1.021,0.675c-0.398,0.154-0.843,0.234-1.336,0.234
			c-0.49,0-0.934-0.08-1.325-0.239c-0.39-0.155-0.732-0.384-1.017-0.676c-0.288-0.298-0.505-0.646-0.657-1.048
			c-0.144-0.402-0.219-0.847-0.219-1.332c0-0.491,0.077-0.941,0.224-1.349c0.151-0.409,0.368-0.758,0.649-1.046
			c0.282-0.288,0.62-0.511,1.02-0.669c0.402-0.155,0.843-0.233,1.325-0.233c0.49,0,0.937,0.078,1.336,0.238
			c0.399,0.157,0.74,0.384,1.028,0.675c0.286,0.296,0.502,0.644,0.649,1.045C314.455,483.556,314.53,483.998,314.53,484.487
			 M312.902,484.487c0-0.661-0.146-1.176-0.438-1.543c-0.288-0.372-0.68-0.555-1.17-0.555c-0.317,0-0.597,0.082-0.839,0.246
			c-0.242,0.163-0.426,0.405-0.557,0.728c-0.13,0.321-0.196,0.695-0.196,1.124c0,0.424,0.063,0.792,0.193,1.108
			c0.13,0.319,0.313,0.561,0.553,0.729c0.241,0.167,0.522,0.253,0.846,0.253c0.49,0,0.882-0.185,1.17-0.558
			C312.756,485.65,312.902,485.138,312.902,484.487"/>
		<path clip-path="url(#SVGID_32_)" fill="#E5CD88" d="M320.712,484.606v2.154c0,0.341-0.075,0.594-0.23,0.767
			c-0.156,0.171-0.357,0.255-0.611,0.255c-0.245,0-0.446-0.084-0.594-0.255c-0.154-0.173-0.232-0.426-0.232-0.767v-2.582
			c0-0.408-0.014-0.727-0.04-0.953c-0.028-0.221-0.105-0.409-0.227-0.552c-0.123-0.147-0.318-0.22-0.582-0.22
			c-0.531,0-0.88,0.182-1.048,0.551c-0.167,0.36-0.254,0.883-0.254,1.566v2.189c0,0.336-0.077,0.591-0.226,0.765
			c-0.155,0.171-0.354,0.257-0.603,0.257c-0.249,0-0.448-0.086-0.604-0.257c-0.157-0.174-0.235-0.429-0.235-0.765v-4.638
			c0-0.306,0.069-0.538,0.21-0.694c0.143-0.16,0.328-0.238,0.556-0.238c0.223,0,0.407,0.077,0.558,0.222
			c0.147,0.149,0.221,0.354,0.221,0.615v0.153c0.283-0.334,0.584-0.582,0.903-0.737c0.322-0.163,0.676-0.241,1.07-0.241
			c0.407,0,0.757,0.081,1.049,0.243c0.293,0.163,0.533,0.409,0.725,0.735c0.274-0.33,0.568-0.577,0.882-0.737
			c0.313-0.161,0.658-0.241,1.038-0.241c0.441,0,0.826,0.089,1.146,0.262c0.319,0.174,0.559,0.425,0.718,0.746
			c0.138,0.296,0.206,0.757,0.206,1.387v3.164c0,0.341-0.076,0.594-0.229,0.767c-0.154,0.171-0.359,0.255-0.612,0.255
			c-0.246,0-0.446-0.086-0.604-0.257c-0.155-0.174-0.234-0.429-0.234-0.765v-2.727c0-0.349-0.015-0.627-0.043-0.836
			c-0.03-0.211-0.111-0.388-0.239-0.529c-0.133-0.143-0.332-0.215-0.596-0.215c-0.214,0-0.417,0.066-0.609,0.192
			c-0.191,0.124-0.342,0.298-0.45,0.508C320.773,483.429,320.712,483.912,320.712,484.606"/>
		<polyline clip-path="url(#SVGID_32_)" fill="#E5CD88" points="245.272,484.095 245.271,484.084 245.272,484.095 		"/>
		<path clip-path="url(#SVGID_32_)" fill="#E5CD88" d="M245.354,484.613L245.354,484.613c-0.029-0.148-0.053-0.295-0.072-0.439
			C245.3,484.32,245.325,484.468,245.354,484.613"/>
		<path clip-path="url(#SVGID_32_)" fill="#E5CD88" d="M245.89,486.117c-0.003-0.007-0.007-0.014-0.011-0.021
			C245.883,486.104,245.887,486.11,245.89,486.117"/>
		<path clip-path="url(#SVGID_32_)" fill="#E5CD88" d="M245.839,486.017c-0.014-0.027-0.027-0.056-0.041-0.083
			C245.812,485.963,245.825,485.989,245.839,486.017"/>
		<path clip-path="url(#SVGID_32_)" fill="#E5CD88" d="M245.504,485.192c0.079,0.25,0.175,0.492,0.286,0.724
			c-0.113-0.236-0.207-0.479-0.284-0.724H245.504z"/>
		<path clip-path="url(#SVGID_32_)" fill="#E5CD88" d="M251.545,477.885c0.313,0,0.545,0.024,0.81,0.069l0.075-0.477
			c0,0-0.731-0.226-1.693-0.146l-0.076-0.259c0.299-0.063,0.523-0.33,0.523-0.647c0-0.363-0.297-0.658-0.661-0.658
			c-0.363,0-0.66,0.295-0.66,0.658c0,0.317,0.224,0.584,0.523,0.647l0.083,0.288c-1.021,0.141-1.834,0.539-1.834,0.539l0.144,0.441
			c0.618-0.206,1.154-0.331,1.64-0.384C250.895,477.906,251.253,477.885,251.545,477.885"/>
		<path clip-path="url(#SVGID_32_)" fill="#E5CD88" d="M245.878,480.296l0.004-0.005c0.024-0.031,0.047-0.061,0.07-0.089
			l-0.195-0.142l-0.305-0.223c-0.017,0.024-0.497,0.466-0.876,1.28c-0.016-0.025-0.035-0.051-0.056-0.074
			c-0.114-0.124-0.272-0.188-0.474-0.184h-0.009c-0.125,0-0.211-0.042-0.267-0.093c0.056-0.07,0.089-0.16,0.089-0.258
			c0-0.23-0.187-0.418-0.418-0.418c-0.23,0-0.417,0.188-0.417,0.418c0,0.231,0.187,0.418,0.417,0.418
			c0.037,0,0.071-0.006,0.104-0.013c0.104,0.114,0.267,0.214,0.505,0.209c0.123-0.002,0.213,0.03,0.274,0.097
			c0.069,0.076,0.093,0.185,0.099,0.268c0,0.001,0,0.003-0.002,0.003c-0.272,0.743-0.194,1.669-0.194,1.669l0.661,0.025
			c0.013-0.337,0.062-0.926,0.232-1.394C245.449,480.886,245.861,480.319,245.878,480.296"/>
		<path clip-path="url(#SVGID_32_)" fill="#E5CD88" d="M257.295,478.437c-0.23,0-0.418,0.187-0.418,0.418
			c0,0.036,0.005,0.07,0.015,0.103c-0.116,0.104-0.215,0.269-0.211,0.508c0.002,0.123-0.03,0.212-0.097,0.272
			c-0.053,0.047-0.119,0.072-0.186,0.088c-0.491-0.688-1.097-1.109-1.097-1.109l-0.474,0.509c0.358,0.325,0.725,0.734,1.08,1.243
			c0.246,0.353,0.499,0.807,0.71,1.26l0.64-0.305c0,0-0.292-0.722-0.703-1.369c0.071-0.025,0.144-0.064,0.207-0.12
			c0.125-0.113,0.187-0.273,0.183-0.474c-0.001-0.13,0.042-0.218,0.093-0.276c0.07,0.055,0.161,0.09,0.258,0.09
			c0.23,0,0.419-0.188,0.419-0.419S257.525,478.437,257.295,478.437"/>
		<path clip-path="url(#SVGID_32_)" fill="#E5CD88" d="M255.634,484.188c-0.881,0.429-2.33,0.996-4.238,1.262
			c-0.749,0.104-1.474,0.143-2.142,0.143c-0.87,0-1.638-0.064-2.227-0.14c-0.673-0.085-1.199-0.188-1.52-0.261
			c0.077,0.244,0.17,0.487,0.283,0.724c0.002,0.006,0.005,0.013,0.008,0.018c0.014,0.027,0.027,0.056,0.041,0.083
			c0.013,0.027,0.027,0.055,0.041,0.08c0.004,0.007,0.007,0.014,0.01,0.021c0.189,0.356,0.417,0.684,0.676,0.968
			c0.9,0.984,1.817,1.141,1.825,1.142l0.014,0.002l0.014,0.005c0.008,0.003,0.821,0.265,2.057,0.265
			c1.216,0,2.409-0.245,3.547-0.729c0.842-0.432,1.639-1.086,2.033-1.669c0.306-0.452,0.525-0.933,0.656-1.433
			c0.069-0.268,0.125-0.693,0.092-1.142C256.557,483.692,256.164,483.93,255.634,484.188"/>
		<path clip-path="url(#SVGID_32_)" fill="#E5CD88" d="M246.16,480.505c-0.025,0.037-0.407,0.578-0.709,1.408
			c-0.226,0.622-0.216,1.526-0.216,1.537v0.002c0,0.212,0.012,0.423,0.035,0.632c0,0.005,0,0.008,0.002,0.011
			c0.002,0.027,0.007,0.053,0.009,0.079c0.019,0.145,0.043,0.291,0.074,0.439c0.438,0.11,3.049,0.72,5.968,0.313
			c1.829-0.255,3.218-0.795,4.062-1.204c0.701-0.34,1.151-0.647,1.325-0.774c-0.173-0.643-0.651-1.65-1.089-2.278
			c-1.254-1.791-2.604-2.251-3.299-2.365c-0.265-0.043-0.478-0.068-0.777-0.068c-0.279,0-0.626,0.023-1.09,0.071
			c-0.464,0.049-0.982,0.171-1.582,0.373c-0.842,0.281-1.605,0.725-2.204,1.279l-0.021,0.02
			C246.559,480.061,246.374,480.232,246.16,480.505 M253.829,480.088c0.601,0,1.09,0.488,1.09,1.09c0,0.601-0.489,1.09-1.09,1.09
			s-1.089-0.489-1.089-1.09C252.74,480.576,253.229,480.088,253.829,480.088 M248.678,480.045c0.973,0,1.761,0.788,1.761,1.761
			c0,0.972-0.788,1.759-1.761,1.759c-0.972,0-1.76-0.787-1.76-1.759C246.918,480.833,247.706,480.045,248.678,480.045"/>
	</g>
</g>
</svg>
