<?xml version="1.0" encoding="utf-8"?>
<!-- Generator: Adobe Illustrator 15.1.0, SVG Export Plug-In  -->
<!DOCTYPE svg PUBLIC "-//W3C//DTD SVG 1.1//EN" "http://www.w3.org/Graphics/SVG/1.1/DTD/svg11.dtd" [
	<!ENTITY ns_flows "http://ns.adobe.com/Flows/1.0/">
]>
<svg version="1.1"
	 xmlns="http://www.w3.org/2000/svg" xmlns:xlink="http://www.w3.org/1999/xlink" xmlns:a="http://ns.adobe.com/AdobeSVGViewerExtensions/3.0/"
	 x="0px" y="0px" width="512px" height="512px" viewBox="-111 0 512 512" enable-background="new -111 0 512 512"
	 xml:space="preserve">
<defs>
</defs>
<path fill="#00AFEB" d="M252.544,0H37.589C16.871,0,0,16.871,0,37.589v436.813C0,495.13,16.871,512,37.589,512h214.946
	c20.729,0,37.598-16.87,37.598-37.589V37.589C290.133,16.871,273.264,0,252.544,0z M17.067,68.267h256v324.267h-256V68.267
	L17.067,68.267z M37.589,17.067h214.946c11.324,0,20.531,9.207,20.531,20.522V51.2h-256V37.589
	C17.067,26.274,26.274,17.067,37.589,17.067z M252.544,494.934H37.589c-11.315,0-20.522-9.208-20.522-20.521V409.6h256v64.813
	C273.066,485.726,263.859,494.934,252.544,494.934z"/>
<path fill="#00AFEB" d="M145.067,418.134c-18.825,0-34.133,15.311-34.133,34.133c0,18.824,15.309,34.136,34.133,34.136
	s34.133-15.312,34.133-34.136C179.2,433.443,163.891,418.134,145.067,418.134z M145.067,469.333
	c-9.412,0-17.067-7.654-17.067-17.066c0-9.41,7.655-17.064,17.067-17.064c9.412,0,17.066,7.654,17.066,17.064
	C162.133,461.679,154.479,469.333,145.067,469.333z"/>
<path fill="#00AFEB" d="M110.934,42.667h34.133c4.719,0,8.533-3.814,8.533-8.533c0-4.719-3.813-8.533-8.533-8.533h-34.133
	c-4.719,0-8.533,3.814-8.533,8.533C102.401,38.853,106.215,42.667,110.934,42.667z"/>
<path fill="#00AFEB" d="M170.667,42.667h8.533c4.719,0,8.532-3.814,8.532-8.533c0-4.719-3.814-8.534-8.532-8.534h-8.533
	c-4.719,0-8.533,3.814-8.533,8.533C162.134,38.852,165.948,42.667,170.667,42.667z"/>
</svg>
