<?xml version="1.0" encoding="utf-8"?>
<!-- Generator: Adobe Illustrator 15.1.0, SVG Export Plug-In  -->
<!DOCTYPE svg PUBLIC "-//W3C//DTD SVG 1.1//EN" "http://www.w3.org/Graphics/SVG/1.1/DTD/svg11.dtd" [
	<!ENTITY ns_flows "http://ns.adobe.com/Flows/1.0/">
]>
<svg version="1.1"
	 xmlns="http://www.w3.org/2000/svg" xmlns:xlink="http://www.w3.org/1999/xlink" xmlns:a="http://ns.adobe.com/AdobeSVGViewerExtensions/3.0/"
	 x="0px" y="0px" width="30px" height="30px" viewBox="0 -4 30 30" enable-background="new 0 -4 30 30" xml:space="preserve">
<defs>
</defs>
<path fill="#F45B69" d="M12.215,7.733c0.595,0,1.171-0.037,1.713-0.107V1.663c-0.542-0.072-1.119-0.11-1.713-0.11
	c-3.395,0-6.147,1.248-6.147,2.789v0.604C6.067,6.487,8.82,7.733,12.215,7.733z"/>
<path fill="#F45B69" d="M12.215,10.848c0.595,0,1.171-0.039,1.713-0.111V8.99c-0.542,0.071-1.117,0.11-1.713,0.11
	c-2.964,0-5.437-0.951-6.017-2.218c-0.085,0.186-0.13,0.375-0.13,0.572v0.604C6.067,9.6,8.82,10.848,12.215,10.848z"/>
<path fill="#F45B69" d="M21.08,0c-3.396,0-6.148,1.249-6.148,2.788v0.604c0,1.541,2.751,2.789,6.148,2.789s6.146-1.248,6.146-2.789
	V2.788C27.227,1.248,24.477,0,21.08,0z"/>
<path fill="#F45B69" d="M21.08,7.547c-2.965,0-5.438-0.952-6.018-2.217c-0.086,0.185-0.131,0.375-0.131,0.571v0.605
	c0,1.54,2.752,2.789,6.147,2.789s6.146-1.249,6.146-2.789V5.901c0-0.196-0.043-0.386-0.127-0.571
	C26.518,6.596,24.043,7.547,21.08,7.547z"/>
<path fill="#F45B69" d="M21.08,10.662c-2.965,0-5.438-0.952-6.018-2.219c-0.086,0.186-0.131,0.375-0.131,0.572v0.604
	c0,1.541,2.752,2.79,6.147,2.79s6.146-1.249,6.146-2.79V9.015c0-0.196-0.043-0.386-0.127-0.572
	C26.518,9.71,24.043,10.662,21.08,10.662z"/>
<path fill="#F45B69" d="M27.363,15.355c-1.627,0.897-3.864,1.729-6.092,2.078c-1.985,0.312-5.72-0.438-5.72-1.324
	c0-0.336,3.272,0.826,5.255,0.298c1.519-0.402,1.303-1.824,0.479-2.013c-0.822-0.188-5.633-1.951-7.688-2.012
	c-0.969-0.027-3.358,0.338-4.516,0.525c-0.396,0.064-0.644,0.058-0.669,0.438c-0.115,1.762-0.342,5.365-0.465,7.247
	C7.944,20.633,8,21.167,8.441,20.792c0.483-0.412,1.161-0.867,1.787-0.728c0.983,0.226,9.489,1.779,10.663,1.511
	c1.678-0.394,6.43-3.207,7.34-4.082C29.645,16.136,28.545,14.704,27.363,15.355z"/>
<path fill="#F45B69" d="M6.066,12.841l-4.457-0.22c-0.344-0.018-0.695,0.242-0.78,0.574l-0.81,7.356
	c-0.085,0.332,0.125,0.617,0.471,0.63h4.938c0.344,0.014,0.646-0.257,0.673-0.603l0.542-7.088
	C6.669,13.154,6.409,12.857,6.066,12.841z M3.443,20.208c-0.681,0-1.232-0.549-1.232-1.229c0-0.68,0.551-1.232,1.232-1.232
	c0.68,0,1.231,0.554,1.231,1.232C4.674,19.659,4.123,20.208,3.443,20.208z"/>
</svg>
