<?xml version="1.0" encoding="utf-8"?>
<!-- Generator: Adobe Illustrator 15.1.0, SVG Export Plug-In  -->
<!DOCTYPE svg PUBLIC "-//W3C//DTD SVG 1.1//EN" "http://www.w3.org/Graphics/SVG/1.1/DTD/svg11.dtd" [
	<!ENTITY ns_flows "http://ns.adobe.com/Flows/1.0/">
]>
<svg version="1.1"
	 xmlns="http://www.w3.org/2000/svg" xmlns:xlink="http://www.w3.org/1999/xlink" xmlns:a="http://ns.adobe.com/AdobeSVGViewerExtensions/3.0/"
	 x="0px" y="0px" width="30px" height="30px" viewBox="-3 -0.463 30 30" enable-background="new -3 -0.463 30 30"
	 xml:space="preserve">
<defs>
</defs>
<path fill="#00AFEB" d="M14.141,5.225c-0.748,0-1.427,0.414-1.769,1.082L12.134,6.77h-1.098l-0.238-0.463
	c-0.342-0.668-1.02-1.082-1.769-1.082c-1.096,0-1.987,0.893-1.987,1.987c0,1.706,1.308,3.198,2.404,4.149
	c0.834,0.725,1.668,1.248,2.138,1.521c1.159-0.674,4.543-2.883,4.543-5.671C16.127,6.116,15.236,5.225,14.141,5.225z"/>
<path fill="#00AFEB" d="M0,0v29.074h23.17V0H0z M12.948,24.93H5.109v-1.705h7.839V24.93z M12.948,21.521H5.109v-1.703h7.839V21.521z
	 M12.948,18.115H5.109v-1.704h7.839V18.115z M11.969,14.616l-0.384,0.192l-0.384-0.192c-0.239-0.12-5.863-3.007-5.863-7.404
	c0-2.036,1.656-3.689,3.69-3.689c0.973,0,1.881,0.375,2.557,1.023c0.675-0.648,1.584-1.023,2.556-1.023
	c2.034,0,3.691,1.653,3.691,3.689C17.832,11.609,12.208,14.496,11.969,14.616z M18.059,24.93h-1.703v-1.705h1.703V24.93z
	 M18.059,21.521h-1.703v-1.703h1.703V21.521z M18.059,18.115h-1.703v-1.704h1.703V18.115z"/>
</svg>
